<?xml version="1.0" encoding="UTF-8" standalone="no"?>
<!-- Created with Inkscape (http://www.inkscape.org/) -->

<svg
   xmlns:dc="http://purl.org/dc/elements/1.1/"
   xmlns:cc="http://creativecommons.org/ns#"
   xmlns:rdf="http://www.w3.org/1999/02/22-rdf-syntax-ns#"
   xmlns:svg="http://www.w3.org/2000/svg"
   xmlns="http://www.w3.org/2000/svg"
   xmlns:sodipodi="http://sodipodi.sourceforge.net/DTD/sodipodi-0.dtd"
   xmlns:inkscape="http://www.inkscape.org/namespaces/inkscape"
   width="225mm"
   height="125mm"
   viewBox="0 0 225 125"
   version="1.1"
   id="svg8"
   inkscape:version="0.92.3 (2405546, 2018-03-11)"
   sodipodi:docname="fig12.svg">
  <defs
     id="defs2">
    <inkscape:path-effect
       effect="bspline"
       id="path-effect943"
       is_visible="true"
       weight="33.333333"
       steps="2"
       helper_size="0"
       apply_no_weight="true"
       apply_with_weight="true"
       only_selected="false" />
    <inkscape:path-effect
       effect="bspline"
       id="path-effect843"
       is_visible="true"
       weight="33.333333"
       steps="2"
       helper_size="0"
       apply_no_weight="true"
       apply_with_weight="true"
       only_selected="false" />
    <inkscape:path-effect
       effect="bspline"
       id="path-effect839"
       is_visible="true"
       weight="33.333333"
       steps="2"
       helper_size="0"
       apply_no_weight="true"
       apply_with_weight="true"
       only_selected="false" />
    <inkscape:path-effect
       effect="bspline"
       id="path-effect843-0"
       is_visible="true"
       weight="33.333333"
       steps="2"
       helper_size="0"
       apply_no_weight="true"
       apply_with_weight="true"
       only_selected="false" />
    <inkscape:path-effect
       effect="bspline"
       id="path-effect839-0"
       is_visible="true"
       weight="33.333333"
       steps="2"
       helper_size="0"
       apply_no_weight="true"
       apply_with_weight="true"
       only_selected="false" />
    <inkscape:path-effect
       effect="bspline"
       id="path-effect943-7"
       is_visible="true"
       weight="33.333333"
       steps="2"
       helper_size="0"
       apply_no_weight="true"
       apply_with_weight="true"
       only_selected="false" />
  </defs>
  <sodipodi:namedview
     id="base"
     pagecolor="#ffffff"
     bordercolor="#666666"
     borderopacity="1.0"
     inkscape:pageopacity="0.0"
     inkscape:pageshadow="2"
     inkscape:zoom="1.2073455"
     inkscape:cx="428.59315"
     inkscape:cy="233.63282"
     inkscape:document-units="mm"
     inkscape:current-layer="layer1"
     showgrid="false"
     units="mm"
     inkscape:window-width="1920"
     inkscape:window-height="1013"
     inkscape:window-x="-9"
     inkscape:window-y="-9"
     inkscape:window-maximized="1"
     showguides="true"
     inkscape:guide-bbox="true" />
  <metadata
     id="metadata5">
    <rdf:RDF>
      <cc:Work
         rdf:about="">
        <dc:format>image/svg+xml</dc:format>
        <dc:type
           rdf:resource="http://purl.org/dc/dcmitype/StillImage" />
        <dc:title></dc:title>
      </cc:Work>
    </rdf:RDF>
  </metadata>
  <g
     inkscape:label="Layer 1"
     inkscape:groupmode="layer"
     id="layer1"
     transform="translate(0,-172)">
    <circle
       style="opacity:1;vector-effect:none;fill:none;fill-opacity:1;stroke:#000000;stroke-width:0.5;stroke-linecap:butt;stroke-linejoin:miter;stroke-miterlimit:4;stroke-dasharray:none;stroke-dashoffset:0;stroke-opacity:1"
       id="path823"
       cx="54.548576"
       cy="229.18602"
       r="52.842617" />
    <g
       aria-label="(a) 室温"
       style="font-style:normal;font-weight:normal;font-size:7.05555534px;line-height:1.25;font-family:sans-serif;letter-spacing:0px;word-spacing:0px;writing-mode:lr-tb;direction:ltr;fill:#000000;fill-opacity:1;stroke:none;stroke-width:0.26458332"
       id="text831"
       transform="translate(-12.996224,22.18959)">
      <path
         d="m 54.343998,272.26926 h -0.788927 q -0.609782,-0.69935 -0.947401,-1.52617 -0.33762,-0.82683 -0.33762,-1.8638 0,-1.03697 0.33762,-1.8638 0.337619,-0.82682 0.947401,-1.52617 h 0.788927 v 0.0344 q -0.279053,0.25149 -0.53399,0.58222 -0.251492,0.32728 -0.468533,0.76481 -0.206706,0.42375 -0.337619,0.93362 -0.127469,0.50987 -0.127469,1.07487 0,0.58911 0.124024,1.07831 0.127468,0.48921 0.341064,0.93018 0.206706,0.42375 0.471978,0.76481 0.265273,0.34451 0.530545,0.58222 z"
         style="stroke-width:0.26458332"
         id="path861"
         inkscape:connector-curvature="0" />
      <path
         d="M 58.485002,270.84988 H 57.84077 v -0.40996 q -0.08613,0.0586 -0.234267,0.16536 -0.144694,0.10336 -0.282498,0.16537 -0.161919,0.0792 -0.37207,0.13091 -0.210151,0.0551 -0.492649,0.0551 -0.520209,0 -0.881944,-0.34451 -0.361735,-0.34451 -0.361735,-0.8785 0,-0.43752 0.186035,-0.70624 0.18948,-0.27216 0.537435,-0.42719 0.3514,-0.15503 0.844048,-0.21015 0.492649,-0.0551 1.057645,-0.0827 v -0.0999 q 0,-0.22049 -0.07924,-0.36518 -0.07579,-0.1447 -0.220486,-0.22738 -0.137804,-0.0792 -0.330729,-0.1068 -0.192925,-0.0276 -0.403076,-0.0276 -0.254937,0 -0.568441,0.0689 -0.313503,0.0655 -0.647678,0.19293 h -0.03445 v -0.65802 q 0.189481,-0.0517 0.54777,-0.11368 0.35829,-0.062 0.706245,-0.062 0.406521,0 0.706245,0.0689 0.303168,0.0654 0.523654,0.22737 0.217041,0.15848 0.330729,0.40997 0.113688,0.25149 0.113688,0.62356 z m -0.644232,-0.9474 v -1.07142 q -0.296279,0.0172 -0.699355,0.0517 -0.399631,0.0345 -0.633897,0.0999 -0.279053,0.0792 -0.451308,0.24805 -0.172255,0.16536 -0.172255,0.4582 0,0.33073 0.199816,0.49954 0.199815,0.16536 0.609782,0.16536 0.341064,0 0.623562,-0.13091 0.282498,-0.13436 0.523655,-0.3204 z"
         style="stroke-width:0.26458332"
         id="path863"
         inkscape:connector-curvature="0" />
      <path
         d="m 61.682051,268.87929 q 0,1.03697 -0.337619,1.8638 -0.33762,0.82682 -0.947402,1.52617 h -0.788926 v -0.0344 q 0.265272,-0.23771 0.530544,-0.58222 0.268718,-0.34106 0.471978,-0.76481 0.213596,-0.44097 0.33762,-0.93018 0.127468,-0.4892 0.127468,-1.07831 0,-0.565 -0.127468,-1.07487 -0.127469,-0.50987 -0.33762,-0.93362 -0.217041,-0.43753 -0.471978,-0.76481 -0.251492,-0.33073 -0.530544,-0.58222 v -0.0344 h 0.788926 q 0.609782,0.69935 0.947402,1.52617 0.337619,0.82683 0.337619,1.8638 z"
         style="stroke-width:0.26458332"
         id="path865"
         inkscape:connector-curvature="0" />
      <path
         d="m 64.937667,271.0118 h 3.107476 v -0.80615 h -2.473579 v -0.47542 h 2.473579 v -0.79582 q -0.726916,0.031 -1.405599,0.0655 -0.34451,0.0207 -0.689019,0.0896 l -0.234267,-0.57189 q 0.261827,-0.10335 0.558106,-0.29627 0.485758,-0.33418 0.892279,-0.67524 h -1.250569 v -0.47543 h 4.864474 v 0.47543 h -2.804307 q -0.551216,0.44786 -1.267795,0.95084 1.495171,-0.0517 2.983452,-0.11024 -0.220486,-0.19981 -0.461643,-0.40652 l 0.378961,-0.34451 q 0.868164,0.68213 1.508952,1.28158 l -0.447863,0.4203 q -0.217041,-0.23082 -0.465088,-0.47543 -0.826822,0.0207 -1.601969,0.0517 v 0.81649 h 2.480469 v 0.47542 h -2.480469 v 0.80615 h 3.114366 v 0.47543 h -6.779947 z m 0.248046,-5.1263 h 3.017904 q -0.192925,-0.37207 -0.434082,-0.73725 l 0.489204,-0.23427 q 0.254937,0.37897 0.496093,0.80616 l -0.341064,0.16536 h 3.06958 v 1.24713 h -0.551215 v -0.77171 h -5.195204 v 0.77171 h -0.551216 z"
         style="stroke-width:0.26458332"
         id="path867"
         inkscape:connector-curvature="0" />
      <path
         d="m 73.316139,270.97046 h 0.675238 v -2.2462 h 4.306369 v 2.2462 h 0.509875 v 0.4961 h -5.491482 z m 0.937065,-5.63617 h 3.775825 v 3.00412 h -0.509874 v -0.30317 h -2.756076 v 0.31006 h -0.509875 z m 0.509875,2.23242 h 2.756076 v -0.65457 h -2.756076 z m 2.756076,-1.76389 h -2.756076 v 0.65457 h 2.756076 z m -4.706,3.05235 q 0.282497,0.11025 0.564995,0.20671 -0.289388,1.19889 -0.633897,2.65961 l -0.606337,-0.17914 q 0.385851,-1.22646 0.675239,-2.68718 z m 4.960937,0.3514 h -0.751031 v 1.76389 h 0.751031 z m -2.005046,1.76389 h 0.744141 v -1.76389 h -0.744141 z m -1.254014,0 h 0.74414 v -1.76389 h -0.74414 z M 72.2895,266.85702 q 0.516764,0.36518 1.212674,0.93706 -0.254937,0.28939 -0.399631,0.44787 -0.778592,-0.69591 -1.157552,-0.9853 z m 0.261827,-1.78456 q 0.523655,0.41341 1.185113,1.00597 -0.234266,0.24115 -0.406521,0.42719 -0.744141,-0.72347 -1.129991,-1.0542 z"
         style="stroke-width:0.26458332"
         id="path869"
         inkscape:connector-curvature="0" />
    </g>
    <g
       aria-label="(b) 液氮温度(77K)"
       style="font-style:normal;font-weight:normal;font-size:7.05555534px;line-height:1.25;font-family:sans-serif;letter-spacing:0px;word-spacing:0px;writing-mode:lr-tb;direction:ltr;fill:#000000;fill-opacity:1;stroke:none;stroke-width:0.26458332"
       id="text835"
       transform="translate(-12.996224,22.18959)">
      <path
         d="m 158.50865,272.26926 h -0.78893 q -0.60978,-0.69935 -0.9474,-1.52617 -0.33762,-0.82683 -0.33762,-1.8638 0,-1.03697 0.33762,-1.8638 0.33762,-0.82682 0.9474,-1.52617 h 0.78893 v 0.0344 q -0.27905,0.25149 -0.53399,0.58222 -0.25149,0.32728 -0.46853,0.76481 -0.20671,0.42375 -0.33762,0.93362 -0.12747,0.50987 -0.12747,1.07487 0,0.58911 0.12402,1.07831 0.12747,0.48921 0.34107,0.93018 0.2067,0.42375 0.47198,0.76481 0.26527,0.34451 0.53054,0.58222 z"
         style="stroke-width:0.26458332"
         id="path872"
         inkscape:connector-curvature="0" />
      <path
         d="m 163.04584,268.89651 q 0,0.48232 -0.1378,0.86817 -0.13436,0.38585 -0.36518,0.64768 -0.2446,0.27216 -0.53744,0.40996 -0.29283,0.13436 -0.64423,0.13436 -0.32728,0 -0.57189,-0.0792 -0.2446,-0.0758 -0.48231,-0.2067 l -0.0413,0.17914 h -0.60634 v -5.36056 h 0.64768 v 1.91547 q 0.27216,-0.22393 0.57878,-0.36518 0.30661,-0.1447 0.68902,-0.1447 0.68213,0 1.07487,0.52366 0.39618,0.52365 0.39618,1.47794 z m -0.66835,0.0172 q 0,-0.68902 -0.22737,-1.04386 -0.22738,-0.35829 -0.73381,-0.35829 -0.2825,0 -0.57188,0.12402 -0.28939,0.12058 -0.53744,0.3135 v 2.20486 q 0.27561,0.12403 0.47198,0.17226 0.19981,0.0482 0.45131,0.0482 0.53743,0 0.8406,-0.3514 0.30661,-0.35484 0.30661,-1.10932 z"
         style="stroke-width:0.26458332"
         id="path874"
         inkscape:connector-curvature="0" />
      <path
         d="m 165.99829,268.87929 q 0,1.03697 -0.33762,1.8638 -0.33762,0.82682 -0.9474,1.52617 h -0.78893 v -0.0344 q 0.26527,-0.23771 0.53055,-0.58222 0.26871,-0.34106 0.47197,-0.76481 0.2136,-0.44097 0.33762,-0.93018 0.12747,-0.4892 0.12747,-1.07831 0,-0.565 -0.12747,-1.07487 -0.12746,-0.50987 -0.33762,-0.93362 -0.21704,-0.43753 -0.47197,-0.76481 -0.2515,-0.33073 -0.53055,-0.58222 v -0.0344 h 0.78893 q 0.60978,0.69935 0.9474,1.52617 0.33762,0.82683 0.33762,1.8638 z"
         style="stroke-width:0.26458332"
         id="path876"
         inkscape:connector-curvature="0" />
      <path
         d="m 172.14089,268.82072 q 0.90951,-1.21267 1.24024,-2.39778 l 0.50298,0.11024 q -0.11024,0.36518 -0.25493,0.71658 h 1.9637 v 0.46164 q -0.3514,1.67432 -1.16444,2.62516 0.61322,0.55122 1.61919,0.90951 -0.0896,0.11024 -0.3514,0.50298 -0.99908,-0.44097 -1.63297,-1.03352 -0.64079,0.59255 -1.59853,1.10243 -0.17225,-0.24805 -0.35829,-0.46165 0.95774,-0.48231 1.58475,-1.0542 -0.50988,-0.63389 -0.81994,-1.62608 -0.22048,0.33073 -0.47542,0.66146 -0.12402,-0.28939 -0.25494,-0.51677 z m -1.50895,0.10336 q 0.95085,-1.21957 1.37804,-2.5287 l 0.49609,0.11713 q -0.22737,0.6339 -0.50298,1.20578 v 4.079 H 171.507 v -3.19705 q -0.30317,0.47542 -0.64768,0.88883 -0.11713,-0.35829 -0.22738,-0.56499 z m 0.51677,-3.05925 h 2.29443 q -0.2136,-0.40652 -0.37207,-0.68213 l 0.4892,-0.21359 q 0.16537,0.2756 0.4203,0.75103 l -0.33072,0.14469 h 2.33577 v 0.46164 h -4.83691 z m 2.06016,2.25998 q 0.33073,1.15067 0.84061,1.81212 0.73725,-0.85438 0.98529,-2.23242 h -1.6123 q -0.10335,0.20671 -0.2136,0.4203 z m -3.78271,3.42443 q 0.40652,-1.24024 0.70969,-2.66651 0.22737,0.10336 0.52365,0.2136 -0.31695,1.25402 -0.66146,2.63894 z m -0.22738,-4.25125 0.3514,-0.39274 q 0.64079,0.43408 1.19201,0.88883 -0.25494,0.2825 -0.40653,0.44098 -0.627,-0.55811 -1.13688,-0.93707 z m 0.26872,-1.79834 0.35829,-0.36518 q 0.45475,0.34451 1.18511,0.97152 -0.23426,0.22737 -0.41341,0.40652 -0.70969,-0.66835 -1.12999,-1.01286 z m 4.11344,2.69407 0.42031,-0.19982 q 0.22048,0.37207 0.46853,0.84749 l -0.42719,0.22049 q -0.19293,-0.39963 -0.46165,-0.86816 z"
         style="stroke-width:0.26458332"
         id="path878"
         inkscape:connector-curvature="0" />
      <path
         d="m 182.55197,270.89467 q 0.0689,-0.36518 0.11024,-1.01286 l 0.48921,0.19293 q -0.0689,0.69591 -0.17226,1.10932 -0.14469,0.52365 -0.48231,0.53743 -0.39963,0 -0.67524,-0.48231 -0.4203,-0.76481 -0.37896,-3.83784 h -4.38216 v -0.39963 h 4.89203 q -0.0896,3.48644 0.3514,3.99631 0.17226,0.17915 0.24805,-0.10335 z m -4.9885,-5.93934 0.50299,0.13091 q -0.0827,0.19292 -0.16537,0.37896 h 4.87826 v 0.39963 h -5.07118 q -0.46854,0.90262 -1.08176,1.65365 -0.16537,-0.2136 -0.3514,-0.41341 0.89572,-1.04042 1.28846,-2.14974 z m 1.66743,4.37527 q 0,0.64078 -0.23427,1.08865 1.43316,0.4892 2.33578,0.86816 l -0.28939,0.43408 q -1.11621,-0.4892 -2.32199,-0.9095 -0.61323,0.62701 -2.1084,0.93017 -0.13781,-0.22048 -0.33762,-0.45475 1.37115,-0.2067 1.97748,-0.73036 0.48921,-0.42719 0.47543,-1.22645 z m -0.0138,-1.74322 q 0.007,0.55121 -0.17915,0.91639 1.01975,0.29628 2.13596,0.66146 l 0.12403,0.0413 -0.28939,0.41341 q -0.92329,-0.33761 -2.25309,-0.75103 -0.565,0.47543 -2.03261,0.78549 -0.17225,-0.26872 -0.34451,-0.44787 1.45383,-0.26871 1.8948,-0.59255 0.45476,-0.28939 0.44097,-1.02664 z m -1.63298,-1.35048 h 4.57509 v 0.38585 h -4.57509 z m 2.12218,4.05832 q 0.57878,-0.32384 0.99908,-0.62011 l 0.37896,0.32384 q -0.55121,0.31694 -1.06109,0.62011 z m 0,-1.98437 q 0.4961,-0.25494 0.99219,-0.57189 l 0.38585,0.30317 q -0.46853,0.2825 -1.0542,0.57189 z m -2.93522,1.6881 0.36518,-0.28939 q 0.34451,0.22048 0.90262,0.627 l -0.39274,0.30317 q -0.54433,-0.43408 -0.87506,-0.64078 z m 0.007,-1.96371 0.33073,-0.29628 q 0.55122,0.32384 0.89573,0.57878 l -0.35829,0.30317 q -0.35829,-0.25494 -0.86817,-0.58567 z"
         style="stroke-width:0.26458332"
         id="path880"
         inkscape:connector-curvature="0" />
      <path
         d="m 184.68793,270.97046 h 0.67524 v -2.2462 h 4.30637 v 2.2462 h 0.50987 v 0.4961 h -5.49148 z m 0.93707,-5.63617 h 3.77582 v 3.00412 h -0.50987 v -0.30317 h -2.75608 v 0.31006 H 185.625 Z m 0.50987,2.23242 h 2.75608 v -0.65457 h -2.75608 z m 2.75608,-1.76389 h -2.75608 v 0.65457 h 2.75608 z m -4.706,3.05235 q 0.2825,0.11025 0.56499,0.20671 -0.28938,1.19889 -0.63389,2.65961 l -0.60634,-0.17914 q 0.38585,-1.22646 0.67524,-2.68718 z m 4.96094,0.3514 h -0.75104 v 1.76389 h 0.75104 z m -2.00505,1.76389 h 0.74414 v -1.76389 h -0.74414 z m -1.25401,0 h 0.74414 v -1.76389 h -0.74414 z m -2.22554,-4.11344 q 0.51677,0.36518 1.21268,0.93706 -0.25494,0.28939 -0.39963,0.44787 -0.7786,-0.69591 -1.15756,-0.9853 z m 0.26183,-1.78456 q 0.52366,0.41341 1.18511,1.00597 -0.23426,0.24115 -0.40652,0.42719 -0.74414,-0.72347 -1.12999,-1.0542 z"
         style="stroke-width:0.26458332"
         id="path882"
         inkscape:connector-curvature="0" />
      <path
         d="m 191.98464,269.50974 v -0.45475 h 4.32015 v 0.44786 q -0.62356,0.6718 -1.45727,1.16789 0.99563,0.39963 2.33233,0.52021 l -0.26872,0.53743 q -1.53651,-0.21359 -2.61827,-0.75792 -1.15067,0.56155 -2.63895,0.83372 -0.11024,-0.22049 -0.28249,-0.4961 1.36425,-0.21359 2.39434,-0.64079 -0.73725,-0.47886 -1.21268,-1.15755 z m -0.2067,-2.56315 h 1.02664 v -0.57878 h 0.52365 v 0.57878 h 1.94992 v -0.58567 h 0.52366 v 0.58567 h 1.25401 v 0.45475 h -1.25401 v 1.32292 h -0.52366 v -0.24116 h -1.94992 v 0.24805 h -0.52365 v -1.32981 h -1.02664 z m 1.83279,-1.79834 0.50298,-0.24116 q 0.23427,0.36863 0.47198,0.83372 h 2.53903 v 0.48231 h -5.49837 v 2.07395 q 0,2.35644 -0.91639,3.514 -0.17226,-0.22738 -0.39274,-0.46854 0.75792,-0.93017 0.7717,-3.07991 v -2.52181 h 2.85943 q -0.15848,-0.30317 -0.33762,-0.59256 z m -0.2825,2.89388 h 1.94992 v -0.64079 h -1.94992 z m 2.25998,1.46761 h -2.4598 q 0.48921,0.53744 1.17823,0.90951 0.74758,-0.38585 1.28157,-0.90951 z"
         style="stroke-width:0.26458332"
         id="path884"
         inkscape:connector-curvature="0" />
      <path
         d="m 199.01953,272.06256 q -1.161,-1.32292 -1.161,-3.24873 0,-1.92581 1.161,-3.3004 h 0.596 q -1.16444,1.42972 -1.16444,3.29351 0,1.86035 1.15755,3.25562 z"
         style="stroke-width:0.26458332"
         id="path886"
         inkscape:connector-curvature="0" />
      <path
         d="m 203.46026,265.93029 q -0.84061,1.46761 -1.32292,2.71818 -0.47887,1.24712 -0.59256,2.20141 h -0.7028 q 0.12747,-0.94051 0.6029,-2.14629 0.47542,-1.20578 1.27124,-2.59416 h -2.64584 v -0.596 h 3.38998 z"
         style="stroke-width:0.26458332"
         id="path888"
         inkscape:connector-curvature="0" />
      <path
         d="m 207.59437,265.93029 q -0.8406,1.46761 -1.32292,2.71818 -0.47886,1.24712 -0.59255,2.20141 h -0.7028 q 0.12747,-0.94051 0.60289,-2.14629 0.47542,-1.20578 1.27124,-2.59416 h -2.64583 v -0.596 h 3.38997 z"
         style="stroke-width:0.26458332"
         id="path890"
         inkscape:connector-curvature="0" />
      <path
         d="m 212.7689,270.84988 h -0.88539 l -2.02916,-2.28409 -0.50987,0.54432 v 1.73977 h -0.68213 v -5.12974 h 0.68213 v 2.67684 l 2.4908,-2.67684 h 0.82682 l -2.29098,2.41156 z"
         style="stroke-width:0.26458332"
         id="path892"
         inkscape:connector-curvature="0" />
      <path
         d="m 212.93427,272.06256 q 1.161,-1.39182 1.161,-3.25562 0,-1.86724 -1.16789,-3.29351 h 0.59944 q 1.16445,1.36426 1.16445,3.3004 0,1.93615 -1.16445,3.24873 z"
         style="stroke-width:0.26458332"
         id="path894"
         inkscape:connector-curvature="0" />
    </g>
    <path
       style="fill:none;stroke:#000000;stroke-width:0.5;stroke-linecap:butt;stroke-linejoin:miter;stroke-miterlimit:4;stroke-dasharray:none;stroke-opacity:1"
       d="m 18.38392,229.18968 c 2.656056,-1.57928 5.375615,-3.19631 7.300413,-5.12119 1.924799,-1.92487 3.087159,-4.17694 4.902964,-7.77224 1.815805,-3.59529 4.285884,-8.53545 6.574012,-11.94941 2.288128,-3.41395 4.3948,-5.30269 10.314251,-6.3195 5.919451,-1.01682 15.654392,-1.16212 21.610712,-0.7989 5.95632,0.36321 8.13556,1.23491 10.314596,2.10652"
       id="path837"
       inkscape:connector-curvature="0"
       inkscape:path-effect="#path-effect839"
       inkscape:original-d="m 18.38392,229.18968 c 2.687918,-1.52569 5.375568,-3.19639 8.062955,-4.79419 1.162356,-2.25182 2.324719,-4.50389 3.486681,-6.75544 2.469653,-4.93904 4.939734,-9.8792 7.409201,-14.81841 2.106668,-1.88876 4.213342,-3.7775 6.319613,-5.66586 9.732637,-0.14552 19.467578,-0.29082 29.200969,-0.43583 2.179381,0.87138 4.358619,1.74308 6.537529,2.61501" />
    <path
       style="fill:none;stroke:#000000;stroke-width:0.5;stroke-linecap:butt;stroke-linejoin:miter;stroke-miterlimit:4;stroke-dasharray:none;stroke-opacity:1"
       d="m 18.601839,249.89186 c 1.497366,-1.19789 2.905861,-2.32469 3.88633,-3.99521 0.98047,-1.67052 1.489045,-3.85013 2.070144,-5.70233 0.581099,-1.85219 1.234945,-3.37783 1.925034,-4.32203 0.690089,-0.94419 1.416631,-1.30746 2.070108,-1.23485 0.653477,0.0726 1.234842,0.58131 1.598016,1.5618 0.363174,0.98048 0.508456,2.43331 0.753636,4.24039 0.245179,1.80709 0.59016,3.96776 1.116789,5.61129 0.526629,1.64353 1.234799,2.76934 1.802498,3.33692 0.567698,0.56757 0.99441,0.57664 1.484685,0.0862 0.490276,-0.49049 1.044146,-1.48019 1.611599,-2.98292 0.567454,-1.50273 1.148565,-3.51846 1.657,-5.47051 0.508434,-1.95204 0.944329,-3.84092 1.525375,-6.78248 0.581045,-2.94156 1.307557,-6.93737 2.58607,-9.39247 1.278514,-2.45509 3.225383,-3.42853 8.817802,-4.19112 5.59242,-0.76259 14.891804,-1.3438 20.303326,-1.30746 5.411521,0.0363 6.936996,0.69012 8.462289,1.34381"
       id="path841"
       inkscape:connector-curvature="0"
       inkscape:path-effect="#path-effect843"
       inkscape:original-d="m 18.601839,249.89186 c 1.525688,-1.16249 2.905834,-2.32472 4.358354,-3.48668 0.508637,-2.17901 1.017212,-4.35862 1.525423,-6.53753 0.653923,-1.52547 1.30777,-3.05111 1.961259,-4.57627 0.726506,-0.36339 1.453049,-0.72666 2.179177,-1.08959 0.581123,0.50799 1.162492,1.01668 1.743342,1.52542 0.145537,1.45248 0.290819,2.90531 0.435835,4.35836 0.345356,2.1611 0.690337,4.32177 1.035109,6.48305 0.708496,1.12564 1.416663,2.25145 2.124696,3.37772 0.42706,0.009 0.853775,0.0179 1.280267,0.0272 0.55414,-0.98998 1.108009,-1.97968 1.661622,-2.96912 0.581382,-2.01602 1.162493,-4.03175 1.743342,-6.04722 0.436038,-1.88863 0.871934,-3.77751 1.307504,-5.66586 0.726538,-3.99477 1.45305,-7.99058 2.179178,-11.98547 1.816107,-0.94451 3.777503,-1.88889 5.665861,-2.83293 9.296522,-0.58128 18.595906,-1.16249 27.893462,-1.74334 1.525641,0.65346 3.051112,1.30724 4.57627,1.96125"
       sodipodi:nodetypes="ccccccccccccccccc" />
    <g
       aria-label="I"
       style="font-style:normal;font-weight:normal;font-size:7.05555534px;line-height:1.25;font-family:sans-serif;letter-spacing:0px;word-spacing:0px;writing-mode:lr-tb;direction:ltr;fill:#000000;fill-opacity:1;stroke:none;stroke-width:0.26458332"
       id="text847"
       transform="translate(-12.996224,22.18959)">
      <path
         d="M 97.291876,179.54236 H 95.26616 v -0.52366 h 0.671793 v -4.08243 H 95.26616 v -0.52366 h 2.025716 v 0.52366 h -0.671794 v 4.08243 h 0.671794 z"
         style="stroke-width:0.26458332"
         id="path853"
         inkscape:connector-curvature="0" />
    </g>
    <g
       aria-label="II"
       style="font-style:normal;font-weight:normal;font-size:7.05555534px;line-height:1.25;font-family:sans-serif;letter-spacing:0px;word-spacing:0px;writing-mode:lr-tb;direction:ltr;fill:#000000;fill-opacity:1;stroke:none;stroke-width:0.26458332"
       id="text851"
       transform="translate(-12.996224,22.18959)">
      <path
         d="m 97.073965,200.68039 h -2.025716 v -0.52366 h 0.671794 v -4.08243 h -0.671794 v -0.52366 h 2.025716 v 0.52366 h -0.671793 v 4.08243 h 0.671793 z"
         style="stroke-width:0.26458332"
         id="path856"
         inkscape:connector-curvature="0" />
      <path
         d="m 100.05053,200.68039 h -2.025718 v -0.52366 h 0.671793 v -4.08243 h -0.671793 v -0.52366 h 2.025718 v 0.52366 h -0.671796 v 4.08243 h 0.671796 z"
         style="stroke-width:0.26458332"
         id="path858"
         inkscape:connector-curvature="0" />
    </g>
    <circle
       style="opacity:1;vector-effect:none;fill:none;fill-opacity:1;stroke:#000000;stroke-width:0.5;stroke-linecap:butt;stroke-linejoin:miter;stroke-miterlimit:4;stroke-dasharray:none;stroke-dashoffset:0;stroke-opacity:1"
       id="path823-5"
       cx="170.11664"
       cy="229.28268"
       r="52.842617" />
    <g
       transform="translate(100.67398,22.363304)"
       aria-label="I"
       style="font-style:normal;font-weight:normal;font-size:7.05555534px;line-height:1.25;font-family:sans-serif;letter-spacing:0px;word-spacing:0px;writing-mode:lr-tb;direction:ltr;fill:#000000;fill-opacity:1;stroke:none;stroke-width:0.26458332"
       id="text847-0">
      <path
         inkscape:connector-curvature="0"
         d="M 97.291876,179.54236 H 95.26616 v -0.52366 h 0.671793 v -4.08243 H 95.26616 v -0.52366 h 2.025716 v 0.52366 h -0.671794 v 4.08243 h 0.671794 z"
         style="stroke-width:0.26458332"
         id="path853-7" />
    </g>
    <g
       transform="translate(99.527603,8.2197732)"
       aria-label="II"
       style="font-style:normal;font-weight:normal;font-size:7.05555534px;line-height:1.25;font-family:sans-serif;letter-spacing:0px;word-spacing:0px;writing-mode:lr-tb;direction:ltr;fill:#000000;fill-opacity:1;stroke:none;stroke-width:0.26458332"
       id="text851-2">
      <path
         inkscape:connector-curvature="0"
         d="m 97.073965,200.68039 h -2.025716 v -0.52366 h 0.671794 v -4.08243 h -0.671794 v -0.52366 h 2.025716 v 0.52366 h -0.671793 v 4.08243 h 0.671793 z"
         style="stroke-width:0.26458332"
         id="path856-7" />
      <path
         inkscape:connector-curvature="0"
         d="m 100.05053,200.68039 h -2.025718 v -0.52366 h 0.671793 v -4.08243 h -0.671793 v -0.52366 h 2.025718 v 0.52366 h -0.671796 v 4.08243 h 0.671796 z"
         style="stroke-width:0.26458332"
         id="path858-6" />
    </g>
    <path
       style="fill:none;stroke:#000000;stroke-width:0.5;stroke-linecap:butt;stroke-linejoin:miter;stroke-miterlimit:4;stroke-dasharray:none;stroke-opacity:1"
       d="m 139.11033,265.58194 v -20.9201"
       id="path939"
       inkscape:connector-curvature="0" />
    <path
       style="fill:none;stroke:#000000;stroke-width:0.5;stroke-linecap:butt;stroke-linejoin:miter;stroke-miterlimit:4;stroke-dasharray:none;stroke-opacity:1"
       d="m 138.89241,252.94271 c 0.7267,-0.29068 1.4531,-0.58124 2.2155,-3.41308 0.7624,-2.83183 1.56178,-8.20949 2.79661,-15.07367 1.23483,-6.86418 2.90562,-15.21816 4.43107,-20.84765 1.52544,-5.6295 2.90563,-8.53517 9.66048,-10.27832 6.75485,-1.74316 18.88693,-2.32434 25.71693,-2.60214 6.83,-0.2778 8.35934,-0.2523 9.88838,-0.2268"
       id="path941"
       inkscape:connector-curvature="0"
       inkscape:path-effect="#path-effect943"
       inkscape:original-d="m 138.89241,252.94271 c 0.72665,-0.29082 1.45305,-0.58138 2.17917,-0.87167 0.79895,-5.37321 1.59833,-10.75087 2.3971,-16.12591 1.67087,-8.35331 3.34167,-16.70729 5.0121,-25.06053 1.38037,-2.90573 2.76056,-5.8114 4.14044,-8.71671 12.12969,-0.58131 24.26177,-1.16249 36.39225,-1.74334 1.52954,0.0252 3.05888,0.0507 4.58791,0.0765" />
    <path
       style="fill:none;stroke:#000000;stroke-width:0.5;stroke-linecap:butt;stroke-linejoin:miter;stroke-miterlimit:4;stroke-dasharray:none;stroke-opacity:1"
       d="m 139.16283,257.66768 c 0.7267,-0.29068 1.4531,-0.58124 2.2155,-3.41308 0.7624,-2.83183 1.56178,-8.20949 2.79661,-15.07367 1.23483,-6.86418 2.90562,-15.21816 4.43107,-20.84765 1.52544,-5.6295 2.90563,-8.53517 9.66048,-10.27832 6.75485,-1.74316 18.88693,-2.32434 25.71693,-2.60214 6.83,-0.2778 8.35934,-0.2523 9.88838,-0.2268"
       id="path941-8"
       inkscape:connector-curvature="0"
       inkscape:path-effect="#path-effect943-7"
       inkscape:original-d="m 139.16283,257.66768 c 0.72665,-0.29082 1.45305,-0.58138 2.17917,-0.87167 0.79895,-5.37321 1.59833,-10.75087 2.3971,-16.12591 1.67087,-8.35331 3.34167,-16.70729 5.0121,-25.06053 1.38037,-2.90573 2.76056,-5.8114 4.14044,-8.71671 12.12969,-0.58131 24.26177,-1.16249 36.39225,-1.74334 1.52954,0.0252 3.05888,0.0507 4.58791,0.0765" />
  </g>
</svg>
