<?xml version="1.0" encoding="UTF-8" standalone="no"?>
<!-- Created with Inkscape (http://www.inkscape.org/) -->

<svg
   xmlns:dc="http://purl.org/dc/elements/1.1/"
   xmlns:cc="http://creativecommons.org/ns#"
   xmlns:rdf="http://www.w3.org/1999/02/22-rdf-syntax-ns#"
   xmlns:svg="http://www.w3.org/2000/svg"
   xmlns="http://www.w3.org/2000/svg"
   xmlns:sodipodi="http://sodipodi.sourceforge.net/DTD/sodipodi-0.dtd"
   xmlns:inkscape="http://www.inkscape.org/namespaces/inkscape"
   width="200mm"
   height="145mm"
   viewBox="0 0 200 145"
   version="1.1"
   id="svg8"
   inkscape:version="0.92.3 (2405546, 2018-03-11)"
   sodipodi:docname="fig1.svg">
  <defs
     id="defs2">
    <inkscape:path-effect
       effect="bspline"
       id="path-effect838"
       is_visible="true"
       weight="33.333333"
       steps="2"
       helper_size="0"
       apply_no_weight="true"
       apply_with_weight="true"
       only_selected="false" />
  </defs>
  <sodipodi:namedview
     id="base"
     pagecolor="#ffffff"
     bordercolor="#666666"
     borderopacity="1.0"
     inkscape:pageopacity="0.0"
     inkscape:pageshadow="2"
     inkscape:zoom="6.0288506"
     inkscape:cx="111.32097"
     inkscape:cy="510.85646"
     inkscape:document-units="mm"
     inkscape:current-layer="layer1"
     showgrid="false"
     units="mm"
     inkscape:window-width="1920"
     inkscape:window-height="1013"
     inkscape:window-x="-9"
     inkscape:window-y="-9"
     inkscape:window-maximized="1"
     showguides="true"
     inkscape:guide-bbox="true" />
  <metadata
     id="metadata5">
    <rdf:RDF>
      <cc:Work
         rdf:about="">
        <dc:format>image/svg+xml</dc:format>
        <dc:type
           rdf:resource="http://purl.org/dc/dcmitype/StillImage" />
        <dc:title></dc:title>
      </cc:Work>
    </rdf:RDF>
  </metadata>
  <g
     inkscape:label="Layer 1"
     inkscape:groupmode="layer"
     id="layer1"
     transform="translate(0,-152)">
    <path
       style="fill:none;stroke:#000000;stroke-width:0.5;stroke-linecap:butt;stroke-linejoin:miter;stroke-miterlimit:4;stroke-dasharray:none;stroke-opacity:1"
       d="M 194.3087,287.81401 H 9.9739628 V 154.21595"
       id="path815"
       inkscape:connector-curvature="0"
       sodipodi:nodetypes="ccc" />
    <path
       sodipodi:type="star"
       style="opacity:1;vector-effect:none;fill:#000000;fill-opacity:1;stroke:#000000;stroke-width:2.56386185;stroke-linecap:butt;stroke-linejoin:miter;stroke-miterlimit:4;stroke-dasharray:none;stroke-dashoffset:0;stroke-opacity:1"
       id="path817"
       sodipodi:sides="3"
       sodipodi:cx="96.096855"
       sodipodi:cy="156.37045"
       sodipodi:r1="8.2220469"
       sodipodi:r2="4.1110234"
       sodipodi:arg1="0.52359878"
       sodipodi:arg2="1.5707963"
       inkscape:flatsided="false"
       inkscape:rounded="0"
       inkscape:randomized="0"
       d="m 103.21736,160.48148 -7.120505,0 -7.120501,0 3.56025,-6.16654 3.560251,-6.16653 3.560251,6.16653 z"
       inkscape:transform-center-y="-0.65454206"
       transform="matrix(0.1194352,0,0,0.31843327,-1.5033839,106.03299)" />
    <path
       sodipodi:type="star"
       style="opacity:1;vector-effect:none;fill:#000000;fill-opacity:1;stroke:#000000;stroke-width:2.56386185;stroke-linecap:butt;stroke-linejoin:miter;stroke-miterlimit:4;stroke-dasharray:none;stroke-dashoffset:0;stroke-opacity:1"
       id="path817-5"
       sodipodi:sides="3"
       sodipodi:cx="96.096855"
       sodipodi:cy="156.37045"
       sodipodi:r1="8.2220469"
       sodipodi:r2="4.1110234"
       sodipodi:arg1="0.52359878"
       sodipodi:arg2="1.5707963"
       inkscape:flatsided="false"
       inkscape:rounded="0"
       inkscape:randomized="0"
       d="m 103.21736,160.48148 -7.120505,0 -7.120501,0 3.56025,-6.16654 3.560251,-6.16653 3.560251,6.16653 z"
       inkscape:transform-center-y="-4.7340997e-006"
       transform="matrix(0,0.1194352,-0.31843326,0,241.81979,276.33666)"
       inkscape:transform-center-x="-0.6545431" />
    <path
       style="fill:none;stroke:#000000;stroke-width:0.5;stroke-linecap:butt;stroke-linejoin:miter;stroke-miterlimit:4;stroke-dasharray:none;stroke-opacity:1"
       d="m 9.7494078,201.37589 c 6.1794422,0 12.3586192,0 16.4425162,0 4.083896,0 6.072682,0 7.315431,1.02963 1.242749,1.02962 1.739991,3.08962 3.338178,9.51789 1.598188,6.42827 4.296887,17.22307 5.672805,22.61845 1.375918,5.39539 1.428559,5.39018 1.501455,5.39071 0.0729,5.2e-4 0.16799,0.007 1.74897,-6.4017 1.58098,-6.40855 4.665011,-19.29872 6.837204,-25.72686 2.172193,-6.42815 3.440452,-6.42815 9.179096,-6.42815 5.738643,0 16.094016,0 24.821797,0 8.727781,0 15.75946,0 20.234,0 4.47454,0 6.32126,0 9.17975,-6.61082 2.85849,-6.61081 6.73009,-19.83592 8.75438,-26.44107 2.02429,-6.60516 2.20166,-6.59259 2.37369,-6.58945 0.17204,0.003 0.33896,-0.003 2.57609,6.60214 2.23714,6.60528 6.5449,19.82216 9.69332,26.43071 3.14841,6.60855 5.13709,6.60855 8.40394,6.60855 3.26685,0 7.81305,0 14.13404,0 6.32099,0 14.41832,0 22.51491,0"
       id="path836"
       inkscape:connector-curvature="0"
       inkscape:path-effect="#path-effect838"
       inkscape:original-d="m 9.7494078,201.37589 c 6.1794422,-2.7e-4 12.3586192,-2.7e-4 18.5375322,0 1.98888,-2.7e-4 3.977666,-2.7e-4 5.966102,0 0.497372,2.05918 0.994614,4.11918 1.491525,6.17917 2.699465,10.79654 5.398164,21.59134 8.096851,32.38741 0.05286,-0.005 0.105452,-0.0107 0.157782,-0.0156 0.09392,-2.6e-4 0.1886,0.0123 0.2825,0.0188 3.068233,-12.8233 6.152264,-25.71347 9.228,-38.56981 1.26846,-2.7e-4 2.536719,-2.7e-4 3.804679,0 10.209327,-2.7e-4 20.5647,-2.7e-4 30.846652,0 7.17361,-2.7e-4 14.205289,-2.7e-4 21.307529,0 1.84684,-2.7e-4 3.69356,-2.7e-4 5.53995,0 3.87076,-13.22158 7.74236,-26.44669 11.61315,-39.66963 0.17764,0.0123 0.35501,0.0249 0.53213,0.0377 0.1669,-0.007 0.33384,-0.0128 0.50037,-0.0188 4.30806,13.21671 8.61583,26.43359 12.92335,39.65079 1.98899,-2.7e-4 3.97767,-2.7e-4 5.96611,0 4.54526,-2.7e-4 9.09146,-2.7e-4 13.6368,0 8.09664,-2.7e-4 16.19397,-2.7e-4 24.29056,0"
       sodipodi:nodetypes="ccccccccccccccccccc" />
    <g
       aria-label="ΔT"
       style="font-style:normal;font-weight:normal;font-size:7.05555534px;line-height:1.25;font-family:sans-serif;letter-spacing:0px;word-spacing:0px;writing-mode:lr-tb;direction:ltr;fill:#000000;fill-opacity:1;stroke:none;stroke-width:0.26458332"
       id="text842"
       transform="translate(-24.419616,5.6435392)">
      <path
         d="m 41.520275,153.60048 h -4.781792 l 1.936144,-5.12975 h 0.909505 z m -0.91984,-0.57878 -1.488281,-3.95152 -1.484836,3.95152 z"
         style="stroke-width:0.26458332"
         id="path924"
         inkscape:connector-curvature="0" />
      <path
         d="M 46.563895,149.05295 H 44.73455 l -1.050755,4.54753 h -0.689019 l 1.050754,-4.54753 h -1.829345 l 0.130913,-0.58222 h 4.347711 z"
         style="font-style:italic"
         id="path926"
         inkscape:connector-curvature="0" />
    </g>
    <path
       style="fill:none;stroke:#000000;stroke-width:0.5;stroke-linecap:butt;stroke-linejoin:miter;stroke-miterlimit:4;stroke-dasharray:none;stroke-opacity:1"
       d="M 25.943115,274.88678 183.4056,225.24029"
       id="path844"
       inkscape:connector-curvature="0" />
    <g
       aria-label="T"
       style="font-style:normal;font-weight:normal;font-size:7.05555534px;line-height:1.25;font-family:sans-serif;letter-spacing:0px;word-spacing:0px;writing-mode:lr-tb;direction:ltr;fill:#000000;fill-opacity:1;stroke:none;stroke-width:0.26458332"
       id="text848"
       transform="translate(-19.651958,7.1350492)">
      <path
         d="m 27.326928,147.56144 h -1.829346 l -1.050754,4.54752 h -0.689019 l 1.050754,-4.54752 h -1.829345 l 0.130913,-0.58222 h 4.347711 z"
         style="font-style:italic;stroke-width:0.26458332"
         id="path929"
         inkscape:connector-curvature="0" />
    </g>
    <g
       aria-label="F"
       style="font-style:normal;font-weight:normal;font-size:7.05555534px;line-height:1.25;font-family:sans-serif;letter-spacing:0px;word-spacing:0px;writing-mode:lr-tb;direction:ltr;fill:#000000;fill-opacity:1;stroke:none;stroke-width:0.26458332"
       id="text854"
       transform="translate(-21.785699,6.2257619)">
      <path
         d="m 151.59688,149.69217 h -2.59072 l -0.34795,1.48829 h 2.22898 l -0.13436,0.57877 h -2.22553 l -0.57533,2.48047 h -0.68902 l 1.18511,-5.12975 h 3.27973 z"
         style="font-style:italic;stroke-width:0.26458332"
         id="path903"
         inkscape:connector-curvature="0" />
    </g>
    <g
       aria-label="A"
       style="font-style:normal;font-weight:normal;font-size:7.05555534px;line-height:1.25;font-family:sans-serif;letter-spacing:0px;word-spacing:0px;writing-mode:lr-tb;direction:ltr;fill:#000000;fill-opacity:1;stroke:none;stroke-width:0.26458332"
       id="text858"
       transform="translate(-21.785699,6.2257619)">
      <path
         d="m 46.746201,193.01936 h -0.692464 l -0.172255,-1.44349 h -2.211751 l -0.840604,1.44349 h -0.720025 l 3.052355,-5.12974 h 0.902615 z m -0.940511,-2.0016 -0.320394,-2.53214 -1.488281,2.53214 z"
         style="font-style:italic;stroke-width:0.26458332"
         id="path918"
         inkscape:connector-curvature="0" />
    </g>
    <g
       aria-label="B"
       style="font-style:normal;font-weight:normal;font-size:7.05555534px;line-height:1.25;font-family:sans-serif;letter-spacing:0px;word-spacing:0px;writing-mode:lr-tb;direction:ltr;fill:#000000;fill-opacity:1;stroke:none;stroke-width:0.26458332"
       id="text862"
       transform="translate(-21.785699,6.2257619)">
      <path
         d="m 60.402115,193.67134 q -0.334174,0.22393 -0.699354,0.32039 -0.36518,0.093 -0.89917,0.093 h -1.884467 l 1.181667,-5.12975 h 1.474501 q 0.561551,0 0.833713,0.0379 0.275608,0.0379 0.502984,0.1757 0.189481,0.11713 0.282498,0.29972 0.09646,0.17914 0.09646,0.39963 0,0.44442 -0.251492,0.78548 -0.251492,0.34107 -0.695909,0.5271 v 0.0276 q 0.413411,0.093 0.630452,0.34796 0.220486,0.25493 0.220486,0.65457 0,0.43752 -0.220486,0.83026 -0.217041,0.3893 -0.571886,0.63046 z m 0.148139,-3.61391 q 0,-0.14469 -0.04823,-0.23771 -0.04823,-0.0965 -0.137804,-0.15848 -0.144694,-0.0965 -0.361735,-0.12057 -0.217041,-0.0276 -0.56155,-0.0276 h -0.778592 l -0.3514,1.52273 h 0.895725 q 0.296278,0 0.516764,-0.0413 0.220486,-0.0448 0.385851,-0.13781 0.213596,-0.12402 0.327284,-0.3514 0.113688,-0.23082 0.113688,-0.44786 z m -0.07579,2.20142 q 0,-0.19293 -0.06546,-0.31006 -0.06546,-0.12058 -0.234266,-0.22393 -0.137804,-0.0861 -0.354845,-0.11369 -0.213596,-0.0276 -0.596001,-0.0276 h -1.036974 l -0.451308,1.94303 h 0.940511 q 0.458198,0 0.744141,-0.0482 0.289388,-0.0517 0.499539,-0.17914 0.272162,-0.16192 0.413411,-0.44098 0.141249,-0.28249 0.141249,-0.59944 z"
         style="font-style:italic;stroke-width:0.26458332"
         id="path915"
         inkscape:connector-curvature="0" />
    </g>
    <g
       aria-label="C"
       style="font-style:normal;font-weight:normal;font-size:7.05555534px;line-height:1.25;font-family:sans-serif;letter-spacing:0px;word-spacing:0px;writing-mode:lr-tb;direction:ltr;fill:#000000;fill-opacity:1;stroke:none;stroke-width:0.26458332"
       id="text866"
       transform="translate(-21.785699,6.2257619)">
      <path
         d="m 65.186546,241.05426 q -0.974962,0 -1.529622,-0.50298 -0.55466,-0.50643 -0.55466,-1.43316 0,-0.70969 0.213595,-1.32292 0.213596,-0.61323 0.613227,-1.07487 0.396186,-0.45475 0.974962,-0.71658 0.578776,-0.26527 1.291911,-0.26527 0.444418,0 0.840603,0.11024 0.396186,0.1068 0.813043,0.34107 l -0.155029,0.7717 h -0.05168 q -0.113688,-0.11369 -0.230821,-0.21015 -0.113688,-0.0999 -0.34451,-0.21704 -0.18948,-0.0999 -0.451307,-0.16537 -0.261827,-0.0689 -0.578776,-0.0689 -0.482314,0 -0.88539,0.20326 -0.403076,0.19981 -0.699354,0.56155 -0.289388,0.3514 -0.454753,0.85438 -0.165364,0.50299 -0.165364,1.07143 0,0.70969 0.368625,1.10587 0.368625,0.39274 1.064534,0.39274 0.327285,0 0.620118,-0.0723 0.296278,-0.0758 0.537434,-0.18948 0.223932,-0.1068 0.403077,-0.22393 0.179145,-0.11714 0.306613,-0.21704 h 0.04823 l -0.161919,0.79237 q -0.361735,0.18259 -0.833713,0.33073 -0.468533,0.14469 -0.999078,0.14469 z"
         style="font-style:italic;stroke-width:0.26458332"
         id="path921"
         inkscape:connector-curvature="0" />
    </g>
    <g
       aria-label="D"
       style="font-style:normal;font-weight:normal;font-size:7.05555534px;line-height:1.25;font-family:sans-serif;letter-spacing:0px;word-spacing:0px;writing-mode:lr-tb;direction:ltr;fill:#000000;fill-opacity:1;stroke:none;stroke-width:0.26458332"
       id="text870"
       transform="translate(-21.785699,6.2257619)">
      <path
         d="m 79.596297,191.13522 q 0,0.84061 -0.427192,1.59164 -0.427191,0.75103 -1.167887,1.16099 -0.454753,0.24461 -0.930176,0.32729 -0.475423,0.0827 -1.078315,0.0827 h -1.384928 l 1.185113,-5.12975 h 1.192003 q 0.558105,0 1.016303,0.0792 0.461643,0.0758 0.844048,0.33073 0.365181,0.2446 0.558106,0.64079 0.192925,0.39274 0.192925,0.91639 z m -0.720025,0.0586 q 0,-0.39274 -0.141249,-0.67524 -0.137803,-0.28594 -0.420301,-0.47542 -0.279053,-0.18604 -0.596002,-0.24805 -0.316949,-0.0655 -0.802707,-0.0655 h -0.568441 l -0.930175,4.00665 h 0.713134 q 0.492649,0 0.8785,-0.0792 0.389295,-0.0827 0.733805,-0.27905 0.55466,-0.31695 0.844048,-0.91295 0.289388,-0.59945 0.289388,-1.27124 z"
         style="font-style:italic;stroke-width:0.26458332"
         id="path912"
         inkscape:connector-curvature="0" />
    </g>
    <g
       aria-label="E"
       style="font-style:normal;font-weight:normal;font-size:7.05555534px;line-height:1.25;font-family:sans-serif;letter-spacing:0px;word-spacing:0px;writing-mode:lr-tb;direction:ltr;fill:#000000;fill-opacity:1;stroke:none;stroke-width:0.26458332"
       id="text874"
       transform="translate(-21.785699,6.2257619)">
      <path
         d="m 137.55167,197.26492 -0.13436,0.58222 h -2.69751 l -0.33073,1.44694 h 2.69751 l -0.13436,0.57878 h -2.69751 l -0.44786,1.93959 h 2.69751 l -0.13436,0.58222 h -3.37964 l 1.18167,-5.12975 z"
         style="font-style:italic;stroke-width:0.26458332"
         id="path909"
         inkscape:connector-curvature="0" />
    </g>
    <g
       aria-label="G"
       style="font-style:normal;font-weight:normal;font-size:7.05555534px;line-height:1.25;font-family:sans-serif;letter-spacing:0px;word-spacing:0px;writing-mode:lr-tb;direction:ltr;fill:#000000;fill-opacity:1;stroke:none;stroke-width:0.26458332"
       id="text878"
       transform="translate(-21.785699,6.2257619)">
      <path
         d="m 164.22218,202.2815 q -1.06108,0 -1.65709,-0.52365 -0.596,-0.52366 -0.596,-1.48828 0,-0.70969 0.21704,-1.31258 0.22049,-0.6029 0.63735,-1.05076 0.41341,-0.44442 1.01285,-0.69591 0.6029,-0.25149 1.35393,-0.25149 0.4513,0 0.89917,0.11024 0.4513,0.1068 0.91984,0.3514 l -0.15503,0.77859 h -0.062 q -0.38241,-0.35829 -0.83372,-0.51676 -0.44786,-0.16192 -0.96462,-0.16192 -0.56844,0 -0.99564,0.22393 -0.42719,0.22393 -0.72002,0.596 -0.28594,0.36518 -0.43408,0.85094 -0.1447,0.48576 -0.1447,0.97841 0,0.74069 0.40308,1.14377 0.40652,0.40308 1.19889,0.40308 0.34796,0 0.65113,-0.062 0.30661,-0.0655 0.57533,-0.16537 l 0.28938,-1.31258 h -1.3677 l 0.13091,-0.57533 h 2.05328 l -0.50987,2.20141 q -0.22738,0.093 -0.40997,0.16881 -0.18259,0.0724 -0.4582,0.15159 -0.23771,0.0689 -0.49265,0.11369 -0.25149,0.0448 -0.54088,0.0448 z"
         style="font-style:italic;stroke-width:0.26458332"
         id="path906"
         inkscape:connector-curvature="0" />
    </g>
    <g
       aria-label="H"
       style="font-style:normal;font-weight:normal;font-size:7.05555534px;line-height:1.25;font-family:sans-serif;letter-spacing:0px;word-spacing:0px;writing-mode:lr-tb;direction:ltr;fill:#000000;fill-opacity:1;stroke:none;stroke-width:0.26458332"
       id="text882"
       transform="translate(-21.785699,6.2257619)">
      <path
         d="m 215.22919,191.51189 -1.18167,5.12974 h -0.68213 l 0.58222,-2.52181 h -2.55971 l -0.58222,2.52181 h -0.68213 l 1.18167,-5.12974 h 0.68213 l -0.46509,2.02916 h 2.55971 l 0.46509,-2.02916 z"
         style="font-style:italic;stroke-width:0.26458332"
         id="path900"
         inkscape:connector-curvature="0" />
    </g>
    <g
       aria-label="T"
       style="font-style:normal;font-weight:normal;font-size:7.05555534px;line-height:1.25;font-family:sans-serif;letter-spacing:0px;word-spacing:0px;writing-mode:lr-tb;direction:ltr;fill:#000000;fill-opacity:1;stroke:none;stroke-width:0.26458332"
       id="text886"
       transform="translate(-21.785699,6.2257619)">
      <path
         d="m 213.7676,216.38466 h -1.82935 l -1.05075,4.54753 h -0.68902 l 1.05076,-4.54753 h -1.82935 l 0.13091,-0.58222 h 4.34771 z"
         style="font-style:italic;stroke-width:0.26458332"
         id="path897"
         inkscape:connector-curvature="0" />
    </g>
    <g
       aria-label="时间"
       style="font-style:normal;font-weight:normal;font-size:7.05555534px;line-height:1.25;font-family:sans-serif;letter-spacing:0px;word-spacing:0px;writing-mode:lr-tb;direction:ltr;fill:#000000;fill-opacity:1;stroke:none;stroke-width:0.26458332"
       id="text890"
       transform="translate(-36.28102,5.4702192)">
      <path
         d="m 212.60172,284.75611 h 2.37712 v 5.6155 h -0.54433 v -0.57188 h -1.28846 v 0.65456 h -0.54433 z m 2.6045,0.86816 h 2.44601 v -1.52273 h 0.55122 v 1.52273 h 0.97841 v 0.50988 h -0.97841 v 3.70692 q 0,0.92328 -0.88195,0.92328 -0.39963,0 -1.17133,-0.0207 -0.0344,-0.24804 -0.11024,-0.57877 0.72347,0.0551 1.12999,0.0551 0.48231,0 0.48231,-0.48921 v -3.59667 h -2.44601 z m -2.06017,3.66558 h 1.28846 v -1.78456 h -1.28846 z m 1.28846,-4.02387 h -1.28846 v 1.74322 h 1.28846 z m 1.54341,1.52962 q 0.55121,1.00597 0.83371,1.60542 -0.17914,0.0827 -0.55122,0.27561 -0.26871,-0.65457 -0.7717,-1.63298 z"
         style="stroke-width:0.26458332"
         id="path892"
         inkscape:connector-curvature="0" />
      <path
         d="m 221.3316,285.94811 h 2.92144 v 3.41064 h -2.42535 v 0.4272 h -0.49609 z m 0.57877,-0.88883 v -0.51677 h 3.99631 v 5.45703 q 0,0.86817 -0.9853,0.86817 -0.39963,0 -1.0473,-0.0138 -0.0276,-0.20671 -0.11025,-0.55811 0.57189,0.0413 1.08865,0.0413 0.51677,0 0.51677,-0.50298 v -4.7749 z m -2.17041,0.40652 h 0.53744 v 5.40191 h -0.53744 z m 2.08773,3.40375 h 1.92925 v -0.97841 h -1.92925 z m 1.92925,-2.43224 h -1.92925 v 0.96463 h 1.92925 z m -3.65869,-1.98437 0.39274,-0.3514 q 0.52366,0.49609 0.97152,0.96463 l -0.44786,0.39274 q -0.42031,-0.4961 -0.9164,-1.00597 z"
         style="stroke-width:0.26458332"
         id="path894"
         inkscape:connector-curvature="0" />
    </g>
  </g>
</svg>
