<?xml version="1.0" encoding="UTF-8" standalone="no"?>
<!-- Created with Inkscape (http://www.inkscape.org/) -->

<svg
   xmlns:dc="http://purl.org/dc/elements/1.1/"
   xmlns:cc="http://creativecommons.org/ns#"
   xmlns:rdf="http://www.w3.org/1999/02/22-rdf-syntax-ns#"
   xmlns:svg="http://www.w3.org/2000/svg"
   xmlns="http://www.w3.org/2000/svg"
   xmlns:sodipodi="http://sodipodi.sourceforge.net/DTD/sodipodi-0.dtd"
   xmlns:inkscape="http://www.inkscape.org/namespaces/inkscape"
   width="150mm"
   height="210mm"
   viewBox="0 0 150 210"
   version="1.1"
   id="svg8"
   inkscape:version="0.92.3 (2405546, 2018-03-11)"
   sodipodi:docname="fig1.svg">
  <defs
     id="defs2" />
  <sodipodi:namedview
     id="base"
     pagecolor="#ffffff"
     bordercolor="#666666"
     borderopacity="1.0"
     inkscape:pageopacity="0.0"
     inkscape:pageshadow="2"
     inkscape:zoom="1.0406944"
     inkscape:cx="283.46457"
     inkscape:cy="396.85039"
     inkscape:document-units="mm"
     inkscape:current-layer="layer1"
     showgrid="false"
     units="mm"
     inkscape:window-width="1920"
     inkscape:window-height="1013"
     inkscape:window-x="-9"
     inkscape:window-y="-9"
     inkscape:window-maximized="1"
     showguides="true"
     inkscape:guide-bbox="true">
    <sodipodi:guide
       position="62.046006,178.57143"
       orientation="1,0"
       id="guide957"
       inkscape:locked="false" />
  </sodipodi:namedview>
  <metadata
     id="metadata5">
    <rdf:RDF>
      <cc:Work
         rdf:about="">
        <dc:format>image/svg+xml</dc:format>
        <dc:type
           rdf:resource="http://purl.org/dc/dcmitype/StillImage" />
        <dc:title></dc:title>
      </cc:Work>
    </rdf:RDF>
  </metadata>
  <g
     inkscape:label="Layer 1"
     inkscape:groupmode="layer"
     id="layer1"
     transform="translate(0,-87)">
    <path
       style="fill:none;stroke:#000000;stroke-width:0.5;stroke-linecap:butt;stroke-linejoin:miter;stroke-miterlimit:4;stroke-dasharray:none;stroke-opacity:1"
       d="M 38.865289,291.28876 V 100.91346"
       id="path10"
       inkscape:connector-curvature="0" />
    <path
       style="fill:none;stroke:#000000;stroke-width:0.5;stroke-linecap:butt;stroke-linejoin:miter;stroke-miterlimit:4;stroke-dasharray:none;stroke-opacity:1"
       d="M 38.562627,166.59142 H 139.95488"
       id="path12"
       inkscape:connector-curvature="0" />
    <path
       style="fill:none;stroke:#000000;stroke-width:0.5;stroke-linecap:butt;stroke-linejoin:miter;stroke-miterlimit:4;stroke-dasharray:none;stroke-opacity:1"
       d="M 39.016622,230.15075 H 140.40888"
       id="path12-0"
       inkscape:connector-curvature="0" />
    <path
       style="fill:none;stroke:#000000;stroke-width:0.5;stroke-linecap:butt;stroke-linejoin:miter;stroke-miterlimit:4;stroke-dasharray:2.00000006, 2.00000006;stroke-dashoffset:0;stroke-opacity:1"
       d="M 38.713959,186.26455 H 108.32655"
       id="path12-2"
       inkscape:connector-curvature="0"
       sodipodi:nodetypes="cc" />
    <path
       transform="matrix(0.12021281,0,0,0.23421218,32.452967,82.821764)"
       style="opacity:1;vector-effect:none;fill:#000000;fill-opacity:1;stroke:#000000;stroke-width:0.5;stroke-linecap:butt;stroke-linejoin:miter;stroke-miterlimit:4;stroke-dasharray:none;stroke-dashoffset:0;stroke-opacity:1"
       inkscape:transform-center-y="-0.72563762"
       d="m 64.152586,92.239992 -10.732488,0 -10.73249,0 5.366245,-9.294608 5.366244,-9.294608 5.366245,9.294608 z"
       id="path843" />
    <g
       aria-label="宇宙天体"
       style="font-style:normal;font-weight:normal;font-size:7.76111126px;line-height:1.25;font-family:sans-serif;letter-spacing:0px;word-spacing:0px;writing-mode:lr-tb;fill:#000000;fill-opacity:1;stroke:none;stroke-width:0.26458332"
       id="text847">
      <path
         d="m 55.095929,114.46536 h 3.54707 v -1.23541 h -2.554194 v -0.56086 h 5.593457 v 0.56086 h -2.417768 v 1.23541 h 3.243902 v 0.56086 h -3.243902 v 1.56132 q 0,0.93982 -0.932243,0.93982 -0.318326,0 -1.212673,-0.0152 -0.0379,-0.34864 -0.113688,-0.68213 0.818554,0.0682 1.136881,0.0682 0.500228,0.0227 0.500228,-0.45476 v -1.41731 h -3.54707 z m 0.265272,-3.35001 h 3.221164 q -0.174322,-0.35243 -0.37896,-0.68213 l 0.560861,-0.27285 q 0.284221,0.46233 0.496439,0.95498 h 2.982419 v 1.40973 h -0.606337 v -0.84887 h -5.669249 v 0.84887 h -0.606337 z"
         style="stroke-width:0.26458332"
         id="path964" />
      <path
         d="m 63.675595,113.04805 h 2.576931 v -1.04593 h 0.591178 v 1.04593 h 2.576932 v 4.57026 h -0.57602 v -0.43959 h -4.593001 v 0.45475 h -0.57602 z m -0.560862,-1.83417 h 3.365169 q -0.159163,-0.30696 -0.454752,-0.78066 l 0.538124,-0.28043 q 0.310747,0.42444 0.530544,0.83371 l -0.432015,0.22738 h 3.312115 v 1.48552 H 69.38274 v -0.93982 h -5.676829 v 0.93982 h -0.591178 z m 1.136882,5.44187 h 2.000911 v -1.28088 h -2.000911 z m 2.592089,0 h 2.000912 v -1.28088 h -2.000912 z m 2.000912,-3.06958 h -2.000912 v 1.26573 h 2.000912 z m -4.593001,1.26573 h 2.000911 v -1.26573 h -2.000911 z"
         style="stroke-width:0.26458332"
         id="path966" />
      <path
         d="m 70.53478,117.08019 q 2.838414,-1.20889 3.304535,-3.36517 H 70.63331 V 113.139 h 3.285587 q 0.03411,-0.53813 0.03411,-1.85691 h -2.902838 v -0.57602 h 6.548438 v 0.57602 h -2.97863 q -0.0076,0.79203 -0.03032,1.85691 h 3.395486 v 0.57602 h -3.293166 q 0.723814,2.40261 3.399275,3.21358 -0.310747,0.37138 -0.522965,0.62908 -2.470823,-0.99667 -3.251481,-3.29317 -0.598758,2.13734 -3.312115,3.3917 -0.159164,-0.20464 -0.469911,-0.57602 z"
         style="stroke-width:0.26458332"
         id="path968" />
      <path
         d="m 85.890259,115.70835 q -0.257693,0.31075 -0.447174,0.56086 -1.515842,-1.1672 -2.228287,-3.94877 v 3.19843 h 1.114143 v 0.5457 h -1.114143 v 1.58406 h -0.560862 v -1.58406 h -1.114144 v -0.5457 h 1.114144 v -3.19843 h -0.01895 q -0.704867,2.61862 -2.323028,4.07004 -0.174322,-0.2198 -0.401698,-0.47749 1.462787,-1.33773 2.190392,-3.59255 h -1.781115 v -0.5457 h 2.334397 v -1.54616 h 0.560862 v 1.54616 h 2.417768 v 0.5457 h -1.928909 q 0.723814,2.35714 2.186602,3.38791 z m -7.632265,-1.84175 q 1.098986,-1.60679 1.637109,-3.66076 l 0.57602,0.16675 q -0.295589,0.96635 -0.66697,1.81522 v 5.45324 h -0.560862 v -4.31257 q -0.341064,0.6177 -0.727604,1.15962 -0.113688,-0.31075 -0.257693,-0.6215 z"
         style="stroke-width:0.26458332"
         id="path970" />
    </g>
    <g
       aria-label="宏观领域"
       style="font-style:normal;font-weight:normal;font-size:7.76111126px;line-height:1.25;font-family:sans-serif;letter-spacing:0px;word-spacing:0px;writing-mode:lr-tb;fill:#000000;fill-opacity:1;stroke:none;stroke-width:0.26458332"
       id="text847-8">
      <path
         d="m 55.618663,137.035 h 2.258604 q 0.250114,-0.56086 0.447174,-1.15962 l 0.629074,0.1819 q -0.170532,0.50023 -0.37896,0.97772 h 4.320149 v 0.56086 h -4.577842 q -0.936033,1.92133 -2.508719,3.52434 -0.151584,-0.31075 -0.348644,-0.57602 1.318783,-1.30363 2.152496,-2.94832 h -1.993332 z m 5.27513,1.87207 q 0.932243,1.10656 1.82659,2.26618 l -0.560862,0.37896 q -0.197059,-0.27664 -0.390329,-0.5457 -2.550404,0.14021 -3.543281,0.22737 -0.265272,0.0227 -0.644233,0.12127 l -0.310747,-0.59876 q 0.28801,-0.0985 0.583599,-0.37896 0.85645,-0.93982 1.599213,-2.43292 l 0.629075,0.27285 q -0.954981,1.54616 -1.682585,2.41019 1.546159,-0.0455 2.997577,-0.12127 -0.485069,-0.65181 -0.973928,-1.27331 z m -5.055333,-3.81235 h 3.278008 q -0.19327,-0.37138 -0.428225,-0.7276 l 0.553282,-0.27285 q 0.310748,0.50023 0.568441,1.00045 h 2.895258 v 1.29605 h -0.606337 v -0.73519 h -5.65409 v 0.73519 H 55.83846 Z"
         style="stroke-width:0.26458332"
         id="path973" />
      <path
         d="m 64.077061,136.13308 q 0.409278,0.78444 0.826134,1.59163 0.306958,-1.04972 0.409278,-2.31166 h -1.887224 v -0.57602 h 2.478402 v 0.55328 q -0.136426,1.71669 -0.617706,3.07716 0.454753,0.88298 0.920874,1.79627 l -0.560861,0.31075 q -0.2918,-0.63665 -0.651812,-1.37941 -0.545703,1.19372 -1.394575,2.06912 -0.151584,-0.23495 -0.37896,-0.55328 0.901926,-0.92467 1.421101,-2.23587 -0.47749,-0.96635 -1.057299,-2.09186 z m 3.93361,-0.56845 h 0.57602 v 1.37184 q 0,0.9133 -0.136425,1.61437 h 0.454752 v 1.80386 q 0,0.47749 0.394119,0.47749 h 0.363802 q 0.38654,0 0.439594,-0.40928 0.04548,-0.37138 0.07579,-1.00804 0.250113,0.10611 0.598757,0.23496 -0.06063,0.67455 -0.121267,1.04593 -0.113688,0.69729 -0.86403,0.69729 h -0.583599 q -0.86403,0 -0.86403,-0.89435 v -1.50447 q -0.128847,0.4358 -0.318327,0.76929 -0.538124,0.96256 -2.01607,1.81901 -0.159164,-0.22738 -0.416857,-0.50023 1.417313,-0.75792 1.92512,-1.63711 0.492648,-0.78066 0.492648,-2.47082 z m -1.561317,-1.08382 h 3.698655 v 4.54752 h -0.57602 v -3.98666 h -2.546615 v 4.09277 h -0.57602 z"
         style="stroke-width:0.26458332"
         id="path975" />
      <path
         d="m 74.521213,136.08002 h 1.34152 l 0.18948,-1.03835 h -1.894802 v -0.53055 h 4.358046 v 0.53055 h -1.849328 l -0.219797,1.03835 h 1.712902 v 3.62286 h -0.545703 v -3.09989 h -2.546615 v 3.13021 h -0.545703 z m 1.531,0.83371 h 0.545704 v 1.13689 q 0,0.84129 -0.181901,1.44762 1.098985,0.8034 2.091862,1.65985 l -0.454753,0.47749 q -0.86403,-0.83371 -1.856907,-1.61437 -0.0379,0.0682 -0.07579,0.12885 -0.515386,0.82613 -1.81901,1.4931 -0.250114,-0.31833 -0.424436,-0.50023 1.258149,-0.5457 1.72806,-1.26572 0.447173,-0.63666 0.447173,-1.84175 z m -4.50963,2.59209 0.447174,-0.33348 q 0.348643,0.41686 0.682129,0.82613 0.394119,-0.70486 0.795817,-1.68258 h -2.228288 v -0.52297 h 2.842204 v 0.52297 q -0.57602,1.28846 -1.045931,2.13734 0.295589,0.3638 0.57602,0.73518 l -0.522966,0.3638 q -0.757921,-1.11414 -1.546159,-2.04639 z m 1.584055,-5.21449 -0.09095,0.20464 q 0.697287,0.81097 1.356678,1.72048 l -0.454752,0.40927 q -0.591179,-0.89434 -1.15204,-1.60679 -0.591179,1.25815 -1.447629,2.47082 -0.151585,-0.25769 -0.371382,-0.53054 0.909506,-1.1293 1.568897,-2.66788 z m -0.818554,2.0388 0.469911,-0.23495 q 0.341064,0.53812 0.636653,1.13688 l -0.522965,0.27285 q -0.19706,-0.48507 -0.583599,-1.17478 z"
         style="stroke-width:0.26458332"
         id="path977" />
      <path
         d="m 82.562754,141.21873 q 0.86024,-0.70866 1.519632,-1.65227 -0.261483,-1.18236 -0.322117,-3.59255 h -2.660303 v -0.53054 h 2.645145 q -0.01137,-0.61392 -0.01516,-1.31879 h 0.5836 q -0.0076,0.68971 0,1.31879 h 1.872065 v 0.53054 H 84.32492 q 0.0379,1.72048 0.204639,2.89147 0.541914,-0.93603 0.913295,-2.06533 l 0.538124,0.22737 q -0.57981,1.50826 -1.296045,2.63378 0.159163,0.59876 0.401698,0.97393 0.204639,0.3259 0.348644,0.3259 0.136426,0 0.18948,-0.3259 0.06821,-0.39412 0.106109,-1.18236 0.325906,0.12885 0.568441,0.19706 -0.106109,0.89435 -0.181901,1.26573 -0.128847,0.66697 -0.613916,0.67455 -0.371382,-0.008 -0.689709,-0.37138 -0.314537,-0.34865 -0.534334,-0.96635 -0.579809,0.78444 -1.239201,1.34531 -0.212218,-0.18191 -0.47749,-0.37896 z m -3.83508,-1.1672 q 0.496438,-0.15159 0.977718,-0.31075 v -2.96347 h -0.894347 v -0.53055 h 0.894347 v -2.10702 h 0.560861 v 2.10702 h 0.841293 v 0.53055 h -0.841293 v 2.77399 q 0.397909,-0.13643 0.788238,-0.28043 0,0.0834 0.05306,0.56086 -1.06109,0.38654 -2.235867,0.83371 z m 2.554194,-3.22875 h 1.932698 v 2.35714 h -0.522965 v -0.17432 h -0.886768 v 0.26527 h -0.522965 z m -0.5836,3.33486 q 1.371837,-0.21222 2.773991,-0.50023 -0.0076,0.12127 0.03032,0.51538 -1.121723,0.20464 -2.607248,0.51539 z m 1.993333,-2.84979 h -0.886768 v 1.21268 h 0.886768 z m 2.243446,-3.07716 q 0.560861,0.39412 0.901926,0.69729 l -0.348644,0.4017 q -0.341064,-0.32591 -0.879188,-0.75034 z"
         style="stroke-width:0.26458332"
         id="path979" />
    </g>
    <g
       aria-label="(狭义介观领域)"
       style="font-style:normal;font-weight:normal;font-size:7.76111126px;line-height:1.25;font-family:sans-serif;letter-spacing:0px;word-spacing:0px;writing-mode:lr-tb;fill:#000000;fill-opacity:1;stroke:none;stroke-width:0.26458332"
       id="text847-5">
      <path
         d="m 57.520538,179.75273 q -1.277097,-1.4552 -1.277097,-3.57359 0,-2.11839 1.277097,-3.63045 h 0.655602 q -1.280887,1.57269 -1.280887,3.62287 0,2.04638 1.273307,3.58117 z"
         style="stroke-width:0.26458332"
         id="path982" />
      <path
         d="m 60.923603,175.89871 h 1.985753 q 0.07579,-0.65182 0.07579,-2.25861 h -1.894803 v -0.52296 h 1.894803 q 0.0076,-0.48507 0.01516,-1.08383 h 0.598758 q -0.0076,0.59876 -0.0076,1.08383 h 1.940278 v 0.52296 h -1.947857 q 0.0076,1.531 -0.06821,2.25861 h 2.258605 v 0.52296 h -2.137337 q 0.629074,1.67501 2.273763,2.38745 -0.219797,0.22738 -0.48507,0.54571 -1.538579,-0.86403 -2.167654,-2.41777 -0.409277,1.44005 -2.213129,2.52387 -0.128847,-0.19706 -0.409278,-0.53054 1.879644,-1.06109 2.175234,-2.50872 h -1.887224 z m -2.417768,1.00803 q 0.871609,-0.7655 1.455209,-1.72806 -0.144005,-0.62907 -0.265273,-0.90193 -0.454752,0.41686 -0.962559,0.75035 -0.189481,-0.31833 -0.333486,-0.49265 0.568441,-0.33349 1.053511,-0.78066 -0.310748,-0.53813 -0.795818,-1.11415 l 0.424436,-0.33348 q 0.47749,0.50023 0.795817,1.01561 0.447174,-0.49264 0.803397,-1.09898 l 0.492648,0.31075 q -0.47749,0.72002 -1.023193,1.29604 0.560861,1.09899 0.545703,3.47886 0.07579,1.92512 -1.235411,1.92512 -0.356223,0 -0.750342,-0.008 -0.04547,-0.32591 -0.128847,-0.65181 0.416857,0.0606 0.803397,0.0606 0.773079,0 0.735183,-1.35668 0,-0.71244 -0.05305,-1.28846 -0.57602,0.84887 -1.242991,1.46278 -0.144005,-0.26527 -0.318327,-0.5457 z m 5.532824,-1.72806 q 0.56844,-0.60634 0.947401,-1.13688 l 0.492649,0.3638 q -0.454753,0.5457 -1.030773,1.1293 z m -2.864942,-0.81855 0.432015,-0.31833 q 0.454753,0.53812 0.856451,1.07625 l -0.469911,0.34864 q -0.432015,-0.62149 -0.818555,-1.10656 z"
         style="stroke-width:0.26458332"
         id="path984" />
      <path
         d="m 71.921037,172.48806 0.651812,0.12127 q -0.504017,2.90663 -2.186602,4.63847 1.163409,0.91709 3.300746,1.40974 -0.325906,0.38654 -0.530545,0.65939 -2.152495,-0.70108 -3.25527,-1.61816 -1.125513,0.92087 -3.346222,1.70911 -0.166742,-0.28043 -0.416856,-0.59118 2.228288,-0.65939 3.304535,-1.54995 -1.542369,-1.5651 -2.266183,-4.55131 l 0.591178,-0.22738 q 0.651812,2.8081 2.144916,4.33531 1.667427,-1.73943 2.008491,-4.33531 z m -2.872521,-0.28801 0.553283,-0.26527 q 0.57602,0.97014 0.962559,1.80385 l -0.591178,0.31833 q -0.462332,-1.0232 -0.924664,-1.85691 z"
         style="stroke-width:0.26458332"
         id="path986" />
      <path
         d="m 78.204203,172.0712 -0.159163,0.2198 q 1.273307,1.97818 3.395486,2.82705 -0.242535,0.35622 -0.409277,0.65939 -2.228288,-1.1672 -3.36517,-3.00137 -1.136881,1.75838 -3.410644,3.11506 -0.18948,-0.36381 -0.409278,-0.6594 2.266184,-1.0914 3.539492,-3.16053 z m -2.30408,2.96348 h 0.606337 q 0,2.48598 -0.37896,3.19084 -0.303169,0.65181 -1.288466,1.33394 -0.197059,-0.25769 -0.439594,-0.5078 0.909505,-0.57602 1.182357,-1.14446 0.318326,-0.5836 0.318326,-2.87252 z m 2.796729,-0.0152 h 0.613916 v 4.40352 h -0.613916 z"
         style="stroke-width:0.26458332"
         id="path988" />
      <path
         d="m 82.494035,173.96601 q 0.409278,0.78444 0.826134,1.59163 0.306958,-1.04972 0.409278,-2.31166 h -1.887224 v -0.57602 h 2.478402 v 0.55328 q -0.136426,1.7167 -0.617706,3.07716 0.454753,0.88298 0.920874,1.79628 l -0.560861,0.31074 q -0.2918,-0.63665 -0.651812,-1.37941 -0.545703,1.19372 -1.394575,2.06912 -0.151584,-0.23495 -0.37896,-0.55328 0.901926,-0.92466 1.421102,-2.23587 -0.477491,-0.96635 -1.0573,-2.09186 z m 3.93361,-0.56844 h 0.57602 v 1.37183 q 0,0.9133 -0.136425,1.61437 h 0.454752 v 1.80386 q 0,0.47749 0.394119,0.47749 h 0.363802 q 0.38654,0 0.439594,-0.40928 0.04548,-0.37138 0.07579,-1.00804 0.250114,0.10611 0.598757,0.23496 -0.06063,0.67455 -0.121267,1.04593 -0.113688,0.69729 -0.86403,0.69729 h -0.583599 q -0.86403,0 -0.86403,-0.89435 v -1.50447 q -0.128847,0.4358 -0.318327,0.76929 -0.538124,0.96256 -2.01607,1.81901 -0.159163,-0.22738 -0.416857,-0.50023 1.417313,-0.75792 1.92512,-1.63711 0.492648,-0.78066 0.492648,-2.47082 z m -1.561317,-1.08383 h 3.698655 v 4.54753 h -0.57602 v -3.98667 h -2.546615 v 4.09277 h -0.57602 z"
         style="stroke-width:0.26458332"
         id="path990" />
      <path
         d="m 92.938188,173.91295 h 1.34152 l 0.18948,-1.03835 h -1.894802 v -0.53054 h 4.358046 v 0.53054 h -1.849328 l -0.219797,1.03835 h 1.712902 v 3.62286 h -0.545703 v -3.09989 h -2.546615 v 3.13021 h -0.545703 z m 1.531,0.83372 h 0.545704 v 1.13688 q 0,0.84129 -0.181901,1.44763 1.098985,0.80339 2.091862,1.65984 l -0.454753,0.47749 q -0.86403,-0.83371 -1.856907,-1.61437 -0.0379,0.0682 -0.07579,0.12885 -0.515386,0.82613 -1.81901,1.4931 -0.250114,-0.31832 -0.424436,-0.50023 1.258149,-0.5457 1.72806,-1.26572 0.447173,-0.63666 0.447173,-1.84175 z m -4.50963,2.59209 0.447174,-0.33349 q 0.348643,0.41686 0.682129,0.82613 0.394119,-0.70486 0.795817,-1.68258 H 89.65639 v -0.52297 h 2.842204 v 0.52297 q -0.57602,1.28847 -1.045931,2.13734 0.295589,0.3638 0.57602,0.73518 l -0.522966,0.3638 q -0.757921,-1.11414 -1.546159,-2.04638 z m 1.584055,-5.2145 -0.09095,0.20464 q 0.697287,0.81097 1.356678,1.72048 l -0.454752,0.40928 q -0.591179,-0.89435 -1.15204,-1.6068 -0.591179,1.25815 -1.447629,2.47083 -0.151585,-0.2577 -0.371382,-0.53055 0.909506,-1.1293 1.568897,-2.66788 z m -0.818554,2.03881 0.469911,-0.23496 q 0.341064,0.53812 0.636653,1.13688 l -0.522965,0.27285 q -0.19706,-0.48507 -0.583599,-1.17477 z"
         style="stroke-width:0.26458332"
         id="path992" />
      <path
         d="m 100.97973,179.05166 q 0.86024,-0.70866 1.51963,-1.65227 -0.26148,-1.18236 -0.32211,-3.59255 h -2.660307 v -0.53054 h 2.645147 q -0.0114,-0.61392 -0.0152,-1.31878 h 0.5836 q -0.008,0.6897 0,1.31878 h 1.87206 v 0.53054 h -1.86069 q 0.0379,1.72048 0.20464,2.89147 0.54191,-0.93603 0.91329,-2.06533 l 0.53812,0.22737 q -0.5798,1.50827 -1.29604,2.63378 0.15916,0.59876 0.4017,0.97393 0.20464,0.3259 0.34864,0.3259 0.13643,0 0.18948,-0.3259 0.0682,-0.39412 0.10611,-1.18236 0.32591,0.12885 0.56844,0.19706 -0.10611,0.89435 -0.1819,1.26573 -0.12885,0.66697 -0.61392,0.67455 -0.37138,-0.008 -0.6897,-0.37138 -0.31454,-0.34865 -0.53434,-0.96635 -0.57981,0.78445 -1.2392,1.34531 -0.21222,-0.1819 -0.47749,-0.37896 z m -3.835079,-1.1672 q 0.496438,-0.15159 0.977718,-0.31075 v -2.96347 h -0.894347 v -0.53055 h 0.894347 v -2.10702 h 0.560861 v 2.10702 h 0.841293 v 0.53055 H 98.68323 v 2.77399 q 0.397909,-0.13643 0.788238,-0.28043 0,0.0834 0.05306,0.56086 -1.06109,0.38654 -2.235867,0.83371 z m 2.554193,-3.22875 h 1.932696 v 2.35714 h -0.52296 v -0.17432 h -0.88677 v 0.26527 h -0.522966 z m -0.583599,3.33486 q 1.371835,-0.21222 2.773995,-0.50023 -0.008,0.12127 0.0303,0.51539 -1.12172,0.20463 -2.607245,0.51538 z m 1.993335,-2.84979 h -0.88677 v 1.21268 h 0.88677 z m 2.24344,-3.07716 q 0.56087,0.39412 0.90193,0.69729 l -0.34864,0.4017 q -0.34107,-0.32591 -0.87919,-0.75034 z"
         style="stroke-width:0.26458332"
         id="path994" />
      <path
         d="m 104.91713,179.75273 q 1.27709,-1.531 1.27709,-3.58117 0,-2.05397 -1.28467,-3.62287 h 0.65939 q 1.28089,1.50069 1.28089,3.63045 0,2.12975 -1.28089,3.57359 z"
         style="stroke-width:0.26458332"
         id="path996" />
    </g>
    <g
       aria-label="纳米体系"
       style="font-style:normal;font-weight:normal;font-size:7.76111126px;line-height:1.25;font-family:sans-serif;letter-spacing:0px;word-spacing:0px;writing-mode:lr-tb;fill:#000000;fill-opacity:1;stroke:none;stroke-width:0.26458332"
       id="text847-52">
      <path
         d="m 58.961094,217.21049 h -0.57602 v -6.04821 h 1.898593 q 0.0038,-0.62907 0.0038,-1.34909 h 0.583599 q 0,0.73139 -0.0076,1.34909 h 1.879644 v 5.12355 q 0,0.84129 -0.810975,0.84129 h -1.121723 q -0.0379,-0.25011 -0.113688,-0.59118 0.659391,0.0455 1.008034,0.0455 0.462332,0 0.462332,-0.4017 v -1.29604 q -0.216007,0.17432 -0.454752,0.38654 -0.598758,-0.86024 -1.182357,-1.57648 -0.397909,1.12172 -1.280887,1.84933 -0.128846,-0.17053 -0.28801,-0.36759 z m -2.516297,-2.85736 q 0.742762,-0.10611 1.606792,-0.25769 -0.04548,0.28043 -0.06821,0.5836 -0.682129,0.0985 -2.235867,0.35622 l -0.121267,-0.56844 q 0.541913,-0.57223 1.170988,-1.59921 -0.541914,0.0303 -1.170988,0.0834 l -0.144005,-0.51539 q 0.697287,-0.93224 1.447629,-2.69062 l 0.57602,0.22738 q -0.818555,1.60679 -1.34152,2.41777 0.511597,-0.0114 0.928453,-0.0227 0.257693,-0.44717 0.526755,-0.96256 l 0.560862,0.28043 q -0.86403,1.44005 -1.735639,2.66788 z m 3.83508,-2.67546 h -1.318783 v 3.28938 q 1.284677,-1.0573 1.318783,-3.28938 z m 0.432015,1.36805 q 0.742763,0.84508 1.455208,1.74322 v -3.11127 h -1.311203 q -0.0076,0.73897 -0.144005,1.36805 z m -5.244814,3.07337 q 1.220253,-0.22738 2.607249,-0.53055 -0.02274,0.30317 -0.02274,0.56844 -1.182357,0.22738 -2.417768,0.53055 z"
         style="stroke-width:0.26458332"
         id="path999" />
      <path
         d="m 70.792242,216.0433 q -0.257694,0.30316 -0.409278,0.5457 -1.985753,-1.06867 -3.046842,-3.05821 v 3.7176 h -0.606337 v -3.7176 q -0.924664,1.9668 -3.107476,3.23253 -0.151585,-0.2198 -0.401698,-0.51539 2.122178,-1.20888 2.997577,-2.83462 h -2.891469 v -0.57602 h 3.403066 v -2.94073 h 0.606337 v 2.94073 h 3.350011 v 0.57602 h -2.830835 q 1.023193,1.7129 2.936944,2.62999 z m -2.645145,-3.95635 q 0.795817,-0.85645 1.402154,-1.7508 l 0.545703,0.39412 q -0.95498,1.18994 -1.493104,1.75838 z m -4.183724,-1.40973 0.432015,-0.35623 q 0.818555,0.92467 1.515842,1.73564 l -0.507807,0.42444 q -0.682129,-0.91709 -1.44005,-1.80385 z"
         style="stroke-width:0.26458332"
         id="path1001" />
      <path
         d="m 78.58367,215.30811 q -0.257694,0.31075 -0.447174,0.56086 -1.515842,-1.16719 -2.228288,-3.94876 v 3.19842 h 1.114144 v 0.54571 h -1.114144 v 1.58405 h -0.560861 v -1.58405 h -1.114144 v -0.54571 h 1.114144 v -3.19842 h -0.01895 q -0.704867,2.61861 -2.323028,4.07003 -0.174322,-0.2198 -0.401698,-0.47749 1.462787,-1.33773 2.190392,-3.59254 H 73.01295 v -0.54571 h 2.334397 v -1.54616 h 0.560861 v 1.54616 h 2.417768 v 0.54571 h -1.928909 q 0.723815,2.35713 2.186603,3.3879 z m -7.632265,-1.84175 q 1.098985,-1.60679 1.637109,-3.66075 l 0.57602,0.16674 q -0.295589,0.96635 -0.66697,1.81522 v 5.45324 h -0.560862 v -4.31257 q -0.341064,0.61771 -0.727604,1.15962 -0.113688,-0.31075 -0.257693,-0.6215 z"
         style="stroke-width:0.26458332"
         id="path1003" />
      <path
         d="m 84.093755,212.92066 q 0.970138,0.78066 1.985753,1.7129 -0.250114,0.24254 -0.462332,0.46233 -0.314537,-0.31074 -0.636654,-0.61391 -1.011824,0.0417 -2.069124,0.0985 v 1.70532 q 0,0.86403 -0.909506,0.86403 -0.371381,0 -0.977718,-0.0152 -0.0379,-0.28043 -0.09853,-0.62149 0.636653,0.0682 0.977718,0.0682 0.416856,0 0.416856,-0.40928 v -1.56131 q -0.920874,0.0493 -1.872065,0.1061 -0.432015,0.0227 -0.85645,0.0985 l -0.250114,-0.65181 q 0.500228,-0.0909 0.947401,-0.29559 1.159619,-0.56844 2.152496,-1.14446 -1.318783,0.10232 -2.21313,0.1819 -0.394119,0.0379 -0.598757,0.0834 l -0.242535,-0.63665 q 0.363802,-0.0909 0.682129,-0.26527 0.951191,-0.53055 1.906171,-1.25436 -1.299834,0.0796 -2.633775,0.14021 -0.05306,-0.26527 -0.136426,-0.53054 3.615283,-0.13643 6.419591,-0.41686 l 0.113688,0.53813 q -1.644688,0.13642 -3.338642,0.24632 l 0.306958,0.21601 q -1.189936,0.79582 -2.197971,1.34152 1.697743,-0.0947 2.811887,-0.1819 0.757921,-0.48507 1.402154,-0.97772 l 0.492649,0.4017 q -1.902382,1.35668 -4.41868,2.53903 1.508263,-0.0531 3.656969,-0.15916 -0.378961,-0.34864 -0.761711,-0.68213 z m -0.447174,2.48598 0.38654,-0.40928 q 0.95498,0.63666 2.099441,1.52343 l -0.447173,0.49264 q -1.06109,-0.87918 -2.038808,-1.60679 z m -2.963471,-0.4017 0.492649,0.38654 q -0.970139,0.87161 -2.038808,1.68259 -0.181901,-0.2198 -0.416857,-0.46233 0.985298,-0.67455 1.963016,-1.6068 z"
         style="stroke-width:0.26458332"
         id="path1005" />
    </g>
    <g
       aria-label="微观领域"
       style="font-style:normal;font-weight:normal;font-size:7.76111126px;line-height:1.25;font-family:sans-serif;letter-spacing:0px;word-spacing:0px;writing-mode:lr-tb;fill:#000000;fill-opacity:1;stroke:none;stroke-width:0.26458332"
       id="text847-0">
      <path
         d="m 60.84882,238.87646 0.515387,0.0909 q -0.121268,0.70108 -0.284221,1.33394 h 1.63332 v 0.5457 h -0.363802 q -0.159163,2.17145 -0.731394,3.43718 0.435805,0.84508 1.140671,1.44383 -0.166742,0.29559 -0.318326,0.5836 -0.670761,-0.64802 -1.110355,-1.47036 -0.454752,0.79202 -1.170988,1.52342 -0.151584,-0.2198 -0.371381,-0.47749 0.826134,-0.78066 1.273307,-1.62953 -0.424435,-1.05351 -0.515386,-2.36093 -0.121267,0.2918 -0.257693,0.56466 -0.151584,-0.19706 -0.363802,-0.39412 0.66697,-1.29605 0.924663,-3.19085 z m -3.592545,2.54661 v -1.8569 h 0.485069 v 1.34152 h 0.621495 v -1.92512 h 0.500228 v 1.92512 h 0.621496 v -1.3491 h 0.485069 v 2.10702 h -0.485069 v -0.24254 z m 1.750797,2.41777 h -1.000455 v 0.34865 q 0,1.36425 -0.765501,1.94027 -0.128846,-0.21221 -0.341064,-0.48507 0.598758,-0.39412 0.598758,-1.51584 v -0.80339 h 2.016069 v 1.31878 q 0.348644,-0.30317 0.795818,-0.71245 0.06821,0.33349 0.128846,0.5836 -0.416856,0.33349 -0.947401,0.81856 -0.166743,0.15916 -0.303169,0.30316 l -0.386539,-0.48506 q 0.204638,-0.20464 0.204638,-0.54571 z m -3.850238,-0.50781 q 0.85645,-1.00045 1.455208,-2.35713 l 0.500228,0.23496 q -0.280431,0.59117 -0.583599,1.10656 v 3.97909 h -0.515387 v -3.18327 q -0.318327,0.45096 -0.659391,0.82613 -0.09095,-0.30317 -0.197059,-0.60634 z m 6.677284,-2.48598 h -0.909505 l -0.02274,0.072 q 0.01137,1.55373 0.435804,2.72093 0.333486,-0.93982 0.496439,-2.79294 z m -6.639388,0.0455 q 0.95498,-0.97014 1.43247,-1.97817 l 0.469911,0.26527 q -0.66697,1.28088 -1.72048,2.30408 -0.08337,-0.29559 -0.181901,-0.59118 z m 2.213129,1.20509 h 2.410189 v 0.53055 h -2.410189 z"
         style="stroke-width:0.26458332"
         id="path1008" />
      <path
         d="m 63.774396,240.85463 q 0.409277,0.78445 0.826133,1.59164 0.306959,-1.04972 0.409278,-2.31166 h -1.887223 v -0.57602 h 2.478401 v 0.55328 q -0.136426,1.71669 -0.617705,3.07716 0.454752,0.88298 0.920874,1.79627 l -0.560862,0.31075 q -0.291799,-0.63665 -0.651812,-1.37942 -0.545703,1.19373 -1.394575,2.06913 -0.151584,-0.23496 -0.37896,-0.55328 0.901926,-0.92467 1.421102,-2.23587 -0.477491,-0.96635 -1.0573,-2.09186 z m 3.93361,-0.56844 h 0.57602 v 1.37184 q 0,0.91329 -0.136426,1.61437 h 0.454752 v 1.80385 q 0,0.47749 0.394119,0.47749 h 0.363803 q 0.386539,0 0.439594,-0.40927 0.04547,-0.37139 0.07579,-1.00804 0.250114,0.10611 0.598757,0.23496 -0.06063,0.67455 -0.121267,1.04593 -0.113688,0.69728 -0.86403,0.69728 h -0.583599 q -0.86403,0 -0.86403,-0.89434 v -1.50448 q -0.128847,0.43581 -0.318327,0.76929 -0.538124,0.96256 -2.01607,1.81901 -0.159163,-0.22737 -0.416856,-0.50022 1.417312,-0.75792 1.925119,-1.63711 0.492649,-0.78066 0.492649,-2.47082 z m -1.561318,-1.08383 h 3.698655 v 4.54753 h -0.57602 v -3.98666 h -2.546615 v 4.09277 h -0.57602 z"
         style="stroke-width:0.26458332"
         id="path1010" />
      <path
         d="m 74.218547,240.80158 h 1.34152 l 0.189481,-1.03835 h -1.894803 v -0.53055 h 4.358046 v 0.53055 h -1.849327 l -0.219797,1.03835 h 1.712901 v 3.62286 h -0.545703 v -3.0999 H 74.76425 v 3.13022 h -0.545703 z m 1.531001,0.83371 h 0.545703 v 1.13688 q 0,0.8413 -0.181901,1.44763 1.098985,0.8034 2.091862,1.65985 l -0.454753,0.47749 q -0.86403,-0.83371 -1.856906,-1.61437 -0.0379,0.0682 -0.07579,0.12884 -0.515387,0.82614 -1.819011,1.49311 -0.250114,-0.31833 -0.424436,-0.50023 1.258149,-0.5457 1.72806,-1.26573 0.447174,-0.63665 0.447174,-1.84175 z m -4.50963,2.59209 0.447173,-0.33348 q 0.348644,0.41685 0.682129,0.82613 0.394119,-0.70487 0.795817,-1.68258 h -2.228288 v -0.52297 h 2.842204 v 0.52297 q -0.57602,1.28846 -1.045931,2.13733 0.295589,0.3638 0.57602,0.73519 l -0.522965,0.3638 q -0.757921,-1.11415 -1.546159,-2.04639 z m 1.584055,-5.2145 -0.09095,0.20464 q 0.697287,0.81098 1.356679,1.72048 l -0.454753,0.40928 q -0.591178,-0.89435 -1.15204,-1.60679 -0.591178,1.25815 -1.447629,2.47082 -0.151584,-0.25769 -0.371381,-0.53054 0.909505,-1.12931 1.568896,-2.66789 z m -0.818555,2.03881 0.469911,-0.23495 q 0.341064,0.53812 0.636654,1.13688 l -0.522966,0.27285 q -0.197059,-0.48507 -0.583599,-1.17478 z"
         style="stroke-width:0.26458332"
         id="path1012" />
      <path
         d="m 82.260088,245.94028 q 0.860241,-0.70865 1.519632,-1.65226 -0.261483,-1.18236 -0.322116,-3.59255 h -2.660303 v -0.53055 h 2.645144 q -0.01137,-0.61391 -0.01516,-1.31878 h 0.583599 q -0.0076,0.68971 0,1.31878 h 1.872065 v 0.53055 h -1.860696 q 0.0379,1.72048 0.204638,2.89147 0.541914,-0.93603 0.913295,-2.06534 l 0.538124,0.22738 q -0.579809,1.50826 -1.296045,2.63378 0.159164,0.59875 0.401698,0.97392 0.204639,0.32591 0.348644,0.32591 0.136426,0 0.18948,-0.32591 0.06821,-0.39412 0.106109,-1.18235 0.325906,0.12884 0.568441,0.19706 -0.106109,0.89434 -0.181901,1.26572 -0.128847,0.66697 -0.613916,0.67455 -0.371381,-0.008 -0.689708,-0.37138 -0.314537,-0.34864 -0.534335,-0.96635 -0.579809,0.78445 -1.2392,1.34531 -0.212218,-0.1819 -0.477491,-0.37896 z m -3.83508,-1.1672 q 0.496438,-0.15158 0.977718,-0.31074 v -2.96347 h -0.894347 v -0.53055 h 0.894347 v -2.10702 h 0.560862 v 2.10702 h 0.841292 v 0.53055 h -0.841292 v 2.77399 q 0.397908,-0.13643 0.788238,-0.28043 0,0.0834 0.05305,0.56086 -1.061089,0.38654 -2.235867,0.83371 z m 2.554194,-3.22874 H 82.9119 v 2.35714 h -0.522965 v -0.17433 h -0.886768 v 0.26528 h -0.522965 z m -0.583599,3.33485 q 1.371837,-0.21221 2.773991,-0.50022 -0.0076,0.12126 0.03032,0.51538 -1.121723,0.20464 -2.607248,0.51539 z m 1.993332,-2.84978 h -0.886768 v 1.21267 h 0.886768 z m 2.243446,-3.07716 q 0.560862,0.39412 0.901926,0.69729 l -0.348644,0.4017 q -0.341064,-0.32591 -0.879188,-0.75035 z"
         style="stroke-width:0.26458332"
         id="path1014" />
    </g>
    <g
       aria-label="原子核物理"
       style="font-style:normal;font-weight:normal;font-size:7.76111126px;line-height:1.25;font-family:sans-serif;letter-spacing:0px;word-spacing:0px;writing-mode:lr-tb;fill:#000000;fill-opacity:1;stroke:none;stroke-width:0.26458332"
       id="text847-03">
      <path
         d="m 57.423017,255.768 h 1.371837 q 0.144005,-0.3638 0.272852,-0.75034 h -2.485981 v 2.06154 q 0,1.75838 -0.204639,2.59209 -0.204638,0.89435 -0.841292,1.81901 -0.18948,-0.25769 -0.424436,-0.52296 0.522966,-0.78066 0.689708,-1.53858 0.174322,-0.72003 0.174322,-2.21313 v -2.75125 h 6.62423 v 0.55328 h -2.864941 q -0.170533,0.40927 -0.329696,0.75034 h 2.5883 v 3.10748 H 61.42484 v -0.15159 h -1.402153 v 1.69774 q 0,0.95498 -0.86403,0.94741 -0.265273,0 -0.954981,-0.0152 -0.03032,-0.28801 -0.09853,-0.65939 0.591179,0.0758 0.932243,0.0758 0.378961,0 0.378961,-0.4396 v -1.60679 h -1.424892 v 0.15159 h -0.568441 z m 0.568441,2.44808 h 3.433382 v -0.7276 h -3.433382 z m 3.433382,-1.94027 h -3.433382 v 0.72002 h 3.433382 z m -3.350011,2.74367 0.522966,0.34106 q -0.735183,1.09141 -1.584055,1.9327 -0.197059,-0.16674 -0.492649,-0.37138 0.765501,-0.70486 1.553738,-1.90238 z m 2.955892,0.0152 q 0.985298,0.93224 1.682585,1.72806 l -0.507807,0.45475 q -0.727604,-0.92466 -1.621951,-1.81901 z"
         style="stroke-width:0.26458332"
         id="path1017" />
      <path
         d="m 62.970999,257.41269 h 3.524333 v -0.83372 l 2.175233,-1.58405 h -4.903749 v -0.56844 H 69.6786 v 0.59118 l -2.539035,1.8569 v 0.53813 h 3.319694 v 0.56844 h -3.319694 v 2.38745 q 0,1.01561 -1.06109,1.01561 -0.348643,0 -1.197515,-0.0152 -0.03032,-0.30317 -0.09095,-0.68971 0.553282,0.0682 1.167198,0.0758 0.538124,0 0.538124,-0.5457 v -2.22829 h -3.524333 z"
         style="stroke-width:0.26458332"
         id="path1019" />
      <path
         d="m 73.081666,259.51971 q 1.508263,-0.78066 2.531456,-1.84933 -0.742763,0.0758 -1.379416,0.14401 -0.280431,0.0303 -0.522966,0.1061 l -0.280431,-0.55328 q 0.310748,-0.16674 0.48507,-0.39412 0.47749,-0.5836 0.932243,-1.33394 h -1.44005 v -0.5457 h 2.326817 q -0.310747,-0.46233 -0.57602,-0.82613 l 0.492649,-0.31075 q 0.28801,0.35622 0.66697,0.87161 l -0.401698,0.26527 h 2.319239 v 0.5457 h -2.683041 q -0.553282,0.84129 -1.14446,1.58406 0.833713,-0.0455 1.690163,-0.0985 0.432015,-0.53813 0.757921,-1.14446 l 0.553283,0.29559 q -1.296045,2.27376 -3.895714,3.70623 -0.212218,-0.23496 -0.432015,-0.46233 z m -2.395031,-0.72003 q 0.810976,-1.28846 1.136882,-2.74367 H 70.73969 v -0.53055 h 1.091406 v -1.50826 h 0.568441 v 1.50826 h 0.86403 v 0.53055 h -0.86403 v 1.33394 l 0.234955,-0.25011 q 0.48507,0.40927 0.901926,0.81855 l -0.386539,0.38654 q -0.371382,-0.4017 -0.750342,-0.75034 v 3.89571 h -0.568441 v -4.01698 q -0.38654,1.24299 -0.901926,1.99333 -0.09853,-0.3259 -0.242535,-0.66697 z m 2.622407,2.21313 q 2.59209,-1.0914 4.267095,-3.56223 l 0.515387,0.34865 q -0.651812,0.93982 -1.424892,1.69016 0.871609,0.71245 1.63711,1.39458 l -0.462332,0.49264 q -0.712446,-0.70486 -1.591634,-1.50068 -1.144461,1.00804 -2.539036,1.63711 -0.144005,-0.20464 -0.401698,-0.50023 z"
         style="stroke-width:0.26458332"
         id="path1021" />
      <path
         d="m 80.926147,256.96551 q 0.750342,-1.15204 1.371837,-3.00136 l 0.553283,0.16674 q -0.216008,0.60255 -0.432015,1.12172 h 3.289377 q -0.151584,3.05442 -0.250114,4.67638 -0.08337,1.26572 -1.212674,1.26572 -0.424435,0 -1.000455,-0.0227 -0.0379,-0.28043 -0.106109,-0.64424 0.659391,0.0758 1.045931,0.0758 0.613916,0 0.674549,-0.69729 0.136426,-1.59922 0.242535,-4.11551 h -0.579809 q -0.19706,1.9327 -0.640444,3.04684 -0.606336,1.44005 -2.061545,2.47082 -0.166742,-0.23495 -0.38654,-0.46233 1.417313,-1.00046 1.963016,-2.2965 0.439594,-1.06488 0.564651,-2.75883 h -0.67455 q -0.204638,1.44763 -0.610126,2.32681 -0.500228,0.99288 -1.371837,1.78112 -0.18948,-0.24254 -0.394119,-0.44717 0.86403,-0.75035 1.280886,-1.57648 0.405488,-0.84129 0.538124,-2.08428 h -0.545703 q -0.386539,0.86024 -0.773079,1.46278 -0.18948,-0.12884 -0.48507,-0.28801 z m -2.470822,1.55374 q 0.697287,-0.23116 1.447629,-0.49265 v -1.78869 h -0.685919 q -0.151584,0.72003 -0.367591,1.31878 -0.242535,-0.17432 -0.492649,-0.33348 0.424436,-1.03835 0.538124,-2.49356 l 0.545703,0.091 q -0.05305,0.4737 -0.128846,0.9095 h 0.591178 v -1.70532 h 0.568441 v 1.70532 h 0.750342 v 0.50781 h -0.750342 v 1.58784 q 0.371381,-0.13642 0.757921,-0.27664 0.0379,0.33349 0.08337,0.57602 -0.375171,0.13643 -0.841292,0.31075 v 3.01653 h -0.568441 v -2.80052 q -0.606337,0.22737 -1.333941,0.5116 z"
         style="stroke-width:0.26458332"
         id="path1023" />
      <path
         d="m 88.565992,260.64143 h 2.372293 v -1.0914 h -1.932699 v -0.53055 h 1.932699 v -1.00046 h -1.212674 v 0.28044 H 89.16475 v -3.91088 h 4.107932 v 3.91088 H 92.71182 v -0.28044 h -1.212673 v 1.00046 h 1.932698 v 0.53055 h -1.932698 v 1.0914 h 2.266183 v 0.53055 h -5.199338 z m -2.410189,-0.44717 q 0.5836,-0.14022 1.129303,-0.28043 v -2.2965 h -0.947402 v -0.53055 h 0.947402 v -1.8948 h -1.023194 v -0.53055 h 2.607249 v 0.53055 h -1.023194 v 1.8948 h 0.96256 v 0.53055 h -0.96256 v 2.14491 q 0.500228,-0.14021 0.970139,-0.28043 0.0379,0.34107 0.08337,0.59118 -1.296045,0.34864 -2.539035,0.73518 z m 5.343344,-2.69062 h 1.212673 v -1.05351 h -1.212673 z m -1.773536,0 h 1.212674 v -1.05351 h -1.212674 z m 2.986209,-2.59967 h -1.212673 v 1.04593 h 1.212673 z m -2.986209,1.04593 h 1.212674 v -1.04593 h -1.212674 z"
         style="stroke-width:0.26458332"
         id="path1025" />
    </g>
    <g
       aria-label="粒子物理"
       style="font-style:normal;font-weight:normal;font-size:7.76111126px;line-height:1.25;font-family:sans-serif;letter-spacing:0px;word-spacing:0px;writing-mode:lr-tb;fill:#000000;fill-opacity:1;stroke:none;stroke-width:0.26458332"
       id="text847-3">
      <path
         d="m 58.014196,279.86785 h 2.448085 q 0.47749,-1.66743 1.008035,-4.16857 l 0.613916,0.14401 q -0.591179,2.34955 -1.091407,4.02456 h 1.659847 v 0.53054 h -4.638476 z m 0.37896,-5.07807 h 4.024561 v 0.53054 h -4.024561 z m 0.318327,1.03835 0.553283,-0.10611 q 0.325906,1.57648 0.651812,3.35001 l -0.568441,0.12885 q -0.310748,-1.85691 -0.636654,-3.37275 z m -1.409733,-0.34864 q 0.47749,-0.90951 0.697287,-1.50069 l 0.507807,0.23496 q -0.303168,0.68971 -0.7655,1.51584 z m -2.099441,-1.29605 0.447173,-0.20464 q 0.204639,0.40928 0.689708,1.48553 l -0.507807,0.25769 q -0.47749,-1.21267 -0.629074,-1.53858 z m 4.532368,-0.60634 0.507807,-0.24253 q 0.333485,0.57602 0.613916,1.1293 l -0.538124,0.25769 q -0.318327,-0.68212 -0.583599,-1.14446 z m -4.562685,5.50251 q 0.901926,-1.23541 1.273307,-2.40261 H 55.18715 v -0.53054 h 1.379417 v -2.78157 h 0.538124 v 2.78157 h 1.371837 v 0.53054 h -1.371837 v 0.9474 l 0.272851,-0.26527 q 0.606337,0.53054 1.106565,1.00046 l -0.401698,0.37896 q -0.651812,-0.66697 -0.977718,-0.95498 v 3.01652 h -0.538124 v -3.22874 q -0.439595,1.18993 -1.159619,2.1146 -0.09853,-0.31075 -0.234956,-0.60634 z"
         style="stroke-width:0.26458332"
         id="path1028" />
      <path
         d="m 62.970999,276.78311 h 3.524333 v -0.83371 l 2.175233,-1.58406 H 63.766816 V 273.7969 H 69.6786 v 0.59118 l -2.539035,1.85691 v 0.53812 h 3.319694 v 0.56844 h -3.319694 v 2.38745 q 0,1.01562 -1.06109,1.01562 -0.348643,0 -1.197515,-0.0152 -0.03032,-0.30317 -0.09095,-0.68971 0.553282,0.0682 1.167198,0.0758 0.538124,0 0.538124,-0.5457 v -2.22829 h -3.524333 z"
         style="stroke-width:0.26458332"
         id="path1030" />
      <path
         d="m 73.165037,276.33594 q 0.750342,-1.15204 1.371837,-3.00137 l 0.553282,0.16674 q -0.216007,0.60255 -0.432015,1.12173 h 3.289378 q -0.151585,3.05442 -0.250114,4.67637 -0.08337,1.26573 -1.212674,1.26573 -0.424436,0 -1.000456,-0.0227 -0.0379,-0.28043 -0.106109,-0.64423 0.659392,0.0758 1.045931,0.0758 0.613916,0 0.67455,-0.69729 0.136426,-1.59921 0.242535,-4.11551 h -0.57981 q -0.197059,1.9327 -0.640443,3.04684 -0.606337,1.44005 -2.061545,2.47082 -0.166743,-0.23495 -0.38654,-0.46233 1.417312,-1.00045 1.963016,-2.2965 0.439594,-1.06488 0.564651,-2.75883 h -0.67455 q -0.204639,1.44763 -0.610126,2.32682 -0.500228,0.99287 -1.371837,1.78111 -0.189481,-0.24253 -0.394119,-0.44717 0.86403,-0.75034 1.280886,-1.57648 0.405488,-0.84129 0.538124,-2.08428 h -0.545703 q -0.38654,0.86024 -0.77308,1.46279 -0.18948,-0.12885 -0.485069,-0.28801 z m -2.470822,1.55373 q 0.697287,-0.23116 1.447629,-0.49264 v -1.7887 h -0.685919 q -0.151584,0.72003 -0.367592,1.31879 -0.242534,-0.17433 -0.492648,-0.33349 0.424436,-1.03835 0.538124,-2.49356 l 0.545703,0.0909 q -0.05306,0.4737 -0.128847,0.90951 h 0.591179 v -1.70533 h 0.56844 v 1.70533 h 0.750342 v 0.5078 h -0.750342 v 1.58785 q 0.371382,-0.13643 0.757921,-0.27664 0.0379,0.33348 0.08337,0.57602 -0.375171,0.13642 -0.841293,0.31074 v 3.01653 h -0.56844 v -2.80052 q -0.606337,0.22738 -1.333941,0.5116 z"
         style="stroke-width:0.26458332"
         id="path1032" />
      <path
         d="m 80.80488,280.01185 h 2.372293 v -1.0914 h -1.932699 v -0.53055 h 1.932699 v -1.00045 h -1.212674 v 0.28043 h -0.560861 v -3.91087 h 4.107932 v 3.91087 h -0.560862 v -0.28043 h -1.212674 v 1.00045 h 1.932699 v 0.53055 h -1.932699 v 1.0914 h 2.266184 v 0.53055 H 80.80488 Z m -2.410189,-0.44717 q 0.583599,-0.14022 1.129302,-0.28043 v -2.2965 h -0.947401 v -0.53055 h 0.947401 v -1.8948 H 78.5008 v -0.53054 h 2.607248 v 0.53054 h -1.023193 v 1.8948 h 0.96256 v 0.53055 h -0.96256 v 2.14492 q 0.500228,-0.14022 0.970139,-0.28044 0.0379,0.34107 0.08337,0.59118 -1.296045,0.34865 -2.539035,0.73519 z m 5.343343,-2.69062 h 1.212674 v -1.05351 h -1.212674 z m -1.773535,0 h 1.212674 v -1.05351 h -1.212674 z m 2.986209,-2.59967 h -1.212674 v 1.04593 h 1.212674 z m -2.986209,1.04593 h 1.212674 v -1.04593 h -1.212674 z"
         style="stroke-width:0.26458332"
         id="path1034" />
    </g>
    <g
       aria-label="尺寸空间"
       style="font-style:normal;font-weight:normal;font-size:7.76111126px;line-height:1.25;font-family:sans-serif;letter-spacing:0px;word-spacing:0px;writing-mode:lr-tb;fill:#000000;fill-opacity:1;stroke:none;stroke-width:0.26458332"
       id="text847-7">
      <path
         d="m 11.119005,93.158517 h 4.940267 v 2.811198 h -0.537435 v -0.275608 h -1.977484 q 0.647678,2.211751 3.369303,3.073025 -0.254937,0.372071 -0.399631,0.578776 -2.907661,-1.143771 -3.493327,-3.651801 h -1.357367 q -0.04823,2.390896 -1.226454,3.755154 -0.07579,-0.103353 -0.392741,-0.475423 1.074869,-1.178223 1.074869,-3.534668 z m 4.402832,0.509874 h -3.851616 v 1.515842 h 3.851616 z"
         style="font-size:7.05555534px;stroke-width:0.26458332"
         id="path1037" />
      <path
         d="m 17.230605,93.98534 h 4.471734 v -1.309136 h 0.599446 v 1.309136 h 1.570964 v 0.530545 h -1.570964 v 3.513997 q 0,1.226454 -1.129991,1.226454 -0.592557,0 -1.605415,-0.0069 -0.04823,-0.275608 -0.165364,-0.675239 0.792372,0.08268 1.632975,0.07579 0.668349,0 0.668349,-0.71658 v -3.417534 h -4.471734 z m 1.240234,1.054199 q 0.875054,0.881944 1.646756,1.750108 L 19.58705,97.23751 Q 18.836019,96.279773 18.043647,95.4185 Z"
         style="font-size:7.05555534px;stroke-width:0.26458332"
         id="path1039" />
      <path
         d="m 24.437744,98.553536 h 2.86632 v -1.80523 h -2.15663 v -0.523654 h 4.905816 v 0.523654 h -2.16352 v 1.80523 h 2.873209 v 0.523655 h -6.325195 z m 0.04134,-5.029839 h 2.993788 q -0.158474,-0.299723 -0.396186,-0.675239 l 0.509874,-0.248047 q 0.282498,0.406522 0.489204,0.799263 l -0.251492,0.124023 h 2.904215 v 1.336697 h -0.564995 v -0.813042 h -5.119412 v 0.813042 h -0.564996 z m 2.218642,0.868164 0.406521,0.392741 q -1.336697,1.047309 -2.51492,1.708767 -0.213595,-0.282498 -0.413411,-0.447862 1.350477,-0.689019 2.52181,-1.653646 z m 1.770779,0.0069 q 1.44694,0.861274 2.514919,1.626085 l -0.39274,0.475423 q -1.040419,-0.813042 -2.452908,-1.701877 z"
         style="font-size:7.05555534px;stroke-width:0.26458332"
         id="path1041" />
      <path
         d="m 33.181396,94.495214 h 2.921441 v 3.410644 H 33.67749 v 0.427192 h -0.496094 z m 0.578776,-0.888835 v -0.516764 h 3.996311 v 5.457031 q 0,0.868164 -0.985297,0.868164 -0.399631,0 -1.047309,-0.01378 -0.02756,-0.206706 -0.110243,-0.558106 0.571885,0.04134 1.08865,0.04134 0.516764,0 0.516764,-0.502983 v -4.774903 z m -2.17041,0.406522 h 0.537435 v 5.401909 h -0.537435 z m 2.087728,3.403754 h 1.929253 V 96.438248 H 33.67749 Z m 1.929253,-2.432238 H 33.67749 v 0.964627 h 1.929253 z m -3.658691,-1.984374 0.392741,-0.3514 q 0.523655,0.496094 0.971517,0.964627 l -0.447862,0.39274 q -0.420302,-0.496093 -0.916396,-1.005967 z"
         style="font-size:7.05555534px;stroke-width:0.26458332"
         id="path1043" />
    </g>
    <g
       aria-label="1微米"
       style="font-style:normal;font-weight:normal;font-size:7.76111126px;line-height:1.25;font-family:sans-serif;letter-spacing:0px;word-spacing:0px;writing-mode:lr-tb;fill:#000000;fill-opacity:1;stroke:none;stroke-width:0.26458332"
       id="text847-7-6">
      <path
         d="m 18.487403,168.78647 v -4.56475 q -0.158474,0.15847 -0.537435,0.35484 -0.375515,0.19637 -0.695909,0.27561 v -0.66146 q 0.423747,-0.11713 0.90606,-0.37207 0.482313,-0.25838 0.740696,-0.48576 h 0.254937 v 5.45359 z"
         style="font-size:7.05555534px;stroke-width:0.26458332"
         id="path1046" />
      <path
         d="m 25.921919,162.94014 0.468533,0.0827 q -0.110243,0.63735 -0.258382,1.21268 h 1.484836 v 0.49609 h -0.330729 q -0.144694,1.97404 -0.664904,3.1247 0.396186,0.76826 1.036974,1.31258 -0.151584,0.26872 -0.289388,0.53055 -0.609782,-0.58911 -1.009413,-1.3367 -0.413412,0.72003 -1.064535,1.38493 -0.137803,-0.19982 -0.337619,-0.43408 0.751031,-0.70969 1.157552,-1.48139 -0.385851,-0.95774 -0.468533,-2.1463 -0.110243,0.26528 -0.234266,0.51332 -0.137804,-0.17914 -0.330729,-0.35829 0.606336,-1.17822 0.840603,-2.90077 z m -3.265951,2.31511 v -1.6881 h 0.440973 v 1.21956 h 0.564995 v -1.75011 h 0.454753 v 1.75011 h 0.564995 v -1.22645 h 0.440973 v 1.91547 h -0.440973 v -0.22048 z m 1.591634,2.19797 h -0.909505 v 0.31695 q 0,1.24023 -0.695909,1.76388 -0.117133,-0.19292 -0.310059,-0.44097 0.544325,-0.35829 0.544325,-1.37804 v -0.73036 h 1.832791 v 1.1989 q 0.316949,-0.27561 0.72347,-0.64768 0.06201,0.30317 0.117134,0.53054 -0.378961,0.30317 -0.861274,0.74414 -0.151585,0.1447 -0.275608,0.27561 l -0.3514,-0.44097 q 0.186035,-0.18604 0.186035,-0.49609 z m -3.500216,-0.46165 q 0.778591,-0.9095 1.322916,-2.14285 l 0.454753,0.2136 q -0.254937,0.53744 -0.530545,1.00597 v 3.61735 h -0.468533 v -2.89388 q -0.289388,0.40996 -0.599446,0.75103 -0.08268,-0.27561 -0.179145,-0.55122 z m 6.070258,-2.25998 h -0.826823 l -0.02067,0.0655 q 0.01034,1.41249 0.396186,2.47358 0.303169,-0.85439 0.451308,-2.53904 z m -6.035807,0.0413 q 0.868164,-0.88194 1.302246,-1.79834 l 0.427191,0.24116 q -0.606336,1.16444 -1.564073,2.09462 -0.07579,-0.26872 -0.165364,-0.53744 z m 2.011935,1.09554 h 2.191081 v 0.48232 h -2.191081 z"
         style="font-size:7.05555534px;stroke-width:0.26458332"
         id="path1048" />
      <path
         d="m 34.686241,168.59699 q -0.234266,0.27561 -0.37207,0.49609 -1.80523,-0.97151 -2.769857,-2.78019 v 3.37964 h -0.551215 v -3.37964 q -0.840603,1.788 -2.824978,2.93867 -0.137804,-0.19982 -0.36518,-0.46854 1.929253,-1.09898 2.72507,-2.57693 h -2.628607 v -0.52365 h 3.093695 v -2.6734 h 0.551215 v 2.6734 h 3.045465 v 0.52365 h -2.573486 q 0.930175,1.55719 2.669948,2.3909 z m -2.404676,-3.59668 q 0.72347,-0.77859 1.274685,-1.59164 l 0.496094,0.35829 q -0.868164,1.08176 -1.357368,1.59853 z m -3.803385,-1.28158 0.39274,-0.32384 q 0.744141,0.84061 1.378039,1.57786 l -0.461643,0.38585 q -0.620117,-0.83371 -1.309136,-1.63987 z"
         style="font-size:7.05555534px;stroke-width:0.26458332"
         id="path1050" />
    </g>
    <g
       aria-label="100微米"
       style="font-style:normal;font-weight:normal;font-size:7.76111126px;line-height:1.25;font-family:sans-serif;letter-spacing:0px;word-spacing:0px;writing-mode:lr-tb;fill:#000000;fill-opacity:1;stroke:none;stroke-width:0.26458332"
       id="text847-7-7">
      <path
         d="m 10.618155,188.45958 v -4.56475 q -0.158475,0.15847 -0.537435,0.35484 -0.3755155,0.19637 -0.6959094,0.27561 v -0.66146 q 0.4237468,-0.11713 0.9060604,-0.37207 0.482313,-0.25838 0.740695,-0.48576 h 0.254937 v 5.45359 z"
         style="font-size:7.05555534px;stroke-width:0.26458332"
         id="path1053" />
      <path
         d="m 13.102068,185.89643 q 0,-1.41249 0.468533,-2.13596 0.468533,-0.72692 1.357368,-0.72692 1.694987,0 1.694987,2.73541 0,1.35048 -0.478868,2.06706 -0.475424,0.71313 -1.336697,0.71313 -0.813043,0 -1.260905,-0.67868 -0.444418,-0.67869 -0.444418,-1.97404 z m 0.689019,-0.031 q 0,2.12563 1.078315,2.12563 1.06109,0 1.06109,-2.16008 0,-2.23587 -1.040419,-2.23587 -1.098986,0 -1.098986,2.27032 z"
         style="font-size:7.05555534px;stroke-width:0.26458332"
         id="path1055" />
      <path
         d="m 17.236183,185.89643 q 0,-1.41249 0.468533,-2.13596 0.468533,-0.72692 1.357367,-0.72692 1.694987,0 1.694987,2.73541 0,1.35048 -0.478868,2.06706 -0.475423,0.71313 -1.336697,0.71313 -0.813043,0 -1.260905,-0.67868 -0.444417,-0.67869 -0.444417,-1.97404 z m 0.689019,-0.031 q 0,2.12563 1.078315,2.12563 1.061089,0 1.061089,-2.16008 0,-2.23587 -1.040419,-2.23587 -1.098985,0 -1.098985,2.27032 z"
         style="font-size:7.05555534px;stroke-width:0.26458332"
         id="path1057" />
      <path
         d="m 26.320899,182.61325 0.468533,0.0827 q -0.110243,0.63735 -0.258382,1.21268 h 1.484836 v 0.49609 h -0.330729 q -0.144694,1.97404 -0.664904,3.1247 0.396186,0.76826 1.036974,1.31259 -0.151584,0.26871 -0.289388,0.53054 -0.609782,-0.58911 -1.009413,-1.3367 -0.413411,0.72003 -1.064534,1.38493 -0.137804,-0.19981 -0.33762,-0.43408 0.751031,-0.70969 1.157552,-1.48139 -0.38585,-0.95774 -0.468533,-2.1463 -0.110243,0.26528 -0.234266,0.51332 -0.137804,-0.17914 -0.330729,-0.35829 0.606336,-1.17822 0.840603,-2.90077 z m -3.26595,2.31511 v -1.6881 h 0.440972 v 1.21956 h 0.564995 v -1.7501 h 0.454753 v 1.7501 h 0.564996 v -1.22645 h 0.440972 v 1.91547 h -0.440972 v -0.22048 z m 1.591634,2.19797 h -0.909506 v 0.31695 q 0,1.24023 -0.695909,1.76389 -0.117133,-0.19293 -0.310058,-0.44098 0.544325,-0.35829 0.544325,-1.37804 v -0.73036 h 1.83279 v 1.1989 q 0.316949,-0.27561 0.72347,-0.64768 0.06201,0.30317 0.117134,0.53054 -0.378961,0.30317 -0.861274,0.74415 -0.151584,0.14469 -0.275608,0.2756 l -0.3514,-0.44097 q 0.186036,-0.18603 0.186036,-0.49609 z m -3.500217,-0.46165 q 0.778591,-0.9095 1.322916,-2.14284 l 0.454753,0.21359 q -0.254937,0.53744 -0.530545,1.00597 v 3.61735 h -0.468533 v -2.89388 q -0.289388,0.40997 -0.599446,0.75103 -0.08268,-0.27561 -0.179145,-0.55122 z m 6.070258,-2.25998 h -0.826823 l -0.02067,0.0655 q 0.01034,1.41249 0.396186,2.47358 0.303169,-0.85439 0.451308,-2.53904 z m -6.035807,0.0413 q 0.868164,-0.88194 1.302246,-1.79834 l 0.427192,0.24116 q -0.606337,1.16444 -1.564074,2.09462 -0.07579,-0.26872 -0.165364,-0.53744 z m 2.011935,1.09554 h 2.191081 v 0.48232 h -2.191081 z"
         style="font-size:7.05555534px;stroke-width:0.26458332"
         id="path1059" />
      <path
         d="m 35.085221,188.2701 q -0.234267,0.27561 -0.372071,0.49609 -1.80523,-0.97151 -2.769856,-2.78019 v 3.37964 H 31.392078 V 185.986 q -0.840603,1.78801 -2.824978,2.93867 -0.137804,-0.19982 -0.36518,-0.46854 1.929253,-1.09898 2.725071,-2.57693 h -2.628608 v -0.52365 h 3.093695 v -2.6734 h 0.551216 v 2.6734 h 3.045464 v 0.52365 h -2.573486 q 0.930175,1.55719 2.669949,2.3909 z m -2.404677,-3.59668 q 0.72347,-0.77859 1.274685,-1.59163 l 0.496094,0.35829 q -0.868164,1.08176 -1.357367,1.59852 z m -3.803385,-1.28158 0.392741,-0.32383 q 0.74414,0.8406 1.378038,1.57785 l -0.461643,0.38585 q -0.620117,-0.83371 -1.309136,-1.63987 z"
         style="font-size:7.05555534px;stroke-width:0.26458332"
         id="path1061" />
    </g>
    <g
       aria-label="1纳米"
       style="font-style:normal;font-weight:normal;font-size:7.76111126px;line-height:1.25;font-family:sans-serif;letter-spacing:0px;word-spacing:0px;writing-mode:lr-tb;fill:#000000;fill-opacity:1;stroke:none;stroke-width:0.26458332"
       id="text847-7-2">
      <path
         d="m 18.184741,232.04312 v -4.56475 q -0.158474,0.15847 -0.537435,0.35484 -0.375515,0.19638 -0.695909,0.27561 v -0.66146 q 0.423747,-0.11713 0.90606,-0.37207 0.482314,-0.25838 0.740696,-0.48575 h 0.254937 v 5.45358 z"
         style="font-size:7.05555534px;stroke-width:0.26458332"
         id="path1064" />
      <path
         d="m 23.627992,232.91473 h -0.523655 v -5.49837 h 1.725993 q 0.0034,-0.57189 0.0034,-1.22646 h 0.530545 q 0,0.66491 -0.0069,1.22646 h 1.708767 v 4.65777 q 0,0.76481 -0.73725,0.76481 h -1.019749 q -0.03445,-0.22738 -0.103353,-0.53744 0.599447,0.0413 0.916396,0.0413 0.420301,0 0.420301,-0.36518 v -1.17822 q -0.19637,0.15848 -0.413411,0.3514 -0.544325,-0.78204 -1.07487,-1.43316 -0.361735,1.01975 -1.164442,1.68121 -0.117133,-0.15503 -0.261827,-0.33418 z m -2.287544,-2.5976 q 0.675239,-0.0965 1.460721,-0.23427 -0.04134,0.25494 -0.06201,0.53055 -0.620117,0.0896 -2.032606,0.32384 l -0.110243,-0.51677 q 0.492648,-0.52021 1.064534,-1.45383 -0.492648,0.0276 -1.064534,0.0758 l -0.130914,-0.46853 q 0.633898,-0.84749 1.316027,-2.44602 l 0.523654,0.20671 q -0.74414,1.46072 -1.219564,2.19797 0.465088,-0.0103 0.844049,-0.0207 0.234266,-0.40652 0.478868,-0.87506 l 0.509874,0.25494 q -0.785482,1.30914 -1.577854,2.42535 z m 3.486437,-2.43224 h -1.198893 v 2.99034 q 1.167887,-0.96118 1.198893,-2.99034 z m 0.392741,1.24368 q 0.675239,0.76826 1.322916,1.58474 v -2.82842 h -1.192003 q -0.0069,0.67179 -0.130913,1.24368 z m -4.768012,2.79397 q 1.109321,-0.2067 2.370225,-0.48231 -0.02067,0.27561 -0.02067,0.51676 -1.07487,0.20671 -2.197971,0.48232 z"
         style="font-size:7.05555534px;stroke-width:0.26458332"
         id="path1066" />
      <path
         d="m 34.38358,231.85364 q -0.234267,0.27561 -0.372071,0.49609 -1.80523,-0.97151 -2.769856,-2.78019 v 3.37964 h -0.551216 v -3.37964 q -0.840603,1.78801 -2.824978,2.93867 -0.137804,-0.19982 -0.36518,-0.46853 1.929253,-1.09899 2.72507,-2.57694 h -2.628607 v -0.52365 h 3.093695 v -2.67339 h 0.551216 v 2.67339 h 3.045464 v 0.52365 h -2.573486 q 0.930175,1.55719 2.669949,2.3909 z m -2.404677,-3.59668 q 0.72347,-0.77859 1.274685,-1.59163 l 0.496094,0.35829 q -0.868164,1.08176 -1.357368,1.59852 z m -3.803385,-1.28157 0.392741,-0.32384 q 0.74414,0.8406 1.378038,1.57785 l -0.461643,0.38585 q -0.620117,-0.83371 -1.309136,-1.63986 z"
         style="font-size:7.05555534px;stroke-width:0.26458332"
         id="path1068" />
    </g>
    <g
       aria-label="介观领域"
       style="font-style:normal;font-weight:normal;font-size:7.76111126px;line-height:1.25;font-family:sans-serif;letter-spacing:0px;word-spacing:0px;writing-mode:tb-rl;fill:#000000;fill-opacity:1;stroke:none;stroke-width:0.26458332"
       id="text961">
      <path
         d="m 129.60471,184.01606 -0.15916,0.2198 q 1.2733,1.97818 3.39548,2.82705 -0.24253,0.35622 -0.40928,0.65939 -2.22828,-1.1672 -3.36517,-3.00137 -1.13688,1.75838 -3.41064,3.11506 -0.18948,-0.36381 -0.40928,-0.65939 2.26619,-1.09141 3.53949,-3.16054 z m -2.30408,2.96348 h 0.60634 q 0,2.48598 -0.37896,3.19084 -0.30317,0.65182 -1.28847,1.33394 -0.19706,-0.25769 -0.43959,-0.5078 0.9095,-0.57602 1.18235,-1.14446 0.31833,-0.5836 0.31833,-2.87252 z m 2.79673,-0.0152 h 0.61391 v 4.40352 h -0.61391 z"
         style="stroke-width:0.26458332"
         id="path1071" />
      <path
         d="m 126.13343,193.67198 q 0.40928,0.78445 0.82613,1.59163 0.30696,-1.04972 0.40928,-2.31166 h -1.88722 v -0.57602 h 2.4784 v 0.55329 q -0.13643,1.71669 -0.61771,3.07716 0.45476,0.88297 0.92088,1.79627 l -0.56086,0.31075 q -0.2918,-0.63666 -0.65181,-1.37942 -0.54571,1.19372 -1.39458,2.06912 -0.15158,-0.23495 -0.37896,-0.55328 0.90193,-0.92466 1.4211,-2.23587 -0.47749,-0.96634 -1.0573,-2.09186 z m 3.93361,-0.56844 h 0.57602 v 1.37183 q 0,0.9133 -0.13643,1.61438 h 0.45476 v 1.80385 q 0,0.47749 0.39412,0.47749 h 0.3638 q 0.38654,0 0.43959,-0.40928 0.0455,-0.37138 0.0758,-1.00803 0.25012,0.10611 0.59876,0.23495 -0.0606,0.67455 -0.12126,1.04593 -0.11369,0.69729 -0.86403,0.69729 h -0.5836 q -0.86403,0 -0.86403,-0.89435 v -1.50447 q -0.12885,0.4358 -0.31833,0.76929 -0.53812,0.96256 -2.01607,1.81901 -0.15916,-0.22738 -0.41686,-0.50023 1.41731,-0.75792 1.92512,-1.63711 0.49265,-0.78066 0.49265,-2.47082 z m -1.56132,-1.08383 h 3.69866 v 4.54753 h -0.57602 v -3.98667 h -2.54662 v 4.09278 h -0.57602 z"
         style="stroke-width:0.26458332"
         id="path1073" />
      <path
         d="m 128.81647,201.38004 h 1.34152 l 0.18948,-1.03836 h -1.8948 v -0.53054 h 4.35804 v 0.53054 h -1.84932 l -0.2198,1.03836 h 1.7129 v 3.62286 h -0.5457 v -3.0999 h -2.54662 v 3.13021 h -0.5457 z m 1.531,0.83371 h 0.5457 v 1.13688 q 0,0.84129 -0.1819,1.44763 1.09899,0.8034 2.09187,1.65985 l -0.45476,0.47749 q -0.86403,-0.83372 -1.8569,-1.61438 -0.0379,0.0682 -0.0758,0.12885 -0.51538,0.82614 -1.81901,1.49311 -0.25011,-0.31833 -0.42443,-0.50023 1.25815,-0.54571 1.72806,-1.26573 0.44717,-0.63665 0.44717,-1.84175 z m -4.50963,2.59209 0.44717,-0.33349 q 0.34865,0.41686 0.68213,0.82614 0.39412,-0.70487 0.79582,-1.68259 h -2.22829 v -0.52296 h 2.84221 v 0.52296 q -0.57602,1.28847 -1.04593,2.13734 0.29559,0.3638 0.57602,0.73518 l -0.52297,0.36381 q -0.75792,-1.11415 -1.54616,-2.04639 z m 1.58406,-5.2145 -0.0909,0.20464 q 0.69728,0.81098 1.35667,1.72048 l -0.45475,0.40928 q -0.59118,-0.89435 -1.15204,-1.60679 -0.59118,1.25814 -1.44763,2.47082 -0.15158,-0.25769 -0.37138,-0.53055 0.90951,-1.1293 1.5689,-2.66788 z m -0.81856,2.03881 0.46991,-0.23496 q 0.34107,0.53813 0.63666,1.13689 l -0.52297,0.27285 q -0.19706,-0.48507 -0.5836,-1.17478 z"
         style="stroke-width:0.26458332"
         id="path1075" />
      <path
         d="m 129.0969,214.27985 q 0.86024,-0.70866 1.51963,-1.65227 -0.26148,-1.18235 -0.32211,-3.59254 h -2.66031 v -0.53055 h 2.64515 q -0.0114,-0.61391 -0.0152,-1.31878 h 0.5836 q -0.008,0.68971 0,1.31878 h 1.87206 v 0.53055 h -1.86069 q 0.0379,1.72048 0.20464,2.89147 0.54191,-0.93604 0.91329,-2.06534 l 0.53813,0.22738 q -0.57981,1.50826 -1.29605,2.63377 0.15916,0.59876 0.4017,0.97393 0.20464,0.32591 0.34864,0.32591 0.13643,0 0.18948,-0.32591 0.0682,-0.39412 0.10611,-1.18236 0.32591,0.12885 0.56844,0.19706 -0.10611,0.89435 -0.1819,1.26573 -0.12885,0.66697 -0.61391,0.67455 -0.37139,-0.008 -0.68971,-0.37138 -0.31454,-0.34864 -0.53434,-0.96635 -0.57981,0.78445 -1.2392,1.34531 -0.21222,-0.1819 -0.47749,-0.37896 z m -3.83508,-1.1672 q 0.49644,-0.15158 0.97772,-0.31075 v -2.96347 h -0.89435 v -0.53054 h 0.89435 v -2.10702 h 0.56086 v 2.10702 h 0.84129 v 0.53054 h -0.84129 v 2.77399 q 0.39791,-0.13642 0.78824,-0.28043 0,0.0834 0.053,0.56086 -1.06109,0.38654 -2.23586,0.83372 z m 2.5542,-3.22874 h 1.93269 v 2.35713 h -0.52296 v -0.17432 h -0.88677 v 0.26527 h -0.52296 z m -0.5836,3.33485 q 1.37183,-0.21222 2.77399,-0.50023 -0.008,0.12127 0.0303,0.51539 -1.12172,0.20464 -2.60724,0.51539 z m 1.99333,-2.84978 h -0.88677 v 1.21267 h 0.88677 z m 2.24344,-3.07716 q 0.56087,0.39412 0.90193,0.69729 l -0.34864,0.40169 q -0.34107,-0.3259 -0.87919,-0.75034 z"
         style="stroke-width:0.26458332"
         id="path1077" />
    </g>
  </g>
</svg>
