<?xml version="1.0" encoding="UTF-8" standalone="no"?>
<!-- Created with Inkscape (http://www.inkscape.org/) -->

<svg
   xmlns:dc="http://purl.org/dc/elements/1.1/"
   xmlns:cc="http://creativecommons.org/ns#"
   xmlns:rdf="http://www.w3.org/1999/02/22-rdf-syntax-ns#"
   xmlns:svg="http://www.w3.org/2000/svg"
   xmlns="http://www.w3.org/2000/svg"
   xmlns:sodipodi="http://sodipodi.sourceforge.net/DTD/sodipodi-0.dtd"
   xmlns:inkscape="http://www.inkscape.org/namespaces/inkscape"
   width="200mm"
   height="140mm"
   viewBox="0 0 200 140"
   version="1.1"
   id="svg1086"
   inkscape:version="0.92.3 (2405546, 2018-03-11)"
   sodipodi:docname="fig2.svg">
  <defs
     id="defs1080">
    <inkscape:path-effect
       effect="bspline"
       id="path-effect1090"
       is_visible="true"
       weight="33.333333"
       steps="2"
       helper_size="0"
       apply_no_weight="true"
       apply_with_weight="true"
       only_selected="false" />
  </defs>
  <sodipodi:namedview
     id="base"
     pagecolor="#ffffff"
     bordercolor="#666666"
     borderopacity="1.0"
     inkscape:pageopacity="0.0"
     inkscape:pageshadow="2"
     inkscape:zoom="0.85852912"
     inkscape:cx="221.55389"
     inkscape:cy="310.81798"
     inkscape:document-units="mm"
     inkscape:current-layer="layer1"
     showgrid="false"
     height="200mm"
     inkscape:window-width="1920"
     inkscape:window-height="1013"
     inkscape:window-x="-9"
     inkscape:window-y="-9"
     inkscape:window-maximized="1"
     showguides="false"
     inkscape:guide-bbox="true">
    <sodipodi:guide
       position="0,140.43583"
       orientation="1,0"
       id="guide1099"
       inkscape:locked="false" />
    <sodipodi:guide
       position="30,156.98698"
       orientation="1,0"
       id="guide1101"
       inkscape:locked="false" />
    <sodipodi:guide
       position="59.999999,157.24576"
       orientation="1,0"
       id="guide1103"
       inkscape:locked="false" />
    <sodipodi:guide
       position="89.878934,126.10169"
       orientation="1,0"
       id="guide1105"
       inkscape:locked="false" />
    <sodipodi:guide
       position="119.90315,129.00726"
       orientation="1,0"
       id="guide1107"
       inkscape:locked="false" />
    <sodipodi:guide
       position="187.64867,139.43529"
       orientation="0,1"
       id="guide1109"
       inkscape:locked="false" />
    <sodipodi:guide
       position="22.805478,160.04925"
       orientation="0,1"
       id="guide1128"
       inkscape:locked="false" />
    <sodipodi:guide
       position="-17.258199,0.0085606147"
       orientation="0,1"
       id="guide1130"
       inkscape:locked="false" />
    <sodipodi:guide
       position="-32.8642,8.997206"
       orientation="0,1"
       id="guide1132"
       inkscape:locked="false" />
    <sodipodi:guide
       position="-32.730024,17.996368"
       orientation="0,1"
       id="guide1134"
       inkscape:locked="false" />
    <sodipodi:guide
       position="-32.564578,27.000178"
       orientation="0,1"
       id="guide1136"
       inkscape:locked="false" />
    <sodipodi:guide
       position="-33.018291,35.997384"
       orientation="0,1"
       id="guide1138"
       inkscape:locked="false" />
    <sodipodi:guide
       position="-32.752912,44.99459"
       orientation="0,1"
       id="guide1140"
       inkscape:locked="false" />
    <sodipodi:guide
       position="-32.410487,53.991796"
       orientation="0,1"
       id="guide1142"
       inkscape:locked="false" />
    <sodipodi:guide
       position="-32.778594,63.006123"
       orientation="0,1"
       id="guide1144"
       inkscape:locked="false" />
    <sodipodi:guide
       position="-32.710109,71.994769"
       orientation="0,1"
       id="guide1146"
       inkscape:locked="false" />
    <sodipodi:guide
       position="-32.530336,81.000535"
       orientation="0,1"
       id="guide1148"
       inkscape:locked="false" />
    <sodipodi:guide
       position="-32.196472,90.006302"
       orientation="0,1"
       id="guide1150"
       inkscape:locked="false" />
    <sodipodi:guide
       position="-32.093745,98.994947"
       orientation="0,1"
       id="guide1152"
       inkscape:locked="false" />
    <sodipodi:guide
       position="2.0545475,135.36044"
       orientation="1,0"
       id="guide1154"
       inkscape:locked="false" />
  </sodipodi:namedview>
  <metadata
     id="metadata1083">
    <rdf:RDF>
      <cc:Work
         rdf:about="">
        <dc:format>image/svg+xml</dc:format>
        <dc:type
           rdf:resource="http://purl.org/dc/dcmitype/StillImage" />
        <dc:title></dc:title>
      </cc:Work>
    </rdf:RDF>
  </metadata>
  <g
     inkscape:label="Layer 1"
     inkscape:groupmode="layer"
     id="layer1"
     transform="translate(0,-157)">
    <g
       id="g1362"
       transform="translate(6.1057338,13.471716)">
      <g
         transform="translate(-3.0133364,-2.4654571)"
         id="g1216">
        <path
           style="fill:none;stroke:#000000;stroke-width:0.5;stroke-linecap:butt;stroke-linejoin:miter;stroke-miterlimit:4;stroke-dasharray:none;stroke-opacity:1"
           d="m 52.329697,259.52909 c 0.581134,-7.87761 1.162272,-15.75526 4.347842,-25.84707 3.18557,-10.09182 8.97578,-22.39903 15.594303,-32.60113 6.618522,-10.20211 14.06443,-18.2981 22.372117,-23.15341 8.307691,-4.8553 17.476191,-6.46947 34.037921,-7.34111 16.56173,-0.87165 40.51652,-1.00078 64.47106,-1.12992"
           id="path1088"
           inkscape:connector-curvature="0"
           inkscape:path-effect="#path-effect1090"
           inkscape:original-d="m 52.329697,259.52909 c 0.58138,-7.87759 1.16252,-15.75524 1.74334,-23.63197 5.79019,-12.30686 11.5804,-24.61407 17.3705,-36.92135 7.44684,-8.09698 14.89275,-16.19297 22.33894,-24.2893 9.169133,-1.6145 18.337633,-3.22867 27.506063,-4.84261 23.95507,-0.1294 47.90986,-0.25854 71.8644,-0.38741"
           sodipodi:nodetypes="cccccc" />
        <g
           id="g1195"
           transform="translate(33.1467,-37.255796)">
          <g
             transform="translate(0,37.428374)"
             id="g1126">
            <path
               style="fill:none;stroke:#000000;stroke-width:0.5;stroke-linecap:butt;stroke-linejoin:miter;stroke-miterlimit:4;stroke-dasharray:none;stroke-opacity:1"
               d="M 0,259.56307 H 159.61259 V 152.05702 H 0 Z"
               id="path1092"
               inkscape:connector-curvature="0" />
            <path
               style="fill:none;stroke:#000000;stroke-width:0.5;stroke-linecap:butt;stroke-linejoin:miter;stroke-miterlimit:4;stroke-dasharray:none;stroke-opacity:1"
               d="m 30,257.82325 v 1.69607"
               id="path1111"
               inkscape:connector-curvature="0"
               sodipodi:nodetypes="cc" />
            <path
               style="fill:none;stroke:#000000;stroke-width:0.5;stroke-linecap:butt;stroke-linejoin:miter;stroke-miterlimit:4;stroke-dasharray:none;stroke-opacity:1"
               d="m 60,257.82325 -2e-6,1.67664"
               id="path1113"
               inkscape:connector-curvature="0"
               sodipodi:nodetypes="cc" />
            <path
               style="fill:none;stroke:#000000;stroke-width:0.5;stroke-linecap:butt;stroke-linejoin:miter;stroke-miterlimit:4;stroke-dasharray:none;stroke-opacity:1"
               d="m 89.878933,257.82325 v 1.7155"
               id="path1115"
               inkscape:connector-curvature="0"
               sodipodi:nodetypes="cc" />
            <path
               style="fill:none;stroke:#000000;stroke-width:0.5;stroke-linecap:butt;stroke-linejoin:miter;stroke-miterlimit:4;stroke-dasharray:none;stroke-opacity:1"
               d="m 119.90315,257.82325 v 1.69607"
               id="path1117"
               inkscape:connector-curvature="0"
               sodipodi:nodetypes="cc" />
          </g>
          <path
             inkscape:connector-curvature="0"
             id="path1156"
             d="M 2.0545475,288.0028 H 0"
             style="fill:none;stroke:#000000;stroke-width:0.5;stroke-linecap:butt;stroke-linejoin:miter;stroke-miterlimit:4;stroke-dasharray:none;stroke-opacity:1" />
          <path
             inkscape:connector-curvature="0"
             id="path1158"
             d="M 2.0545475,279.00364 H 0"
             style="fill:none;stroke:#000000;stroke-width:0.5;stroke-linecap:butt;stroke-linejoin:miter;stroke-miterlimit:4;stroke-dasharray:none;stroke-opacity:1" />
          <path
             inkscape:connector-curvature="0"
             id="path1160"
             d="M 2.0545475,269.99982 H 0"
             style="fill:none;stroke:#000000;stroke-width:0.5;stroke-linecap:butt;stroke-linejoin:miter;stroke-miterlimit:4;stroke-dasharray:none;stroke-opacity:1" />
          <path
             inkscape:connector-curvature="0"
             id="path1162"
             d="M 2.0545475,261.00262 H 0"
             style="fill:none;stroke:#000000;stroke-width:0.5;stroke-linecap:butt;stroke-linejoin:miter;stroke-miterlimit:4;stroke-dasharray:none;stroke-opacity:1" />
          <path
             inkscape:connector-curvature="0"
             id="path1164"
             d="M 2.0545475,252.00541 H 0"
             style="fill:none;stroke:#000000;stroke-width:0.5;stroke-linecap:butt;stroke-linejoin:miter;stroke-miterlimit:4;stroke-dasharray:none;stroke-opacity:1" />
          <path
             inkscape:connector-curvature="0"
             id="path1166"
             d="M 2.0545475,243.00821 H 0"
             style="fill:none;stroke:#000000;stroke-width:0.5;stroke-linecap:butt;stroke-linejoin:miter;stroke-miterlimit:4;stroke-dasharray:none;stroke-opacity:1" />
          <path
             inkscape:connector-curvature="0"
             id="path1168"
             d="M 2.0545475,233.99388 H 0"
             style="fill:none;stroke:#000000;stroke-width:0.5;stroke-linecap:butt;stroke-linejoin:miter;stroke-miterlimit:4;stroke-dasharray:none;stroke-opacity:1" />
          <path
             inkscape:connector-curvature="0"
             id="path1170"
             d="M 2.0545475,225.00523 H 0"
             style="fill:none;stroke:#000000;stroke-width:0.5;stroke-linecap:butt;stroke-linejoin:miter;stroke-miterlimit:4;stroke-dasharray:none;stroke-opacity:1" />
          <path
             inkscape:connector-curvature="0"
             id="path1172"
             d="M 2.0545475,215.99947 H 0"
             style="fill:none;stroke:#000000;stroke-width:0.5;stroke-linecap:butt;stroke-linejoin:miter;stroke-miterlimit:4;stroke-dasharray:none;stroke-opacity:1" />
          <path
             inkscape:connector-curvature="0"
             id="path1174"
             d="M 2.0545475,206.9937 H 0"
             style="fill:none;stroke:#000000;stroke-width:0.5;stroke-linecap:butt;stroke-linejoin:miter;stroke-miterlimit:4;stroke-dasharray:none;stroke-opacity:1" />
          <path
             inkscape:connector-curvature="0"
             id="path1176"
             d="M 2.0545475,198.00506 H 0"
             style="fill:none;stroke:#000000;stroke-width:0.5;stroke-linecap:butt;stroke-linejoin:miter;stroke-miterlimit:4;stroke-dasharray:none;stroke-opacity:1" />
        </g>
      </g>
      <text
         id="text1220"
         y="264.90207"
         x="30.648008"
         style="font-style:normal;font-weight:normal;font-size:7.76111126px;line-height:1.25;font-family:sans-serif;letter-spacing:0px;word-spacing:0px;writing-mode:lr-tb;fill:#000000;fill-opacity:1;stroke:none;stroke-width:0.26458332"
         xml:space="preserve"><tspan
           style="writing-mode:lr-tb;stroke-width:0.26458332"
           y="264.90207"
           x="30.648008"
           id="tspan1218"
           sodipodi:role="line">0</tspan></text>
      <text
         id="text1220-8"
         y="264.75894"
         x="57.771309"
         style="font-style:normal;font-weight:normal;font-size:7.76111126px;line-height:1.25;font-family:sans-serif;letter-spacing:0px;word-spacing:0px;writing-mode:lr-tb;fill:#000000;fill-opacity:1;stroke:none;stroke-width:0.26458332"
         xml:space="preserve"><tspan
           style="writing-mode:lr-tb;stroke-width:0.26458332"
           y="264.75894"
           x="57.771309"
           id="tspan1218-0"
           sodipodi:role="line">5</tspan></text>
      <text
         id="text1220-85"
         y="264.56522"
         x="85.858475"
         style="font-style:normal;font-weight:normal;font-size:7.76111126px;line-height:1.25;font-family:sans-serif;letter-spacing:0px;word-spacing:0px;writing-mode:lr-tb;fill:#000000;fill-opacity:1;stroke:none;stroke-width:0.26458332"
         xml:space="preserve"><tspan
           style="writing-mode:lr-tb;stroke-width:0.26458332"
           y="264.56522"
           x="85.858475"
           id="tspan1218-7"
           sodipodi:role="line">10</tspan></text>
      <text
         id="text1220-0"
         y="264.95264"
         x="115.68899"
         style="font-style:normal;font-weight:normal;font-size:7.76111126px;line-height:1.25;font-family:sans-serif;letter-spacing:0px;word-spacing:0px;writing-mode:lr-tb;fill:#000000;fill-opacity:1;stroke:none;stroke-width:0.26458332"
         xml:space="preserve"><tspan
           style="writing-mode:lr-tb;stroke-width:0.26458332"
           y="264.95264"
           x="115.68899"
           id="tspan1218-2"
           sodipodi:role="line">15</tspan></text>
      <text
         id="text1220-7"
         y="264.37155"
         x="145.7132"
         style="font-style:normal;font-weight:normal;font-size:7.76111126px;line-height:1.25;font-family:sans-serif;letter-spacing:0px;word-spacing:0px;writing-mode:lr-tb;fill:#000000;fill-opacity:1;stroke:none;stroke-width:0.26458332"
         xml:space="preserve"><tspan
           style="writing-mode:lr-tb;stroke-width:0.26458332"
           y="264.37155"
           x="145.7132"
           id="tspan1218-4"
           sodipodi:role="line">20</tspan></text>
      <text
         id="text1220-6"
         y="258.56036"
         x="13.800364"
         style="font-style:normal;font-weight:normal;font-size:7.76111126px;line-height:1.25;font-family:sans-serif;letter-spacing:0px;word-spacing:0px;writing-mode:lr-tb;fill:#000000;fill-opacity:1;stroke:none;stroke-width:0.26458332"
         xml:space="preserve"><tspan
           style="writing-mode:lr-tb;stroke-width:0.26458332"
           y="258.56036"
           x="13.800364"
           id="tspan1218-06"
           sodipodi:role="line">300</tspan></text>
      <text
         id="text1220-88"
         y="241.90179"
         x="13.800364"
         style="font-style:normal;font-weight:normal;font-size:7.76111126px;line-height:1.25;font-family:sans-serif;letter-spacing:0px;word-spacing:0px;writing-mode:lr-tb;fill:#000000;fill-opacity:1;stroke:none;stroke-width:0.26458332"
         xml:space="preserve"><tspan
           style="writing-mode:lr-tb;stroke-width:0.26458332"
           y="241.90179"
           x="13.800364"
           id="tspan1218-9"
           sodipodi:role="line">500</tspan></text>
      <text
         id="text1220-9"
         y="170.42479"
         x="8.5703392"
         style="font-style:normal;font-weight:normal;font-size:7.76111126px;line-height:1.25;font-family:sans-serif;letter-spacing:0px;word-spacing:0px;writing-mode:lr-tb;fill:#000000;fill-opacity:1;stroke:none;stroke-width:0.26458332"
         xml:space="preserve"><tspan
           style="writing-mode:lr-tb;stroke-width:0.26458332"
           y="170.42479"
           x="8.5703392"
           id="tspan1218-92"
           sodipodi:role="line">1300</tspan></text>
      <text
         id="text1220-81"
         y="196.57491"
         x="8.7640429"
         style="font-style:normal;font-weight:normal;font-size:7.76111126px;line-height:1.25;font-family:sans-serif;letter-spacing:0px;word-spacing:0px;writing-mode:lr-tb;fill:#000000;fill-opacity:1;stroke:none;stroke-width:0.26458332"
         xml:space="preserve"><tspan
           style="writing-mode:lr-tb;stroke-width:0.26458332"
           y="196.57491"
           x="8.7640429"
           id="tspan1218-20"
           sodipodi:role="line">1000</tspan></text>
    </g>
    <g
       aria-label="粒径/nm"
       style="font-style:normal;font-weight:normal;font-size:7.76111126px;line-height:1.25;font-family:sans-serif;letter-spacing:0px;word-spacing:0px;writing-mode:lr-tb;fill:#000000;fill-opacity:1;stroke:none;stroke-width:0.26458332"
       id="text1298"
       transform="translate(-1.9572231,12.600046)">
      <path
         d="m 94.771871,278.4612 h 2.448085 q 0.47749,-1.66742 1.008035,-4.16856 l 0.613916,0.144 q -0.591179,2.34956 -1.091406,4.02456 h 1.659847 v 0.53055 h -4.638477 z m 0.37896,-5.07807 h 4.024561 v 0.53055 h -4.024561 z m 0.318327,1.03835 0.553283,-0.10611 q 0.325906,1.57648 0.651812,3.35001 l -0.568441,0.12885 q -0.310748,-1.85691 -0.636654,-3.37275 z m -1.409733,-0.34864 q 0.47749,-0.90951 0.697288,-1.50068 l 0.507807,0.23495 q -0.303169,0.68971 -0.765501,1.51584 z m -2.099441,-1.29605 0.447173,-0.20463 q 0.204639,0.40927 0.689709,1.48552 l -0.507808,0.25769 q -0.47749,-1.21267 -0.629074,-1.53858 z m 4.532368,-0.60633 0.507807,-0.24254 q 0.333485,0.57602 0.613916,1.12931 l -0.538124,0.25769 q -0.318327,-0.68213 -0.583599,-1.14446 z m -4.562685,5.5025 q 0.901926,-1.23541 1.273307,-2.40261 h -1.258148 v -0.53054 h 1.379416 v -2.78157 h 0.538124 v 2.78157 h 1.371837 v 0.53054 h -1.371837 v 0.94741 l 0.272851,-0.26528 q 0.606337,0.53055 1.106565,1.00046 l -0.401698,0.37896 q -0.651812,-0.66697 -0.977718,-0.95498 v 3.01652 h -0.538124 v -3.22874 q -0.439594,1.18994 -1.159619,2.1146 -0.09853,-0.31075 -0.234956,-0.60634 z"
         style="writing-mode:lr-tb;stroke-width:0.26458332"
         id="path1304"
         inkscape:connector-curvature="0" />
      <path
         d="m 102.47235,272.98901 v -0.51538 h 4.06246 v 0.52296 q -0.63287,0.72003 -1.35668,1.29605 1.14067,0.61012 2.08428,1.16719 l -0.3638,0.55329 q -0.9474,-0.63287 -2.20934,-1.35668 -1.1672,0.81097 -2.55799,1.27331 -0.12884,-0.25012 -0.31074,-0.50781 2.4784,-0.84129 3.85024,-2.43293 z m -0.55328,5.49493 h 2.36471 v -1.78111 h -1.9327 v -0.51539 h 4.44142 v 0.51539 h -1.94786 v 1.78111 h 2.37229 v 0.51539 h -5.29786 z m -2.296504,-1.98575 q 1.136884,-0.9474 2.076704,-2.71336 l 0.51539,0.32591 q -0.4017,0.71244 -0.84888,1.33015 v 3.95255 h -0.5836 v -3.20979 q -0.43201,0.50023 -0.901921,0.92845 -0.113688,-0.31832 -0.257693,-0.61391 z m 0.08337,-2.47841 q 1.129304,-0.90192 1.856904,-2.15249 l 0.51539,0.33348 q -0.85645,1.35668 -2.084284,2.40261 -0.128847,-0.27285 -0.28801,-0.5836 z"
         style="writing-mode:lr-tb;stroke-width:0.26458332"
         id="path1306"
         inkscape:connector-curvature="0" />
      <path
         d="m 110.72232,272.53426 -2.81568,6.84403 h -0.6935 l 2.81568,-6.84403 z"
         style="writing-mode:lr-tb;stroke-width:0.26458332"
         id="path1308"
         inkscape:connector-curvature="0" />
      <path
         d="m 114.89846,278.40436 h -0.71244 v -2.41019 q 0,-0.2918 -0.0341,-0.5457 -0.0341,-0.2577 -0.12506,-0.4017 -0.0947,-0.15917 -0.27285,-0.23496 -0.17811,-0.0796 -0.46233,-0.0796 -0.2918,0 -0.61012,0.14401 -0.31833,0.144 -0.61013,0.36759 v 3.16053 h -0.71245 v -4.23299 h 0.71245 v 0.46991 q 0.33348,-0.27664 0.68971,-0.43201 0.35622,-0.15538 0.73139,-0.15538 0.68592,0 1.04593,0.41307 0.36001,0.41307 0.36001,1.18993 z"
         style="writing-mode:lr-tb;stroke-width:0.26458332"
         id="path1310"
         inkscape:connector-curvature="0" />
      <path
         d="m 122.44736,278.40436 h -0.71245 v -2.41019 q 0,-0.27285 -0.0265,-0.52676 -0.0227,-0.2539 -0.10232,-0.40548 -0.0872,-0.16296 -0.25011,-0.24633 -0.16295,-0.0834 -0.46991,-0.0834 -0.29938,0 -0.59876,0.15158 -0.29938,0.1478 -0.59876,0.37897 0.0114,0.0872 0.019,0.20463 0.008,0.11369 0.008,0.22738 v 2.70957 h -0.71244 v -2.41019 q 0,-0.28043 -0.0265,-0.53055 -0.0227,-0.2539 -0.10232,-0.40548 -0.0872,-0.16296 -0.25011,-0.24254 -0.16296,-0.0834 -0.46992,-0.0834 -0.2918,0 -0.58738,0.14401 -0.2918,0.144 -0.5836,0.36759 v 3.16053 h -0.71245 v -4.23299 h 0.71245 v 0.46991 q 0.33348,-0.27664 0.66318,-0.43201 0.33348,-0.15538 0.70865,-0.15538 0.43202,0 0.7314,0.1819 0.30317,0.1819 0.45096,0.50402 0.43201,-0.3638 0.78824,-0.52297 0.35622,-0.16295 0.76171,-0.16295 0.69729,0 1.02698,0.42444 0.33349,0.42064 0.33349,1.17856 z"
         style="writing-mode:lr-tb;stroke-width:0.26458332"
         id="path1312"
         inkscape:connector-curvature="0" />
    </g>
    <g
       aria-label="熔点/K"
       transform="rotate(-90,8.2633007,7.3875918)"
       style="font-style:normal;font-weight:normal;font-size:7.76111126px;line-height:1.25;font-family:sans-serif;letter-spacing:0px;word-spacing:0px;writing-mode:lr-tb;direction:ltr;fill:#000000;fill-opacity:1;stroke:none;stroke-width:0.26458332"
       id="text1302">
      <path
         d="m -217.7794,5.9554259 -0.1061,0.1743219 q 0.79581,1.1596191 2.2965,1.8948025 -0.19706,0.250114 -0.37896,0.5457032 -0.22738,-0.1212674 -0.43202,-0.2576932 V 10.8137 h -0.5457 v -0.401698 h -2.52388 V 10.8137 h -0.5457 V 8.2595058 q -0.28043,0.1970595 -0.57602,0.3865398 -0.21222,-0.2955892 -0.39412,-0.4850695 1.62195,-0.9095052 2.53146,-2.2055502 z m -4.31257,-2.5011393 h 0.54571 q -0.0152,1.5082628 -0.0455,3.0695801 0.27285,-0.6518121 0.56086,-1.5840549 l 0.50781,0.2046386 q -0.28801,0.8337132 -0.66697,1.7129015 l -0.40928,-0.1743218 q -0.0152,0.5987576 -0.0834,1.1217231 0.7655,1.1823568 1.25057,2.0615452 l -0.50781,0.3107476 q -0.34864,-0.7124457 -0.8716,-1.621951 -0.29559,1.3642579 -0.97772,2.20555 -0.17432,-0.227376 -0.40928,-0.462332 1.06867,-1.3187822 1.07625,-3.9260305 0.0227,-1.1141439 0.0303,-2.9179959 z m 1.72049,0.7806586 h 1.99333 q -0.17432,-0.3486437 -0.34865,-0.6593913 l 0.55329,-0.2349555 q 0.30316,0.5608616 0.44717,0.8943468 h 1.80385 v 1.2278321 h -0.56844 v -0.720025 h -3.31211 v 0.720025 h -0.56844 z m 3.4258,4.4035211 h -2.52388 v 1.2657282 h 2.52388 z m -1.28847,-2.0615451 q -0.64423,0.8337131 -1.61437,1.5537381 h 3.18327 q -0.97772,-0.6897082 -1.5689,-1.5537381 z m -0.97014,-1.3187826 0.42444,0.3941189 q -0.68213,0.6593913 -1.43247,1.2354113 l -0.37138,-0.4471734 q 0.66697,-0.4471734 1.37941,-1.1823568 z m 1.54616,0.3865397 0.37138,-0.3713813 q 0.63666,0.4623318 1.40216,1.15204 l -0.40928,0.4395942 q -0.50781,-0.5078071 -1.36426,-1.2202529 z m -5.53282,-0.5002279 0.46991,-0.1515842 q 0.24253,0.7806587 0.52297,1.7356392 l -0.53055,0.2046386 q -0.27285,-1.1444607 -0.46233,-1.7886936 z"
         style="writing-mode:lr-tb;direction:ltr;stroke-width:0.26458332"
         id="path1315"
         inkscape:connector-curvature="0" />
      <path
         d="m -214.4218,5.705312 h 2.37987 V 3.32544 h 0.63665 v 0.9095052 h 3.38791 v 0.5457031 h -3.38791 V 5.705312 h 2.68304 v 2.8952583 h -0.62149 V 8.2822435 h -4.45658 v 0.3183268 h -0.62149 z m 5.07807,0.5457031 h -4.45658 v 1.4855252 h 4.45658 z m 0.40927,2.523877 q 0.60634,0.9170845 0.97014,1.6522679 l -0.57602,0.310748 q -0.37896,-0.7730799 -0.91708,-1.6901643 z m -4.9189,0.3562229 q -0.57602,1.038352 -1.01562,1.62953 l -0.52296,-0.371381 q 0.49264,-0.6518122 1.00803,-1.5613174 z m 1.26572,-0.3334852 q 0.34865,0.7655002 0.60634,1.6143722 l -0.61392,0.212217 q -0.23495,-0.8261335 -0.53812,-1.6295298 z m 1.81144,-0.053055 q 0.3638,0.7503418 0.65939,1.5688972 l -0.59876,0.234955 q -0.21222,-0.6821291 -0.61392,-1.5916343 z"
         style="writing-mode:lr-tb;direction:ltr;stroke-width:0.26458332"
         id="path1317"
         inkscape:connector-curvature="0" />
      <path
         d="m -204.36798,3.9317768 -2.81568,6.8440272 h -0.6935 l 2.81568,-6.8440272 z"
         style="writing-mode:lr-tb;direction:ltr;stroke-width:0.26458332"
         id="path1319"
         inkscape:connector-curvature="0" />
      <path
         d="m -199.13833,9.8018751 h -0.97393 l -2.23207,-2.5125082 -0.56086,0.5987576 v 1.9137506 h -0.75035 v -5.642722 h 0.75035 v 2.9445232 l 2.73988,-2.9445232 h 0.90951 l -2.52009,2.6527236 z"
         style="writing-mode:lr-tb;direction:ltr;stroke-width:0.26458332"
         id="path1321"
         inkscape:connector-curvature="0" />
    </g>
  </g>
</svg>
