<?xml version="1.0" encoding="UTF-8" standalone="no"?>
<!-- Created with Inkscape (http://www.inkscape.org/) -->

<svg
   xmlns:dc="http://purl.org/dc/elements/1.1/"
   xmlns:cc="http://creativecommons.org/ns#"
   xmlns:rdf="http://www.w3.org/1999/02/22-rdf-syntax-ns#"
   xmlns:svg="http://www.w3.org/2000/svg"
   xmlns="http://www.w3.org/2000/svg"
   xmlns:sodipodi="http://sodipodi.sourceforge.net/DTD/sodipodi-0.dtd"
   xmlns:inkscape="http://www.inkscape.org/namespaces/inkscape"
   width="220mm"
   height="150mm"
   viewBox="0 0 220 150"
   version="1.1"
   id="svg1370"
   inkscape:version="0.92.3 (2405546, 2018-03-11)"
   sodipodi:docname="fig3.svg">
  <defs
     id="defs1364" />
  <sodipodi:namedview
     id="base"
     pagecolor="#ffffff"
     bordercolor="#666666"
     borderopacity="1.0"
     inkscape:pageopacity="0.0"
     inkscape:pageshadow="2"
     inkscape:zoom="1.4569722"
     inkscape:cx="415.74803"
     inkscape:cy="283.46457"
     inkscape:document-units="mm"
     inkscape:current-layer="layer1"
     showgrid="false"
     units="mm"
     inkscape:window-width="1920"
     inkscape:window-height="1013"
     inkscape:window-x="-9"
     inkscape:window-y="-9"
     inkscape:window-maximized="1"
     showguides="true"
     inkscape:guide-bbox="true">
    <sodipodi:guide
       position="122.51816,61.365619"
       orientation="0,1"
       id="guide2093"
       inkscape:locked="false" />
    <sodipodi:guide
       position="50.072639,105.25908"
       orientation="1,0"
       id="guide2095"
       inkscape:locked="false" />
    <sodipodi:guide
       position="177.7046,150.00485"
       orientation="1,0"
       id="guide2097"
       inkscape:locked="false" />
    <sodipodi:guide
       position="147.66102,109.94673"
       orientation="1,0"
       id="guide2099"
       inkscape:locked="false" />
    <sodipodi:guide
       position="215.84503,118.89589"
       orientation="1,0"
       id="guide2101"
       inkscape:locked="false" />
    <sodipodi:guide
       position="205.40436,31.53511"
       orientation="0,1"
       id="guide2103"
       inkscape:locked="false" />
    <sodipodi:guide
       position="183.03148,51.564166"
       orientation="0,1"
       id="guide2105"
       inkscape:locked="false" />
    <sodipodi:guide
       position="147.66102,99.506055"
       orientation="0,1"
       id="guide2107"
       inkscape:locked="false" />
  </sodipodi:namedview>
  <metadata
     id="metadata1367">
    <rdf:RDF>
      <cc:Work
         rdf:about="">
        <dc:format>image/svg+xml</dc:format>
        <dc:type
           rdf:resource="http://purl.org/dc/dcmitype/StillImage" />
        <dc:title></dc:title>
      </cc:Work>
    </rdf:RDF>
  </metadata>
  <g
     inkscape:label="Layer 1"
     inkscape:groupmode="layer"
     id="layer1"
     transform="translate(0,-147)">
    <g
       id="g2122"
       transform="translate(-22.453023,14.537515)">
      <path
         sodipodi:nodetypes="cccc"
         inkscape:connector-curvature="0"
         id="path1372"
         d="M 50.040675,186.67515 V 164.15041 H 177.76096 v 22.68978"
         style="fill:none;stroke:#000000;stroke-width:0.5;stroke-linecap:butt;stroke-linejoin:miter;stroke-miterlimit:4;stroke-dasharray:none;stroke-opacity:1" />
      <path
         inkscape:connector-curvature="0"
         id="path1920"
         d="M 97.241056,163.98537 V 150.61743"
         style="fill:none;stroke:#000000;stroke-width:0.5;stroke-linecap:butt;stroke-linejoin:miter;stroke-miterlimit:4;stroke-dasharray:none;stroke-opacity:1" />
    </g>
    <path
       style="fill:none;stroke:#000000;stroke-width:0.5;stroke-linecap:butt;stroke-linejoin:miter;stroke-miterlimit:4;stroke-dasharray:none;stroke-opacity:1"
       d="M 27.406541,240.47698 V 216.18642"
       id="path1920-2"
       inkscape:connector-curvature="0"
       sodipodi:nodetypes="cc" />
    <path
       style="fill:none;stroke:#000000;stroke-width:0.5;stroke-linecap:butt;stroke-linejoin:miter;stroke-miterlimit:4;stroke-dasharray:none;stroke-opacity:1"
       d="M 125.20799,280.0024 V 259.97334"
       id="path1920-22"
       inkscape:connector-curvature="0"
       sodipodi:nodetypes="cc" />
    <g
       id="g2126"
       transform="translate(-22.453023,14.537515)">
      <path
         sodipodi:nodetypes="cccc"
         inkscape:connector-curvature="0"
         id="path1372-3"
         d="m 147.66102,230.81018 v -19.68763 h 68.18401 v 19.79017"
         style="fill:none;stroke:#000000;stroke-width:0.5;stroke-linecap:butt;stroke-linejoin:miter;stroke-miterlimit:4;stroke-dasharray:none;stroke-opacity:1" />
      <path
         inkscape:connector-curvature="0"
         id="path1920-4"
         d="m 177.7046,210.94468 v -8.30572"
         style="fill:none;stroke:#000000;stroke-width:0.5;stroke-linecap:butt;stroke-linejoin:miter;stroke-miterlimit:4;stroke-dasharray:none;stroke-opacity:1" />
    </g>
    <g
       aria-label="大颗粒材料"
       style="font-style:normal;font-weight:normal;font-size:7.76111126px;line-height:1.25;font-family:sans-serif;letter-spacing:0px;word-spacing:0px;writing-mode:lr-tb;direction:rtl;fill:#000000;fill-opacity:1;stroke:none;stroke-width:0.26458332"
       id="text1974"
       transform="translate(-22.453023,14.537515)">
      <path
         d="m 79.557213,147.62129 q 3.126424,-1.39079 3.372749,-4.17615 h -3.236323 v -0.59117 h 3.26285 q 0.01895,-1.01941 0.01895,-2.05397 h 0.659391 q 0,1.0194 -0.01895,2.05397 h 3.36138 v 0.59117 h -3.372749 q 0.538124,3.0279 3.531912,3.99425 -0.386539,0.37138 -0.57602,0.61391 -2.467033,-0.99287 -3.224954,-3.5357 -0.591178,2.30029 -3.308325,3.68729 -0.151584,-0.20464 -0.469911,-0.5836 z"
         style="writing-mode:lr-tb;stroke-width:0.26458332"
         id="path2109"
         inkscape:connector-curvature="0" />
      <path
         d="m 87.416854,145.19594 h 1.546159 v -0.82613 h -0.773079 v 0.23495 h -0.507808 v -3.36517 h 3.084739 v 3.36517 h -0.507807 v -0.23495 h -0.77308 v 0.82613 h 1.508263 v 0.48507 h -1.508263 v 0.44717 l 0.189481,-0.21221 q 0.674549,0.45475 1.288465,0.96256 l -0.356222,0.40169 q -0.553283,-0.5078 -1.121724,-0.92466 v 1.83417 h -0.522965 v -1.97817 q -0.560862,0.96255 -1.394575,1.675 -0.128846,-0.32591 -0.257693,-0.5457 0.86403,-0.60634 1.493105,-1.65985 h -1.386996 z m 3.880556,-2.53146 h 1.000455 l 0.19706,-0.93224 H 91.10035 v -0.49265 h 3.675917 v 0.49265 h -1.690164 l -0.227376,0.93224 h 1.652268 v 3.92604 h -0.515386 v -3.4637 h -2.182813 v 3.4637 H 91.29741 Z m 1.364258,0.92467 h 0.522965 v 0.99288 q 0,1.00803 -0.197059,1.65984 0.962559,0.72003 1.811431,1.48553 l -0.416857,0.44717 q -0.750342,-0.78066 -1.599213,-1.44005 -0.0076,0.0152 -0.01516,0.0303 -0.454753,0.82613 -1.659848,1.48552 -0.204638,-0.27285 -0.394118,-0.46233 1.152039,-0.55328 1.561317,-1.25815 0.38654,-0.62149 0.38654,-1.95543 z m -4.471734,0.31075 h 0.773079 v -0.86403 h -0.773079 z m 1.296044,0 h 0.77308 v -0.86403 h -0.77308 z m 0.77308,-2.1904 h -0.77308 v 0.85646 h 0.77308 z m -2.069124,0.85646 h 0.773079 v -0.85646 h -0.773079 z"
         style="writing-mode:lr-tb;stroke-width:0.26458332"
         id="path2111"
         inkscape:connector-curvature="0" />
      <path
         d="m 97.929219,147.26507 h 2.448081 q 0.47749,-1.66743 1.00804,-4.16857 l 0.61391,0.144 q -0.59117,2.34956 -1.0914,4.02457 h 1.65985 v 0.53054 h -4.638481 z m 0.37896,-5.07808 h 4.024561 v 0.53055 h -4.024561 z m 0.318327,1.03836 0.553282,-0.10611 q 0.325906,1.57647 0.651812,3.35001 l -0.56844,0.12885 q -0.310748,-1.85691 -0.636654,-3.37275 z m -1.409733,-0.34865 q 0.47749,-0.9095 0.697287,-1.50068 l 0.507807,0.23495 q -0.303168,0.68971 -0.7655,1.51585 z m -2.099441,-1.29604 0.447173,-0.20464 q 0.204639,0.40928 0.689708,1.48552 l -0.507807,0.2577 q -0.47749,-1.21268 -0.629074,-1.53858 z m 4.532367,-0.60634 0.507811,-0.24253 q 0.33348,0.57602 0.61391,1.1293 l -0.53812,0.25769 q -0.318328,-0.68213 -0.583601,-1.14446 z m -4.562684,5.50251 q 0.901926,-1.23541 1.273307,-2.40261 h -1.258149 v -0.53055 h 1.379417 v -2.78157 h 0.538123 v 2.78157 h 1.371837 v 0.53055 h -1.371837 v 0.9474 l 0.272852,-0.26527 q 0.606337,0.53054 1.106565,1.00045 l -0.401698,0.37896 q -0.651813,-0.66697 -0.977719,-0.95498 v 3.01653 H 96.48159 v -3.22875 q -0.439595,1.18994 -1.15962,2.1146 -0.09853,-0.31074 -0.234955,-0.60633 z"
         style="writing-mode:lr-tb;stroke-width:0.26458332"
         id="path2113"
         inkscape:connector-curvature="0" />
      <path
         d="m 106.20572,142.36132 h 2.50113 v -1.55374 h 0.59876 v 1.55374 h 1.07625 v 0.55328 h -1.07625 v 4.09277 q 0,1.06867 -0.99287,1.06867 -0.43202,0 -1.18236,-0.008 -0.0379,-0.28043 -0.12127,-0.66697 0.75034,0.0531 1.12172,0.0531 0.57602,0 0.57602,-0.47749 v -3.41065 q -0.95498,2.06913 -2.83462,3.56981 -0.1819,-0.2198 -0.44717,-0.50781 1.98575,-1.50068 2.98621,-3.71381 h -2.20555 z m -3.36517,3.25906 q 0.88676,-1.25057 1.2733,-2.74368 h -1.15204 v -0.53812 h 1.25057 v -1.531 h 0.5836 v 1.531 h 1.09899 v 0.53812 h -1.09899 v 1.0232 l 0.31075,-0.28043 q 0.63665,0.59117 1.18994,1.15961 l -0.45476,0.41686 q -0.5078,-0.59876 -1.04593,-1.13688 v 4.16099 h -0.5836 v -4.13825 q -0.46233,1.32636 -1.07624,2.20555 -0.13643,-0.32591 -0.29559,-0.66697 z"
         style="writing-mode:lr-tb;stroke-width:0.26458332"
         id="path2115"
         inkscape:connector-curvature="0" />
      <path
         d="m 110.60166,146.55262 q 0.81097,-1.03835 1.24299,-2.34198 h -1.1672 v -0.51538 h 1.26573 v -2.91042 h 0.56086 v 2.91042 h 1.23541 v 0.51538 h -1.23541 v 0.75035 l 0.34106,-0.27286 q 0.51539,0.54571 0.93225,1.04594 l -0.43202,0.34864 q -0.39412,-0.53813 -0.84129,-1.03077 v 3.16053 h -0.56086 v -3.05442 q -0.47749,1.2733 -1.10657,2.00091 -0.0985,-0.31075 -0.23495,-0.60634 z m 3.35001,-0.9853 2.42535,-0.29559 v -4.48689 h 0.5836 v 4.41868 l 1.15204,-0.144 0.0455,0.5457 -1.19751,0.15158 v 2.45567 h -0.5836 v -2.38745 l -2.34956,0.28801 z m 0.15916,-1.72806 0.32591,-0.4017 q 0.72002,0.47749 1.34152,0.97014 l -0.37138,0.45476 q -0.5836,-0.50023 -1.29605,-1.0232 z m -1.42489,-0.68971 q 0.34864,-0.85645 0.5836,-1.58405 l 0.53812,0.16674 q -0.28043,0.75034 -0.65181,1.61437 z m 1.59164,-1.23541 0.34864,-0.4017 q 0.65181,0.46992 1.28089,1.01562 l -0.37897,0.44717 q -0.49264,-0.47749 -1.25056,-1.06109 z m -3.60771,-0.1819 0.45475,-0.1819 q 0.28043,0.65181 0.61392,1.51584 l -0.52297,0.23496 q -0.34106,-1.02319 -0.5457,-1.5689 z"
         style="writing-mode:lr-tb;stroke-width:0.26458332"
         id="path2117"
         inkscape:connector-curvature="0" />
    </g>
    <g
       aria-label="熔融(液体)"
       style="font-style:normal;font-weight:normal;font-size:7.76111126px;line-height:1.25;font-family:sans-serif;letter-spacing:0px;word-spacing:0px;writing-mode:lr-tb;direction:ltr;fill:#000000;fill-opacity:1;stroke:none;stroke-width:0.26458332"
       id="text1974-4">
      <path
         d="m 15.275148,207.12007 -0.106109,0.17432 q 0.795818,1.15962 2.296501,1.89481 -0.197059,0.25011 -0.37896,0.5457 -0.227377,-0.12127 -0.432015,-0.25769 v 2.50114 h -0.545703 v -0.4017 h -2.523877 v 0.4017 h -0.545704 v -2.5542 q -0.28043,0.19706 -0.57602,0.38654 -0.212217,-0.29559 -0.394119,-0.48507 1.621951,-0.9095 2.531457,-2.20555 z m -4.31257,-2.50114 h 0.545703 q -0.01516,1.50827 -0.04547,3.06958 0.272851,-0.65181 0.560861,-1.58405 l 0.507807,0.20464 q -0.28801,0.83371 -0.66697,1.7129 l -0.409278,-0.17432 q -0.01516,0.59875 -0.08337,1.12172 0.7655,1.18236 1.25057,2.06155 l -0.507807,0.31074 q -0.348644,-0.71244 -0.871609,-1.62195 -0.29559,1.36426 -0.977719,2.20555 -0.174321,-0.22737 -0.4092769,-0.46233 1.0686689,-1.31878 1.0762479,-3.92603 0.02274,-1.11414 0.03032,-2.918 z m 1.72048,0.78066 h 1.993333 q -0.174322,-0.34864 -0.348644,-0.65939 l 0.553282,-0.23495 q 0.303169,0.56086 0.447174,0.89434 h 1.803852 v 1.22783 h -0.568441 v -0.72002 h -3.312115 v 0.72002 h -0.568441 z m 3.425804,4.40352 h -2.523877 v 1.26573 h 2.523877 z m -1.288466,-2.06154 q -0.644233,0.83371 -1.614372,1.55374 h 3.183268 q -0.977718,-0.68971 -1.568896,-1.55374 z m -0.970139,-1.31878 0.424436,0.39411 q -0.682129,0.6594 -1.432471,1.23542 l -0.371381,-0.44718 q 0.66697,-0.44717 1.379416,-1.18235 z m 1.546159,0.38654 0.371381,-0.37139 q 0.636654,0.46234 1.402154,1.15204 l -0.409277,0.4396 q -0.507807,-0.50781 -1.364258,-1.22025 z m -5.5328237,-0.50023 0.4699107,-0.15159 q 0.242535,0.78066 0.522966,1.73564 l -0.530545,0.20464 q -0.272851,-1.14446 -0.4623317,-1.78869 z"
         style="writing-mode:lr-tb;direction:ltr;stroke-width:0.26458332"
         id="path2128" />
      <path
         d="m 24.120087,209.7349 0.507807,-0.144 q 0.341064,1.15961 0.57602,2.18281 l -0.530545,0.13642 q -0.04547,-0.20463 -0.09853,-0.40927 -1.44005,0.15916 -2.705778,0.31074 l -0.113688,-0.62907 q 0.712446,-0.0455 1.402154,-0.0985 v -2.04639 h -0.629074 v 0.25012 H 21.97517 v -3.34243 h 1.182357 v -1.35668 h 0.530545 v 1.35668 h 1.14446 v 3.09231 h -1.14446 v 2.00091 q 0.386539,-0.0303 0.757921,-0.0531 -0.144005,-0.60634 -0.325906,-1.25057 z m -5.654091,2.19797 h -0.500228 v -3.88055 h 3.600125 v 3.16053 q 0,0.71244 -0.750342,0.71244 h -0.583599 q -0.0379,-0.26527 -0.113688,-0.52296 0.363802,0.0303 0.591178,0.0303 0.356223,0 0.356223,-0.3259 v -2.58451 h -2.599669 z m -0.18948,-6.04063 h 2.986208 v 1.82659 h -0.500227 v -0.19706 h -1.985753 v 0.19706 h -0.500228 z m 0.325906,3.84266 h 1.167198 q 0.432015,-0.78066 0.560862,-1.08383 l 0.447173,0.21222 q -0.310748,0.50781 -0.553282,0.87161 h 0.689708 v 0.45475 h -0.917085 v 1.57648 h -0.469911 v -1.57648 h -0.924663 z m -0.697288,-4.85069 h 3.691076 v 0.48507 h -3.691076 z m 2.857363,1.46278 h -1.985753 v 0.72003 h 1.985753 z m 3.554649,2.1904 v -2.09187 h -0.629074 v 2.09187 z m -1.788693,0 h 0.629074 v -2.09187 h -0.629074 z m -3.789606,0.37138 0.363803,-0.22738 q 0.272851,0.3638 0.492648,0.78066 l -0.394119,0.24253 q -0.219797,-0.40927 -0.462332,-0.79581 z"
         style="writing-mode:lr-tb;direction:ltr;stroke-width:0.26458332"
         id="path2130" />
      <path
         d="m 27.15935,212.30046 q -1.277097,-1.45521 -1.277097,-3.57359 0,-2.11839 1.277097,-3.63045 h 0.655602 q -1.280887,1.57269 -1.280887,3.62287 0,2.04638 1.273307,3.58117 z"
         style="writing-mode:lr-tb;direction:ltr;stroke-width:0.26458332"
         id="path2132" />
      <path
         d="m 31.229387,208.73444 q 1.000455,-1.33394 1.364257,-2.63756 l 0.553283,0.12127 q -0.121268,0.4017 -0.280431,0.78823 h 2.160075 v 0.50781 q -0.38654,1.84175 -1.280887,2.88768 0.67455,0.60634 1.781115,1.00046 -0.09853,0.12126 -0.38654,0.55328 -1.098985,-0.48507 -1.796273,-1.13688 -0.704866,0.65181 -1.758377,1.21267 -0.18948,-0.27285 -0.394118,-0.50781 1.05351,-0.53054 1.743218,-1.15961 -0.560862,-0.69729 -0.901926,-1.7887 -0.242535,0.3638 -0.522966,0.72761 -0.136425,-0.31833 -0.28043,-0.56845 z m -1.659847,0.11369 q 1.045931,-1.34152 1.515842,-2.78157 l 0.545703,0.12885 q -0.250114,0.69729 -0.553283,1.32636 v 4.48689 h -0.545703 v -3.51675 q -0.333485,0.52297 -0.712445,0.97772 -0.128847,-0.39412 -0.250114,-0.6215 z m 0.56844,-3.36517 h 2.523877 q -0.234955,-0.44717 -0.409277,-0.75034 l 0.538124,-0.23495 q 0.181901,0.30316 0.462332,0.82613 l -0.363802,0.15916 h 2.569352 v 0.50781 H 30.13798 Z m 2.266184,2.48598 q 0.363802,1.26573 0.924664,1.99334 0.810975,-0.93983 1.083827,-2.45567 H 32.63912 q -0.113688,0.22738 -0.234956,0.46233 z m -4.160986,3.76687 q 0.447173,-1.36426 0.780658,-2.93315 0.250114,0.11369 0.57602,0.23495 -0.348643,1.37942 -0.727604,2.90284 z m -0.250114,-4.67637 0.38654,-0.43202 q 0.704866,0.47749 1.311203,0.97772 -0.280431,0.31075 -0.447173,0.48507 -0.689709,-0.61391 -1.25057,-1.03077 z m 0.295589,-1.97817 0.394119,-0.4017 q 0.500228,0.37896 1.303624,1.06867 -0.257693,0.25011 -0.454752,0.44717 -0.780659,-0.73518 -1.242991,-1.11414 z m 4.524789,2.96347 0.462331,-0.2198 q 0.242535,0.40928 0.515387,0.93224 l -0.469911,0.24254 q -0.212218,-0.4396 -0.507807,-0.95498 z"
         style="writing-mode:lr-tb;direction:ltr;stroke-width:0.26458332"
         id="path2134" />
      <path
         d="m 43.356122,210.02291 q -0.257693,0.31075 -0.447173,0.56086 -1.515842,-1.1672 -2.228288,-3.94877 v 3.19843 h 1.114144 v 0.5457 h -1.114144 v 1.58406 h -0.560862 v -1.58406 h -1.114144 v -0.5457 h 1.114144 V 206.635 h -0.01895 q -0.704866,2.61862 -2.323028,4.07004 -0.174322,-0.2198 -0.401698,-0.47749 1.462788,-1.33773 2.190392,-3.59255 h -1.781115 v -0.5457 h 2.334397 v -1.54616 h 0.560862 v 1.54616 h 2.417768 v 0.5457 H 41.16952 q 0.723814,2.35714 2.186602,3.38791 z m -7.632265,-1.84175 q 1.098986,-1.60679 1.63711,-3.66076 l 0.57602,0.16675 q -0.29559,0.96635 -0.666971,1.81522 v 5.45324 h -0.560861 v -4.31257 q -0.341065,0.6177 -0.727605,1.15962 -0.113688,-0.31075 -0.257693,-0.6215 z"
         style="writing-mode:lr-tb;direction:ltr;stroke-width:0.26458332"
         id="path2136" />
      <path
         d="m 43.511497,212.30046 q 1.277097,-1.531 1.277097,-3.58117 0,-2.05397 -1.284676,-3.62287 h 0.659391 q 1.280886,1.50069 1.280886,3.63045 0,2.12975 -1.280886,3.57359 z"
         style="writing-mode:lr-tb;direction:ltr;stroke-width:0.26458332"
         id="path2138" />
    </g>
    <g
       aria-label="固体"
       style="font-style:normal;font-weight:normal;font-size:7.76111126px;line-height:1.25;font-family:sans-serif;letter-spacing:0px;word-spacing:0px;writing-mode:lr-tb;direction:rtl;fill:#000000;fill-opacity:1;stroke:none;stroke-width:0.26458332"
       id="text1974-7">
      <path
         d="m 147.86239,204.92902 h 6.63181 v 7.07141 h -0.56845 v -0.39412 h -5.48734 v 0.4017 h -0.57602 z m 6.06336,0.55329 h -5.48734 v 5.57071 h 5.48734 z m -4.36562,2.52387 h 1.32636 v -0.91708 h -2.00091 v -0.51539 h 2.00091 v -0.87919 h 0.56086 v 0.87919 h 2.00849 v 0.51539 h -2.00849 v 0.91708 h 1.34152 v 2.45567 h -0.5457 v -0.31075 h -2.13734 v 0.31075 h -0.5457 z m 2.68304,0.50023 h -2.13734 v 1.14446 h 2.13734 z"
         style="writing-mode:lr-tb;direction:ltr;stroke-width:0.26458332"
         id="path2150" />
      <path
         d="m 162.75553,210.04499 q -0.25769,0.31075 -0.44717,0.56086 -1.51584,-1.1672 -2.22829,-3.94877 v 3.19843 h 1.11415 v 0.5457 h -1.11415 v 1.58406 h -0.56086 v -1.58406 h -1.11414 v -0.5457 h 1.11414 v -3.19843 h -0.0189 q -0.70486,2.61862 -2.32302,4.07004 -0.17433,-0.2198 -0.4017,-0.47749 1.46278,-1.33773 2.19039,-3.59255 h -1.78112 v -0.5457 h 2.3344 v -1.54616 h 0.56086 v 1.54616 h 2.41777 v 0.5457 h -1.92891 q 0.72382,2.35714 2.1866,3.38791 z m -7.63226,-1.84175 q 1.09898,-1.60679 1.63711,-3.66076 l 0.57602,0.16675 q -0.29559,0.96635 -0.66697,1.81522 v 5.45324 h -0.56086 v -4.31257 q -0.34107,0.6177 -0.72761,1.15962 -0.11369,-0.31075 -0.25769,-0.6215 z"
         style="writing-mode:lr-tb;direction:ltr;stroke-width:0.26458332"
         id="path2152" />
    </g>
    <g
       aria-label="(雾化)"
       style="font-style:normal;font-weight:normal;font-size:7.76111126px;line-height:1.25;font-family:sans-serif;letter-spacing:0px;word-spacing:0px;writing-mode:lr-tb;direction:rtl;fill:#000000;fill-opacity:1;stroke:none;stroke-width:0.26458332"
       id="text1974-2">
      <path
         d="m 19.045004,254.00991 q -1.277097,-1.45521 -1.277097,-3.5736 0,-2.11839 1.277097,-3.63044 h 0.655601 q -1.280886,1.57268 -1.280886,3.62286 0,2.04639 1.273307,3.58118 z"
         style="writing-mode:lr-tb;direction:ltr;stroke-width:0.26458332"
         id="path2141" />
      <path
         d="m 20.181885,250.45147 q 1.189936,-0.50781 1.834169,-1.03836 h 0.644233 q -0.155374,0.14022 -0.322117,0.27286 h 4.096563 v 0.37896 q -0.731393,0.4358 -1.940277,0.79202 1.296045,0.21601 2.940733,0.18569 -0.166742,0.26528 -0.272851,0.52297 -2.076704,-0.12127 -3.516754,-0.48128 -1.455208,0.35243 -3.45612,0.61013 -0.113688,-0.21222 -0.272851,-0.46991 1.648478,-0.14022 2.921785,-0.37896 -0.750342,-0.2577 -1.273307,-0.60255 -0.492649,0.31454 -1.072458,0.61012 -0.136426,-0.20463 -0.310748,-0.40169 z m 0.04547,-3.08474 h 3.160531 v -0.37896 h -2.614828 v -0.42444 h 5.7602 v 0.42444 h -2.614827 v 0.37896 h 3.16811 v 1.50068 h -0.515387 v -1.06109 h -2.652723 v 1.62195 h -0.530545 v -1.62195 h -2.645144 v 1.06109 H 20.22736 Z m 0.651812,4.48689 h 1.92133 q 0.04547,-0.20464 0.04926,-0.45475 h 0.530545 q -0.01895,0.24632 -0.06063,0.45475 h 3.001367 q -0.05305,0.5457 -0.113688,1.00046 -0.08337,0.70486 -1.038352,0.70486 -0.515386,0 -1.462787,-0.0152 -0.04547,-0.28043 -0.106109,-0.53054 0.788238,0.0455 1.523421,0.0455 0.538124,0 0.591178,-0.40169 0.02274,-0.17433 0.0379,-0.37896 H 23.20599 q -0.295589,1.06866 -2.766412,1.42489 -0.121267,-0.24254 -0.295589,-0.46991 2.144916,-0.2577 2.49735,-0.95498 h -1.762167 z m 4.585423,-1.75838 h -3.36517 q 0.67834,0.36002 1.549949,0.5836 1.068668,-0.25011 1.815221,-0.5836 z m -1.182357,-1.94785 h 1.909961 v 0.37896 h -1.909961 z m 0,0.72002 h 1.909961 v 0.37896 h -1.909961 z m -3.160531,0 h 1.902382 v 0.37896 h -1.902382 z m 0,-0.72002 h 1.902382 v 0.37896 h -1.902382 z"
         style="writing-mode:lr-tb;direction:ltr;stroke-width:0.26458332"
         id="path2143" />
      <path
         d="m 29.777165,250.9138 q 0.992876,-0.46233 1.856906,-1.06488 v -3.47507 h 0.651813 v 2.98621 q 1.159619,-0.93603 2.061545,-2.16008 l 0.553282,0.4017 q -1.102775,1.46658 -2.614827,2.56557 v 2.14112 q 0,0.51539 0.545703,0.51539 h 0.962559 q 0.515387,0 0.598758,-0.49265 0.106109,-0.51539 0.136426,-1.18994 0.318327,0.12127 0.66697,0.2198 -0.06063,0.63666 -0.159163,1.1672 -0.144005,0.87161 -1.091406,0.87161 h -1.280887 q -1.030773,0 -1.030773,-1.01562 v -1.77353 q -0.708656,0.45475 -1.493104,0.83371 -0.159163,-0.25011 -0.363802,-0.53054 z m -2.129758,-0.93224 q 1.318782,-1.7508 1.940278,-3.7214 l 0.659391,0.18948 q -0.360013,0.93983 -0.780659,1.76975 v 5.42292 h -0.636653 v -4.28225 q -0.420647,0.68213 -0.894347,1.28089 -0.128847,-0.32591 -0.28801,-0.65939 z"
         style="writing-mode:lr-tb;direction:ltr;stroke-width:0.26458332"
         id="path2145" />
      <path
         d="m 35.39715,254.00991 q 1.277097,-1.53101 1.277097,-3.58118 0,-2.05397 -1.284676,-3.62286 h 0.659391 q 1.280887,1.50068 1.280887,3.63044 0,2.12976 -1.280887,3.5736 z"
         style="writing-mode:lr-tb;direction:ltr;stroke-width:0.26458332"
         id="path2147" />
    </g>
    <g
       aria-label="气体冲击器"
       style="font-style:normal;font-weight:normal;font-size:7.76111126px;line-height:1.25;font-family:sans-serif;letter-spacing:0px;word-spacing:0px;writing-mode:lr-tb;direction:rtl;fill:#000000;fill-opacity:1;stroke:none;stroke-width:0.26458332"
       id="text1974-21">
      <path
         d="m 172.98801,253.46656 v -0.53055 h 5.38123 v 0.79582 q 0,1.81901 0.40928,2.56935 0.1819,0.28043 0.28043,-0.0606 0.10611,-0.53813 0.15159,-1.33394 0.27285,0.0985 0.5457,0.15916 -0.0227,0.5836 -0.15916,1.28089 -0.17433,0.74276 -0.70487,0.74276 -0.41686,0 -0.65939,-0.49265 -0.46991,-0.9095 -0.46991,-2.83462 v -0.29559 z m -0.78824,-0.81098 q 1.0914,-1.36426 1.62953,-3.062 l 0.61391,0.1819 q -0.12505,0.35622 -0.26148,0.68971 h 5.17281 v 0.53054 h -5.40776 q -0.6215,1.32258 -1.50448,2.34956 -0.13642,-0.43201 -0.24253,-0.68971 z m 1.63711,-0.9474 h 4.94164 v 0.51539 h -4.94164 z"
         style="writing-mode:lr-tb;direction:ltr;stroke-width:0.26458332"
         id="path2166" />
      <path
         d="m 187.55525,255.14156 q -0.2577,0.31075 -0.44718,0.56086 -1.51584,-1.16719 -2.22828,-3.94876 v 3.19842 h 1.11414 v 0.54571 h -1.11414 v 1.58405 h -0.56087 v -1.58405 h -1.11414 v -0.54571 h 1.11414 v -3.19842 h -0.0189 q -0.70487,2.61861 -2.32303,4.07003 -0.17432,-0.2198 -0.4017,-0.47749 1.46279,-1.33773 2.19039,-3.59254 h -1.78111 v -0.54571 h 2.33439 v -1.54616 h 0.56087 v 1.54616 h 2.41776 v 0.54571 h -1.9289 q 0.72381,2.35713 2.1866,3.3879 z m -7.63227,-1.84175 q 1.09899,-1.60679 1.63711,-3.66075 l 0.57602,0.16674 q -0.29559,0.96635 -0.66697,1.81522 v 5.45324 h -0.56086 v -4.31257 q -0.34106,0.61771 -0.7276,1.15962 -0.11369,-0.31075 -0.2577,-0.6215 z"
         style="writing-mode:lr-tb;direction:ltr;stroke-width:0.26458332"
         id="path2168" />
      <path
         d="m 190.20797,251.13216 h 1.99333 v -1.48552 h 0.60634 v 1.48552 h 1.99333 v 3.75929 h -0.59118 v -0.3638 h -1.40215 v 2.56177 h -0.60634 v -2.56177 h -1.40215 v 0.3638 h -0.59118 z m 4.00182,0.5457 h -1.40215 v 2.30408 h 1.40215 z m -3.41064,2.30408 h 1.40215 v -2.30408 h -1.40215 z m -1.81901,-0.84887 q 0.31833,0.21222 0.61391,0.34107 -0.5457,1.48552 -1.15204,3.34243 l -0.62907,-0.33349 q 0.60634,-1.37183 1.1672,-3.35001 z m -0.5836,-3.15295 q 0.67455,0.90193 1.18236,1.67501 l -0.57602,0.37896 q -0.56844,-0.96256 -1.12173,-1.70533 z"
         style="writing-mode:lr-tb;direction:ltr;stroke-width:0.26458332"
         id="path2170" />
      <path
         d="m 201.62226,257.07426 v -0.3259 h -5.35092 v -2.58452 h 0.65181 v 2.0085 h 2.00091 v -2.66031 h -3.38033 v -0.57602 h 3.38033 v -1.36426 h -2.83462 v -0.57602 h 2.83462 v -1.35667 h 0.66697 v 1.35667 h 2.85736 v 0.57602 h -2.85736 v 1.36426 h 3.37275 v 0.57602 h -3.37275 v 2.66031 h 2.03123 v -2.0085 h 0.65181 v 2.91042 z"
         style="writing-mode:lr-tb;direction:ltr;stroke-width:0.26458332"
         id="path2172" />
      <path
         d="m 203.50191,252.82232 h 3.062 q 0.11747,-0.28422 0.15158,-0.65939 l 0.5457,0.0758 q -0.0455,0.31832 -0.13263,0.58359 h 1.65227 q -0.30317,-0.21979 -0.64045,-0.43201 l 0.31075,-0.34106 q 0.50023,0.29558 0.90193,0.59117 l -0.17054,0.1819 h 1.41353 v 0.50023 h -2.92558 q 0.8754,0.85645 3.10748,0.81098 -0.1819,0.31075 -0.31075,0.5836 -0.20085,-0.0152 -0.38654,-0.0341 v 2.31545 h -0.53054 v -0.41686 h -1.62196 v 0.40928 h -0.53054 v -2.34198 h 2.41398 q -2.16766,-0.2918 -2.7702,-1.32636 h -0.13643 q -0.42443,0.90193 -2.75125,1.32636 h 2.42534 v 2.34198 h -0.53054 v -0.40928 h -1.59921 v 0.41686 h -0.53055 v -2.30408 q -0.20085,0.0379 -0.41685,0.0758 -0.11369,-0.22737 -0.29559,-0.53812 2.53145,-0.32591 3.03926,-0.90951 h -2.74367 z m 3.88813,-2.75883 h 2.68304 v 2.23587 h -0.53054 v -0.26527 h -1.62195 v 0.23495 h -0.53055 z m -3.47886,0 h 2.66031 v 2.20555 h -0.53055 v -0.23495 h -1.59921 v 0.31074 h -0.53055 z m 5.63136,0.46991 h -1.62195 v 1.03078 h 1.62195 z m -3.5016,0 h -1.59921 v 1.03078 h 1.59921 z m 3.50918,4.58543 h -1.62196 v 0.99287 h 1.62196 z m -3.5016,0 h -1.59921 v 0.99287 h 1.59921 z"
         style="writing-mode:lr-tb;direction:ltr;stroke-width:0.26458332"
         id="path2174" />
    </g>
    <g
       aria-label="固体冲击器"
       style="font-style:normal;font-weight:normal;font-size:7.76111126px;line-height:1.25;font-family:sans-serif;letter-spacing:0px;word-spacing:0px;writing-mode:lr-tb;direction:rtl;fill:#000000;fill-opacity:1;stroke:none;stroke-width:0.26458332"
       id="text1974-6">
      <path
         d="m 101.68223,250.45177 h 6.63181 v 7.07141 h -0.56845 v -0.39412 h -5.48734 v 0.4017 h -0.57602 z m 6.06336,0.55329 h -5.48734 v 5.57072 h 5.48734 z m -4.36562,2.52387 h 1.32636 v -0.91708 h -2.00091 v -0.51539 h 2.00091 v -0.87919 h 0.56086 v 0.87919 h 2.00849 v 0.51539 h -2.00849 v 0.91708 h 1.34152 v 2.45567 h -0.5457 v -0.31075 h -2.13734 v 0.31075 h -0.5457 z m 2.68304,0.50023 h -2.13734 v 1.14446 h 2.13734 z"
         style="writing-mode:lr-tb;stroke-width:0.26458332"
         id="path2155" />
      <path
         d="m 116.57537,255.56774 q -0.25769,0.31075 -0.44717,0.56086 -1.51584,-1.1672 -2.22829,-3.94877 v 3.19843 h 1.11415 v 0.5457 h -1.11415 v 1.58406 h -0.56086 v -1.58406 h -1.11414 v -0.5457 h 1.11414 v -3.19843 h -0.019 q -0.70486,2.61862 -2.32302,4.07004 -0.17433,-0.2198 -0.4017,-0.47749 1.46279,-1.33773 2.19039,-3.59255 h -1.78111 v -0.5457 h 2.33439 v -1.54616 h 0.56086 v 1.54616 h 2.41777 v 0.5457 h -1.92891 q 0.72382,2.35714 2.1866,3.38791 z m -7.63226,-1.84175 q 1.09899,-1.60679 1.63711,-3.66076 l 0.57602,0.16675 q -0.29559,0.96635 -0.66697,1.81522 v 5.45324 h -0.56086 v -4.31257 q -0.34107,0.6177 -0.72761,1.15962 -0.11369,-0.31075 -0.25769,-0.6215 z"
         style="writing-mode:lr-tb;stroke-width:0.26458332"
         id="path2157" />
      <path
         d="m 119.2281,251.55834 h 1.99333 v -1.48553 h 0.60634 v 1.48553 h 1.99333 v 3.75929 h -0.59118 v -0.36381 h -1.40215 v 2.56178 h -0.60634 v -2.56178 h -1.40215 v 0.36381 h -0.59118 z m 4.00182,0.5457 h -1.40215 v 2.30408 h 1.40215 z m -3.41064,2.30408 h 1.40215 v -2.30408 h -1.40215 z m -1.81901,-0.84887 q 0.31832,0.21222 0.61391,0.34106 -0.5457,1.48553 -1.15204,3.34244 l -0.62907,-0.33349 q 0.60633,-1.37184 1.1672,-3.35001 z m -0.5836,-3.15295 q 0.67455,0.90192 1.18235,1.675 l -0.57602,0.37896 q -0.56844,-0.96256 -1.12172,-1.70532 z"
         style="writing-mode:lr-tb;stroke-width:0.26458332"
         id="path2159" />
      <path
         d="m 130.64239,257.50044 v -0.32591 h -5.35092 v -2.58451 h 0.65181 v 2.00849 h 2.00091 v -2.6603 h -3.38033 v -0.57602 h 3.38033 v -1.36426 h -2.83463 v -0.57602 h 2.83463 v -1.35668 h 0.66697 v 1.35668 h 2.85736 v 0.57602 h -2.85736 v 1.36426 h 3.37275 v 0.57602 h -3.37275 v 2.6603 h 2.03123 v -2.00849 h 0.65181 v 2.91042 z"
         style="writing-mode:lr-tb;stroke-width:0.26458332"
         id="path2161" />
      <path
         d="m 132.52203,253.2485 h 3.062 q 0.11748,-0.28422 0.15159,-0.65939 l 0.5457,0.0758 q -0.0455,0.31833 -0.13264,0.5836 h 1.65227 q -0.30317,-0.21979 -0.64044,-0.43201 l 0.31075,-0.34107 q 0.50023,0.29559 0.90192,0.59118 l -0.17053,0.1819 h 1.41352 v 0.50023 h -2.92557 q 0.8754,0.85645 3.10747,0.81098 -0.1819,0.31074 -0.31074,0.5836 -0.20085,-0.0152 -0.38654,-0.0341 v 2.31545 h -0.53055 v -0.41686 h -1.62195 v 0.40928 h -0.53054 v -2.34198 h 2.41398 q -2.16766,-0.2918 -2.77021,-1.32636 h -0.13642 q -0.42444,0.90193 -2.75126,1.32636 h 2.42535 v 2.34198 h -0.53054 v -0.40928 h -1.59922 v 0.41686 h -0.53054 v -2.30408 q -0.20085,0.0379 -0.41686,0.0758 -0.11369,-0.22738 -0.29559,-0.53812 2.53146,-0.32591 3.03927,-0.90951 h -2.74368 z m 3.88814,-2.75883 h 2.68304 v 2.23587 h -0.53055 v -0.26528 h -1.62195 v 0.23496 h -0.53054 z m -3.47886,0 h 2.6603 v 2.20555 h -0.53054 v -0.23496 h -1.59922 v 0.31075 h -0.53054 z m 5.63135,0.46991 h -1.62195 v 1.03077 h 1.62195 z m -3.50159,0 h -1.59922 v 1.03077 h 1.59922 z m 3.50917,4.58542 h -1.62195 v 0.99288 h 1.62195 z m -3.50159,0 h -1.59922 v 0.99288 h 1.59922 z"
         style="writing-mode:lr-tb;stroke-width:0.26458332"
         id="path2163" />
    </g>
    <g
       aria-label="(粉碎、球磨等)"
       style="font-style:normal;font-weight:normal;font-size:7.76111126px;line-height:1.25;font-family:sans-serif;letter-spacing:0px;word-spacing:0px;writing-mode:lr-tb;direction:ltr;fill:#000000;fill-opacity:1;stroke:none;stroke-width:0.26458332"
       id="text1974-6-7">
      <path
         d="m 101.01891,291.08119 q -1.277098,-1.4552 -1.277098,-3.57359 0,-2.11839 1.277098,-3.63044 h 0.6556 q -1.28089,1.57268 -1.28089,3.62286 0,2.04638 1.27331,3.58117 z"
         style="writing-mode:lr-tb;direction:ltr;stroke-width:0.26458332"
         id="path2177" />
      <path
         d="m 101.85262,289.06891 q 0.8034,-1.14825 1.16341,-2.52387 h -1.0573 v -0.51539 h 1.14446 v -2.6982 h 0.53813 v 2.6982 h 1.02319 v 0.51539 h -1.02319 v 0.69728 l 0.28801,-0.19706 q 0.25011,0.30317 0.88676,1.19752 l -0.45475,0.34106 q -0.44717,-0.75034 -0.72002,-1.13688 v 3.25906 h -0.53813 v -3.0241 q -0.38654,1.1672 -0.9853,1.98575 -0.1061,-0.29559 -0.26527,-0.59876 z m 3.35759,-1.84174 v -0.51539 h 3.41823 q -0.0758,2.0767 -0.12127,2.8801 -0.0758,1.05351 -0.92466,1.05351 -0.4396,0 -0.9853,-0.0227 -0.0455,-0.35622 -0.11369,-0.62907 0.5457,0.0834 0.93982,0.0834 0.46233,0 0.50781,-0.56844 0.053,-0.68971 0.0909,-2.28134 h -1.43626 q -0.0493,2.49735 -1.86828,3.4637 -0.144,-0.22738 -0.40169,-0.4775 1.58405,-0.76928 1.69774,-2.9862 z m 4.15341,-1.08383 q -0.26527,0.144 -0.52297,0.37138 -1.28846,-1.1293 -1.59163,-3.18327 l 0.6215,-0.091 q 0.12884,1.72806 1.4931,2.90284 z m -4.64606,0.0834 q 0.95498,-0.9853 1.29605,-2.55419 l 0.59118,0.12126 q -0.4017,1.72048 -1.39458,2.82705 -0.17432,-0.18948 -0.49265,-0.39412 z m -0.90192,-0.77308 q 0.3259,-0.84129 0.5078,-1.61437 l 0.57602,0.16674 q -0.22737,0.6215 -0.57602,1.63711 z m -1.87207,-1.41731 0.46233,-0.15916 q 0.16675,0.43201 0.53813,1.54615 l -0.53055,0.20464 q -0.35622,-1.25057 -0.46991,-1.59163 z"
         style="writing-mode:lr-tb;direction:ltr;stroke-width:0.26458332"
         id="path2179" />
      <path
         d="m 109.60615,287.50002 q 0.96635,-1.26194 1.34531,-2.89526 h -1.12551 v -0.56086 h 2.70578 v 0.56086 h -0.99667 q -0.18948,0.92087 -0.56844,1.74322 h 1.2392 v 4.10793 h -0.53812 v -0.52297 h -0.86403 v 0.6215 h -0.53812 v -2.97484 q -0.15538,0.22359 -0.32591,0.4358 -0.11369,-0.21221 -0.33349,-0.51538 z m 2.85737,0.75792 h 2.06912 v -0.53813 h 0.57602 v 0.53813 h 2.04639 v 0.5457 h -2.04639 v 1.94028 h -0.57602 v -1.94028 h -2.06912 z m 0.27285,-3.92603 h 2.00091 q -0.24633,-0.51539 -0.44717,-0.84129 l 0.5078,-0.24254 q 0.22738,0.31833 0.51539,0.86403 l -0.45854,0.2198 h 2.16386 v 0.5457 h -4.28225 z m 1.8569,2.97863 q 0.78066,-0.91709 1.10657,-2.22071 h 0.57602 q -0.11748,0.45854 -0.28422,0.89056 0.68592,0.64044 1.16341,1.17098 l -0.40928,0.40928 q -0.34485,-0.43959 -0.96635,-1.09519 -0.28801,0.59496 -0.68592,1.13309 -0.30317,-0.19706 -0.50023,-0.28801 z m -2.92557,-0.44718 h -0.86403 v 2.56936 h 0.86403 z m 0.68971,0.47749 q 0.82613,-0.99287 1.13688,-2.25102 h 0.56086 q -0.10611,0.39412 -0.24253,0.75792 0.5078,0.50402 0.92466,1.00803 l -0.42444,0.40928 q -0.26527,-0.38654 -0.70865,-0.90192 -0.32591,0.72381 -0.78445,1.31878 -0.25769,-0.22738 -0.46233,-0.34107 z"
         style="writing-mode:lr-tb;direction:ltr;stroke-width:0.26458332"
         id="path2181" />
      <path
         d="m 119.61829,290.24748 -0.45475,0.45854 q -0.64044,-0.69728 -1.40594,-1.33015 l 0.40169,-0.41685 q 0.94362,0.76171 1.459,1.28846 z"
         style="writing-mode:lr-tb;direction:ltr;stroke-width:0.26458332"
         id="path2183" />
      <path
         d="m 127.75836,288.8188 q 0.98909,-0.60255 2.06913,-1.34152 v -2.20555 h -1.94028 v -0.5457 h 1.94028 v -1.3491 h 0.57602 v 1.3491 h 2.15249 v 0.5457 h -2.15249 v 0.67455 q 0.18948,0.62149 0.44338,1.15204 0.6556,-0.63665 1.0952,-1.17478 l 0.49265,0.41686 q -0.62529,0.6177 -1.33016,1.25057 0.6594,1.14067 1.6409,1.76595 -0.0455,0.0682 -0.19706,0.23496 -0.16674,0.17432 -0.23495,0.27285 -1.24299,-0.89814 -1.90996,-2.58451 v 2.44809 q 0,0.90192 -0.93983,0.90192 -0.37138,0 -0.79581,-0.008 -0.0455,-0.28801 -0.12127,-0.62149 0.44717,0.053 0.81098,0.053 0.46991,0 0.46991,-0.46233 v -1.44384 q -0.78445,0.5457 -1.69017,1.21646 z m -2.60725,0.49265 q 0.5116,-0.0531 1.07625,-0.12506 v -2.29271 h -0.93224 v -0.5457 h 0.93224 v -1.78112 h -1.03077 v -0.5457 h 2.59209 v 0.5457 h -1.00804 v 1.78112 h 0.87919 v 0.5457 h -0.87919 v 2.22071 q 0.45476,-0.0644 0.93983,-0.13643 -0.0303,0.30317 -0.0379,0.5836 -1.41731,0.1819 -2.45566,0.34107 z m 2.774,-3.22874 0.46233,-0.28044 q 0.49265,0.64424 0.97772,1.4249 l -0.48507,0.33348 q -0.52297,-0.88677 -0.95498,-1.47794 z m 2.88767,-2.25861 0.33349,-0.37896 q 0.53812,0.35622 0.9853,0.73518 l -0.36381,0.41686 q -0.44717,-0.41686 -0.95498,-0.77308 z"
         style="writing-mode:lr-tb;direction:ltr;stroke-width:0.26458332"
         id="path2185" />
      <path
         d="m 134.32954,287.43938 h 5.91178 v 0.48507 h -3.63802 q -0.3259,0.37138 -0.68213,0.69729 h 3.75929 v 2.14492 h -0.5457 v -0.35623 h -3.35001 v 0.36381 h -0.54571 v -1.58406 q -0.50022,0.37896 -1.04593,0.68213 -0.144,-0.23496 -0.34106,-0.43959 -0.20464,0.75034 -0.56086,1.26572 -0.16675,-0.25769 -0.38654,-0.50022 0.68213,-0.9474 0.68213,-3.14538 v -2.91041 h 3.3879 q -0.17432,-0.25012 -0.44717,-0.59118 l 0.45475,-0.27285 q 0.26527,0.30317 0.48507,0.61391 l -0.42443,0.25012 h 3.27421 v 0.50023 h -6.19979 v 2.39503 q 0,1.39457 -0.25769,2.37229 1.22783,-0.60634 2.0767,-1.48553 h -1.60679 z m 6.11642,-0.73518 q -0.1819,0.17432 -0.33348,0.4017 -0.70487,-0.41686 -1.1672,-1.14446 v 1.25057 h -0.48507 v -1.28847 q -0.46991,0.72761 -1.1293,1.24299 -0.18948,-0.23495 -0.37139,-0.3638 0.74277,-0.46233 1.19752,-1.03835 h -0.78824 v -0.4396 h 1.09141 v -0.49264 h 0.48507 v 0.49264 h 1.17478 v 0.4396 h -0.95499 q 0.51539,0.63665 1.28089,0.93982 z m -6.124,0.0682 q 0.68971,-0.43959 1.15204,-1.00045 h -0.97772 v -0.4396 h 1.18994 v -0.49265 h 0.48507 v 0.49265 h 0.98529 v 0.4396 h -0.98529 v 0.44717 l 0.23495,-0.25011 q 0.33349,0.21979 0.66697,0.46991 l -0.27285,0.33348 q -0.33348,-0.27285 -0.62907,-0.46991 v 0.91709 h -0.48507 v -1.15962 q -0.4396,0.62907 -1.01562,1.07625 -0.16674,-0.18948 -0.34864,-0.36381 z m 4.8128,2.31924 h -3.35001 v 0.84887 h 3.35001 z"
         style="writing-mode:lr-tb;direction:ltr;stroke-width:0.26458332"
         id="path2187" />
      <path
         d="m 140.71123,286.95431 h 3.38033 v -0.75034 h -2.84978 v -0.49265 h 2.84978 v -0.59875 h 0.59118 v 0.59875 h 2.97105 v 0.49265 h -2.97105 v 0.75034 h 3.5016 v 0.50781 h -7.47311 z m 0.2577,1.25057 h 4.74458 v -0.59875 h 0.59118 v 0.59875 h 1.62195 v 0.50781 h -1.62195 v 1.00804 q 0,0.95498 -0.9853,0.95498 -0.57602,0 -1.15961,-0.008 -0.0379,-0.27285 -0.11369,-0.64424 0.60633,0.0606 1.11414,0.0606 0.55328,0 0.55328,-0.44718 v -0.92466 h -4.74458 z m 1.15962,-4.94164 h 0.65181 q -0.17432,0.37138 -0.38654,0.71244 h 2.19797 v 0.46992 h -2.52388 q -0.44717,0.59875 -1.03835,1.10656 -0.15158,-0.1819 -0.37896,-0.40928 0.9474,-0.7655 1.47795,-1.87964 z m 3.2439,0 h 0.65181 q -0.17053,0.37517 -0.35622,0.71244 h 2.4405 v 0.46992 h -2.71714 q -0.2577,0.40548 -0.54192,0.74276 -0.31832,-0.22738 -0.5078,-0.30317 0.65939,-0.71245 1.03077,-1.62195 z m -2.99379,5.88905 0.4017,-0.38654 q 0.51539,0.43959 1.05351,0.9474 l -0.43959,0.41685 q -0.40928,-0.43201 -1.01562,-0.97771 z m 0.62908,-3.57739 q -0.28801,-0.37896 -0.62908,-0.77308 l 0.39412,-0.28043 q 0.3638,0.34864 0.68213,0.71244 z m 3.30453,0 q -0.144,-0.22738 -0.61392,-0.77308 l 0.39412,-0.28043 q 0.40928,0.39412 0.66697,0.71244 z"
         style="writing-mode:lr-tb;direction:ltr;stroke-width:0.26458332"
         id="path2189" />
      <path
         d="m 148.4155,291.08119 q 1.2771,-1.531 1.2771,-3.58117 0,-2.05397 -1.28468,-3.62286 h 0.65939 q 1.28089,1.50068 1.28089,3.63044 0,2.12975 -1.28089,3.57359 z"
         style="writing-mode:lr-tb;direction:ltr;stroke-width:0.26458332"
         id="path2191" />
    </g>
    <g
       aria-label="（微粉化）"
       style="font-style:normal;font-weight:normal;font-size:7.76111126px;line-height:1.25;font-family:sans-serif;letter-spacing:0px;word-spacing:0px;writing-mode:lr-tb;direction:rtl;fill:#000000;fill-opacity:1;stroke:none;stroke-width:0.26458332"
       id="text1974-6-5">
      <path
         d="m 180.25683,291.72039 q -1.35289,-1.47795 -1.35289,-3.57739 0,-2.12597 1.35289,-3.62286 h 0.65181 q -1.34531,1.53479 -1.34531,3.61528 0,2.05018 1.33773,3.58497 z"
         style="writing-mode:lr-tb;direction:ltr;stroke-width:0.26458332"
         id="path2194" />
      <path
         d="m 187.39645,283.95548 0.51538,0.0909 q -0.12127,0.70108 -0.28422,1.33395 h 1.63332 v 0.5457 h -0.3638 q -0.15916,2.17144 -0.73139,3.43717 0.4358,0.84508 1.14067,1.44384 -0.16675,0.29559 -0.31833,0.5836 -0.67076,-0.64802 -1.11035,-1.47037 -0.45476,0.79203 -1.17099,1.52342 -0.15159,-0.21979 -0.37138,-0.47749 0.82613,-0.78065 1.2733,-1.62953 -0.42443,-1.05351 -0.51538,-2.36092 -0.12127,0.2918 -0.2577,0.56465 -0.15158,-0.19706 -0.3638,-0.39412 0.66697,-1.29604 0.92467,-3.19085 z m -3.59255,2.54662 v -1.85691 h 0.48507 v 1.34152 h 0.6215 v -1.92512 h 0.50022 v 1.92512 h 0.6215 v -1.3491 h 0.48507 v 2.10702 h -0.48507 v -0.24253 z m 1.7508,2.41777 h -1.00046 v 0.34864 q 0,1.36426 -0.7655,1.94028 -0.12884,-0.21222 -0.34106,-0.48507 0.59876,-0.39412 0.59876,-1.51584 v -0.8034 h 2.01606 v 1.31878 q 0.34865,-0.30317 0.79582,-0.71244 0.0682,0.33348 0.12885,0.5836 -0.41686,0.33348 -0.9474,0.81855 -0.16675,0.15916 -0.30317,0.30317 l -0.38654,-0.48507 q 0.20464,-0.20464 0.20464,-0.5457 z m -3.85024,-0.50781 q 0.85645,-1.00046 1.45521,-2.35713 l 0.50023,0.23495 q -0.28044,0.59118 -0.5836,1.10657 v 3.97908 h -0.51539 v -3.18327 q -0.31833,0.45097 -0.65939,0.82614 -0.0909,-0.30317 -0.19706,-0.60634 z m 6.67728,-2.48598 h -0.9095 l -0.0227,0.072 q 0.0114,1.55374 0.43581,2.72094 0.33348,-0.93982 0.49643,-2.79294 z m -6.63938,0.0455 q 0.95498,-0.97013 1.43247,-1.97817 l 0.46991,0.26527 q -0.66697,1.28089 -1.72048,2.30408 -0.0834,-0.29559 -0.1819,-0.59118 z m 2.21312,1.2051 h 2.41019 v 0.53054 h -2.41019 z"
         style="writing-mode:lr-tb;direction:ltr;stroke-width:0.26458332"
         id="path2196" />
      <path
         d="m 189.46557,289.7081 q 0.8034,-1.14825 1.16341,-2.52387 h -1.0573 v -0.51539 h 1.14446 v -2.6982 h 0.53812 v 2.6982 h 1.0232 v 0.51539 h -1.0232 v 0.69729 l 0.28801,-0.19706 q 0.25012,0.30316 0.88677,1.19751 l -0.45475,0.34107 q -0.44717,-0.75035 -0.72003,-1.13689 v 3.25906 h -0.53812 v -3.0241 q -0.38654,1.1672 -0.9853,1.98575 -0.10611,-0.29559 -0.26527,-0.59876 z m 3.35759,-1.84174 v -0.51539 h 3.41822 q -0.0758,2.0767 -0.12126,2.8801 -0.0758,1.05351 -0.92467,1.05351 -0.43959,0 -0.98529,-0.0227 -0.0455,-0.35622 -0.11369,-0.62907 0.5457,0.0834 0.93982,0.0834 0.46233,0 0.50781,-0.56844 0.0531,-0.68971 0.091,-2.28134 h -1.43626 q -0.0493,2.49735 -1.86828,3.4637 -0.144,-0.22738 -0.4017,-0.47749 1.58406,-0.76929 1.69775,-2.98621 z m 4.15341,-1.08383 q -0.26527,0.144 -0.52297,0.37138 -1.28846,-1.1293 -1.59163,-3.18327 l 0.62149,-0.091 q 0.12885,1.72806 1.49311,2.90284 z m -4.64606,0.0834 q 0.95498,-0.9853 1.29605,-2.55419 l 0.59118,0.12126 q -0.4017,1.72049 -1.39458,2.82705 -0.17432,-0.18948 -0.49265,-0.39412 z m -0.90192,-0.77308 q 0.3259,-0.84129 0.5078,-1.61437 l 0.57602,0.16674 q -0.22737,0.6215 -0.57602,1.63711 z m -1.87207,-1.41731 0.46233,-0.15916 q 0.16675,0.43201 0.53813,1.54615 l -0.53055,0.20464 q -0.35622,-1.25057 -0.46991,-1.59163 z"
         style="writing-mode:lr-tb;direction:ltr;stroke-width:0.26458332"
         id="path2198" />
      <path
         d="m 199.36402,288.62428 q 0.99287,-0.46233 1.8569,-1.06488 v -3.47507 h 0.65182 v 2.98621 q 1.15962,-0.93603 2.06154,-2.16008 l 0.55328,0.4017 q -1.10277,1.46658 -2.61482,2.56557 v 2.14112 q 0,0.51539 0.5457,0.51539 h 0.96256 q 0.51539,0 0.59876,-0.49265 0.10611,-0.51539 0.13642,-1.18994 0.31833,0.12127 0.66697,0.2198 -0.0606,0.63665 -0.15916,1.1672 -0.14401,0.87161 -1.09141,0.87161 h -1.28088 q -1.03078,0 -1.03078,-1.01562 v -1.77353 q -0.70865,0.45475 -1.4931,0.83371 -0.15916,-0.25011 -0.3638,-0.53054 z m -2.12976,-0.93225 q 1.31878,-1.75079 1.94028,-3.72139 l 0.65939,0.18948 q -0.36001,0.93982 -0.78066,1.76975 v 5.42292 h -0.63665 v -4.28225 q -0.42065,0.68213 -0.89435,1.28089 -0.12885,-0.32591 -0.28801,-0.6594 z"
         style="writing-mode:lr-tb;direction:ltr;stroke-width:0.26458332"
         id="path2200" />
      <path
         d="m 206.23836,291.72039 h -0.65181 q 1.34531,-1.53101 1.34531,-3.62287 0,-2.05396 -1.33773,-3.57738 h 0.64423 q 1.34531,1.46657 1.34531,3.57738 0,2.13355 -1.34531,3.62287 z"
         style="writing-mode:lr-tb;direction:ltr;stroke-width:0.26458332"
         id="path2202" />
    </g>
    <path
       style="fill:none;stroke:#000000;stroke-width:0.5;stroke-linecap:butt;stroke-linejoin:miter;stroke-miterlimit:4;stroke-dasharray:none;stroke-opacity:1"
       d="M 193.392,280.0024 V 259.97334"
       id="path1920-22-3"
       inkscape:connector-curvature="0"
       sodipodi:nodetypes="cc" />
  </g>
</svg>
