<?xml version="1.0" encoding="UTF-8" standalone="no"?>
<!-- Created with Inkscape (http://www.inkscape.org/) -->

<svg
   xmlns:dc="http://purl.org/dc/elements/1.1/"
   xmlns:cc="http://creativecommons.org/ns#"
   xmlns:rdf="http://www.w3.org/1999/02/22-rdf-syntax-ns#"
   xmlns:svg="http://www.w3.org/2000/svg"
   xmlns="http://www.w3.org/2000/svg"
   xmlns:sodipodi="http://sodipodi.sourceforge.net/DTD/sodipodi-0.dtd"
   xmlns:inkscape="http://www.inkscape.org/namespaces/inkscape"
   width="176mm"
   height="200mm"
   viewBox="0 0 176 200"
   version="1.1"
   id="svg8"
   inkscape:version="0.92.3 (2405546, 2018-03-11)"
   sodipodi:docname="fig4.svg">
  <defs
     id="defs2">
    <inkscape:path-effect
       effect="bspline"
       id="path-effect1222"
       is_visible="true"
       weight="33.333333"
       steps="2"
       helper_size="0"
       apply_no_weight="true"
       apply_with_weight="true"
       only_selected="false" />
    <inkscape:path-effect
       effect="bspline"
       id="path-effect1218"
       is_visible="true"
       weight="33.333333"
       steps="2"
       helper_size="0"
       apply_no_weight="true"
       apply_with_weight="true"
       only_selected="false" />
    <inkscape:path-effect
       effect="bspline"
       id="path-effect1126"
       is_visible="true"
       weight="33.333333"
       steps="2"
       helper_size="0"
       apply_no_weight="true"
       apply_with_weight="true"
       only_selected="false" />
    <inkscape:path-effect
       effect="bspline"
       id="path-effect1122"
       is_visible="true"
       weight="33.333333"
       steps="2"
       helper_size="0"
       apply_no_weight="true"
       apply_with_weight="true"
       only_selected="false" />
    <inkscape:path-effect
       effect="spiro"
       id="path-effect1116"
       is_visible="true" />
    <inkscape:path-effect
       effect="bspline"
       id="path-effect1056"
       is_visible="true"
       weight="33.333333"
       steps="2"
       helper_size="0"
       apply_no_weight="true"
       apply_with_weight="true"
       only_selected="false" />
    <inkscape:path-effect
       effect="bspline"
       id="path-effect1026"
       is_visible="true"
       weight="33.333333"
       steps="2"
       helper_size="0"
       apply_no_weight="true"
       apply_with_weight="true"
       only_selected="false" />
    <inkscape:path-effect
       effect="bspline"
       id="path-effect1022"
       is_visible="true"
       weight="33.333333"
       steps="2"
       helper_size="0"
       apply_no_weight="true"
       apply_with_weight="true"
       only_selected="false" />
    <inkscape:path-effect
       effect="bspline"
       id="path-effect821"
       is_visible="true"
       weight="33.333333"
       steps="2"
       helper_size="0"
       apply_no_weight="true"
       apply_with_weight="true"
       only_selected="false" />
    <inkscape:path-effect
       effect="bspline"
       id="path-effect821-6"
       is_visible="true"
       weight="33.333333"
       steps="2"
       helper_size="0"
       apply_no_weight="true"
       apply_with_weight="true"
       only_selected="false" />
    <inkscape:path-effect
       effect="bspline"
       id="path-effect1026-7"
       is_visible="true"
       weight="33.333333"
       steps="2"
       helper_size="0"
       apply_no_weight="true"
       apply_with_weight="true"
       only_selected="false" />
    <inkscape:path-effect
       effect="bspline"
       id="path-effect1022-3"
       is_visible="true"
       weight="33.333333"
       steps="2"
       helper_size="0"
       apply_no_weight="true"
       apply_with_weight="true"
       only_selected="false" />
    <inkscape:path-effect
       effect="bspline"
       id="path-effect1056-5"
       is_visible="true"
       weight="33.333333"
       steps="2"
       helper_size="0"
       apply_no_weight="true"
       apply_with_weight="true"
       only_selected="false" />
    <inkscape:path-effect
       effect="bspline"
       id="path-effect1126-3"
       is_visible="true"
       weight="33.333333"
       steps="2"
       helper_size="0"
       apply_no_weight="true"
       apply_with_weight="true"
       only_selected="false" />
    <inkscape:path-effect
       effect="bspline"
       id="path-effect1126-4"
       is_visible="true"
       weight="33.333333"
       steps="2"
       helper_size="0"
       apply_no_weight="true"
       apply_with_weight="true"
       only_selected="false" />
    <inkscape:path-effect
       effect="bspline"
       id="path-effect1126-8"
       is_visible="true"
       weight="33.333333"
       steps="2"
       helper_size="0"
       apply_no_weight="true"
       apply_with_weight="true"
       only_selected="false" />
    <inkscape:path-effect
       effect="bspline"
       id="path-effect1126-40"
       is_visible="true"
       weight="33.333333"
       steps="2"
       helper_size="0"
       apply_no_weight="true"
       apply_with_weight="true"
       only_selected="false" />
    <inkscape:path-effect
       effect="bspline"
       id="path-effect1126-6"
       is_visible="true"
       weight="33.333333"
       steps="2"
       helper_size="0"
       apply_no_weight="true"
       apply_with_weight="true"
       only_selected="false" />
    <inkscape:path-effect
       effect="bspline"
       id="path-effect1126-49"
       is_visible="true"
       weight="33.333333"
       steps="2"
       helper_size="0"
       apply_no_weight="true"
       apply_with_weight="true"
       only_selected="false" />
    <inkscape:path-effect
       effect="bspline"
       id="path-effect1126-47"
       is_visible="true"
       weight="33.333333"
       steps="2"
       helper_size="0"
       apply_no_weight="true"
       apply_with_weight="true"
       only_selected="false" />
  </defs>
  <sodipodi:namedview
     id="base"
     pagecolor="#ffffff"
     bordercolor="#666666"
     borderopacity="1.0"
     inkscape:pageopacity="0.0"
     inkscape:pageshadow="2"
     inkscape:zoom="1.0927292"
     inkscape:cx="332.59843"
     inkscape:cy="377.95276"
     inkscape:document-units="mm"
     inkscape:current-layer="layer1"
     showgrid="false"
     units="mm"
     inkscape:window-width="1920"
     inkscape:window-height="1013"
     inkscape:window-x="-9"
     inkscape:window-y="-9"
     inkscape:window-maximized="1"
     showguides="true"
     inkscape:guide-bbox="true">
    <sodipodi:guide
       position="-39.293223,118.26489"
       orientation="0,1"
       id="guide1128"
       inkscape:locked="false" />
  </sodipodi:namedview>
  <metadata
     id="metadata5">
    <rdf:RDF>
      <cc:Work
         rdf:about="">
        <dc:format>image/svg+xml</dc:format>
        <dc:type
           rdf:resource="http://purl.org/dc/dcmitype/StillImage" />
        <dc:title></dc:title>
      </cc:Work>
    </rdf:RDF>
  </metadata>
  <g
     inkscape:label="Layer 1"
     inkscape:groupmode="layer"
     id="layer1"
     transform="translate(0,-97)">
    <path
       style="fill:none;stroke:#000000;stroke-width:0.5;stroke-linecap:butt;stroke-linejoin:miter;stroke-miterlimit:4;stroke-dasharray:none;stroke-opacity:1"
       d="M 88.024581,102.42447 H 163.38776 V 255.26951 H 88.024581"
       id="path817"
       inkscape:connector-curvature="0" />
    <path
       style="fill:none;stroke:#000000;stroke-width:0.5;stroke-linecap:butt;stroke-linejoin:miter;stroke-miterlimit:4;stroke-dasharray:none;stroke-opacity:1"
       d="m 88.024581,126.27405 c 15.032529,0 30.064819,0 38.867259,0 8.80244,0 11.37512,0 12.66131,1.67478 1.28619,1.67478 1.28619,5.0253 1.28619,24.82178 0,19.79649 0,56.03356 0,75.86566 0,19.83211 0,23.25633 1.20781,24.96859 1.20781,1.71225 3.6228,1.71225 6.03771,1.71225"
       id="path819"
       inkscape:connector-curvature="0"
       inkscape:path-effect="#path-effect821"
       inkscape:original-d="m 88.024581,126.27405 c 15.032529,-2.7e-4 30.064819,-2.7e-4 45.096839,0 2.57286,-2.7e-4 5.14554,-2.7e-4 7.71792,0 2.6e-4,3.34956 2.6e-4,6.70008 0,10.05052 2.6e-4,36.24253 2.6e-4,72.4796 0,108.7198 2.6e-4,3.42401 2.6e-4,6.84823 0,10.27274 2.41562,-2.6e-4 4.83061,-2.6e-4 7.24552,0" />
    <path
       style="fill:none;stroke:#000000;stroke-width:0.5;stroke-linecap:butt;stroke-linejoin:miter;stroke-miterlimit:4;stroke-dasharray:none;stroke-opacity:1"
       d="m 88.024581,258.44747 h 75.363179 v -3.48063"
       id="path823"
       inkscape:connector-curvature="0" />
    <path
       style="fill:none;stroke:#000000;stroke-width:0.5;stroke-linecap:butt;stroke-linejoin:miter;stroke-miterlimit:4;stroke-dasharray:none;stroke-opacity:1"
       d="m 88.024581,258.44747 2.91819,-3.18386"
       id="path825"
       inkscape:connector-curvature="0" />
    <path
       style="fill:none;stroke:#000000;stroke-width:0.5;stroke-linecap:butt;stroke-linejoin:miter;stroke-miterlimit:4;stroke-dasharray:none;stroke-opacity:1"
       d="m 91.623831,258.40715 2.91819,-3.18386"
       id="path825-1"
       inkscape:connector-curvature="0" />
    <path
       style="fill:none;stroke:#000000;stroke-width:0.5;stroke-linecap:butt;stroke-linejoin:miter;stroke-miterlimit:4;stroke-dasharray:none;stroke-opacity:1"
       d="m 96.06465,258.40715 2.918176,-3.18386"
       id="path825-0"
       inkscape:connector-curvature="0" />
    <path
       style="fill:none;stroke:#000000;stroke-width:0.5;stroke-linecap:butt;stroke-linejoin:miter;stroke-miterlimit:4;stroke-dasharray:none;stroke-opacity:1"
       d="m 99.702903,258.46065 2.918187,-3.18386"
       id="path825-8"
       inkscape:connector-curvature="0" />
    <path
       style="fill:none;stroke:#000000;stroke-width:0.5;stroke-linecap:butt;stroke-linejoin:miter;stroke-miterlimit:4;stroke-dasharray:none;stroke-opacity:1"
       d="m 103.82269,258.56766 2.91819,-3.18386"
       id="path825-05"
       inkscape:connector-curvature="0" />
    <path
       style="fill:none;stroke:#000000;stroke-width:0.5;stroke-linecap:butt;stroke-linejoin:miter;stroke-miterlimit:4;stroke-dasharray:none;stroke-opacity:1"
       d="m 108.47753,258.62117 2.91819,-3.18386"
       id="path825-9"
       inkscape:connector-curvature="0" />
    <path
       style="fill:none;stroke:#000000;stroke-width:0.5;stroke-linecap:butt;stroke-linejoin:miter;stroke-miterlimit:4;stroke-dasharray:none;stroke-opacity:1"
       d="m 112.54382,258.56766 2.91819,-3.18386"
       id="path825-17"
       inkscape:connector-curvature="0" />
    <path
       style="fill:none;stroke:#000000;stroke-width:0.5;stroke-linecap:butt;stroke-linejoin:miter;stroke-miterlimit:4;stroke-dasharray:none;stroke-opacity:1"
       d="m 116.87763,258.56766 2.91819,-3.18386"
       id="path825-92"
       inkscape:connector-curvature="0" />
    <path
       style="fill:none;stroke:#000000;stroke-width:0.5;stroke-linecap:butt;stroke-linejoin:miter;stroke-miterlimit:4;stroke-dasharray:none;stroke-opacity:1"
       d="m 121.53246,258.56766 2.91819,-3.18386"
       id="path825-5"
       inkscape:connector-curvature="0" />
    <path
       style="fill:none;stroke:#000000;stroke-width:0.5;stroke-linecap:butt;stroke-linejoin:miter;stroke-miterlimit:4;stroke-dasharray:none;stroke-opacity:1"
       d="m 125.70576,258.46065 2.91819,-3.18386"
       id="path825-4"
       inkscape:connector-curvature="0" />
    <path
       style="fill:none;stroke:#000000;stroke-width:0.5;stroke-linecap:butt;stroke-linejoin:miter;stroke-miterlimit:4;stroke-dasharray:none;stroke-opacity:1"
       d="m 130.20009,258.51416 2.91819,-3.18386"
       id="path825-6"
       inkscape:connector-curvature="0" />
    <path
       style="fill:none;stroke:#000000;stroke-width:0.5;stroke-linecap:butt;stroke-linejoin:miter;stroke-miterlimit:4;stroke-dasharray:none;stroke-opacity:1"
       d="m 134.48039,258.56766 2.91819,-3.18386"
       id="path825-3"
       inkscape:connector-curvature="0" />
    <path
       style="fill:none;stroke:#000000;stroke-width:0.5;stroke-linecap:butt;stroke-linejoin:miter;stroke-miterlimit:4;stroke-dasharray:none;stroke-opacity:1"
       d="m 139.18873,258.56766 2.91819,-3.18386"
       id="path825-90"
       inkscape:connector-curvature="0" />
    <path
       style="fill:none;stroke:#000000;stroke-width:0.5;stroke-linecap:butt;stroke-linejoin:miter;stroke-miterlimit:4;stroke-dasharray:none;stroke-opacity:1"
       d="m 143.84357,258.56766 2.91819,-3.18386"
       id="path825-58"
       inkscape:connector-curvature="0" />
    <path
       style="fill:none;stroke:#000000;stroke-width:0.5;stroke-linecap:butt;stroke-linejoin:miter;stroke-miterlimit:4;stroke-dasharray:none;stroke-opacity:1"
       d="m 148.12387,258.56766 2.91819,-3.18386"
       id="path825-04"
       inkscape:connector-curvature="0" />
    <path
       style="fill:none;stroke:#000000;stroke-width:0.5;stroke-linecap:butt;stroke-linejoin:miter;stroke-miterlimit:4;stroke-dasharray:none;stroke-opacity:1"
       d="m 152.93922,258.46065 2.91819,-3.18386"
       id="path825-47"
       inkscape:connector-curvature="0" />
    <path
       style="fill:none;stroke:#000000;stroke-width:0.5;stroke-linecap:butt;stroke-linejoin:miter;stroke-miterlimit:4;stroke-dasharray:none;stroke-opacity:1"
       d="m 157.43354,258.40715 2.91819,-3.18386"
       id="path825-03"
       inkscape:connector-curvature="0" />
    <path
       style="fill:none;stroke:#000000;stroke-width:0.5;stroke-linecap:butt;stroke-linejoin:miter;stroke-miterlimit:4;stroke-dasharray:none;stroke-opacity:1"
       d="m 160.37625,258.51416 2.91819,-3.18386"
       id="path825-7"
       inkscape:connector-curvature="0" />
    <path
       style="fill:none;stroke:#000000;stroke-width:0.5;stroke-linecap:butt;stroke-linejoin:miter;stroke-miterlimit:4;stroke-dasharray:none;stroke-opacity:1"
       d="m 88.024581,102.42447 h -75.36319 v 152.84504 h 75.36319"
       id="path817-8"
       inkscape:connector-curvature="0" />
    <path
       style="fill:none;stroke:#000000;stroke-width:0.5;stroke-linecap:butt;stroke-linejoin:miter;stroke-miterlimit:4;stroke-dasharray:none;stroke-opacity:1"
       d="m 88.024581,126.27405 c -15.03254,0 -30.06483,0 -38.86727,0 -8.80244,0 -11.37512,0 -12.66131,1.67478 -1.28619,1.67478 -1.28619,5.0253 -1.28619,24.82178 0,19.79649 0,56.03356 0,75.86566 0,19.83211 0,23.25633 -1.20781,24.96859 -1.20781,1.71225 -3.6228,1.71225 -6.03771,1.71225"
       id="path819-4"
       inkscape:connector-curvature="0"
       inkscape:path-effect="#path-effect821-6"
       inkscape:original-d="m 88.024581,126.27405 c -15.03254,-2.7e-4 -30.06483,-2.7e-4 -45.09685,0 -2.57286,-2.7e-4 -5.14554,-2.7e-4 -7.71792,0 -2.6e-4,3.34956 -2.6e-4,6.70008 0,10.05052 -2.6e-4,36.24253 -2.6e-4,72.4796 0,108.7198 -2.6e-4,3.42401 -2.6e-4,6.84823 0,10.27274 -2.41562,-2.6e-4 -4.83061,-2.6e-4 -7.24552,0" />
    <path
       style="fill:none;stroke:#000000;stroke-width:0.5;stroke-linecap:butt;stroke-linejoin:miter;stroke-miterlimit:4;stroke-dasharray:none;stroke-opacity:1"
       d="m 88.024581,258.44747 h -75.36319 v -3.48063"
       id="path823-1"
       inkscape:connector-curvature="0" />
    <path
       style="fill:none;stroke:#000000;stroke-width:0.5;stroke-linecap:butt;stroke-linejoin:miter;stroke-miterlimit:4;stroke-dasharray:none;stroke-opacity:1"
       d="m 12.754711,258.44747 2.91819,-3.18386"
       id="path825-49"
       inkscape:connector-curvature="0" />
    <path
       style="fill:none;stroke:#000000;stroke-width:0.5;stroke-linecap:butt;stroke-linejoin:miter;stroke-miterlimit:4;stroke-dasharray:none;stroke-opacity:1"
       d="m 16.353961,258.40715 2.91819,-3.18386"
       id="path825-1-8"
       inkscape:connector-curvature="0" />
    <path
       style="fill:none;stroke:#000000;stroke-width:0.5;stroke-linecap:butt;stroke-linejoin:miter;stroke-miterlimit:4;stroke-dasharray:none;stroke-opacity:1"
       d="m 20.794781,258.40715 2.91819,-3.18386"
       id="path825-0-0"
       inkscape:connector-curvature="0" />
    <path
       style="fill:none;stroke:#000000;stroke-width:0.5;stroke-linecap:butt;stroke-linejoin:miter;stroke-miterlimit:4;stroke-dasharray:none;stroke-opacity:1"
       d="m 24.433041,258.46065 2.91819,-3.18386"
       id="path825-8-2"
       inkscape:connector-curvature="0" />
    <path
       style="fill:none;stroke:#000000;stroke-width:0.5;stroke-linecap:butt;stroke-linejoin:miter;stroke-miterlimit:4;stroke-dasharray:none;stroke-opacity:1"
       d="m 28.552831,258.56766 2.91819,-3.18386"
       id="path825-05-8"
       inkscape:connector-curvature="0" />
    <path
       style="fill:none;stroke:#000000;stroke-width:0.5;stroke-linecap:butt;stroke-linejoin:miter;stroke-miterlimit:4;stroke-dasharray:none;stroke-opacity:1"
       d="m 33.207671,258.62117 2.91819,-3.18386"
       id="path825-9-1"
       inkscape:connector-curvature="0" />
    <path
       style="fill:none;stroke:#000000;stroke-width:0.5;stroke-linecap:butt;stroke-linejoin:miter;stroke-miterlimit:4;stroke-dasharray:none;stroke-opacity:1"
       d="m 37.273961,258.56766 2.91819,-3.18386"
       id="path825-17-0"
       inkscape:connector-curvature="0" />
    <path
       style="fill:none;stroke:#000000;stroke-width:0.5;stroke-linecap:butt;stroke-linejoin:miter;stroke-miterlimit:4;stroke-dasharray:none;stroke-opacity:1"
       d="m 41.607771,258.56766 2.91819,-3.18386"
       id="path825-92-4"
       inkscape:connector-curvature="0" />
    <path
       style="fill:none;stroke:#000000;stroke-width:0.5;stroke-linecap:butt;stroke-linejoin:miter;stroke-miterlimit:4;stroke-dasharray:none;stroke-opacity:1"
       d="m 46.262601,258.56766 2.91819,-3.18386"
       id="path825-5-2"
       inkscape:connector-curvature="0" />
    <path
       style="fill:none;stroke:#000000;stroke-width:0.5;stroke-linecap:butt;stroke-linejoin:miter;stroke-miterlimit:4;stroke-dasharray:none;stroke-opacity:1"
       d="m 50.435901,258.46065 2.91819,-3.18386"
       id="path825-4-3"
       inkscape:connector-curvature="0" />
    <path
       style="fill:none;stroke:#000000;stroke-width:0.5;stroke-linecap:butt;stroke-linejoin:miter;stroke-miterlimit:4;stroke-dasharray:none;stroke-opacity:1"
       d="m 54.930231,258.51416 2.91819,-3.18386"
       id="path825-6-1"
       inkscape:connector-curvature="0" />
    <path
       style="fill:none;stroke:#000000;stroke-width:0.5;stroke-linecap:butt;stroke-linejoin:miter;stroke-miterlimit:4;stroke-dasharray:none;stroke-opacity:1"
       d="m 59.210531,258.56766 2.91819,-3.18386"
       id="path825-3-5"
       inkscape:connector-curvature="0" />
    <path
       style="fill:none;stroke:#000000;stroke-width:0.5;stroke-linecap:butt;stroke-linejoin:miter;stroke-miterlimit:4;stroke-dasharray:none;stroke-opacity:1"
       d="m 63.918871,258.56766 2.91819,-3.18386"
       id="path825-90-8"
       inkscape:connector-curvature="0" />
    <path
       style="fill:none;stroke:#000000;stroke-width:0.5;stroke-linecap:butt;stroke-linejoin:miter;stroke-miterlimit:4;stroke-dasharray:none;stroke-opacity:1"
       d="m 68.573711,258.56766 2.91819,-3.18386"
       id="path825-58-3"
       inkscape:connector-curvature="0" />
    <path
       style="fill:none;stroke:#000000;stroke-width:0.5;stroke-linecap:butt;stroke-linejoin:miter;stroke-miterlimit:4;stroke-dasharray:none;stroke-opacity:1"
       d="m 72.854011,258.56766 2.91819,-3.18386"
       id="path825-04-3"
       inkscape:connector-curvature="0" />
    <path
       style="fill:none;stroke:#000000;stroke-width:0.5;stroke-linecap:butt;stroke-linejoin:miter;stroke-miterlimit:4;stroke-dasharray:none;stroke-opacity:1"
       d="m 77.669361,258.46065 2.91819,-3.18386"
       id="path825-47-7"
       inkscape:connector-curvature="0" />
    <path
       style="fill:none;stroke:#000000;stroke-width:0.5;stroke-linecap:butt;stroke-linejoin:miter;stroke-miterlimit:4;stroke-dasharray:none;stroke-opacity:1"
       d="m 82.163681,258.40715 2.91819,-3.18386"
       id="path825-03-1"
       inkscape:connector-curvature="0" />
    <path
       style="fill:none;stroke:#000000;stroke-width:0.5;stroke-linecap:butt;stroke-linejoin:miter;stroke-miterlimit:4;stroke-dasharray:none;stroke-opacity:1"
       d="m 85.106391,258.51416 2.91819,-3.18386"
       id="path825-7-1"
       inkscape:connector-curvature="0" />
    <path
       style="opacity:1;vector-effect:none;fill:none;fill-opacity:1;stroke:#000000;stroke-width:0.5;stroke-linecap:butt;stroke-linejoin:miter;stroke-miterlimit:4;stroke-dasharray:none;stroke-dashoffset:0;stroke-opacity:1"
       id="path1016"
       sodipodi:type="arc"
       sodipodi:cx="88.024574"
       sodipodi:cy="205.0274"
       sodipodi:rx="13.317191"
       sodipodi:ry="13.317191"
       sodipodi:start="0.027020489"
       sodipodi:end="0.026983186"
       sodipodi:open="true"
       d="M 101.3369,205.3872 A 13.317191,13.317191 0 0 1 87.664905,218.33974 13.317191,13.317191 0 0 1 74.712238,204.66786 13.317191,13.317191 0 0 1 88.383995,191.71506 13.317191,13.317191 0 0 1 101.33692,205.3867" />
    <path
       style="opacity:1;vector-effect:none;fill:none;fill-opacity:1;stroke:#000000;stroke-width:0.5;stroke-linecap:butt;stroke-linejoin:miter;stroke-miterlimit:4;stroke-dasharray:none;stroke-dashoffset:0;stroke-opacity:1"
       id="path1018"
       sodipodi:type="arc"
       sodipodi:cx="88.158012"
       sodipodi:cy="199.94781"
       sodipodi:rx="16.92168"
       sodipodi:ry="19.370872"
       sodipodi:start="0.02776717"
       sodipodi:end="0.027685498"
       sodipodi:open="true"
       d="M 105.07317,200.48562 A 16.92168,19.370872 0 0 1 87.688551,219.31123 16.92168,19.370872 0 0 1 71.242836,199.4108 16.92168,19.370872 0 0 1 88.626783,180.58438 16.92168,19.370872 0 0 1 105.07321,200.48404" />
    <path
       style="fill:none;stroke:#000000;stroke-width:0.5;stroke-linecap:butt;stroke-linejoin:miter;stroke-miterlimit:4;stroke-dasharray:2, 2;stroke-dashoffset:0;stroke-opacity:1"
       d="m 89.563415,157.38748 c 0.392321,2.03294 0.784681,4.06608 1.319747,6.09935 0.535066,2.03328 1.212714,4.06622 1.81911,5.6714 0.606397,1.60518 1.141396,2.78218 1.660607,3.78602 0.519212,1.00384 1.022484,1.83422 1.525856,2.66476"
       id="path1020"
       inkscape:connector-curvature="0"
       inkscape:path-effect="#path-effect1022"
       inkscape:original-d="m 89.563415,157.38748 c 0.392626,2.03288 0.784987,4.06602 1.177084,6.09944 0.678048,2.03308 1.355696,4.06602 2.033145,6.09943 0.535345,1.17691 1.070343,2.35391 1.605116,3.53126 0.50364,0.83029 1.006911,1.66067 1.509975,2.4914"
       sodipodi:nodetypes="ccccc" />
    <path
       style="fill:none;stroke:#000000;stroke-width:0.5;stroke-linecap:butt;stroke-linejoin:miter;stroke-miterlimit:4;stroke-dasharray:2, 2;stroke-dashoffset:0;stroke-opacity:1"
       d="m 92.024591,153.00016 c 0.641998,2.31833 1.284043,4.63683 2.033127,6.88409 0.749085,2.24727 1.605079,4.42292 2.461166,6.52747 0.856087,2.10456 1.71209,4.13757 2.746536,6.15297 1.03445,2.0154 2.24712,4.01276 3.45992,6.01031"
       id="path1024"
       inkscape:connector-curvature="0"
       inkscape:path-effect="#path-effect1026"
       inkscape:original-d="m 92.024591,153.00016 c 0.64231,2.31824 1.284356,4.63674 1.926137,6.9555 0.856393,2.17573 1.712389,4.35138 2.568186,6.52747 0.856381,2.03301 1.712378,4.06603 2.568172,6.09944 1.213084,1.99734 2.425764,3.99469 3.638254,5.99243" />
    <path
       style="fill:none;stroke:#000000;stroke-width:0.5;stroke-linecap:butt;stroke-linejoin:miter;stroke-miterlimit:4;stroke-dasharray:2.00000002, 2.00000002;stroke-dashoffset:0;stroke-opacity:1"
       d="m 85.505386,157.09432 c -0.39232,2.03294 -0.784678,4.06608 -1.319745,6.09935 -0.535066,2.03328 -1.212715,4.06622 -1.819111,5.6714 -0.606396,1.60517 -1.141394,2.78218 -1.660605,3.78602 -0.519212,1.00384 -1.022485,1.83421 -1.525859,2.66476"
       id="path1020-9"
       inkscape:connector-curvature="0"
       inkscape:path-effect="#path-effect1022-3"
       inkscape:original-d="m 85.505386,157.09432 c -0.39262,2.03288 -0.78498,4.06602 -1.17708,6.09944 -0.67805,2.03308 -1.3557,4.06602 -2.03315,6.09943 -0.53534,1.17691 -1.07034,2.35391 -1.60511,3.53126 -0.50364,0.83029 -1.00691,1.66067 -1.50998,2.4914"
       sodipodi:nodetypes="ccccc" />
    <path
       style="fill:none;stroke:#000000;stroke-width:0.5;stroke-linecap:butt;stroke-linejoin:miter;stroke-miterlimit:4;stroke-dasharray:2.00000002, 2.00000002;stroke-dashoffset:0;stroke-opacity:1"
       d="m 83.044216,152.707 c -0.641999,2.31833 -1.284045,4.63683 -2.033129,6.88409 -0.749083,2.24726 -1.605076,4.42292 -2.461165,6.52747 -0.85609,2.10456 -1.712098,4.13757 -2.746549,6.15297 -1.03445,2.01541 -2.247128,4.01276 -3.459927,6.01031"
       id="path1024-8"
       inkscape:connector-curvature="0"
       inkscape:path-effect="#path-effect1026-7"
       inkscape:original-d="m 83.044216,152.707 c -0.64231,2.31824 -1.28436,4.63674 -1.92614,6.9555 -0.85639,2.17573 -1.71239,4.35138 -2.56818,6.52747 -0.85639,2.03301 -1.71239,4.06603 -2.56819,6.09944 -1.21309,1.99734 -2.42577,3.99469 -3.63826,5.99243" />
    <path
       style="opacity:1;vector-effect:none;fill:none;fill-opacity:1;stroke:#000000;stroke-width:0.5;stroke-linecap:butt;stroke-linejoin:miter;stroke-miterlimit:4;stroke-dasharray:none;stroke-dashoffset:0;stroke-opacity:1"
       id="path1052"
       sodipodi:type="arc"
       sodipodi:cx="88.087257"
       sodipodi:cy="200.95665"
       sodipodi:rx="19.824455"
       sodipodi:ry="19.824455"
       sodipodi:start="0.027767141"
       sodipodi:end="1.5707963"
       d="M 107.90407,201.50705 A 19.824455,19.824455 0 0 1 88.087257,220.78111"
       sodipodi:open="true" />
    <path
       style="fill:none;stroke:#000000;stroke-width:0.5;stroke-linecap:butt;stroke-linejoin:miter;stroke-miterlimit:4;stroke-dasharray:none;stroke-opacity:1"
       d="m 107.90406,201.50703 c 0.12942,-2.0333 0.25882,-4.06631 0.14874,-6.58187 -0.11008,-2.51556 -0.45961,-5.51368 -1.01268,-9.28255 -0.55307,-3.76887 -1.30978,-8.30915 -2.19686,-12.09234 -0.88708,-3.78319 -1.90466,-6.80997 -2.79914,-10.23839 -0.89447,-3.42842 -1.66591,-7.25857 -2.191229,-10.91578 -0.525323,-3.65721 -0.804557,-7.14141 -1.083772,-10.62538"
       id="path1054"
       inkscape:connector-curvature="0"
       inkscape:path-effect="#path-effect1056"
       inkscape:original-d="m 107.90406,201.50703 c 0.12967,-2.03328 0.25907,-4.06629 0.38821,-6.09905 -0.34927,-2.99841 -0.69879,-5.99653 -1.04858,-8.99441 -0.75633,-4.53988 -1.51305,-9.08016 -2.26997,-13.61985 -1.01722,-3.02675 -2.0348,-6.05353 -3.0526,-9.0799 -0.77117,-3.83042 -1.5426,-7.66057 -2.314297,-11.49046 -0.278967,-3.48449 -0.558207,-6.96869 -0.837704,-10.45264"
       sodipodi:nodetypes="ccccccc" />
    <path
       style="opacity:1;vector-effect:none;fill:none;fill-opacity:1;stroke:#000000;stroke-width:0.5;stroke-linecap:butt;stroke-linejoin:miter;stroke-miterlimit:4;stroke-dasharray:none;stroke-dashoffset:0;stroke-opacity:1"
       id="path1052-2"
       sodipodi:type="arc"
       sodipodi:cx="-88.024582"
       sodipodi:cy="201.14987"
       sodipodi:rx="19.824455"
       sodipodi:ry="19.824455"
       sodipodi:start="0.027767141"
       sodipodi:end="1.5707963"
       d="m -68.207769,201.70027 a 19.824455,19.824455 0 0 1 -19.816812,19.27406"
       sodipodi:open="true"
       transform="scale(-1,1)" />
    <path
       style="fill:none;stroke:#000000;stroke-width:0.5;stroke-linecap:butt;stroke-linejoin:miter;stroke-miterlimit:4;stroke-dasharray:none;stroke-opacity:1"
       d="m 68.207765,201.70025 c -0.129421,-2.03329 -0.258824,-4.06631 -0.148739,-6.58187 0.110084,-2.51556 0.459609,-5.51368 1.012677,-9.28255 0.553068,-3.76887 1.30978,-8.30915 2.19686,-12.09234 0.887079,-3.78319 1.904661,-6.80997 2.799139,-10.23839 0.894478,-3.42842 1.66591,-7.25857 2.191233,-10.91578 0.525324,-3.65721 0.804556,-7.14141 1.08377,-10.62538"
       id="path1054-6"
       inkscape:connector-curvature="0"
       inkscape:path-effect="#path-effect1056-5"
       inkscape:original-d="m 68.207765,201.70025 c -0.12967,-2.03327 -0.25907,-4.06629 -0.38821,-6.09904 0.34927,-2.99842 0.69879,-5.99654 1.04858,-8.99442 0.75633,-4.53988 1.51305,-9.08016 2.26997,-13.61985 1.01722,-3.02675 2.0348,-6.05353 3.0526,-9.0799 0.77117,-3.83042 1.5426,-7.66057 2.3143,-11.49046 0.27897,-3.48449 0.55821,-6.96869 0.8377,-10.45264"
       sodipodi:nodetypes="ccccccc" />
    <rect
       style="opacity:1;vector-effect:none;fill:#ffffff;fill-opacity:1;stroke:#000000;stroke-width:0.5;stroke-linecap:butt;stroke-linejoin:miter;stroke-miterlimit:4;stroke-dasharray:none;stroke-dashoffset:0;stroke-opacity:1"
       id="rect1081"
       width="4.093595"
       height="86.256912"
       x="64.114166"
       y="201.70027" />
    <rect
       style="opacity:1;vector-effect:none;fill:#ffffff;fill-opacity:1;stroke:#000000;stroke-width:0.5;stroke-linecap:butt;stroke-linejoin:miter;stroke-miterlimit:4;stroke-dasharray:none;stroke-dashoffset:0;stroke-opacity:1"
       id="rect1081-8"
       width="4.093595"
       height="86.256912"
       x="107.90409"
       y="201.50705" />
    <path
       style="fill:none;stroke:#000000;stroke-width:0.5;stroke-linecap:butt;stroke-linejoin:miter;stroke-miterlimit:4;stroke-dasharray:none;stroke-opacity:1"
       d="m 85.378372,280.97807 v 13.911"
       id="path1102"
       inkscape:connector-curvature="0" />
    <path
       style="fill:none;stroke:#000000;stroke-width:1;stroke-linecap:butt;stroke-linejoin:miter;stroke-miterlimit:4;stroke-dasharray:none;stroke-opacity:1"
       d="m 90.62175,285.23162 v 5.13637"
       id="path1104"
       inkscape:connector-curvature="0" />
    <path
       style="fill:none;stroke:#000000;stroke-width:0.5;stroke-linecap:butt;stroke-linejoin:miter;stroke-miterlimit:4;stroke-dasharray:none;stroke-opacity:1"
       d="m 68.207766,287.95716 h 17.16851"
       id="path1106"
       inkscape:connector-curvature="0" />
    <path
       style="fill:none;stroke:#000000;stroke-width:0.5;stroke-linecap:butt;stroke-linejoin:miter;stroke-miterlimit:4;stroke-dasharray:none;stroke-opacity:1"
       d="M 107.90406,287.76394 H 90.748551"
       id="path1108"
       inkscape:connector-curvature="0" />
    <g
       aria-label="I"
       style="font-style:normal;font-weight:normal;font-size:7.76111126px;line-height:1.25;font-family:sans-serif;letter-spacing:0px;word-spacing:0px;writing-mode:lr-tb;direction:ltr;fill:#000000;fill-opacity:1;stroke:none;stroke-width:0.26458332"
       id="text1112">
      <path
         d="m 116.5208,226.61612 h -2.23587 l 0.12506,-0.54949 h 0.73897 l 1.05352,-4.54374 h -0.73898 l 0.12506,-0.54949 h 2.23587 l -0.12506,0.54949 h -0.73897 l -1.05351,4.54374 h 0.73897 z"
         style="font-style:italic;stroke-width:0.26458332"
         id="path1256" />
    </g>
    <path
       style="fill:none;stroke:#000000;stroke-width:0.5;stroke-linecap:butt;stroke-linejoin:miter;stroke-miterlimit:4;stroke-dasharray:none;stroke-opacity:1"
       d="m 76.050158,201.87149 c 0.476051,0.04 0.952107,0.0799 1.349091,0.24839 0.396984,0.16846 0.714503,0.46502 0.942916,0.68501 0.228413,0.22 0.367327,0.36305 0.525356,0.85297 0.158029,0.48992 0.335148,1.3266 0.480658,2.30578 0.145509,0.97918 0.259343,2.10047 0.135629,2.66193 -0.123714,0.56146 -0.484988,0.5628 -0.682049,0.40099 -0.19706,-0.16181 -0.229684,-0.48659 -0.2049,-0.93013 0.02478,-0.44354 0.106965,-1.00577 0.298896,-1.94724 0.19193,-0.94147 0.493608,-2.2622 0.83099,-2.99745 0.337382,-0.73526 0.709984,-0.88491 1.136205,-1.01941 0.426221,-0.13451 0.905565,-0.25373 1.384537,-0.37286"
       id="path1124-5"
       inkscape:connector-curvature="0"
       inkscape:path-effect="#path-effect1126-8"
       inkscape:original-d="m 76.050158,201.87149 c 0.476074,0.0397 0.952127,0.0797 1.428153,0.11991 0.318136,0.29671 0.635658,0.59327 0.953349,0.89043 0.138996,0.14298 0.277911,0.28603 0.416748,0.42916 0.177236,0.83677 0.354356,1.67345 0.531431,2.51039 0.113936,1.12143 0.227769,2.24272 0.341547,3.36432 -0.361294,8.4e-4 -0.722565,0.003 -1.084045,0.004 -0.03256,-0.32496 -0.06518,-0.64974 -0.09789,-0.9745 0.08226,-0.5623 0.164438,-1.12453 0.246539,-1.68667 0.301858,-1.32077 0.603536,-2.6415 0.905033,-3.96219 0.373058,-0.14997 0.745661,-0.29962 1.118351,-0.44918 0.479759,-0.11949 0.959101,-0.23872 1.438113,-0.35769"
       sodipodi:nodetypes="cccccccccccc" />
    <path
       style="fill:none;stroke:#000000;stroke-width:0.5;stroke-linecap:butt;stroke-linejoin:miter;stroke-miterlimit:4;stroke-dasharray:none;stroke-opacity:1"
       d="m 82.172583,201.76502 c 0.501018,0.0382 1.002035,0.0764 1.411509,0.24393 0.409474,0.16757 0.726995,0.46413 0.955408,0.68412 0.228413,0.21999 0.367325,0.36304 0.525354,0.85297 0.158029,0.48992 0.335149,1.3266 0.480658,2.30578 0.145509,0.97918 0.259342,2.10047 0.135628,2.66193 -0.123713,0.56145 -0.484989,0.56279 -0.68205,0.40097 -0.197061,-0.16181 -0.229682,-0.48659 -0.204896,-0.93012 0.02478,-0.44354 0.106964,-1.00577 0.298894,-1.94724 0.19193,-0.94147 0.493607,-2.2622 0.830991,-2.99745 0.337384,-0.73526 0.709989,-0.88492 1.136207,-1.01942 0.426217,-0.1345 0.905567,-0.25372 1.384539,-0.37285"
       id="path1124-2"
       inkscape:connector-curvature="0"
       inkscape:path-effect="#path-effect1126-40"
       inkscape:original-d="m 82.172583,201.76502 c 0.50104,0.0379 1.002056,0.0761 1.503063,0.11456 0.318131,0.29671 0.635657,0.59327 0.953343,0.89042 0.138999,0.14299 0.277913,0.28604 0.416752,0.42917 0.177234,0.83677 0.35435,1.67345 0.531432,2.51039 0.113932,1.12143 0.227763,2.24272 0.341543,3.36431 -0.361291,8.5e-4 -0.722564,0.003 -1.084048,0.004 -0.03252,-0.32497 -0.06521,-0.64974 -0.09788,-0.97451 0.08227,-0.56229 0.164436,-1.12452 0.246536,-1.68666 0.301854,-1.32077 0.603532,-2.6415 0.905033,-3.9622 0.373063,-0.14996 0.745665,-0.29962 1.118348,-0.44917 0.47976,-0.11949 0.959108,-0.23872 1.43812,-0.35769"
       sodipodi:nodetypes="cccccccccccc" />
    <path
       style="fill:none;stroke:#000000;stroke-width:0.5;stroke-linecap:butt;stroke-linejoin:miter;stroke-miterlimit:4;stroke-dasharray:none;stroke-opacity:1"
       d="m 88.364567,201.6532 c 0.502793,0.0382 1.005603,0.0764 1.41597,0.24393 0.410367,0.16757 0.727884,0.46413 0.956294,0.68412 0.228409,0.21998 0.367324,0.36304 0.525354,0.85297 0.158029,0.48992 0.335149,1.3266 0.480659,2.30578 0.14551,0.97918 0.259345,2.10047 0.135629,2.66193 -0.123716,0.56145 -0.484993,0.56279 -0.682051,0.40098 -0.197057,-0.16181 -0.229683,-0.48659 -0.204897,-0.93013 0.02479,-0.44354 0.106968,-1.00577 0.298898,-1.94723 0.191929,-0.94147 0.493605,-2.26221 0.830987,-2.99746 0.337381,-0.73525 0.709985,-0.8849 1.136205,-1.01941 0.42622,-0.1345 0.905564,-0.25373 1.384538,-0.37286"
       id="path1124-9"
       inkscape:connector-curvature="0"
       inkscape:path-effect="#path-effect1126-6"
       inkscape:original-d="m 88.364567,201.6532 c 0.502814,0.0379 1.005623,0.0761 1.508408,0.11455 0.31814,0.29672 0.635658,0.59328 0.953352,0.89043 0.13899,0.14298 0.277913,0.28603 0.416744,0.42917 0.177234,0.83677 0.354358,1.67345 0.531432,2.51038 0.11394,1.12144 0.227771,2.24273 0.341551,3.36432 -0.361299,8.4e-4 -0.722573,0.003 -1.084048,0.004 -0.03252,-0.32496 -0.06521,-0.64974 -0.09789,-0.9745 0.08227,-0.5623 0.164444,-1.12453 0.246544,-1.68666 0.301854,-1.32077 0.603532,-2.64151 0.905025,-3.9622 0.373063,-0.14996 0.745664,-0.29962 1.11835,-0.44917 0.47976,-0.1195 0.959106,-0.23872 1.438118,-0.3577"
       sodipodi:nodetypes="cccccccccccc" />
    <path
       style="fill:none;stroke:#000000;stroke-width:0.5;stroke-linecap:butt;stroke-linejoin:miter;stroke-miterlimit:4;stroke-dasharray:none;stroke-opacity:1"
       d="m 94.567248,201.54137 c 0.501006,0.0382 1.002032,0.0764 1.411505,0.24393 0.409473,0.16757 0.726995,0.46413 0.955407,0.68412 0.228411,0.21999 0.367321,0.36304 0.525349,0.85297 0.158029,0.48993 0.335147,1.32661 0.480653,2.30578 0.145507,0.97918 0.259339,2.10048 0.135625,2.66194 -0.123713,0.56145 -0.484983,0.56279 -0.682038,0.40098 -0.197056,-0.16181 -0.229684,-0.48659 -0.204903,-0.93013 0.02478,-0.44355 0.106957,-1.00577 0.298884,-1.94723 0.191926,-0.94147 0.493604,-2.26221 0.830989,-2.99746 0.337386,-0.73526 0.709983,-0.88491 1.136198,-1.01941 0.426216,-0.1345 0.905563,-0.25373 1.384533,-0.37286"
       id="path1124-24"
       inkscape:connector-curvature="0"
       inkscape:path-effect="#path-effect1126-49"
       inkscape:original-d="m 94.567248,201.54137 c 0.501028,0.0379 1.002053,0.0761 1.503059,0.11456 0.318131,0.29671 0.635657,0.59327 0.953351,0.89043 0.13899,0.14298 0.2779,0.28603 0.416737,0.42916 0.17723,0.83678 0.35436,1.67346 0.531427,2.51039 0.11393,1.12143 0.22777,2.24273 0.34154,3.36432 -0.36129,8.4e-4 -0.722557,0.003 -1.084024,0.004 -0.0325,-0.32496 -0.0652,-0.64974 -0.0979,-0.9745 0.0823,-0.5623 0.16443,-1.12453 0.246527,-1.68667 0.30186,-1.32076 0.603537,-2.6415 0.905027,-3.96219 0.373067,-0.14997 0.745664,-0.29962 1.118344,-0.44917 0.479757,-0.1195 0.959104,-0.23872 1.438114,-0.3577"
       sodipodi:nodetypes="cccccccccccc" />
    <path
       style="fill:none;stroke:#000000;stroke-width:0.5;stroke-linecap:butt;stroke-linejoin:miter;stroke-miterlimit:4;stroke-dasharray:none;stroke-opacity:1"
       d="m 68.207765,201.70025 c 0.974774,-0.42665 1.949233,-0.85315 2.857319,-1.03779 0.908087,-0.18464 1.749884,-0.12757 2.586591,0.11602 0.836706,0.2436 1.668473,0.67368 2.50014,1.10371"
       id="path1216"
       inkscape:connector-curvature="0"
       inkscape:path-effect="#path-effect1218"
       inkscape:original-d="m 68.207765,201.70025 c 0.97472,-0.42677 1.949178,-0.85328 2.923368,-1.27952 0.842057,0.0568 1.683854,0.11388 2.525381,0.17121 0.83203,0.42982 1.663799,0.8599 2.495301,1.29025"
       sodipodi:nodetypes="cccc" />
    <path
       style="fill:none;stroke:#000000;stroke-width:0.5;stroke-linecap:butt;stroke-linejoin:miter;stroke-miterlimit:4;stroke-dasharray:none;stroke-opacity:1"
       d="m 100.83945,201.424 c 0.71269,-0.47731 1.42507,-0.95441 2.31629,-1.23567 0.89122,-0.28126 1.96129,-0.36686 2.7824,-0.11447 0.8211,0.2524 1.3935,0.84278 1.96592,1.43317"
       id="path1220"
       inkscape:connector-curvature="0"
       inkscape:path-effect="#path-effect1222"
       inkscape:original-d="m 100.83945,201.424 c 0.71265,-0.47737 1.42503,-0.95447 2.13715,-1.4313 1.07034,-0.0859 2.14041,-0.17148 3.21024,-0.25682 0.57267,0.59012 1.14507,1.1805 1.71722,1.77115"
       sodipodi:nodetypes="cccc" />
    <g
       aria-label="H"
       style="font-style:normal;font-weight:normal;font-size:7.76111126px;line-height:1.25;font-family:sans-serif;letter-spacing:0px;word-spacing:0px;writing-mode:lr-tb;direction:ltr;fill:#000000;fill-opacity:1;stroke:none;stroke-width:0.26458332"
       id="text1226">
      <path
         d="m 90.636363,210.39127 -1.299835,5.64273 h -0.750341 l 0.640443,-2.77399 H 86.410953 L 85.77051,216.034 h -0.750342 l 1.299835,-5.64273 h 0.750342 l -0.511597,2.23208 h 2.815676 l 0.511597,-2.23208 z"
         style="font-style:italic;stroke-width:0.26458332"
         id="path1259" />
    </g>
    <g
       aria-label="A"
       style="font-style:normal;font-weight:normal;font-size:7.76111126px;line-height:1.25;font-family:sans-serif;letter-spacing:0px;word-spacing:0px;writing-mode:lr-tb;direction:ltr;fill:#000000;fill-opacity:1;stroke:none;stroke-width:0.26458332"
       id="text1230">
      <path
         d="m 89.302366,199.03993 h -0.761711 l -0.18948,-1.58784 h -2.432926 l -0.924664,1.58784 h -0.792027 l 3.35759,-5.64272 h 0.992876 z m -1.034562,-2.20176 -0.352433,-2.78536 -1.63711,2.78536 z"
         style="font-style:italic;stroke-width:0.26458332"
         id="path1262" />
    </g>
    <g
       aria-label="B"
       style="font-style:normal;font-weight:normal;font-size:7.76111126px;line-height:1.25;font-family:sans-serif;letter-spacing:0px;word-spacing:0px;writing-mode:lr-tb;direction:ltr;fill:#000000;fill-opacity:1;stroke:none;stroke-width:0.26458332"
       id="text1234">
      <path
         d="m 89.449438,187.83677 q -0.367592,0.24632 -0.76929,0.35243 -0.401698,0.10232 -0.989087,0.10232 h -2.072914 l 1.299835,-5.64272 h 1.621951 q 0.617705,0 0.917084,0.0417 0.303168,0.0417 0.553282,0.19327 0.208429,0.12885 0.310748,0.3297 0.106109,0.19706 0.106109,0.43959 0,0.48886 -0.276641,0.86403 -0.276641,0.37517 -0.7655,0.57981 v 0.0303 q 0.454752,0.10232 0.693497,0.38275 0.242535,0.28043 0.242535,0.72002 0,0.48128 -0.242535,0.9133 -0.238745,0.42822 -0.629074,0.6935 z m 0.162953,-3.9753 q 0,-0.15916 -0.05306,-0.26148 -0.05305,-0.10611 -0.151584,-0.17432 -0.159163,-0.10611 -0.397908,-0.13264 -0.238745,-0.0303 -0.617706,-0.0303 h -0.856451 l -0.386539,1.67501 h 0.985297 q 0.325906,0 0.568441,-0.0455 0.242534,-0.0493 0.424435,-0.15158 0.234956,-0.13643 0.360013,-0.38654 0.125057,-0.2539 0.125057,-0.49265 z m -0.08337,2.42156 q 0,-0.21222 -0.072,-0.34107 -0.072,-0.13263 -0.257693,-0.24632 -0.151584,-0.0947 -0.390329,-0.12506 -0.234956,-0.0303 -0.655602,-0.0303 h -1.140671 l -0.496438,2.13733 h 1.034562 q 0.504017,0 0.818554,-0.0531 0.318327,-0.0568 0.549493,-0.19706 0.299379,-0.17811 0.454753,-0.48507 0.155374,-0.31075 0.155374,-0.65939 z"
         style="font-style:italic;stroke-width:0.26458332"
         id="path4968" />
    </g>
    <g
       aria-label="C"
       style="font-style:normal;font-weight:normal;font-size:7.76111126px;line-height:1.25;font-family:sans-serif;letter-spacing:0px;word-spacing:0px;writing-mode:lr-tb;direction:ltr;fill:#000000;fill-opacity:1;stroke:none;stroke-width:0.26458332"
       id="text1238">
      <path
         d="m 78.803847,180.85064 q -1.072458,0 -1.682585,-0.55328 -0.610126,-0.55707 -0.610126,-1.57648 0,-0.78066 0.234955,-1.45521 0.234956,-0.67455 0.67455,-1.18235 0.435805,-0.50023 1.072458,-0.78824 0.636654,-0.2918 1.421102,-0.2918 0.488859,0 0.924664,0.12127 0.435804,0.11748 0.894347,0.37517 l -0.170533,0.84887 h -0.05684 q -0.125057,-0.12506 -0.253903,-0.23117 -0.125057,-0.10989 -0.378961,-0.23874 -0.208428,-0.1099 -0.496438,-0.1819 -0.28801,-0.0758 -0.636654,-0.0758 -0.530544,0 -0.973928,0.22358 -0.443384,0.2198 -0.76929,0.61771 -0.318327,0.38654 -0.500228,0.93982 -0.181901,0.55328 -0.181901,1.17857 0,0.78066 0.405488,1.21646 0.405487,0.43202 1.170988,0.43202 0.360012,0 0.682129,-0.0796 0.325906,-0.0834 0.591178,-0.20842 0.246324,-0.11748 0.443384,-0.24633 0.197059,-0.12885 0.337275,-0.23874 h 0.05305 l -0.178111,0.87161 q -0.397909,0.20084 -0.917085,0.3638 -0.515386,0.15916 -1.098985,0.15916 z"
         style="font-style:italic;stroke-width:0.26458332"
         id="path4971" />
    </g>
    <g
       aria-label="D"
       style="font-style:normal;font-weight:normal;font-size:7.76111126px;line-height:1.25;font-family:sans-serif;letter-spacing:0px;word-spacing:0px;writing-mode:lr-tb;direction:ltr;fill:#000000;fill-opacity:1;stroke:none;stroke-width:0.26458332"
       id="text1242">
      <path
         d="m 89.217355,146.1126 q 0,0.92467 -0.469911,1.7508 -0.469911,0.82614 -1.284676,1.2771 -0.500228,0.26906 -1.023193,0.36001 -0.522966,0.091 -1.186147,0.091 h -1.523421 l 1.303624,-5.64272 h 1.311204 q 0.613916,0 1.117933,0.0872 0.507807,0.0834 0.928453,0.3638 0.401699,0.26906 0.613916,0.70487 0.212218,0.43201 0.212218,1.00803 z m -0.792027,0.0644 q 0,-0.43202 -0.155374,-0.74277 -0.151584,-0.31453 -0.462332,-0.52296 -0.306958,-0.20464 -0.655601,-0.27285 -0.348644,-0.072 -0.882978,-0.072 h -0.625285 l -1.023194,4.40732 h 0.784449 q 0.541913,0 0.966349,-0.0872 0.428225,-0.091 0.807186,-0.30695 0.610126,-0.34865 0.928453,-1.00425 0.318327,-0.65939 0.318327,-1.39836 z"
         style="font-style:italic;stroke-width:0.26458332"
         id="path4974" />
    </g>
    <g
       aria-label="E"
       style="font-style:normal;font-weight:normal;font-size:7.76111126px;line-height:1.25;font-family:sans-serif;letter-spacing:0px;word-spacing:0px;writing-mode:lr-tb;direction:ltr;fill:#000000;fill-opacity:1;stroke:none;stroke-width:0.26458332"
       id="text1246">
      <path
         d="m 106.79716,144.84026 -0.1478,0.64045 h -2.96726 l -0.3638,1.59163 h 2.96726 l -0.14779,0.63666 h -2.96726 l -0.49265,2.13354 h 2.96726 l -0.1478,0.64045 h -3.7176 l 1.29983,-5.64273 z"
         style="font-style:italic;stroke-width:0.26458332"
         id="path4977" />
    </g>
    <g
       aria-label="F"
       style="font-style:normal;font-weight:normal;font-size:7.76111126px;line-height:1.25;font-family:sans-serif;letter-spacing:0px;word-spacing:0px;writing-mode:lr-tb;direction:ltr;fill:#000000;fill-opacity:1;stroke:none;stroke-width:0.26458332"
       id="text1250">
      <path
         d="m 147.02994,149.42971 h -2.84978 l -0.38275,1.63711 h 2.45187 l -0.14779,0.63666 h -2.44809 l -0.63286,2.72851 h -0.75792 l 1.30362,-5.64272 h 3.60771 z"
         style="font-style:italic;stroke-width:0.26458332"
         id="path4980" />
    </g>
    <g
       aria-label="G"
       style="font-style:normal;font-weight:normal;font-size:7.76111126px;line-height:1.25;font-family:sans-serif;letter-spacing:0px;word-spacing:0px;writing-mode:lr-tb;direction:ltr;fill:#000000;fill-opacity:1;stroke:none;stroke-width:0.26458332"
       id="text1254">
      <path
         d="m 166.7445,130.1523 q -1.16719,0 -1.8228,-0.57602 -0.6556,-0.57602 -0.6556,-1.63711 0,-0.78066 0.23875,-1.44384 0.24253,-0.66318 0.70107,-1.15583 0.45476,-0.48885 1.11415,-0.7655 0.66318,-0.27664 1.48931,-0.27664 0.49644,0 0.98909,0.12127 0.49644,0.11748 1.01182,0.38654 l -0.17053,0.85645 h -0.0682 q -0.42065,-0.39412 -0.91708,-0.56844 -0.49265,-0.17811 -1.06109,-0.17811 -0.62529,0 -1.0952,0.24632 -0.46991,0.24633 -0.79203,0.6556 -0.31453,0.4017 -0.47749,0.93604 -0.15916,0.53433 -0.15916,1.07624 0,0.81477 0.44338,1.25815 0.44718,0.44339 1.31879,0.44339 0.38275,0 0.71623,-0.0682 0.33728,-0.072 0.63286,-0.1819 l 0.31833,-1.44384 h -1.50447 l 0.144,-0.63286 h 2.25861 l -0.56086,2.42156 q -0.25012,0.10232 -0.45097,0.18569 -0.20085,0.0796 -0.50401,0.16674 -0.26149,0.0758 -0.54192,0.12506 -0.27664,0.0493 -0.59497,0.0493 z"
         style="font-style:italic;stroke-width:0.26458332"
         id="path4983" />
    </g>
  </g>
</svg>
