<?xml version="1.0" encoding="UTF-8" standalone="no"?>
<!-- Created with Inkscape (http://www.inkscape.org/) -->

<svg
   xmlns:dc="http://purl.org/dc/elements/1.1/"
   xmlns:cc="http://creativecommons.org/ns#"
   xmlns:rdf="http://www.w3.org/1999/02/22-rdf-syntax-ns#"
   xmlns:svg="http://www.w3.org/2000/svg"
   xmlns="http://www.w3.org/2000/svg"
   xmlns:sodipodi="http://sodipodi.sourceforge.net/DTD/sodipodi-0.dtd"
   xmlns:inkscape="http://www.inkscape.org/namespaces/inkscape"
   width="200mm"
   height="180mm"
   viewBox="0 0 200 180"
   version="1.1"
   id="svg2211"
   inkscape:version="0.92.3 (2405546, 2018-03-11)"
   sodipodi:docname="fig5.svg">
  <defs
     id="defs2205">
    <inkscape:path-effect
       effect="bspline"
       id="path-effect2775"
       is_visible="true"
       weight="33.333333"
       steps="2"
       helper_size="0"
       apply_no_weight="true"
       apply_with_weight="true"
       only_selected="false" />
  </defs>
  <sodipodi:namedview
     id="base"
     pagecolor="#ffffff"
     bordercolor="#666666"
     borderopacity="1.0"
     inkscape:pageopacity="0.0"
     inkscape:pageshadow="2"
     inkscape:zoom="1.2141435"
     inkscape:cx="377.95276"
     inkscape:cy="340.15748"
     inkscape:document-units="mm"
     inkscape:current-layer="layer1"
     showgrid="false"
     inkscape:window-width="1920"
     inkscape:window-height="1013"
     inkscape:window-x="-9"
     inkscape:window-y="-9"
     inkscape:window-maximized="1"
     showguides="true"
     inkscape:guide-bbox="true" />
  <metadata
     id="metadata2208">
    <rdf:RDF>
      <cc:Work
         rdf:about="">
        <dc:format>image/svg+xml</dc:format>
        <dc:type
           rdf:resource="http://purl.org/dc/dcmitype/StillImage" />
        <dc:title />
      </cc:Work>
    </rdf:RDF>
  </metadata>
  <g
     inkscape:label="Layer 1"
     inkscape:groupmode="layer"
     id="layer1"
     transform="translate(0,-117)">
    <path
       style="fill:none;stroke:#000000;stroke-width:0.53626078;stroke-linecap:butt;stroke-linejoin:miter;stroke-miterlimit:4;stroke-dasharray:none;stroke-opacity:1"
       d="M 186.46006,125.39234 H 23.789989 V 273.10426 H 186.69378"
       id="path2769"
       inkscape:connector-curvature="0" />
    <path
       style="fill:none;stroke:#000000;stroke-width:0.53626078;stroke-linecap:butt;stroke-linejoin:miter;stroke-miterlimit:4;stroke-dasharray:none;stroke-opacity:1"
       d="m 151.16812,147.42058 c 0,25.63116 0,51.26261 0,67.31151 0,16.0489 0,22.67094 0,28.90364 0,6.2327 0,12.15339 -2.02552,16.47733 -2.02551,4.32394 -6.07649,7.05056 -10.23495,8.94966 -4.15846,1.8991 -8.42354,2.97023 -14.2182,3.50589 -5.79465,0.53565 -13.11734,0.53565 -20.44091,0.53565"
       id="path2773"
       inkscape:connector-curvature="0"
       inkscape:path-effect="#path-effect2775"
       inkscape:original-d="m 151.16812,147.42058 c 2.8e-4,25.63116 2.8e-4,51.26261 0,76.89433 2.8e-4,6.46608 2.8e-4,13.08812 0,19.63261 2.8e-4,5.92091 2.8e-4,11.8416 0,17.76282 -4.05108,2.72659 -8.10206,5.45321 -12.15351,8.18025 -4.26547,1.07103 -8.53055,2.14217 -12.79624,3.21367 -7.32357,-2.9e-4 -14.64626,-2.9e-4 -21.96983,0" />
    <path
       style="fill:none;stroke:#000000;stroke-width:0.53626078;stroke-linecap:butt;stroke-linejoin:miter;stroke-miterlimit:4;stroke-dasharray:none;stroke-opacity:1"
       d="m 115.58404,273.04583 v -3.09681"
       id="path2777"
       inkscape:connector-curvature="0" />
    <g
       aria-label="过饱和度(P/Pe)"
       style="font-style:normal;font-weight:normal;font-size:7.76111126px;line-height:1.25;font-family:sans-serif;letter-spacing:0px;word-spacing:0px;writing-mode:lr-tb;direction:ltr;fill:#000000;fill-opacity:1;stroke:none;stroke-width:0.26458332"
       id="text2781"
       transform="translate(-5.2916669,0.52916663)">
      <path
         d="m 140.53968,278.94163 h 3.25148 V 277.494 h 0.61391 v 1.44763 h 1.30363 v 0.55328 h -1.30363 v 3.14537 q 0,0.97772 -0.93982,0.97772 -0.49265,0 -1.15204,-0.008 -0.0379,-0.29559 -0.11369,-0.68213 0.60634,0.0606 1.12931,0.0606 0.46991,0 0.46233,-0.53054 v -2.96347 h -3.25148 z m 0.93224,5.16144 2.03881,0.0379 2.30408,-0.0758 q -0.12885,0.30317 -0.24254,0.59876 l -2.22071,0.0303 -1.94027,-0.0455 q -1.30363,-0.0152 -1.91754,-0.86403 -0.21222,0.16674 -0.87919,0.95498 l -0.31833,-0.63665 q 0.58739,-0.53813 0.93224,-0.82992 v -2.60346 h -0.87918 v -0.54571 h 1.46278 v 3.28559 q 0.55708,0.67455 1.65985,0.6935 z m -0.62907,-3.70624 0.46233,-0.34106 q 0.82613,1.05351 1.26573,1.65985 l -0.52297,0.38654 q -0.6215,-0.9474 -1.20509,-1.70533 z m -1.76596,-2.87252 q 0.50023,0.57602 1.09141,1.40974 -0.30317,0.1819 -0.53813,0.3638 -0.52296,-0.81098 -1.00803,-1.44763 z"
         style="writing-mode:lr-tb;direction:ltr;stroke-width:0.26458332"
         id="path2803"
         inkscape:connector-curvature="0" />
      <path
         d="m 148.42964,280.1543 q 0.89434,-1.23541 1.36425,-2.72852 l 0.57602,0.14401 q -0.14779,0.43959 -0.31832,0.84887 h 2.94831 q 0,1.95544 -0.0455,3.25148 -0.0303,0.90951 -0.34864,1.25057 -0.29559,0.34865 -1.08383,0.34865 -0.3638,0 -0.75792,-0.0152 -0.0303,-0.31833 -0.11369,-0.60634 0.50781,0.0531 0.82614,0.0531 0.48507,0 0.68213,-0.21979 0.18948,-0.24254 0.21979,-0.84887 0.0379,-1.06109 0.0379,-2.68304 h -2.59967 q -0.25011,0.52675 -0.53812,1.00045 h 2.25102 v 2.17523 h -1.9327 v 1.51585 q 0,0.55328 0.49265,0.55328 h 2.12976 q 0.57602,0 0.68971,-0.45475 0.0985,-0.37138 0.16674,-0.89435 0.30317,0.144 0.56086,0.22738 -0.0909,0.53054 -0.18948,0.88676 -0.22737,0.7655 -1.03077,0.7655 h -2.45566 q -0.91709,0 -0.91709,-0.97013 v -3.43718 q -0.0834,0.12127 -0.16674,0.23875 -0.18948,-0.20464 -0.44717,-0.4017 z m 0.0379,2.85736 q 0.0303,0.33349 0.12127,0.6215 -0.81098,0.52296 -1.61437,1.15204 l -0.34865,-0.50023 q 0.2577,-0.23496 0.2577,-0.6215 v -3.57738 h 0.56844 v 3.65318 q 0.46233,-0.32591 1.01561,-0.72761 z m -2.4784,-2.96347 q 0.69729,-1.25057 1.02319,-2.60725 l 0.55329,0.12885 q -0.1478,0.5457 -0.33728,1.06867 h 1.42868 v 0.53054 q -0.28043,0.75792 -0.5457,1.40974 -0.26527,-0.14401 -0.50781,-0.22738 0.30317,-0.69729 0.46991,-1.18236 h -1.04972 q -0.29938,0.72382 -0.67834,1.40216 -0.15158,-0.28043 -0.35622,-0.52297 z m 4.98712,1.5689 v -1.15962 h -1.37942 v 1.15962 z"
         style="writing-mode:lr-tb;direction:ltr;stroke-width:0.26458332"
         id="path2805"
         inkscape:connector-curvature="0" />
      <path
         d="m 157.63838,278.4035 h 3.35001 v 6.32864 h -0.60634 v -0.73518 h -2.13734 v 0.73518 h -0.60633 z m 2.74367,0.56086 h -2.13734 v 4.4869 h 2.13734 z m -6.60907,3.87298 q 0.86403,-1.14446 1.37184,-2.54661 h -1.32637 v -0.51539 h 1.44763 v -1.19752 q -0.59118,0.091 -1.19751,0.16675 -0.0682,-0.25012 -0.16675,-0.52297 1.57648,-0.17432 3.05443,-0.51538 l 0.17432,0.53054 q -0.62908,0.12885 -1.28847,0.24253 v 1.29605 h 1.41732 v 0.51539 h -1.41732 v 0.97771 l 0.27285,-0.27285 q 0.59876,0.51539 1.17478,1.09141 l -0.43201,0.43959 q -0.45476,-0.52296 -1.01562,-1.06867 v 3.52434 h -0.57602 v -3.63802 q -0.44717,1.12172 -1.20509,2.14491 -0.12127,-0.29559 -0.28801,-0.65181 z"
         style="writing-mode:lr-tb;direction:ltr;stroke-width:0.26458332"
         id="path2807"
         inkscape:connector-curvature="0" />
      <path
         d="m 163.32278,282.4508 v -0.50023 h 4.75217 v 0.49265 q -0.68592,0.73897 -1.60301,1.28468 1.0952,0.43959 2.56557,0.57223 l -0.29559,0.59118 q -1.69017,-0.23496 -2.8801,-0.83372 -1.26573,0.61771 -2.90284,0.91709 -0.12127,-0.24254 -0.31075,-0.54571 1.50069,-0.23495 2.63378,-0.70486 -0.81098,-0.52676 -1.33394,-1.27331 z m -0.22737,-2.81947 h 1.1293 v -0.63665 h 0.57602 v 0.63665 h 2.14491 v -0.64423 h 0.57602 v 0.64423 h 1.37942 v 0.50023 h -1.37942 v 1.45521 h -0.57602 v -0.26527 h -2.14491 v 0.27285 h -0.57602 v -1.46279 h -1.1293 z m 2.01607,-1.97817 0.55328,-0.26527 q 0.25769,0.40549 0.51917,0.91708 h 2.79294 v 0.53055 h -6.04821 v 2.28134 q 0,2.59209 -1.00803,3.8654 -0.18948,-0.25012 -0.43202,-0.51539 0.83372,-1.02319 0.84887,-3.38791 v -2.77399 h 3.14538 q -0.17432,-0.33348 -0.37138,-0.65181 z m -0.31075,3.18327 h 2.14491 v -0.70487 h -2.14491 z m 2.48598,1.61437 h -2.70578 q 0.53813,0.59118 1.29605,1.00046 0.82234,-0.42444 1.40973,-1.00046 z"
         style="writing-mode:lr-tb;direction:ltr;stroke-width:0.26458332"
         id="path2809"
         inkscape:connector-curvature="0" />
      <path
         d="m 171.06116,285.2589 q -1.2771,-1.45521 -1.2771,-3.5736 0,-2.11839 1.2771,-3.63044 h 0.6556 q -1.28089,1.57269 -1.28089,3.62286 0,2.04639 1.27331,3.58118 z"
         style="writing-mode:lr-tb;direction:ltr;stroke-width:0.26458332"
         id="path2811"
         inkscape:connector-curvature="0" />
      <path
         d="m 176.24534,279.98756 q 0,0.37517 -0.13264,0.69728 -0.12885,0.31833 -0.3638,0.55329 -0.2918,0.2918 -0.68971,0.43959 -0.39791,0.14401 -1.00424,0.14401 h -0.75035 v 2.10323 h -0.75034 v -5.64272 h 1.531 q 0.50781,0 0.86024,0.0872 0.35244,0.0834 0.62529,0.26527 0.32211,0.21601 0.49644,0.53812 0.17811,0.32212 0.17811,0.81477 z m -0.78066,0.019 q 0,-0.2918 -0.10232,-0.50781 -0.10232,-0.21601 -0.31075,-0.35243 -0.1819,-0.11748 -0.41685,-0.16675 -0.23117,-0.053 -0.58739,-0.053 h -0.74277 v 2.25481 h 0.63287 q 0.45475,0 0.73897,-0.0796 0.28422,-0.0834 0.46233,-0.26148 0.17811,-0.1819 0.25012,-0.38275 0.0758,-0.20085 0.0758,-0.45096 z"
         style="writing-mode:lr-tb;direction:ltr;stroke-width:0.26458332"
         id="path2813"
         inkscape:connector-curvature="0" />
      <path
         d="m 179.73935,278.02833 -2.71714,7.04867 h -0.6556 l 2.70577,-7.04867 z"
         style="writing-mode:lr-tb;direction:ltr;stroke-width:0.26458332"
         id="path2815"
         inkscape:connector-curvature="0" />
      <path
         d="m 184.4612,279.98756 q 0,0.37517 -0.13264,0.69728 -0.12884,0.31833 -0.3638,0.55329 -0.2918,0.2918 -0.68971,0.43959 -0.39791,0.14401 -1.00424,0.14401 h -0.75034 v 2.10323 h -0.75035 v -5.64272 h 1.531 q 0.50781,0 0.86025,0.0872 0.35243,0.0834 0.62528,0.26527 0.32212,0.21601 0.49644,0.53812 0.17811,0.32212 0.17811,0.81477 z m -0.78066,0.019 q 0,-0.2918 -0.10232,-0.50781 -0.10232,-0.21601 -0.31075,-0.35243 -0.1819,-0.11748 -0.41685,-0.16675 -0.23117,-0.053 -0.58739,-0.053 h -0.74276 v 2.25481 h 0.63286 q 0.45475,0 0.73897,-0.0796 0.28422,-0.0834 0.46233,-0.26148 0.17812,-0.1819 0.25012,-0.38275 0.0758,-0.20085 0.0758,-0.45096 z"
         style="writing-mode:lr-tb;direction:ltr;stroke-width:0.26458332"
         id="path2817"
         inkscape:connector-curvature="0" />
      <path
         d="m 188.75861,281.88236 h -3.11884 q 0,0.39033 0.11748,0.68213 0.11747,0.28801 0.32211,0.4737 0.19706,0.1819 0.46612,0.27285 0.27286,0.091 0.59876,0.091 0.43202,0 0.86782,-0.17053 0.4396,-0.17432 0.62529,-0.34106 h 0.0379 v 0.77686 q -0.36001,0.15159 -0.73518,0.25391 -0.37517,0.10232 -0.78824,0.10232 -1.05351,0 -1.64469,-0.56844 -0.59118,-0.57223 -0.59118,-1.62195 0,-1.03836 0.56465,-1.64848 0.56845,-0.61013 1.49311,-0.61013 0.85645,0 1.31878,0.50023 0.46612,0.50023 0.46612,1.4211 z m -0.69349,-0.5457 q -0.004,-0.56086 -0.28422,-0.86782 -0.27665,-0.30696 -0.84509,-0.30696 -0.57223,0 -0.91329,0.33727 -0.33728,0.33728 -0.38275,0.83751 z"
         style="writing-mode:lr-tb;direction:ltr;stroke-width:0.26458332"
         id="path2819"
         inkscape:connector-curvature="0" />
      <path
         d="m 189.23231,285.2589 q 1.2771,-1.531 1.2771,-3.58118 0,-2.05396 -1.28468,-3.62286 h 0.6594 q 1.28088,1.50068 1.28088,3.63044 0,2.12976 -1.28088,3.5736 z"
         style="writing-mode:lr-tb;direction:ltr;stroke-width:0.26458332"
         id="path2821"
         inkscape:connector-curvature="0" />
    </g>
    <g
       aria-label="1"
       style="font-style:normal;font-weight:normal;font-size:7.76111126px;line-height:1.25;font-family:sans-serif;letter-spacing:0px;word-spacing:0px;writing-mode:lr-tb;direction:ltr;fill:#000000;fill-opacity:1;stroke:none;stroke-width:0.26458332"
       id="text2785"
       transform="translate(-5.2916669,0.52916663)">
      <path
         d="m 122.21931,281.96365 h -3.05442 v -0.57602 h 1.17478 v -3.78202 h -1.17478 v -0.51539 q 0.23875,0 0.5116,-0.0379 0.27285,-0.0417 0.41307,-0.11748 0.17432,-0.0947 0.27285,-0.23875 0.10232,-0.14779 0.11747,-0.39412 h 0.58739 v 5.08565 h 1.15204 z"
         style="stroke-width:0.26458332"
         id="path2800"
         inkscape:connector-curvature="0" />
    </g>
    <g
       aria-label="成核速率"
       transform="rotate(-90,-2.3812498,2.9104164)"
       style="font-style:normal;font-weight:normal;font-size:7.76111126px;line-height:1.25;font-family:sans-serif;letter-spacing:0px;word-spacing:0px;writing-mode:lr-tb;direction:ltr;fill:#000000;fill-opacity:1;stroke:none;stroke-width:0.26458332"
       id="text2789">
      <path
         d="m -214.45589,22.972888 q 0.8754,-0.587388 1.56132,-1.368047 -0.4396,-1.117934 -0.51918,-3.611494 h -2.86115 v 1.15204 h 2.18281 q -0.0455,1.447629 -0.12126,2.432927 -0.091,1.045931 -1.01562,1.045931 -0.31075,0 -0.82613,-0.03032 -0.0455,-0.280431 -0.12127,-0.629075 0.53055,0.07579 0.88677,0.07579 0.43959,0 0.49265,-0.606337 0.0606,-0.697288 0.091,-1.72806 h -1.57269 q -0.0606,2.633775 -1.06488,3.895714 -0.18948,-0.257693 -0.39412,-0.522966 0.85645,-1.136881 0.85645,-3.592545 V 17.43248 h 3.44476 q -0.0265,-0.598758 -0.0493,-1.296045 h 0.62907 q -0.004,0.534334 0.019,1.296045 h 2.61104 v 0.560861 h -2.59209 q 0.0758,2.038808 0.37517,3.046843 0.73519,-0.996666 1.20889,-2.258605 l 0.59875,0.250114 q -0.65181,1.542369 -1.5651,2.683041 0.55707,1.133091 1.08761,1.133091 0.19327,0 0.29559,-0.352433 0.10611,-0.553282 0.16675,-1.136881 0.3259,0.128846 0.57602,0.212218 -0.11369,0.810975 -0.25012,1.326361 -0.144,0.553283 -0.63665,0.598758 -0.46233,0.03032 -0.88677,-0.310748 -0.45854,-0.352433 -0.78066,-0.970139 -0.64044,0.689709 -1.39457,1.212674 -0.19706,-0.227376 -0.43202,-0.454753 z m 2.17523,-6.465066 0.31833,-0.394119 q 0.63666,0.363802 1.18994,0.757921 l -0.3638,0.454753 q -0.54571,-0.432015 -1.14447,-0.818555 z"
         style="stroke-width:0.26458332"
         id="path2791"
         inkscape:connector-curvature="0" />
      <path
         d="m -207.52849,21.631368 q 1.50826,-0.780658 2.53146,-1.849327 -0.74277,0.07579 -1.37942,0.144005 -0.28043,0.03032 -0.52297,0.106109 l -0.28043,-0.553282 q 0.31075,-0.166743 0.48507,-0.394119 0.47749,-0.5836 0.93225,-1.333941 h -1.44005 v -0.545704 h 2.32681 q -0.31074,-0.462331 -0.57602,-0.826133 l 0.49265,-0.310748 q 0.28801,0.356223 0.66697,0.871609 l -0.4017,0.265272 h 2.31924 v 0.545704 h -2.68304 q -0.55328,0.841292 -1.14446,1.584055 0.83371,-0.04548 1.69017,-0.09853 0.43201,-0.538124 0.75792,-1.144461 l 0.55328,0.295589 q -1.29605,2.273763 -3.89572,3.706234 -0.21221,-0.234955 -0.43201,-0.462332 z m -2.39503,-0.720025 q 0.81097,-1.288465 1.13688,-2.743674 h -1.08383 v -0.530545 h 1.09141 v -1.508262 h 0.56844 v 1.508262 h 0.86403 v 0.530545 h -0.86403 v 1.333941 l 0.23496,-0.250114 q 0.48507,0.409278 0.90192,0.818555 l -0.38654,0.38654 q -0.37138,-0.401698 -0.75034,-0.750342 v 3.895714 h -0.56844 v -4.016982 q -0.38654,1.242991 -0.90193,1.993333 -0.0985,-0.325906 -0.24253,-0.666971 z m 2.62241,2.21313 q 2.59209,-1.091407 4.26709,-3.562229 l 0.51539,0.348644 q -0.65181,0.939822 -1.42489,1.690163 0.87161,0.712446 1.63711,1.394575 l -0.46234,0.492649 q -0.71244,-0.704867 -1.59163,-1.500684 -1.14446,1.008035 -2.53904,1.63711 -0.144,-0.204639 -0.40169,-0.500228 z"
         style="stroke-width:0.26458332"
         id="path2793"
         inkscape:connector-curvature="0" />
      <path
         d="m -199.56274,18.220724 h 1.90238 V 17.48554 h -2.2586 v -0.522965 h 2.2586 v -0.826134 h 0.56086 v 0.826134 h 2.37987 v 0.522965 h -2.37987 v 0.735184 h 1.90238 v 2.175233 h -0.5457 v -0.234956 h -1.35668 v 0.545704 l 0.19706,-0.303169 q 1.12173,0.613916 2.16008,1.220253 l -0.34865,0.538124 q -1.06109,-0.720025 -2.00849,-1.242991 v 1.644689 h -0.56086 v -1.955436 q -0.91708,1.015614 -2.09944,1.720481 -0.12885,-0.19706 -0.40928,-0.492649 1.37942,-0.682129 2.31924,-1.675006 h -1.1672 v 0.234956 h -0.5457 z m 0.52297,4.60058 q 1.88722,0.03032 4.4111,-0.03032 -0.0834,0.250114 -0.21222,0.598758 -2.50872,0.01516 -4.31257,-0.03032 -1.28847,-0.01516 -1.80386,-0.886767 -0.31074,0.28801 -0.9095,1.015614 l -0.31075,-0.629075 q 0.66697,-0.644233 0.97014,-0.924663 v -2.554194 h -0.90193 v -0.560862 h 1.48553 v 3.243902 q 0.46233,0.750342 1.58406,0.757921 z m 3.29695,-4.107932 h -1.35668 v 0.954981 h 1.35668 z m -3.27422,0.954981 h 1.35668 v -0.954981 h -1.35668 z m -2.28134,-3.395486 q 0.38654,0.469911 1.06109,1.43247 l -0.53812,0.378961 q -0.61392,-0.96256 -1.00804,-1.485525 z"
         style="stroke-width:0.26458332"
         id="path2795"
         inkscape:connector-curvature="0" />
      <path
         d="m -191.44541,20.115526 q 0.11748,-0.0076 1.70154,-0.08716 -0.18948,-0.265272 -0.3676,-0.496438 l 0.40928,-0.257693 q 0.5457,0.606337 1.00804,1.273307 l -0.48507,0.303169 q -0.13264,-0.200849 -0.26149,-0.39033 -1.44005,0.07958 -2.38366,0.155374 -0.16674,0.01516 -0.4017,0.06821 l -0.18948,-0.515386 q 0.22738,-0.07579 0.34107,-0.144005 0.64044,-0.432015 1.26573,-1.004246 -0.5495,0.02274 -0.93983,0.05684 -0.15916,0.02274 -0.34864,0.06821 l -0.22738,-0.462332 q 0.18948,-0.06821 0.34865,-0.212217 0.51159,-0.432015 0.95498,-1.045931 h -3.20601 v -0.530545 h 3.39549 q -0.18569,-0.337275 -0.34864,-0.591179 l 0.5457,-0.265272 q 0.29559,0.450963 0.51159,0.856451 h 3.10369 v 0.530545 h -3.78581 l 0.36001,0.18948 q -0.61392,0.629074 -1.03835,1.000456 0.43201,-0.01137 1.1293,-0.02653 0.30317,-0.303168 0.60634,-0.640443 l 0.52296,0.303168 q -1.20509,1.144461 -2.22071,1.864486 z m -2.88768,1.235411 h 3.45612 v -0.66697 h 0.59876 v 0.66697 h 3.38033 v 0.530545 h -3.38033 v 1.705322 h -0.59876 v -1.705322 h -3.45612 z m 1.90996,-2.038807 0.27286,0.447173 q -0.90193,0.530545 -1.84175,1.083827 l -0.31833,-0.507807 q 0.78824,-0.371381 1.88722,-1.023193 z m 3.80477,-0.0076 q 1.08383,0.613916 1.69016,1.045931 l -0.33348,0.492648 q -0.78066,-0.606336 -1.66743,-1.129302 z m 1.37941,-1.106565 q -0.57602,0.500228 -1.25057,0.947401 l -0.38653,-0.401698 q 0.7276,-0.47749 1.20509,-0.95498 z m -6.82886,-0.05305 0.38654,-0.371382 q 0.62907,0.500228 1.09898,0.947402 l -0.42443,0.416856 q -0.4396,-0.462332 -1.06109,-0.992876 z"
         style="stroke-width:0.26458332"
         id="path2797"
         inkscape:connector-curvature="0" />
    </g>
  </g>
</svg>
