<?xml version="1.0" encoding="UTF-8" standalone="no"?>
<!-- Created with Inkscape (http://www.inkscape.org/) -->

<svg
   xmlns:dc="http://purl.org/dc/elements/1.1/"
   xmlns:cc="http://creativecommons.org/ns#"
   xmlns:rdf="http://www.w3.org/1999/02/22-rdf-syntax-ns#"
   xmlns:svg="http://www.w3.org/2000/svg"
   xmlns="http://www.w3.org/2000/svg"
   xmlns:sodipodi="http://sodipodi.sourceforge.net/DTD/sodipodi-0.dtd"
   xmlns:inkscape="http://www.inkscape.org/namespaces/inkscape"
   width="200mm"
   height="120mm"
   viewBox="0 0 200 120"
   version="1.1"
   id="svg8"
   inkscape:version="0.92.3 (2405546, 2018-03-11)"
   sodipodi:docname="fig5.svg">
  <defs
     id="defs2">
    <inkscape:path-effect
       effect="bspline"
       id="path-effect1377"
       is_visible="true"
       weight="33.333333"
       steps="2"
       helper_size="0"
       apply_no_weight="true"
       apply_with_weight="true"
       only_selected="false" />
    <inkscape:path-effect
       effect="bspline"
       id="path-effect1261"
       is_visible="true"
       weight="33.333333"
       steps="2"
       helper_size="0"
       apply_no_weight="true"
       apply_with_weight="true"
       only_selected="false" />
    <inkscape:path-effect
       effect="bspline"
       id="path-effect1261-2"
       is_visible="true"
       weight="33.333333"
       steps="2"
       helper_size="0"
       apply_no_weight="true"
       apply_with_weight="true"
       only_selected="false" />
    <inkscape:path-effect
       effect="bspline"
       id="path-effect1261-2-1"
       is_visible="true"
       weight="33.333333"
       steps="2"
       helper_size="0"
       apply_no_weight="true"
       apply_with_weight="true"
       only_selected="false" />
    <inkscape:path-effect
       effect="bspline"
       id="path-effect1261-2-5"
       is_visible="true"
       weight="33.333333"
       steps="2"
       helper_size="0"
       apply_no_weight="true"
       apply_with_weight="true"
       only_selected="false" />
    <inkscape:path-effect
       effect="bspline"
       id="path-effect1261-20"
       is_visible="true"
       weight="33.333333"
       steps="2"
       helper_size="0"
       apply_no_weight="true"
       apply_with_weight="true"
       only_selected="false" />
    <inkscape:path-effect
       effect="bspline"
       id="path-effect1261-3"
       is_visible="true"
       weight="33.333333"
       steps="2"
       helper_size="0"
       apply_no_weight="true"
       apply_with_weight="true"
       only_selected="false" />
    <inkscape:path-effect
       effect="bspline"
       id="path-effect1261-4"
       is_visible="true"
       weight="33.333333"
       steps="2"
       helper_size="0"
       apply_no_weight="true"
       apply_with_weight="true"
       only_selected="false" />
  </defs>
  <sodipodi:namedview
     id="base"
     pagecolor="#ffffff"
     bordercolor="#666666"
     borderopacity="1.0"
     inkscape:pageopacity="0.0"
     inkscape:pageshadow="2"
     inkscape:zoom="1.8212153"
     inkscape:cx="377.95276"
     inkscape:cy="226.77165"
     inkscape:document-units="mm"
     inkscape:current-layer="layer1"
     showgrid="false"
     inkscape:window-width="1920"
     inkscape:window-height="1013"
     inkscape:window-x="-9"
     inkscape:window-y="-9"
     inkscape:window-maximized="1"
     showguides="true"
     inkscape:guide-bbox="true">
    <sodipodi:guide
       position="100,60"
       orientation="1,0"
       id="guide815"
       inkscape:locked="false"
       inkscape:label=""
       inkscape:color="rgb(0,0,255)" />
    <sodipodi:guide
       position="99.999999,60"
       orientation="0,1"
       id="guide817"
       inkscape:locked="false" />
    <sodipodi:guide
       position="10,87.893463"
       orientation="1,0"
       id="guide819"
       inkscape:locked="false"
       inkscape:label=""
       inkscape:color="rgb(0,0,255)" />
    <sodipodi:guide
       position="40.532687,65"
       orientation="0,1"
       id="guide821"
       inkscape:locked="false"
       inkscape:label=""
       inkscape:color="rgb(0,0,255)" />
    <sodipodi:guide
       position="41.985472,10"
       orientation="0,1"
       id="guide823"
       inkscape:locked="false"
       inkscape:label=""
       inkscape:color="rgb(0,0,255)" />
    <sodipodi:guide
       position="56.949152,55"
       orientation="0,1"
       id="guide825"
       inkscape:locked="false"
       inkscape:label=""
       inkscape:color="rgb(0,0,255)" />
    <sodipodi:guide
       position="90,34.285714"
       orientation="1,0"
       id="guide827"
       inkscape:locked="false"
       inkscape:label=""
       inkscape:color="rgb(0,0,255)" />
    <sodipodi:guide
       position="110,64.999999"
       orientation="1,0"
       id="guide829"
       inkscape:locked="false"
       inkscape:label=""
       inkscape:color="rgb(0,0,255)" />
    <sodipodi:guide
       position="152.68765,105"
       orientation="0,1"
       id="guide831"
       inkscape:locked="false"
       inkscape:label=""
       inkscape:color="rgb(0,0,255)" />
    <sodipodi:guide
       position="190,27.457627"
       orientation="1,0"
       id="guide1157"
       inkscape:locked="false"
       inkscape:label=""
       inkscape:color="rgb(0,0,255)" />
    <sodipodi:guide
       position="132.34867,115"
       orientation="0,1"
       id="guide1163"
       inkscape:locked="false"
       inkscape:label=""
       inkscape:color="rgb(0,0,255)" />
    <sodipodi:guide
       position="30,87.748185"
       orientation="1,0"
       id="guide1167"
       inkscape:locked="false"
       inkscape:label=""
       inkscape:color="rgb(0,0,255)" />
    <sodipodi:guide
       position="45,84.842616"
       orientation="1,0"
       id="guide1169"
       inkscape:locked="false"
       inkscape:label=""
       inkscape:color="rgb(0,0,255)" />
    <sodipodi:guide
       position="65,88.038741"
       orientation="1,0"
       id="guide1171"
       inkscape:locked="false"
       inkscape:label=""
       inkscape:color="rgb(0,0,255)" />
    <sodipodi:guide
       position="80,91.089589"
       orientation="1,0"
       id="guide1173"
       inkscape:locked="false"
       inkscape:label=""
       inkscape:color="rgb(0,0,255)" />
    <sodipodi:guide
       position="96.174333,80"
       orientation="0,1"
       id="guide1175"
       inkscape:locked="false"
       inkscape:label=""
       inkscape:color="rgb(0,0,255)" />
    <sodipodi:guide
       position="95.302663,45"
       orientation="0,1"
       id="guide1179"
       inkscape:locked="false"
       inkscape:label=""
       inkscape:color="rgb(0,0,255)" />
    <sodipodi:guide
       position="94.57627,20"
       orientation="0,1"
       id="guide1181"
       inkscape:locked="false"
       inkscape:label=""
       inkscape:color="rgb(0,0,255)" />
    <sodipodi:guide
       position="130,72.058112"
       orientation="1,0"
       id="guide1183"
       inkscape:locked="false"
       inkscape:label=""
       inkscape:color="rgb(0,0,255)" />
    <sodipodi:guide
       position="145,75.399516"
       orientation="1,0"
       id="guide1185"
       inkscape:locked="false"
       inkscape:label=""
       inkscape:color="rgb(0,0,255)" />
    <sodipodi:guide
       position="165,75.544795"
       orientation="1,0"
       id="guide1187"
       inkscape:locked="false"
       inkscape:label=""
       inkscape:color="rgb(0,0,255)" />
    <sodipodi:guide
       position="180,95.302664"
       orientation="1,0"
       id="guide1189"
       inkscape:locked="false"
       inkscape:label=""
       inkscape:color="rgb(0,0,255)" />
    <sodipodi:guide
       position="153.12349,100"
       orientation="0,1"
       id="guide1191"
       inkscape:locked="false"
       inkscape:label=""
       inkscape:color="rgb(0,0,255)" />
    <sodipodi:guide
       position="154.14043,75"
       orientation="0,1"
       id="guide1193"
       inkscape:locked="false"
       inkscape:label=""
       inkscape:color="rgb(0,0,255)" />
    <sodipodi:guide
       position="130,21.007749"
       orientation="0,1"
       id="guide1379"
       inkscape:locked="false" />
  </sodipodi:namedview>
  <metadata
     id="metadata5">
    <rdf:RDF>
      <cc:Work
         rdf:about="">
        <dc:format>image/svg+xml</dc:format>
        <dc:type
           rdf:resource="http://purl.org/dc/dcmitype/StillImage" />
        <dc:title></dc:title>
      </cc:Work>
    </rdf:RDF>
  </metadata>
  <g
     inkscape:label="Layer 1"
     inkscape:groupmode="layer"
     id="layer1"
     transform="translate(0,-177)">
    <path
       style="fill:none;stroke:#000000;stroke-width:0.5;stroke-linecap:butt;stroke-linejoin:miter;stroke-miterlimit:4;stroke-dasharray:none;stroke-opacity:1"
       d="M 89.999999,229.35415 H 10 v -50"
       id="path833"
       inkscape:connector-curvature="0"
       sodipodi:nodetypes="ccc" />
    <path
       style="fill:none;stroke:#000000;stroke-width:0.5;stroke-linecap:butt;stroke-linejoin:miter;stroke-miterlimit:4;stroke-dasharray:none;stroke-opacity:1"
       d="M 89.999999,284.35415 H 10 v -45"
       id="path1155"
       inkscape:connector-curvature="0" />
    <path
       style="fill:none;stroke:#000000;stroke-width:0.5;stroke-linecap:butt;stroke-linejoin:miter;stroke-miterlimit:4;stroke-dasharray:none;stroke-opacity:1"
       d="m 190,284.35415 h -80 v -45"
       id="path1159"
       inkscape:connector-curvature="0" />
    <path
       style="fill:none;stroke:#000000;stroke-width:0.5;stroke-linecap:butt;stroke-linejoin:miter;stroke-miterlimit:4;stroke-dasharray:none;stroke-opacity:1"
       d="M 190,189.35415 H 110"
       id="path1161"
       inkscape:connector-curvature="0" />
    <path
       style="fill:none;stroke:#000000;stroke-width:0.5;stroke-linecap:butt;stroke-linejoin:miter;stroke-miterlimit:4;stroke-dasharray:none;stroke-opacity:1"
       d="m 110,179.35415 v 50"
       id="path1165"
       inkscape:connector-curvature="0" />
    <path
       style="fill:none;stroke:#000000;stroke-width:0.5;stroke-linecap:butt;stroke-linejoin:miter;stroke-miterlimit:4;stroke-dasharray:none;stroke-opacity:1"
       d="m 10,189.35415 20,25 14.999999,-25 20.000001,25 14.999998,-25"
       id="path1177"
       inkscape:connector-curvature="0"
       sodipodi:nodetypes="ccccc" />
    <path
       style="fill:none;stroke:#000000;stroke-width:0.5;stroke-linecap:butt;stroke-linejoin:miter;stroke-miterlimit:4;stroke-dasharray:none;stroke-opacity:1"
       d="m 110,194.35415 20,25 15,-25 20,24.4552 15,-24.4552"
       id="path1195"
       inkscape:connector-curvature="0" />
    <path
       sodipodi:type="star"
       style="opacity:1;vector-effect:none;fill:#000000;fill-opacity:1;stroke:#000000;stroke-width:3.12101316;stroke-linecap:butt;stroke-linejoin:miter;stroke-miterlimit:4;stroke-dasharray:none;stroke-dashoffset:0;stroke-opacity:1"
       id="path1197"
       sodipodi:sides="3"
       sodipodi:cx="93.704597"
       sodipodi:cy="206.49152"
       sodipodi:r1="11.365196"
       sodipodi:r2="5.6825976"
       sodipodi:arg1="0.52359878"
       sodipodi:arg2="1.5707963"
       inkscape:flatsided="false"
       inkscape:rounded="0"
       inkscape:randomized="0"
       d="m 103.54715,212.17411 -9.842552,0 -9.842549,0 4.921274,-8.52389 4.921275,-8.5239 4.921273,8.5239 z"
       inkscape:transform-center-x="-0.40808118"
       inkscape:transform-center-y="-2.8035745e-006"
       transform="matrix(0,0.04684703,-0.14362445,0,118.92377,224.96437)" />
    <path
       sodipodi:type="star"
       style="opacity:1;vector-effect:none;fill:#000000;fill-opacity:1;stroke:#000000;stroke-width:3.12101316;stroke-linecap:butt;stroke-linejoin:miter;stroke-miterlimit:4;stroke-dasharray:none;stroke-dashoffset:0;stroke-opacity:1"
       id="path1197-8"
       sodipodi:sides="3"
       sodipodi:cx="93.704597"
       sodipodi:cy="206.49152"
       sodipodi:r1="11.365196"
       sodipodi:r2="5.6825976"
       sodipodi:arg1="0.52359878"
       sodipodi:arg2="1.5707963"
       inkscape:flatsided="false"
       inkscape:rounded="0"
       inkscape:randomized="0"
       d="m 103.54715,212.17411 -9.842552,0 -9.842549,0 4.921274,-8.52389 4.921275,-8.5239 4.921273,8.5239 z"
       inkscape:transform-center-x="-0.40808118"
       inkscape:transform-center-y="-2.8035745e-006"
       transform="matrix(0,0.04684703,-0.14362445,0,218.8875,184.96437)" />
    <path
       sodipodi:type="star"
       style="opacity:1;vector-effect:none;fill:#000000;fill-opacity:1;stroke:#000000;stroke-width:3.12101316;stroke-linecap:butt;stroke-linejoin:miter;stroke-miterlimit:4;stroke-dasharray:none;stroke-dashoffset:0;stroke-opacity:1"
       id="path1197-4"
       sodipodi:sides="3"
       sodipodi:cx="93.704597"
       sodipodi:cy="206.49152"
       sodipodi:r1="11.365196"
       sodipodi:r2="5.6825976"
       sodipodi:arg1="0.52359878"
       sodipodi:arg2="1.5707963"
       inkscape:flatsided="false"
       inkscape:rounded="0"
       inkscape:randomized="0"
       d="m 103.54715,212.17411 -9.842552,0 -9.842549,0 4.921274,-8.52389 4.921275,-8.5239 4.921273,8.5239 z"
       inkscape:transform-center-x="-0.40808118"
       inkscape:transform-center-y="-2.8035745e-006"
       transform="matrix(0,0.04684703,-0.14362445,0,218.84308,279.96437)" />
    <path
       sodipodi:type="star"
       style="opacity:1;vector-effect:none;fill:#000000;fill-opacity:1;stroke:#000000;stroke-width:3.12101316;stroke-linecap:butt;stroke-linejoin:miter;stroke-miterlimit:4;stroke-dasharray:none;stroke-dashoffset:0;stroke-opacity:1"
       id="path1197-47"
       sodipodi:sides="3"
       sodipodi:cx="93.704597"
       sodipodi:cy="206.49152"
       sodipodi:r1="11.365196"
       sodipodi:r2="5.6825976"
       sodipodi:arg1="0.52359878"
       sodipodi:arg2="1.5707963"
       inkscape:flatsided="false"
       inkscape:rounded="0"
       inkscape:randomized="0"
       d="m 103.54715,212.17411 -9.842552,0 -9.842549,0 4.921274,-8.52389 4.921275,-8.5239 4.921273,8.5239 z"
       inkscape:transform-center-x="-0.40808118"
       inkscape:transform-center-y="-2.8035745e-006"
       transform="matrix(0,0.04684703,-0.14362445,0,118.87377,279.96437)" />
    <path
       sodipodi:type="star"
       style="opacity:1;vector-effect:none;fill:#000000;fill-opacity:1;stroke:#000000;stroke-width:3.12101316;stroke-linecap:butt;stroke-linejoin:miter;stroke-miterlimit:4;stroke-dasharray:none;stroke-dashoffset:0;stroke-opacity:1"
       id="path1197-0"
       sodipodi:sides="3"
       sodipodi:cx="93.704597"
       sodipodi:cy="206.49152"
       sodipodi:r1="11.365196"
       sodipodi:r2="5.6825976"
       sodipodi:arg1="0.52359878"
       sodipodi:arg2="1.5707963"
       inkscape:flatsided="false"
       inkscape:rounded="0"
       inkscape:randomized="0"
       d="m 103.54715,212.17411 -9.842552,0 -9.842549,0 4.921274,-8.52389 4.921275,-8.5239 4.921273,8.5239 z"
       inkscape:transform-center-x="2.8120102e-006"
       inkscape:transform-center-y="-0.40808447"
       transform="matrix(0.04684703,0,0,0.14362445,5.6102179,150.50297)" />
    <path
       sodipodi:type="star"
       style="opacity:1;vector-effect:none;fill:#000000;fill-opacity:1;stroke:#000000;stroke-width:3.12101316;stroke-linecap:butt;stroke-linejoin:miter;stroke-miterlimit:4;stroke-dasharray:none;stroke-dashoffset:0;stroke-opacity:1"
       id="path1197-0-9"
       sodipodi:sides="3"
       sodipodi:cx="93.704597"
       sodipodi:cy="206.49152"
       sodipodi:r1="11.365196"
       sodipodi:r2="5.6825976"
       sodipodi:arg1="0.52359878"
       sodipodi:arg2="1.5707963"
       inkscape:flatsided="false"
       inkscape:rounded="0"
       inkscape:randomized="0"
       d="m 103.54715,212.17411 -9.842552,0 -9.842549,0 4.921274,-8.52389 4.921275,-8.5239 4.921273,8.5239 z"
       inkscape:transform-center-x="2.8120102e-006"
       inkscape:transform-center-y="-0.40808447"
       transform="matrix(0.04684703,0,0,0.14362445,105.61022,150.56653)" />
    <path
       sodipodi:type="star"
       style="opacity:1;vector-effect:none;fill:#000000;fill-opacity:1;stroke:#000000;stroke-width:3.12101316;stroke-linecap:butt;stroke-linejoin:miter;stroke-miterlimit:4;stroke-dasharray:none;stroke-dashoffset:0;stroke-opacity:1"
       id="path1197-0-7"
       sodipodi:sides="3"
       sodipodi:cx="93.704597"
       sodipodi:cy="206.49152"
       sodipodi:r1="11.365196"
       sodipodi:r2="5.6825976"
       sodipodi:arg1="0.52359878"
       sodipodi:arg2="1.5707963"
       inkscape:flatsided="false"
       inkscape:rounded="0"
       inkscape:randomized="0"
       d="m 103.54715,212.17411 -9.842552,0 -9.842549,0 4.921274,-8.52389 4.921275,-8.5239 4.921273,8.5239 z"
       inkscape:transform-center-x="2.8120102e-006"
       inkscape:transform-center-y="-0.40808447"
       transform="matrix(0.04684703,0,0,0.14362445,105.61022,210.50297)" />
    <path
       sodipodi:type="star"
       style="opacity:1;vector-effect:none;fill:#000000;fill-opacity:1;stroke:#000000;stroke-width:3.12101316;stroke-linecap:butt;stroke-linejoin:miter;stroke-miterlimit:4;stroke-dasharray:none;stroke-dashoffset:0;stroke-opacity:1"
       id="path1197-0-8"
       sodipodi:sides="3"
       sodipodi:cx="93.704597"
       sodipodi:cy="206.49152"
       sodipodi:r1="11.365196"
       sodipodi:r2="5.6825976"
       sodipodi:arg1="0.52359878"
       sodipodi:arg2="1.5707963"
       inkscape:flatsided="false"
       inkscape:rounded="0"
       inkscape:randomized="0"
       d="m 103.54715,212.17411 -9.842552,0 -9.842549,0 4.921274,-8.52389 4.921275,-8.5239 4.921273,8.5239 z"
       inkscape:transform-center-x="2.8120102e-006"
       inkscape:transform-center-y="-0.40808447"
       transform="matrix(0.04684703,0,0,0.14362445,5.6102179,210.50742)" />
    <path
       style="fill:none;stroke:#000000;stroke-width:0.5;stroke-linecap:butt;stroke-linejoin:miter;stroke-miterlimit:4;stroke-dasharray:none;stroke-opacity:1"
       d="m 10,249.35415 c 5.861031,0 11.721798,0 14.928013,0 3.206215,0 3.757878,0 4.007851,4.16653 0.249973,4.16653 0.19852,12.49987 0.46504,16.66667 0.266521,4.1668 0.85091,4.1668 1.455201,0.001 0.604291,-4.16568 1.229386,-12.50128 2.515961,-16.6678 1.286575,-4.16653 3.234558,-4.16653 5.282826,-4.16653 2.048267,0 4.196821,0 6.345108,0"
       id="path1259"
       inkscape:connector-curvature="0"
       inkscape:path-effect="#path-effect1261"
       inkscape:original-d="m 10,249.35415 c 5.861031,-2.6e-4 11.721798,-2.7e-4 17.5823,0 0.551928,-2.6e-4 1.103591,-2.7e-4 1.654988,0 -0.05119,8.33306 -0.102641,16.6664 -0.154359,25 0.584496,-2.7e-4 1.168885,-2.7e-4 1.752692,0 0.625019,-8.33133 1.250113,-16.66693 1.874773,-25 1.948247,-2.7e-4 3.89623,-2.7e-4 5.843948,0 2.148817,-2.7e-4 4.297371,-2.6e-4 6.445658,0"
       sodipodi:nodetypes="cccccccc" />
    <g
       aria-label="B"
       style="font-style:normal;font-weight:normal;font-size:8.46666622px;line-height:1.25;font-family:sans-serif;letter-spacing:0px;word-spacing:0px;writing-mode:lr-tb;direction:ltr;fill:#000000;fill-opacity:1;stroke:none;stroke-width:0.26458332"
       id="text1309"
       transform="translate(0,-2.6458334)">
      <path
         d="m 107.74352,186.75607 q -0.33418,0.22393 -0.69936,0.32039 -0.36518,0.093 -0.89917,0.093 h -1.88446 l 1.18167,-5.12975 h 1.4745 q 0.56155,0 0.83371,0.0379 0.27561,0.0379 0.50298,0.1757 0.18948,0.11713 0.2825,0.29972 0.0965,0.17915 0.0965,0.39963 0,0.44442 -0.25149,0.78548 -0.25149,0.34107 -0.69591,0.5271 v 0.0276 q 0.41341,0.093 0.63045,0.34796 0.22049,0.25494 0.22049,0.65457 0,0.43752 -0.22049,0.83027 -0.21704,0.38929 -0.57188,0.63045 z m 0.14814,-3.61391 q 0,-0.14469 -0.0482,-0.23771 -0.0482,-0.0965 -0.13781,-0.15847 -0.14469,-0.0965 -0.36173,-0.12058 -0.21704,-0.0276 -0.56155,-0.0276 h -0.77859 l -0.3514,1.52273 h 0.89572 q 0.29628,0 0.51677,-0.0413 0.22048,-0.0448 0.38585,-0.13781 0.21359,-0.12402 0.32728,-0.35139 0.11369,-0.23083 0.11369,-0.44787 z m -0.0758,2.20142 q 0,-0.19293 -0.0655,-0.31006 -0.0655,-0.12058 -0.23427,-0.22393 -0.1378,-0.0861 -0.35484,-0.11369 -0.2136,-0.0276 -0.596,-0.0276 h -1.03698 l -0.4513,1.94303 h 0.94051 q 0.45819,0 0.74414,-0.0482 0.28938,-0.0517 0.49954,-0.17914 0.27216,-0.16192 0.41341,-0.44097 0.14125,-0.2825 0.14125,-0.59945 z"
         style="font-style:italic;font-size:7.05555534px;stroke-width:0.26458332"
         id="path1533"
         inkscape:connector-curvature="0" />
    </g>
    <g
       aria-label="B"
       style="font-style:normal;font-weight:normal;font-size:8.46666622px;line-height:1.25;font-family:sans-serif;letter-spacing:0px;word-spacing:0px;writing-mode:lr-tb;direction:ltr;fill:#000000;fill-opacity:1;stroke:none;stroke-width:0.26458332"
       id="text1313"
       transform="translate(0,-2.6458334)">
      <path
         d="m 7.5013879,186.6108 q -0.3341742,0.22394 -0.6993544,0.3204 -0.3651801,0.093 -0.8991698,0.093 H 4.0183965 l 1.1816677,-5.12975 H 6.674565 q 0.5615506,0 0.8337131,0.0379 0.2756076,0.0379 0.5029839,0.1757 0.1894803,0.11714 0.2824978,0.29973 0.096463,0.17914 0.096463,0.39963 0,0.44442 -0.2514919,0.78548 -0.251492,0.34107 -0.6959093,0.5271 v 0.0276 q 0.4134114,0.093 0.6304524,0.34796 0.2204861,0.25493 0.2204861,0.65456 0,0.43753 -0.2204861,0.83027 -0.217041,0.3893 -0.5718858,0.63045 z m 0.1481391,-3.6139 q 0,-0.14469 -0.048231,-0.23771 -0.048231,-0.0965 -0.1378038,-0.15848 -0.144694,-0.0965 -0.3617351,-0.12058 -0.217041,-0.0276 -0.5615505,-0.0276 H 5.7616147 l -0.3513997,1.52274 h 0.8957248 q 0.2962782,0 0.5167643,-0.0413 0.2204861,-0.0448 0.3858507,-0.13781 0.2135959,-0.12402 0.3272841,-0.3514 0.1136881,-0.23082 0.1136881,-0.44786 z m -0.075792,2.20142 q 0,-0.19293 -0.065457,-0.31006 -0.065457,-0.12058 -0.2342665,-0.22393 -0.1378038,-0.0861 -0.3548448,-0.11369 -0.2135959,-0.0276 -0.5960015,-0.0276 H 5.2861916 l -0.4513075,1.94303 h 0.940511 q 0.4581977,0 0.7441406,-0.0482 0.289388,-0.0517 0.4995389,-0.17915 0.2721625,-0.16192 0.4134114,-0.44097 0.1412489,-0.2825 0.1412489,-0.59944 z"
         style="font-style:italic;font-size:7.05555534px;stroke-width:0.26458332"
         id="path1498"
         inkscape:connector-curvature="0" />
    </g>
    <text
       xml:space="preserve"
       style="font-style:normal;font-weight:normal;font-size:7.05555534px;line-height:1.25;font-family:sans-serif;letter-spacing:0px;word-spacing:0px;writing-mode:lr-tb;direction:ltr;fill:#000000;fill-opacity:1;stroke:none;stroke-width:0.26458332"
       x="103.00242"
       y="192.3203"
       id="text1317"><tspan
         sodipodi:role="line"
         id="tspan1315"
         x="103.00242"
         y="192.3203"
         style="font-style:italic;stroke-width:0.26458332">O</tspan></text>
    <g
       aria-label="B2"
       style="font-style:normal;font-weight:normal;font-size:7.05555534px;line-height:1.25;font-family:sans-serif;letter-spacing:0px;word-spacing:0px;writing-mode:lr-tb;direction:ltr;fill:#000000;fill-opacity:1;stroke:none;stroke-width:0.26458332"
       id="text1321"
       transform="translate(0,-2.6458334)">
      <path
         d="m 105.12851,223.62049 q -0.33418,0.22393 -0.69936,0.3204 -0.36518,0.093 -0.89917,0.093 h -1.88447 l 1.18167,-5.12975 h 1.4745 q 0.56155,0 0.83372,0.0379 0.2756,0.0379 0.50298,0.1757 0.18948,0.11714 0.2825,0.29973 0.0965,0.17914 0.0965,0.39963 0,0.44442 -0.25149,0.78548 -0.25149,0.34106 -0.69591,0.5271 v 0.0276 q 0.41341,0.093 0.63045,0.34796 0.22049,0.25493 0.22049,0.65456 0,0.43753 -0.22049,0.83027 -0.21704,0.3893 -0.57188,0.63045 z m 0.14814,-3.6139 q 0,-0.1447 -0.0482,-0.23771 -0.0482,-0.0965 -0.1378,-0.15848 -0.14469,-0.0965 -0.36174,-0.12058 -0.21704,-0.0276 -0.56155,-0.0276 h -0.77859 l -0.3514,1.52274 h 0.89573 q 0.29628,0 0.51676,-0.0414 0.22049,-0.0448 0.38585,-0.1378 0.2136,-0.12402 0.32729,-0.3514 0.11369,-0.23082 0.11369,-0.44786 z m -0.0758,2.20141 q 0,-0.19292 -0.0654,-0.31005 -0.0655,-0.12058 -0.23427,-0.22394 -0.1378,-0.0861 -0.35485,-0.11368 -0.21359,-0.0276 -0.596,-0.0276 h -1.03697 l -0.45131,1.94303 h 0.94051 q 0.4582,0 0.74414,-0.0482 0.28939,-0.0517 0.49954,-0.17915 0.27217,-0.16192 0.41341,-0.44097 0.14125,-0.2825 0.14125,-0.59945 z"
         style="font-style:italic;stroke-width:0.26458332"
         id="path1528"
         inkscape:connector-curvature="0" />
      <path
         d="m 108.57687,225.44502 h -2.25946 l 0.10525,-0.46802 q 0.31574,-0.23065 0.53519,-0.39188 0.22169,-0.16347 0.53296,-0.41203 0.54639,-0.43667 0.77032,-0.7345 0.22617,-0.30007 0.22617,-0.58222 0,-0.21945 -0.15675,-0.33142 -0.15451,-0.11196 -0.3986,-0.11196 -0.1993,0 -0.45682,0.0761 -0.25528,0.0739 -0.5016,0.21498 h -0.0224 l 0.0896,-0.45458 q 0.1769,-0.0806 0.45234,-0.14332 0.27543,-0.0649 0.52847,-0.0649 0.45011,0 0.69419,0.19706 0.24409,0.19482 0.24409,0.52848 0,0.36053 -0.20602,0.68299 -0.20602,0.32022 -0.72106,0.74793 -0.30678,0.25304 -0.63148,0.49265 -0.32247,0.23737 -0.53296,0.3874 h 1.79145 z"
         style="font-style:italic;font-size:64.99999762%;baseline-shift:sub"
         id="path1530"
         inkscape:connector-curvature="0" />
    </g>
    <g
       aria-label="B1"
       style="font-style:normal;font-weight:normal;font-size:7.05555534px;line-height:1.25;font-family:sans-serif;letter-spacing:0px;word-spacing:0px;writing-mode:lr-tb;direction:ltr;fill:#000000;fill-opacity:1;stroke:none;stroke-width:0.26458332"
       id="text1327"
       transform="translate(0,-2.6458334)">
      <path
         d="m 5.9033249,217.74882 q -0.3341742,0.22393 -0.6993543,0.32039 -0.3651802,0.093 -0.8991699,0.093 H 2.4203335 l 1.1816677,-5.12975 H 5.076502 q 0.5615506,0 0.8337131,0.0379 0.2756076,0.0379 0.5029839,0.1757 0.1894803,0.11713 0.2824979,0.29972 0.096463,0.17915 0.096463,0.39963 0,0.44442 -0.2514919,0.78549 -0.251492,0.34106 -0.6959093,0.5271 v 0.0276 q 0.4134114,0.093 0.6304524,0.34795 0.2204862,0.25494 0.2204862,0.65457 0,0.43753 -0.2204862,0.83027 -0.217041,0.38929 -0.5718858,0.63045 z m 0.1481391,-3.61391 q 0,-0.14469 -0.048231,-0.23771 -0.048231,-0.0965 -0.1378038,-0.15847 -0.144694,-0.0965 -0.361735,-0.12058 -0.2170411,-0.0276 -0.5615506,-0.0276 H 4.1635517 l -0.3513997,1.52273 h 0.8957248 q 0.2962782,0 0.5167643,-0.0413 0.2204861,-0.0448 0.3858507,-0.1378 0.2135959,-0.12403 0.3272841,-0.3514 0.1136881,-0.23082 0.1136881,-0.44787 z m -0.075792,2.20142 q 0,-0.19292 -0.065457,-0.31006 -0.065457,-0.12058 -0.2342665,-0.22393 -0.1378038,-0.0861 -0.3548448,-0.11369 -0.2135959,-0.0276 -0.5960015,-0.0276 H 3.6881286 l -0.4513075,1.94304 h 0.940511 q 0.4581977,0 0.7441406,-0.0482 0.289388,-0.0517 0.4995389,-0.17914 0.2721625,-0.16192 0.4134114,-0.44097 0.1412489,-0.2825 0.141249,-0.59945 z"
         style="font-style:italic;stroke-width:0.26458332"
         id="path1501"
         inkscape:connector-curvature="0" />
      <path
         d="M 9.1725481,219.57334 H 7.3631842 l 0.076137,-0.3247 h 0.6852294 l 0.523999,-2.26618 H 7.9543625 l 0.06494,-0.28887 q 0.3874009,0 0.6001355,-0.10749 0.214974,-0.10973 0.2866319,-0.35829 h 0.3493327 l -0.696426,3.02083 h 0.689708 z"
         style="font-style:italic;font-size:64.99999762%;baseline-shift:sub"
         id="path1503"
         inkscape:connector-curvature="0" />
    </g>
    <g
       aria-label="O"
       style="font-style:normal;font-weight:normal;font-size:7.05555534px;line-height:1.25;font-family:sans-serif;letter-spacing:0px;word-spacing:0px;writing-mode:lr-tb;direction:ltr;fill:#000000;fill-opacity:1;stroke:none;stroke-width:0.26458332"
       id="text1333"
       transform="translate(0,-2.6458334)">
      <path
         d="m 9.4524808,232.02722 q 0,0.66835 -0.2032606,1.28846 -0.1998156,0.62012 -0.5822212,1.0921 -0.3927408,0.48576 -0.9439561,0.76481 -0.5512153,0.27561 -1.2436794,0.27561 -0.9163954,0 -1.4331597,-0.49954 -0.5167643,-0.50298 -0.5167643,-1.42627 0,-0.7028 0.2067057,-1.31258 0.2067057,-0.60978 0.5960015,-1.08865 0.3789605,-0.46164 0.937066,-0.73725 0.5615505,-0.27905 1.229899,-0.27905 0.9129503,0 1.4331597,0.49953 0.5202094,0.4961 0.5202094,1.42283 z m -1.3056912,2.03949 q 0.2893881,-0.39274 0.4375272,-0.87505 0.1481391,-0.48576 0.1481391,-1.06798 0,-0.7028 -0.3548449,-1.07831 -0.3513997,-0.37896 -0.9852972,-0.37896 -0.4926487,0 -0.8888347,0.22737 -0.3961859,0.22393 -0.6821288,0.60978 -0.2756077,0.37896 -0.4237468,0.88195 -0.1481391,0.49954 -0.1481391,1.03008 0,0.70969 0.3513998,1.0921 0.3548448,0.37896 0.9921874,0.37896 0.4857585,0 0.8819444,-0.22393 0.3996311,-0.22393 0.6717936,-0.59601 z"
         style="font-style:italic;stroke-width:0.26458332"
         id="path1506"
         inkscape:connector-curvature="0" />
    </g>
    <g
       aria-label="t"
       style="font-style:normal;font-weight:normal;font-size:7.05555534px;line-height:1.25;font-family:sans-serif;letter-spacing:0px;word-spacing:0px;writing-mode:lr-tb;direction:ltr;fill:#000000;fill-opacity:1;stroke:none;stroke-width:0.26458332"
       id="text1337"
       transform="translate(0,-2.6458334)">
      <path
         d="m 194.69014,190.45102 -0.11713,0.52366 h -1.3367 l -0.41341,1.77422 q -0.0344,0.13436 -0.062,0.31006 -0.0276,0.17225 -0.0276,0.27561 0,0.25149 0.12747,0.37551 0.12747,0.12058 0.47198,0.12058 0.14125,0 0.33417,-0.0482 0.19637,-0.0482 0.26527,-0.0758 h 0.0344 l -0.12057,0.5581 q -0.19293,0.0482 -0.41342,0.0792 -0.21704,0.031 -0.38585,0.031 -0.47542,0 -0.73725,-0.20671 -0.25838,-0.21015 -0.25838,-0.66146 0,-0.11024 0.0138,-0.21704 0.0172,-0.11024 0.0448,-0.24805 l 0.47887,-2.06705 h -0.43753 l 0.11713,-0.52366 h 0.43753 l 0.25838,-1.10587 h 0.64768 l -0.25838,1.10587 z"
         style="font-style:italic;stroke-width:0.26458332"
         id="path1546"
         inkscape:connector-curvature="0" />
    </g>
    <g
       aria-label="t"
       style="font-style:normal;font-weight:normal;font-size:7.05555534px;line-height:1.25;font-family:sans-serif;letter-spacing:0px;word-spacing:0px;writing-mode:lr-tb;direction:ltr;fill:#000000;fill-opacity:1;stroke:none;stroke-width:0.26458332"
       id="text1341"
       transform="translate(0,-2.6458334)">
      <path
         d="m 94.460065,230.62156 -0.117133,0.52365 h -1.336697 l -0.413412,1.77422 q -0.03445,0.13436 -0.06201,0.31006 -0.02756,0.17226 -0.02756,0.27561 0,0.25149 0.127468,0.37552 0.127469,0.12057 0.471979,0.12057 0.141248,0 0.334174,-0.0482 0.19637,-0.0482 0.265272,-0.0758 h 0.03445 l -0.120578,0.55811 q -0.192926,0.0482 -0.413412,0.0792 -0.217041,0.031 -0.38585,0.031 -0.475424,0 -0.737251,-0.20671 -0.258382,-0.21015 -0.258382,-0.66146 0,-0.11024 0.01378,-0.21704 0.01723,-0.11024 0.04479,-0.24804 l 0.478868,-2.06706 H 91.92103 l 0.117133,-0.52365 h 0.437527 l 0.258382,-1.10588 h 0.647678 l -0.258382,1.10588 z"
         style="font-style:italic;stroke-width:0.26458332"
         id="path1525"
         inkscape:connector-curvature="0" />
    </g>
    <g
       aria-label="V"
       style="font-style:normal;font-weight:normal;font-size:7.05555534px;line-height:1.25;font-family:sans-serif;letter-spacing:0px;word-spacing:0px;writing-mode:lr-tb;direction:ltr;fill:#000000;fill-opacity:1;stroke:none;stroke-width:0.26458332"
       id="text1345"
       transform="translate(0,-2.6458334)">
      <path
         d="m 8.8989277,241.89447 -3.0523545,5.12975 H 4.937068 l -0.6821288,-5.12975 h 0.7096896 l 0.5615506,4.50618 2.6458332,-4.50618 z"
         style="font-style:italic;stroke-width:0.26458332"
         id="path1509"
         inkscape:connector-curvature="0" />
    </g>
    <g
       aria-label="O"
       style="font-style:normal;font-weight:normal;font-size:7.05555534px;line-height:1.25;font-family:sans-serif;letter-spacing:0px;word-spacing:0px;writing-mode:lr-tb;direction:ltr;fill:#000000;fill-opacity:1;stroke:none;stroke-width:0.26458332"
       id="text1349"
       transform="translate(0,-2.6458334)">
      <path
         d="m 9.1619239,286.5914 q 0,0.66835 -0.2032606,1.28846 -0.1998156,0.62012 -0.5822212,1.0921 -0.3927408,0.48576 -0.9439561,0.76481 -0.5512153,0.27561 -1.2436794,0.27561 -0.9163954,0 -1.4331597,-0.49954 -0.5167643,-0.50299 -0.5167643,-1.42627 0,-0.7028 0.2067057,-1.31258 0.2067057,-0.60978 0.5960015,-1.08865 0.3789605,-0.46165 0.9370659,-0.73725 0.5615506,-0.27906 1.2298991,-0.27906 0.9129503,0 1.4331597,0.49954 0.5202094,0.4961 0.5202094,1.42283 z m -1.3056912,2.03949 q 0.289388,-0.39274 0.4375271,-0.87505 0.1481391,-0.48576 0.1481391,-1.06798 0,-0.7028 -0.3548448,-1.07832 -0.3513997,-0.37896 -0.9852973,-0.37896 -0.4926486,0 -0.8888346,0.22738 -0.3961859,0.22393 -0.6821289,0.60978 -0.2756076,0.37896 -0.4237467,0.88195 -0.1481391,0.49954 -0.1481391,1.03008 0,0.70969 0.3513997,1.0921 0.3548449,0.37896 0.9921875,0.37896 0.4857585,0 0.8819444,-0.22394 0.3996311,-0.22393 0.6717936,-0.596 z"
         style="font-style:italic;stroke-width:0.26458332"
         id="path1512"
         inkscape:connector-curvature="0" />
    </g>
    <g
       aria-label="(a)"
       style="font-style:normal;font-weight:normal;font-size:7.05555534px;line-height:1.25;font-family:sans-serif;letter-spacing:0px;word-spacing:0px;writing-mode:lr-tb;direction:ltr;fill:#000000;fill-opacity:1;stroke:none;stroke-width:0.26458332"
       id="text1353"
       transform="translate(0.10895884,1.4929926)">
      <path
         d="m 46.971119,294.93268 h -0.788927 q -0.609782,-0.69935 -0.947401,-1.52617 -0.33762,-0.82683 -0.33762,-1.8638 0,-1.03697 0.33762,-1.8638 0.337619,-0.82682 0.947401,-1.52617 h 0.788927 v 0.0344 q -0.279053,0.25149 -0.53399,0.58222 -0.251492,0.32728 -0.468533,0.76481 -0.206706,0.42375 -0.337619,0.93362 -0.127469,0.50988 -0.127469,1.07487 0,0.58911 0.124024,1.07832 0.127468,0.4892 0.341064,0.93017 0.206706,0.42375 0.471978,0.76481 0.265273,0.34451 0.530545,0.58222 z"
         style="stroke-width:0.26458332"
         id="path1515"
         inkscape:connector-curvature="0" />
      <path
         d="m 51.112123,293.51331 h -0.644232 v -0.40997 q -0.08613,0.0586 -0.234267,0.16536 -0.144694,0.10336 -0.282498,0.16537 -0.161919,0.0792 -0.37207,0.13091 -0.210151,0.0551 -0.492649,0.0551 -0.520209,0 -0.881944,-0.34451 -0.361735,-0.34451 -0.361735,-0.8785 0,-0.43752 0.186035,-0.70624 0.18948,-0.27216 0.537435,-0.42719 0.3514,-0.15503 0.844048,-0.21015 0.492649,-0.0551 1.057645,-0.0827 v -0.0999 q 0,-0.22049 -0.07924,-0.36518 -0.07579,-0.1447 -0.220486,-0.22738 -0.137804,-0.0792 -0.330729,-0.1068 -0.192925,-0.0276 -0.403076,-0.0276 -0.254937,0 -0.568441,0.0689 -0.313503,0.0655 -0.647678,0.19293 h -0.03445 v -0.65801 q 0.189481,-0.0517 0.54777,-0.11369 0.35829,-0.062 0.706245,-0.062 0.406521,0 0.706245,0.0689 0.303168,0.0655 0.523654,0.22737 0.217041,0.15848 0.330729,0.40997 0.113688,0.25149 0.113688,0.62356 z m -0.644232,-0.94741 v -1.07142 q -0.296279,0.0172 -0.699355,0.0517 -0.399631,0.0344 -0.633897,0.0999 -0.279053,0.0792 -0.451308,0.24805 -0.172255,0.16537 -0.172255,0.4582 0,0.33073 0.199816,0.49954 0.199815,0.16536 0.609782,0.16536 0.341064,0 0.623562,-0.13091 0.282498,-0.13436 0.523655,-0.3204 z"
         style="stroke-width:0.26458332"
         id="path1517"
         inkscape:connector-curvature="0" />
      <path
         d="m 54.309172,291.54271 q 0,1.03697 -0.337619,1.8638 -0.33762,0.82682 -0.947402,1.52617 h -0.788926 v -0.0344 q 0.265272,-0.23771 0.530544,-0.58222 0.268718,-0.34106 0.471978,-0.76481 0.213596,-0.44097 0.33762,-0.93017 0.127468,-0.48921 0.127468,-1.07832 0,-0.56499 -0.127468,-1.07487 -0.127469,-0.50987 -0.33762,-0.93362 -0.217041,-0.43753 -0.471978,-0.76481 -0.251492,-0.33073 -0.530544,-0.58222 v -0.0344 h 0.788926 q 0.609782,0.69935 0.947402,1.52617 0.337619,0.82683 0.337619,1.8638 z"
         style="stroke-width:0.26458332"
         id="path1519"
         inkscape:connector-curvature="0" />
    </g>
    <g
       aria-label="(b)"
       style="font-style:normal;font-weight:normal;font-size:7.05555534px;line-height:1.25;font-family:sans-serif;letter-spacing:0px;word-spacing:0px;writing-mode:lr-tb;direction:ltr;fill:#000000;fill-opacity:1;stroke:none;stroke-width:0.26458332"
       id="text1357"
       transform="translate(-0.20545475,1.3477626)">
      <path
         d="m 147.24957,295.07798 h -0.78892 q -0.60979,-0.69936 -0.94741,-1.52618 -0.33761,-0.82682 -0.33761,-1.86379 0,-1.03698 0.33761,-1.8638 0.33762,-0.82682 0.94741,-1.52618 h 0.78892 v 0.0344 q -0.27905,0.25149 -0.53399,0.58222 -0.25149,0.32729 -0.46853,0.76481 -0.20671,0.42375 -0.33762,0.93363 -0.12747,0.50987 -0.12747,1.07487 0,0.58911 0.12403,1.07831 0.12746,0.4892 0.34106,0.93018 0.20671,0.42374 0.47198,0.76481 0.26527,0.34451 0.53054,0.58222 z"
         style="stroke-width:0.26458332"
         id="path1552"
         inkscape:connector-curvature="0" />
      <path
         d="m 151.78676,291.70523 q 0,0.48231 -0.1378,0.86816 -0.13436,0.38586 -0.36518,0.64768 -0.2446,0.27217 -0.53744,0.40997 -0.29283,0.13436 -0.64423,0.13436 -0.32728,0 -0.57188,-0.0792 -0.24461,-0.0758 -0.48232,-0.20671 l -0.0413,0.17915 h -0.60634 v -5.36057 h 0.64768 v 1.91547 q 0.27216,-0.22393 0.57878,-0.36518 0.30661,-0.14469 0.68902,-0.14469 0.68213,0 1.07487,0.52365 0.39618,0.52366 0.39618,1.47795 z m -0.66835,0.0172 q 0,-0.68902 -0.22737,-1.04387 -0.22738,-0.35829 -0.73381,-0.35829 -0.28249,0 -0.57188,0.12403 -0.28939,0.12057 -0.53744,0.3135 v 2.20486 q 0.27561,0.12402 0.47198,0.17226 0.19982,0.0482 0.45131,0.0482 0.53743,0 0.8406,-0.3514 0.30661,-0.35485 0.30661,-1.10932 z"
         style="stroke-width:0.26458332"
         id="path1554"
         inkscape:connector-curvature="0" />
      <path
         d="m 154.73921,291.68801 q 0,1.03697 -0.33762,1.86379 -0.33762,0.82682 -0.9474,1.52618 h -0.78893 v -0.0345 q 0.26527,-0.23771 0.53055,-0.58222 0.26871,-0.34107 0.47198,-0.76481 0.21359,-0.44098 0.33761,-0.93018 0.12747,-0.4892 0.12747,-1.07831 0,-0.565 -0.12747,-1.07487 -0.12746,-0.50988 -0.33761,-0.93363 -0.21705,-0.43752 -0.47198,-0.76481 -0.25149,-0.33073 -0.53055,-0.58222 v -0.0344 h 0.78893 q 0.60978,0.69936 0.9474,1.52618 0.33762,0.82682 0.33762,1.8638 z"
         style="stroke-width:0.26458332"
         id="path1556"
         inkscape:connector-curvature="0" />
    </g>
    <g
       aria-label="t"
       style="font-style:normal;font-weight:normal;font-size:7.05555534px;line-height:1.25;font-family:sans-serif;letter-spacing:0px;word-spacing:0px;writing-mode:lr-tb;direction:ltr;fill:#000000;fill-opacity:1;stroke:none;stroke-width:0.26458332"
       id="text1361"
       transform="translate(0,-2.6458334)">
      <path
         d="m 94.895887,285.62156 -0.117134,0.52365 h -1.336697 l -0.413411,1.77422 q -0.03445,0.13436 -0.06201,0.31006 -0.02756,0.17226 -0.02756,0.27561 0,0.25149 0.127469,0.37552 0.127469,0.12057 0.471978,0.12057 0.141249,0 0.334174,-0.0482 0.196371,-0.0482 0.265273,-0.0758 h 0.03445 l -0.120579,0.55811 q -0.192925,0.0482 -0.413411,0.0792 -0.217041,0.031 -0.385851,0.031 -0.475423,0 -0.73725,-0.20671 -0.258382,-0.21015 -0.258382,-0.66146 0,-0.11024 0.01378,-0.21704 0.01722,-0.11024 0.04479,-0.24804 l 0.478868,-2.06706 h -0.437527 l 0.117134,-0.52365 h 0.437527 l 0.258382,-1.10588 h 0.647678 l -0.258382,1.10588 z"
         style="font-style:italic;stroke-width:0.26458332"
         id="path1522"
         inkscape:connector-curvature="0" />
    </g>
    <g
       aria-label="t"
       style="font-style:normal;font-weight:normal;font-size:7.05555534px;line-height:1.25;font-family:sans-serif;letter-spacing:0px;word-spacing:0px;writing-mode:lr-tb;direction:ltr;fill:#000000;fill-opacity:1;stroke:none;stroke-width:0.26458332"
       id="text1365"
       transform="translate(0,-2.6458334)">
      <path
         d="m 194.55691,285.331 -0.11714,0.52365 h -1.3367 l -0.41341,1.77423 q -0.0344,0.13435 -0.062,0.31005 -0.0276,0.17226 -0.0276,0.27561 0,0.25149 0.12747,0.37552 0.12747,0.12058 0.47198,0.12058 0.14125,0 0.33417,-0.0482 0.19637,-0.0482 0.26527,-0.0758 h 0.0344 l -0.12057,0.55811 q -0.19293,0.0482 -0.41341,0.0792 -0.21705,0.031 -0.38586,0.031 -0.47542,0 -0.73725,-0.2067 -0.25838,-0.21016 -0.25838,-0.66146 0,-0.11025 0.0138,-0.21704 0.0172,-0.11025 0.0448,-0.24805 l 0.47887,-2.06706 h -0.43753 L 192.135,285.331 h 0.43753 l 0.25838,-1.10588 h 0.64768 l -0.25838,1.10588 z"
         style="font-style:italic;stroke-width:0.26458332"
         id="path1559"
         inkscape:connector-curvature="0" />
    </g>
    <g
       aria-label="O"
       style="font-style:normal;font-weight:normal;font-size:7.05555534px;line-height:1.25;font-family:sans-serif;letter-spacing:0px;word-spacing:0px;writing-mode:lr-tb;direction:ltr;fill:#000000;fill-opacity:1;stroke:none;stroke-width:0.26458332"
       id="text1369"
       transform="translate(0,-2.6458334)">
      <path
         d="m 108.96821,286.88195 q 0,0.66835 -0.20326,1.28847 -0.19982,0.62012 -0.58222,1.0921 -0.39274,0.48575 -0.94396,0.76481 -0.55121,0.2756 -1.24368,0.2756 -0.91639,0 -1.43316,-0.49953 -0.51676,-0.50299 -0.51676,-1.42627 0,-0.7028 0.20671,-1.31259 0.2067,-0.60978 0.596,-1.08865 0.37896,-0.46164 0.93706,-0.73725 0.56155,-0.27905 1.2299,-0.27905 0.91295,0 1.43316,0.49954 0.52021,0.49609 0.52021,1.42282 z m -1.30569,2.0395 q 0.28939,-0.39274 0.43753,-0.87505 0.14814,-0.48576 0.14814,-1.06798 0,-0.7028 -0.35485,-1.07832 -0.3514,-0.37896 -0.9853,-0.37896 -0.49264,0 -0.88883,0.22738 -0.39619,0.22393 -0.68213,0.60978 -0.27561,0.37896 -0.42375,0.88194 -0.14814,0.49954 -0.14814,1.03009 0,0.70969 0.3514,1.09209 0.35485,0.37896 0.99219,0.37896 0.48576,0 0.88195,-0.22393 0.39963,-0.22393 0.67179,-0.596 z"
         style="font-style:italic;stroke-width:0.26458332"
         id="path1549"
         inkscape:connector-curvature="0" />
    </g>
    <text
       xml:space="preserve"
       style="font-style:normal;font-weight:normal;font-size:7.05555534px;line-height:1.25;font-family:sans-serif;letter-spacing:0px;word-spacing:0px;writing-mode:lr-tb;direction:ltr;fill:#000000;fill-opacity:1;stroke:none;stroke-width:0.26458332"
       x="104.01937"
       y="242.34451"
       id="text1373"><tspan
         sodipodi:role="line"
         id="tspan1371"
         x="104.01937"
         y="242.34451"
         style="font-style:italic;stroke-width:0.26458332">V</tspan></text>
    <path
       style="fill:none;stroke:#000000;stroke-width:0.40000001;stroke-linecap:butt;stroke-linejoin:miter;stroke-miterlimit:4;stroke-dasharray:0.8, 0.8;stroke-dashoffset:0;stroke-opacity:1"
       d="m 10,214.35415 c 23.333597,0 46.666931,0 69.999998,0"
       id="path1375"
       inkscape:connector-curvature="0"
       inkscape:path-effect="#path-effect1377"
       inkscape:original-d="m 10,214.35415 c 23.333597,-2.7e-4 46.666931,-2.7e-4 69.999998,0" />
    <path
       style="fill:none;stroke:#000000;stroke-width:0.40000001;stroke-linecap:butt;stroke-linejoin:miter;stroke-miterlimit:4;stroke-dasharray:0.8, 0.8;stroke-dashoffset:0;stroke-opacity:1"
       d="M 30,214.35415 V 273.3464"
       id="path1381"
       inkscape:connector-curvature="0" />
    <path
       style="fill:none;stroke:#000000;stroke-width:0.40000001;stroke-linecap:butt;stroke-linejoin:miter;stroke-miterlimit:4;stroke-dasharray:0.8, 0.8;stroke-dashoffset:0;stroke-opacity:1"
       d="M 64.999999,214.35415 V 273.3464"
       id="path1383"
       inkscape:connector-curvature="0" />
    <path
       style="fill:none;stroke:#000000;stroke-width:0.40000001;stroke-linecap:butt;stroke-linejoin:miter;stroke-miterlimit:4;stroke-dasharray:0.8, 0.8;stroke-dashoffset:0;stroke-opacity:1"
       d="m 110,219.35415 h 70"
       id="path1385"
       inkscape:connector-curvature="0" />
    <path
       style="fill:none;stroke:#000000;stroke-width:0.40000001;stroke-linecap:butt;stroke-linejoin:miter;stroke-miterlimit:4;stroke-dasharray:0.8, 0.8;stroke-dashoffset:0;stroke-opacity:1"
       d="M 130,219.35415 V 273.3464"
       id="path1387"
       inkscape:connector-curvature="0" />
    <path
       style="fill:none;stroke:#000000;stroke-width:0.40000001;stroke-linecap:butt;stroke-linejoin:miter;stroke-miterlimit:4;stroke-dasharray:0.8, 0.8;stroke-dashoffset:0;stroke-opacity:1"
       d="M 165,219.35415 V 273.3464"
       id="path1389"
       inkscape:connector-curvature="0" />
    <path
       style="fill:none;stroke:#000000;stroke-width:0.5;stroke-linecap:butt;stroke-linejoin:miter;stroke-miterlimit:4;stroke-dasharray:none;stroke-opacity:1"
       d="m 44.999999,249.35428 c 5.861031,0 11.721798,0 14.928013,0 3.206215,0 3.757878,0 4.007851,4.16653 0.249973,4.16653 0.19852,12.49987 0.46504,16.66667 0.266521,4.1668 0.85091,4.1668 1.455201,0.001 0.604291,-4.16568 1.229386,-12.50128 2.515961,-16.6678 1.286575,-4.16653 3.234558,-4.16653 5.282826,-4.16653 2.048268,0 4.196822,0 6.345109,0"
       id="path1259-0"
       inkscape:connector-curvature="0"
       inkscape:path-effect="#path-effect1261-20"
       inkscape:original-d="m 44.999999,249.35428 c 5.861031,-2.6e-4 11.721798,-2.7e-4 17.5823,0 0.551928,-2.6e-4 1.103591,-2.7e-4 1.654988,0 -0.05119,8.33306 -0.102641,16.6664 -0.154359,25 0.584496,-2.6e-4 1.168885,-2.6e-4 1.752692,0 0.625019,-8.33133 1.250113,-16.66693 1.874773,-25 1.948247,-2.7e-4 3.89623,-2.7e-4 5.843947,0 2.148819,-2.7e-4 4.297373,-2.6e-4 6.44566,0"
       sodipodi:nodetypes="cccccccc" />
    <path
       style="fill:none;stroke:#000000;stroke-width:0.5;stroke-linecap:butt;stroke-linejoin:miter;stroke-miterlimit:4;stroke-dasharray:none;stroke-opacity:1"
       d="m 110,249.35428 c 5.86103,0 11.7218,0 14.92802,0 3.20621,0 3.75787,0 4.00784,4.16653 0.24998,4.16653 0.19852,12.49987 0.46505,16.66667 0.26652,4.1668 0.85091,4.1668 1.4552,0.001 0.60429,-4.16568 1.22938,-12.50128 2.51596,-16.6678 1.28657,-4.16653 3.23456,-4.16653 5.28282,-4.16653 2.04827,0 4.19683,0 6.34511,0"
       id="path1259-6"
       inkscape:connector-curvature="0"
       inkscape:path-effect="#path-effect1261-3"
       inkscape:original-d="m 110,249.35428 c 5.86103,-2.6e-4 11.7218,-2.7e-4 17.5823,0 0.55193,-2.6e-4 1.10359,-2.7e-4 1.65499,0 -0.0512,8.33306 -0.10264,16.6664 -0.15436,25 0.5845,-2.6e-4 1.16889,-2.6e-4 1.75269,0 0.62502,-8.33133 1.25012,-16.66693 1.87478,-25 1.94824,-2.7e-4 3.89623,-2.7e-4 5.84394,0 2.14882,-2.7e-4 4.29738,-2.6e-4 6.44566,0"
       sodipodi:nodetypes="cccccccc" />
    <path
       style="fill:none;stroke:#000000;stroke-width:0.5;stroke-linecap:butt;stroke-linejoin:miter;stroke-miterlimit:4;stroke-dasharray:none;stroke-opacity:1"
       d="m 145,249.35428 c 5.86103,0 11.72179,0 14.928,0 3.20622,0 3.75789,0 4.00786,4.16653 0.24997,4.16653 0.19852,12.49987 0.46504,16.66667 0.26652,4.1668 0.85091,4.1668 1.4552,0.001 0.60429,-4.16568 1.22939,-12.50128 2.51596,-16.6678 1.28658,-4.16653 3.23456,-4.16653 5.28283,-4.16653 2.04827,0 4.19682,0 6.34511,0"
       id="path1259-68"
       inkscape:connector-curvature="0"
       inkscape:path-effect="#path-effect1261-4"
       inkscape:original-d="m 145,249.35428 c 5.86103,-2.6e-4 11.72179,-2.7e-4 17.5823,0 0.55192,-2.6e-4 1.10359,-2.7e-4 1.65498,0 -0.0512,8.33306 -0.10264,16.6664 -0.15435,25 0.58449,-2.6e-4 1.16888,-2.6e-4 1.75269,0 0.62502,-8.33133 1.25011,-16.66693 1.87477,-25 1.94825,-2.7e-4 3.89623,-2.7e-4 5.84395,0 2.14882,-2.7e-4 4.29737,-2.6e-4 6.44566,0"
       sodipodi:nodetypes="cccccccc" />
    <g
       aria-label="光电探测器
磁共振信号"
       style="font-style:normal;font-weight:normal;font-size:7.05555534px;line-height:1.25;font-family:sans-serif;letter-spacing:0px;word-spacing:0px;writing-mode:lr-tb;direction:ltr;fill:#000000;fill-opacity:1;stroke:none;stroke-width:0.26458332"
       id="text1427"
       transform="translate(0,-2.6458334)">
      <path
         d="m 70.318315,258.30741 h 2.436372 v -2.30959 h 0.451996 v 2.30959 h 2.480469 v 0.4079 h -1.807986 v 1.77491 q 0,0.20946 0.05512,0.29214 0.07717,0.11025 0.325217,0.11025 h 0.545704 q 0.396875,0 0.43546,-0.29215 0.03858,-0.29765 0.06063,-0.78823 0.209462,0.0882 0.463021,0.16536 -0.04961,0.56775 -0.09922,0.81029 -0.04961,0.28112 -0.237022,0.38585 -0.176389,0.10473 -0.600825,0.10473 H 74.17131 q -0.424436,0 -0.595313,-0.18742 -0.143316,-0.15985 -0.143316,-0.53467 v -1.84106 H 72.36608 q -0.02205,1.14377 -0.443728,1.73081 -0.457509,0.63941 -1.427648,0.97565 -0.110243,-0.17087 -0.28112,-0.39136 0.970139,-0.33624 1.339453,-0.88194 0.350022,-0.46854 0.372071,-1.43316 h -1.606793 z m 3.461632,-0.62288 q 0.633898,-0.60633 1.124479,-1.26228 l 0.402387,0.28663 q -0.551215,0.65044 -1.185112,1.27331 z m -3.064757,-0.9977 0.336241,-0.26458 q 0.556728,0.61185 1.069358,1.22921 l -0.402387,0.30868 q -0.501606,-0.68902 -1.003212,-1.27331 z"
         style="font-size:5.64444447px;stroke-width:0.26458332"
         id="path1477"
         inkscape:connector-curvature="0" />
      <path
         d="m 76.172221,256.7144 h 2.033985 v -0.70556 h 0.457508 v 0.70556 h 2.039497 v 3.09783 h -2.039497 v 0.64492 q 0,0.33624 0.352778,0.33624 h 1.289844 q 0.374826,0 0.457509,-0.24805 0.08819,-0.27009 0.126779,-0.77721 0.159853,0.0717 0.457509,0.17087 -0.06615,0.44098 -0.148828,0.75517 -0.137804,0.51814 -0.749653,0.51814 h -1.466233 q -0.777213,0 -0.777213,-0.76067 v -0.63941 H 76.62973 v 0.38033 h -0.457509 z m 4.073481,2.68441 v -0.94257 h -1.581988 v 0.94257 z m -3.615972,0 h 1.576476 v -0.94257 H 76.62973 Z m 3.615972,-2.271 h -1.581988 v 0.93706 h 1.581988 z m -3.615972,0.93706 h 1.576476 v -0.93706 H 76.62973 Z"
         style="font-size:5.64444447px;stroke-width:0.26458332"
         id="path1479"
         inkscape:connector-curvature="0" />
      <path
         d="m 87.080772,260.60046 q -0.165365,0.20395 -0.297656,0.39688 -0.915018,-0.62839 -1.444184,-1.81901 v 2.25447 h -0.4079 v -2.23242 q -0.611849,1.11345 -1.593012,1.85208 -0.132292,-0.16536 -0.308681,-0.34175 0.937066,-0.56776 1.537891,-1.60404 h -1.218186 v -0.37483 h 1.581988 v -0.69453 h 0.4079 v 0.69453 h 1.626085 v 0.37483 h -1.273308 q 0.523655,1.05282 1.389063,1.49379 z m -5.534202,-1.63159 q 0.380339,-0.0992 0.744141,-0.20947 v -1.26779 h -0.677995 v -0.39688 h 0.677995 v -1.03628 h 0.407899 v 1.03628 h 0.556728 v 0.39688 H 82.69861 v 1.14101 q 0.253559,-0.0827 0.507118,-0.17087 0.0055,0.24804 0.03307,0.42995 -0.270095,0.0882 -0.540191,0.17638 v 1.68121 q 0,0.60634 -0.529166,0.61185 -0.20395,0.006 -0.523655,-0.006 -0.02205,-0.226 -0.06615,-0.45751 0.319705,0.0331 0.490582,0.0331 0.220486,0 0.220486,-0.28112 v -1.44418 q -0.341753,0.11575 -0.689019,0.23702 z m 1.907205,-2.56867 h 3.406511 v 0.92053 H 86.463411 V 256.764 H 83.85065 v 0.55673 h -0.396875 z m 1.918229,0.97014 0.286632,-0.28663 q 0.644922,0.52917 1.185113,1.0418 l -0.319705,0.33073 q -0.622873,-0.63941 -1.15204,-1.0859 z m -0.931553,-0.27009 0.352777,0.24253 q -0.369314,0.49058 -0.997699,1.1796 -0.143316,-0.12678 -0.330729,-0.27561 0.529166,-0.50711 0.975651,-1.14652 z"
         style="font-size:5.64444447px;stroke-width:0.26458332"
         id="path1481"
         inkscape:connector-curvature="0" />
      <path
         d="m 87.874523,259.13423 q 0.264583,0.1378 0.43546,0.20395 -0.369314,1.37804 -0.534679,2.03398 l -0.451997,-0.20946 q 0.325217,-0.92053 0.551216,-2.02847 z m -0.209462,-3.00963 q 0.336241,0.28111 0.837847,0.76067 -0.181901,0.17639 -0.330729,0.33073 -0.402387,-0.44648 -0.79375,-0.8158 z m -0.248047,1.41662 q 0.463021,0.37482 0.876432,0.74414 -0.143316,0.14883 -0.319705,0.34726 -0.496093,-0.49058 -0.826822,-0.78823 z m 4.602648,-1.52136 h 0.402387 v 4.69085 q 0,0.63389 -0.611849,0.63389 -0.264583,0 -0.628386,-0.011 -0.02205,-0.20395 -0.07717,-0.452 0.352778,0.0386 0.600825,0.0386 0.314193,0 0.314193,-0.31419 z m -0.474045,4.10105 h -0.385851 v -3.65456 h 0.385851 z m -2.937978,-3.79788 h 2.078082 v 3.48368 h -0.396875 v -3.09783 h -1.284332 v 3.09783 h -0.396875 z m 0.859896,0.8599 h 0.402387 v 1.36701 q 0,0.83785 -0.15434,1.34497 0.71658,0.55121 1.245746,0.99219 l -0.297656,0.33624 q -0.440972,-0.41893 -1.091406,-0.95912 -0.341754,0.678 -1.22921,1.19614 -0.121268,-0.17639 -0.270096,-0.35278 0.821311,-0.47404 1.124479,-1.05282 0.270096,-0.50161 0.270096,-1.49379 z"
         style="font-size:5.64444447px;stroke-width:0.26458332"
         id="path1483"
         inkscape:connector-curvature="0" />
      <path
         d="m 93.011848,258.30741 h 2.22691 q 0.08544,-0.20671 0.110243,-0.47956 l 0.396875,0.0551 q -0.03307,0.23151 -0.09646,0.42444 h 1.20165 q -0.220486,-0.15985 -0.465777,-0.3142 l 0.225998,-0.24804 q 0.363802,0.21497 0.655946,0.42995 l -0.124023,0.13229 h 1.028016 v 0.3638 h -2.127691 q 0.636654,0.62287 2.259983,0.5898 -0.132292,0.226 -0.225998,0.42444 -0.146072,-0.011 -0.28112,-0.0248 v 1.68396 h -0.385851 v -0.30316 h -1.179601 v 0.29765 h -0.38585 v -1.70325 h 1.75562 q -1.576475,-0.21222 -2.014691,-0.96463 h -0.09922 q -0.308681,0.65595 -2.000912,0.96463 h 1.763889 v 1.70325 h -0.38585 v -0.29765 h -1.163065 v 0.30316 h -0.38585 v -1.67569 q -0.146072,0.0276 -0.303169,0.0551 -0.08268,-0.16536 -0.214974,-0.39136 1.841059,-0.23702 2.210374,-0.66146 h -1.9954 z m 2.827735,-2.00643 h 1.951302 v 1.62609 h -0.385851 v -0.19293 h -1.179601 v 0.17088 h -0.38585 z m -2.530079,0 h 1.934766 v 1.60404 h -0.385851 v -0.17088 h -1.163064 v 0.226 h -0.385851 z m 4.09553,0.34176 h -1.179601 v 0.74965 h 1.179601 z m -2.546615,0 h -1.163064 v 0.74965 h 1.163064 z m 2.552127,3.33485 h -1.179601 v 0.72209 h 1.179601 z m -2.546614,0 h -1.163065 v 0.72209 h 1.163065 z"
         style="font-size:5.64444447px;stroke-width:0.26458332"
         id="path1485"
         inkscape:connector-curvature="0" />
      <path
         d="m 72.142838,265.79291 h 1.160308 q -0.325217,-0.46026 -0.587044,-0.76068 l 0.30868,-0.24253 q 0.28112,0.30317 0.644922,0.75516 l -0.34451,0.24805 h 0.901237 q 0.294901,-0.43546 0.606337,-0.99219 l 0.418924,0.226 q -0.270096,0.37483 -0.570508,0.76619 h 1.061089 v 0.35829 H 74.8245 q -0.308681,0.77446 -0.664214,1.50482 0.264583,-0.011 0.553971,-0.0358 0.151584,-0.39136 0.2949,-0.80753 l 0.380339,0.11575 q -0.451997,1.17409 -1.058334,2.40882 0.272852,-0.0193 0.680751,-0.0661 -0.08819,-0.22324 -0.184657,-0.46302 l 0.325217,-0.12678 q 0.330729,0.7276 0.578776,1.40009 l -0.385851,0.1378 q -0.09371,-0.30592 -0.21773,-0.63941 -0.843359,0.0992 -1.143771,0.15434 l -0.137804,-0.34175 q 0.159852,-0.15434 0.275608,-0.39688 0.234266,-0.48231 0.451996,-1.01699 -0.418924,0.0303 -0.782726,0.0744 l -0.126779,-0.33624 q 0.170877,-0.15434 0.286632,-0.39687 0.261827,-0.57878 0.463021,-1.16858 h -1.12448 q -0.366558,0.86541 -0.66697,1.46072 0.192925,0 0.482313,-0.022 0.154341,-0.36931 0.294901,-0.73863 l 0.396875,0.1323 q -0.429948,1.00321 -1.20165,2.51905 0.272852,-0.0138 0.755165,-0.0772 -0.110243,-0.2949 -0.23151,-0.60083 l 0.319705,-0.12126 q 0.253559,0.57326 0.501606,1.23472 l -0.369315,0.13229 q -0.05512,-0.16812 -0.112999,-0.339 -0.672482,0.0882 -1.237478,0.16812 l -0.137804,-0.33072 q 0.15434,-0.14332 0.292144,-0.40239 0.305925,-0.60909 0.578776,-1.2237 -0.374826,0.0496 -0.722092,0.0827 l -0.126779,-0.35829 q 0.170876,-0.15985 0.292144,-0.39136 0.239778,-0.4768 0.485069,-1.12448 h -0.738628 z m -1.934766,2.23242 q 0.603581,-1.00597 0.909505,-2.3151 h -0.777213 v -0.35278 h 1.956814 v 0.35278 h -0.777214 q -0.173632,0.69177 -0.407899,1.29535 h 0.931554 v 2.49701 H 71.15065 v 0.33624 h -0.374826 v -2.05879 q -0.14056,0.28663 -0.297656,0.54846 -0.115756,-0.14331 -0.270096,-0.30317 z m 1.460721,1.14102 v -1.8135 H 71.15065 v 1.8135 z"
         style="font-size:5.64444447px;stroke-width:0.26458332"
         id="path1487"
         inkscape:connector-curvature="0" />
      <path
         d="m 75.924175,267.87099 h 1.422135 v -1.52135 h -1.201649 v -0.41893 h 1.201649 v -1.05833 h 0.451996 v 1.05833 h 1.670183 v -1.06384 h 0.451996 v 1.06384 h 1.207162 v 0.41893 h -1.207162 v 1.52135 h 1.427648 v 0.41893 h -5.423958 z m 1.874131,0 h 1.670183 v -1.52135 h -1.670183 z m -0.02756,0.70005 0.341753,0.35277 q -0.915017,0.66697 -1.907205,1.23473 -0.121267,-0.17639 -0.292144,-0.38034 0.964627,-0.51263 1.857596,-1.20716 z m 1.344965,0.38033 0.28112,-0.34726 q 0.94809,0.56224 1.824522,1.16306 l -0.319705,0.40239 q -0.87092,-0.65595 -1.785937,-1.21819 z"
         style="font-size:5.64444447px;stroke-width:0.26458332"
         id="path1489"
         inkscape:connector-curvature="0" />
      <path
         d="m 86.584678,267.79382 0.286632,0.31971 q -0.457509,0.33073 -0.970139,0.66697 0.43546,0.66697 1.141016,0.97014 -0.104731,0.12678 -0.308681,0.39136 -1.322917,-0.73312 -1.708767,-2.51905 h -0.385851 v 1.96232 q 0.347266,-0.15985 0.804774,-0.39687 0.01654,0.18741 0.06615,0.40238 -0.440972,0.21498 -0.749653,0.37483 -0.248046,0.13229 -0.424435,0.2701 l -0.275608,-0.36381 q 0.192925,-0.19843 0.181901,-0.48507 v -1.76388 h -0.380338 q -0.04961,1.64813 -0.71658,2.60173 -0.154341,-0.1819 -0.325217,-0.3197 0.628385,-0.88746 0.628385,-2.60725 v -2.12769 h 3.400998 v 0.37482 h -2.982074 v 1.70326 h 3.037196 v 0.37483 h -1.488281 q 0.115755,0.46302 0.303168,0.83784 0.457509,-0.33624 0.865408,-0.66697 z m -5.049132,-0.0331 q 0.336241,-0.0992 0.694531,-0.21497 v -1.28434 h -0.644922 v -0.37482 h 0.644922 v -1.02526 h 0.418924 v 1.02526 h 0.584288 v 0.37482 h -0.584288 v 1.14102 q 0.275608,-0.10473 0.573264,-0.21497 0,0.26458 0.01102,0.42994 -0.286632,0.10473 -0.584288,0.20947 v 1.7694 q 0,0.57877 -0.490582,0.59531 -0.248047,0.011 -0.562239,0.006 -0.03307,-0.23151 -0.07166,-0.45751 0.303168,0.0331 0.496094,0.0331 0.209461,0 0.209461,-0.20947 v -1.58198 q -0.314192,0.11575 -0.633897,0.23702 z m 2.645833,-1.53789 h 2.463933 v 0.37483 h -2.463933 z"
         style="font-size:5.64444447px;stroke-width:0.26458332"
         id="path1491"
         inkscape:connector-curvature="0" />
      <path
         d="m 89.131294,268.23479 h 3.136415 v 2.01745 h -0.424436 v -0.33073 h -2.287544 v 0.33073 h -0.424435 z m -1.956815,-0.76618 q 0.810287,-1.20165 1.218186,-2.65686 l 0.429948,0.12126 q -0.239779,0.74139 -0.523654,1.36702 v 3.95221 h -0.4079 v -3.14468 q -0.253559,0.44373 -0.534679,0.81304 -0.08819,-0.23151 -0.181901,-0.45199 z m 4.668794,1.14101 h -2.287544 v 0.93707 h 2.287544 z m -3.075782,-3.05373 h 1.799718 q -0.165364,-0.28388 -0.344509,-0.56224 l 0.369314,-0.19293 q 0.198438,0.29766 0.391363,0.62839 l -0.239779,0.12678 h 1.904449 v 0.38585 h -3.880556 z m 0.303169,0.89848 h 3.25217 v 0.37483 h -3.25217 z m 0,0.88746 h 3.25217 v 0.37482 h -3.25217 z"
         style="font-size:5.64444447px;stroke-width:0.26458332"
         id="path1493"
         inkscape:connector-curvature="0" />
      <path
         d="m 93.695355,265.06531 h 3.742752 v 1.81901 h -0.43546 v -0.226 h -2.871832 v 0.25356 h -0.43546 z m 0.104731,3.50573 v -0.40239 l 0.239779,-0.56775 h -1.198894 v -0.40239 h 5.462544 v 0.40239 h -3.808898 l -0.237022,0.57326 h 3.290755 q -0.06615,0.63941 -0.12678,1.04731 -0.132291,0.89848 -1.036284,0.89848 -0.633898,0 -1.35599,-0.0221 -0.03307,-0.18741 -0.09371,-0.47956 0.788237,0.0661 1.372526,0.0661 0.595312,0 0.672482,-0.53468 0.03858,-0.22048 0.07717,-0.57877 z m 3.202561,-3.10886 h -2.871832 v 0.79926 h 2.871832 z"
         style="font-size:5.64444447px;stroke-width:0.26458332"
         id="path1495"
         inkscape:connector-curvature="0" />
    </g>
    <g
       aria-label="光电探测器
磁共振信号"
       style="font-style:normal;font-weight:normal;font-size:7.05555534px;line-height:1.25;font-family:sans-serif;letter-spacing:0px;word-spacing:0px;writing-mode:lr-tb;direction:ltr;fill:#000000;fill-opacity:1;stroke:none;stroke-width:0.26458332"
       id="text1427-2"
       transform="translate(0,-2.6458334)">
      <path
         d="m 172.01895,257.46082 h 2.43637 v -2.30959 h 0.45199 v 2.30959 h 2.48047 v 0.4079 h -1.80798 v 1.77491 q 0,0.20946 0.0551,0.29215 0.0772,0.11024 0.32521,0.11024 h 0.54571 q 0.39687,0 0.43546,-0.29214 0.0386,-0.29766 0.0606,-0.78824 0.20946,0.0882 0.46302,0.16536 -0.0496,0.56775 -0.0992,0.81029 -0.0496,0.28112 -0.23702,0.38585 -0.17639,0.10473 -0.60082,0.10473 h -0.65595 q -0.42444,0 -0.59531,-0.18741 -0.14332,-0.15986 -0.14332,-0.53468 v -1.84106 h -1.0666 q -0.0221,1.14377 -0.44373,1.73081 -0.45751,0.63941 -1.42765,0.97566 -0.11024,-0.17088 -0.28112,-0.39137 0.97014,-0.33624 1.33946,-0.88194 0.35002,-0.46853 0.37207,-1.43316 h -1.60679 z m 3.46163,-0.62287 q 0.63389,-0.60634 1.12448,-1.26229 l 0.40238,0.28664 q -0.55121,0.65043 -1.18511,1.2733 z m -3.06476,-0.9977 0.33624,-0.26459 q 0.55673,0.61185 1.06936,1.22921 l -0.40239,0.30868 q -0.5016,-0.68902 -1.00321,-1.2733 z"
         style="font-size:5.64444447px;stroke-width:0.26458332"
         id="path1456"
         inkscape:connector-curvature="0" />
      <path
         d="m 177.87285,255.86781 h 2.03399 v -0.70556 h 0.4575 v 0.70556 h 2.0395 v 3.09783 h -2.0395 v 0.64492 q 0,0.33624 0.35278,0.33624 h 1.28985 q 0.37482,0 0.4575,-0.24805 0.0882,-0.27009 0.12678,-0.77721 0.15986,0.0717 0.45751,0.17088 -0.0661,0.44097 -0.14883,0.75516 -0.1378,0.51814 -0.74965,0.51814 h -1.46623 q -0.77721,0 -0.77721,-0.76067 v -0.63941 h -1.57648 v 0.38034 h -0.45751 z m 4.07348,2.68442 v -0.94258 h -1.58199 v 0.94258 z m -3.61597,0 h 1.57648 v -0.94258 h -1.57648 z m 3.61597,-2.27101 h -1.58199 v 0.93706 h 1.58199 z m -3.61597,0.93706 h 1.57648 v -0.93706 h -1.57648 z"
         style="font-size:5.64444447px;stroke-width:0.26458332"
         id="path1458"
         inkscape:connector-curvature="0" />
      <path
         d="m 188.7814,259.75388 q -0.16536,0.20394 -0.29765,0.39687 -0.91502,-0.62839 -1.44419,-1.81901 v 2.25447 h -0.4079 v -2.23242 q -0.61185,1.11345 -1.59301,1.85208 -0.13229,-0.16536 -0.30868,-0.34175 0.93707,-0.56775 1.53789,-1.60404 h -1.21819 v -0.37482 h 1.58199 v -0.69454 h 0.4079 v 0.69454 h 1.62609 v 0.37482 h -1.27331 q 0.52365,1.05282 1.38906,1.4938 z m -5.5342,-1.6316 q 0.38034,-0.0992 0.74414,-0.20946 v -1.2678 h -0.67799 v -0.39687 h 0.67799 v -1.03629 h 0.4079 v 1.03629 h 0.55673 v 0.39687 h -0.55673 v 1.14102 q 0.25356,-0.0827 0.50712,-0.17088 0.006,0.24805 0.0331,0.42995 -0.27009,0.0882 -0.54019,0.17639 v 1.6812 q 0,0.60634 -0.52917,0.61185 -0.20395,0.006 -0.52365,-0.006 -0.0221,-0.226 -0.0661,-0.45751 0.31971,0.0331 0.49059,0.0331 0.22048,0 0.22048,-0.28112 v -1.44418 q -0.34175,0.11576 -0.68902,0.23702 z m 1.90721,-2.56867 h 3.40651 v 0.92053 h -0.39688 v -0.55672 h -2.61276 v 0.55672 h -0.39687 z m 1.91822,0.97014 0.28664,-0.28663 q 0.64492,0.52917 1.18511,1.0418 l -0.31971,0.33073 q -0.62287,-0.63941 -1.15204,-1.0859 z m -0.93155,-0.27009 0.35278,0.24253 q -0.36932,0.49058 -0.9977,1.1796 -0.14332,-0.12678 -0.33073,-0.2756 0.52917,-0.50712 0.97565,-1.14653 z"
         style="font-size:5.64444447px;stroke-width:0.26458332"
         id="path1460"
         inkscape:connector-curvature="0" />
      <path
         d="m 189.57515,258.28764 q 0.26459,0.13781 0.43546,0.20395 -0.36931,1.37804 -0.53468,2.03399 l -0.45199,-0.20947 q 0.32521,-0.92052 0.55121,-2.02847 z m -0.20946,-3.00963 q 0.33624,0.28112 0.83785,0.76067 -0.1819,0.17639 -0.33073,0.33073 -0.40239,-0.44648 -0.79375,-0.8158 z m -0.24805,1.41662 q 0.46303,0.37483 0.87644,0.74414 -0.14332,0.14883 -0.31971,0.34727 -0.49609,-0.49059 -0.82682,-0.78824 z m 4.60265,-1.52135 h 0.40239 v 4.69084 q 0,0.6339 -0.61185,0.6339 -0.26458,0 -0.62839,-0.011 -0.022,-0.20395 -0.0772,-0.452 0.35278,0.0386 0.60083,0.0386 0.31419,0 0.31419,-0.31419 z m -0.47404,4.10104 h -0.38585 v -3.65456 h 0.38585 z m -2.93798,-3.79788 h 2.07808 v 3.48369 h -0.39687 v -3.09783 h -1.28434 v 3.09783 h -0.39687 z m 0.8599,0.8599 h 0.40238 v 1.36701 q 0,0.83785 -0.15434,1.34497 0.71658,0.55121 1.24575,0.99219 l -0.29766,0.33624 q -0.44097,-0.41893 -1.0914,-0.95912 -0.34176,0.678 -1.22921,1.19614 -0.12127,-0.17639 -0.2701,-0.35278 0.82131,-0.47404 1.12448,-1.05282 0.2701,-0.5016 0.2701,-1.49379 z"
         style="font-size:5.64444447px;stroke-width:0.26458332"
         id="path1462"
         inkscape:connector-curvature="0" />
      <path
         d="m 194.71248,257.46082 h 2.22691 q 0.0854,-0.20671 0.11024,-0.47956 l 0.39688,0.0551 q -0.0331,0.23151 -0.0965,0.42444 h 1.20165 q -0.22048,-0.15985 -0.46577,-0.31419 l 0.22599,-0.24805 q 0.36381,0.21497 0.65595,0.42995 l -0.12402,0.13229 h 1.02801 v 0.3638 h -2.12769 q 0.63666,0.62287 2.25999,0.5898 -0.1323,0.226 -0.226,0.42444 -0.14608,-0.011 -0.28112,-0.0248 v 1.68397 h -0.38585 v -0.30317 h -1.1796 v 0.29765 h -0.38586 v -1.70325 h 1.75563 q -1.57648,-0.21222 -2.0147,-0.96463 h -0.0992 q -0.30868,0.65595 -2.00091,0.96463 h 1.76389 v 1.70325 h -0.38585 v -0.29765 h -1.16306 v 0.30317 h -0.38585 v -1.6757 q -0.14608,0.0276 -0.30317,0.0551 -0.0827,-0.16536 -0.21498,-0.39136 1.84106,-0.23702 2.21038,-0.66146 h -1.9954 z m 2.82773,-2.00642 h 1.9513 v 1.62608 h -0.38585 v -0.19292 h -1.1796 v 0.17087 h -0.38585 z m -2.53008,0 h 1.93477 v 1.60403 h -0.38585 v -0.17087 h -1.16306 v 0.22599 h -0.38586 z m 4.09553,0.34175 h -1.1796 v 0.74965 h 1.1796 z m -2.54661,0 h -1.16306 v 0.74965 h 1.16306 z m 2.55213,3.33485 h -1.1796 v 0.72209 h 1.1796 z m -2.54662,0 h -1.16306 v 0.72209 h 1.16306 z"
         style="font-size:5.64444447px;stroke-width:0.26458332"
         id="path1464"
         inkscape:connector-curvature="0" />
      <path
         d="m 173.84347,264.94632 h 1.16031 q -0.32522,-0.46026 -0.58705,-0.76067 l 0.30868,-0.24254 q 0.28112,0.30317 0.64492,0.75517 l -0.34451,0.24804 h 0.90124 q 0.2949,-0.43546 0.60634,-0.99218 l 0.41892,0.22599 q -0.27009,0.37483 -0.57051,0.76619 h 1.06109 v 0.35829 h -0.91777 q -0.30868,0.77446 -0.66421,1.50482 0.26458,-0.011 0.55397,-0.0358 0.15158,-0.39136 0.2949,-0.80753 l 0.38034,0.11576 q -0.452,1.17408 -1.05834,2.40881 0.27285,-0.0193 0.68075,-0.0661 -0.0882,-0.22324 -0.18465,-0.46302 l 0.32521,-0.12678 q 0.33073,0.7276 0.57878,1.40009 l -0.38585,0.1378 q -0.0937,-0.30592 -0.21773,-0.63941 -0.84336,0.0992 -1.14377,0.15434 l -0.13781,-0.34175 q 0.15986,-0.15434 0.27561,-0.39688 0.23427,-0.48231 0.452,-1.01699 -0.41893,0.0303 -0.78273,0.0744 l -0.12678,-0.33625 q 0.17088,-0.15434 0.28663,-0.39687 0.26183,-0.57878 0.46302,-1.16858 H 174.99 q -0.36656,0.86541 -0.66697,1.46072 0.19292,0 0.48231,-0.022 0.15434,-0.36931 0.2949,-0.73862 l 0.39687,0.13229 q -0.42994,1.00321 -1.20165,2.51905 0.27286,-0.0138 0.75517,-0.0772 -0.11024,-0.2949 -0.23151,-0.60082 l 0.3197,-0.12127 q 0.25356,0.57326 0.50161,1.23472 l -0.36931,0.13229 q -0.0551,-0.16812 -0.113,-0.33899 -0.67249,0.0882 -1.23748,0.16812 l -0.13781,-0.33073 q 0.15434,-0.14332 0.29215,-0.40239 0.30592,-0.60909 0.57877,-1.2237 -0.37482,0.0496 -0.72209,0.0827 l -0.12678,-0.35829 q 0.17088,-0.15985 0.29215,-0.39136 0.23978,-0.4768 0.48507,-1.12448 h -0.73863 z m -1.93477,2.23242 q 0.60358,-1.00596 0.90951,-2.3151 h -0.77722 v -0.35278 h 1.95682 v 0.35278 h -0.77722 q -0.17363,0.69178 -0.40789,1.29536 h 0.93155 v 2.497 h -0.89297 v 0.33624 h -0.37483 v -2.05879 q -0.14056,0.28664 -0.29765,0.54846 -0.11576,-0.14331 -0.2701,-0.30317 z m 1.46072,1.14102 v -1.8135 h -0.51814 v 1.8135 z"
         style="font-size:5.64444447px;stroke-width:0.26458332"
         id="path1466"
         inkscape:connector-curvature="0" />
      <path
         d="m 177.6248,267.0244 h 1.42214 v -1.52135 h -1.20165 v -0.41892 h 1.20165 v -1.05834 h 0.452 v 1.05834 h 1.67018 v -1.06385 h 0.452 v 1.06385 h 1.20716 v 0.41892 h -1.20716 v 1.52135 h 1.42764 v 0.41893 h -5.42396 z m 1.87414,0 h 1.67018 v -1.52135 h -1.67018 z m -0.0276,0.70005 0.34175,0.35278 q -0.91502,0.66697 -1.90721,1.23472 -0.12126,-0.17639 -0.29214,-0.38034 0.96463,-0.51263 1.8576,-1.20716 z m 1.34496,0.38034 0.28112,-0.34727 q 0.94809,0.56224 1.82452,1.16306 l -0.3197,0.40239 q -0.87092,-0.65594 -1.78594,-1.21818 z"
         style="font-size:5.64444447px;stroke-width:0.26458332"
         id="path1468"
         inkscape:connector-curvature="0" />
      <path
         d="m 188.28531,266.94723 0.28663,0.31971 q -0.45751,0.33073 -0.97014,0.66697 0.43546,0.66697 1.14102,0.97014 -0.10473,0.12678 -0.30868,0.39136 -1.32292,-0.73312 -1.70877,-2.51905 h -0.38585 v 1.96232 q 0.34726,-0.15985 0.80477,-0.39687 0.0165,0.18741 0.0661,0.40239 -0.44097,0.21497 -0.74965,0.37482 -0.24805,0.13229 -0.42444,0.2701 l -0.27561,-0.3638 q 0.19293,-0.19844 0.1819,-0.48507 v -1.76389 h -0.38034 q -0.0496,1.64813 -0.71658,2.60173 -0.15434,-0.1819 -0.32521,-0.3197 0.62838,-0.88746 0.62838,-2.60725 v -2.12769 h 3.401 v 0.37483 h -2.98207 v 1.70325 h 3.03719 v 0.37483 h -1.48828 q 0.11576,0.46302 0.30317,0.83784 0.45751,-0.33624 0.86541,-0.66697 z m -5.04913,-0.0331 q 0.33624,-0.0992 0.69453,-0.21497 v -1.28433 h -0.64492 V 265.04 h 0.64492 v -1.02526 h 0.41892 V 265.04 h 0.58429 v 0.37483 h -0.58429 v 1.14101 q 0.27561,-0.10473 0.57327,-0.21497 0,0.26458 0.011,0.42995 -0.28663,0.10473 -0.58429,0.20946 v 1.7694 q 0,0.57877 -0.49058,0.59531 -0.24805,0.011 -0.56224,0.006 -0.0331,-0.23151 -0.0717,-0.45751 0.30317,0.0331 0.4961,0.0331 0.20946,0 0.20946,-0.20946 v -1.58199 q -0.3142,0.11575 -0.6339,0.23702 z m 2.64583,-1.53789 h 2.46393 v 0.37483 h -2.46393 z"
         style="font-size:5.64444447px;stroke-width:0.26458332"
         id="path1470"
         inkscape:connector-curvature="0" />
      <path
         d="m 190.83192,267.38821 h 3.13642 v 2.01744 h -0.42444 v -0.33072 h -2.28754 v 0.33072 h -0.42444 z m -1.95681,-0.76619 q 0.81029,-1.20165 1.21819,-2.65686 l 0.42994,0.12127 q -0.23978,0.74138 -0.52365,1.36701 v 3.95221 h -0.4079 v -3.14468 q -0.25356,0.44373 -0.53468,0.81304 -0.0882,-0.23151 -0.1819,-0.45199 z m 4.66879,1.14101 h -2.28754 v 0.93707 h 2.28754 z m -3.07578,-3.05373 h 1.79972 q -0.16537,-0.28388 -0.34451,-0.56224 l 0.36931,-0.19292 q 0.19844,0.29765 0.39137,0.62838 l -0.23978,0.12678 h 1.90445 v 0.38585 h -3.88056 z m 0.30317,0.89848 h 3.25217 v 0.37483 h -3.25217 z m 0,0.88746 h 3.25217 v 0.37482 h -3.25217 z"
         style="font-size:5.64444447px;stroke-width:0.26458332"
         id="path1472"
         inkscape:connector-curvature="0" />
      <path
         d="m 195.39599,264.21872 h 3.74275 v 1.81901 h -0.43546 v -0.226 h -2.87183 v 0.25356 h -0.43546 z m 0.10473,3.50573 v -0.40239 l 0.23977,-0.56775 h -1.19889 v -0.40239 h 5.46255 v 0.40239 h -3.8089 l -0.23703,0.57326 h 3.29076 q -0.0661,0.63941 -0.12678,1.04731 -0.13229,0.89848 -1.03628,0.89848 -0.6339,0 -1.35599,-0.0221 -0.0331,-0.18741 -0.0937,-0.47955 0.78824,0.0661 1.37253,0.0661 0.59531,0 0.67248,-0.53468 0.0386,-0.22048 0.0772,-0.57877 z m 3.20256,-3.10886 h -2.87183 v 0.79927 h 2.87183 z"
         style="font-size:5.64444447px;stroke-width:0.26458332"
         id="path1474"
         inkscape:connector-curvature="0" />
    </g>
  </g>
</svg>
