<?xml version="1.0" encoding="UTF-8" standalone="no"?>
<!-- Created with Inkscape (http://www.inkscape.org/) -->

<svg
   xmlns:dc="http://purl.org/dc/elements/1.1/"
   xmlns:cc="http://creativecommons.org/ns#"
   xmlns:rdf="http://www.w3.org/1999/02/22-rdf-syntax-ns#"
   xmlns:svg="http://www.w3.org/2000/svg"
   xmlns="http://www.w3.org/2000/svg"
   xmlns:sodipodi="http://sodipodi.sourceforge.net/DTD/sodipodi-0.dtd"
   xmlns:inkscape="http://www.inkscape.org/namespaces/inkscape"
   width="180mm"
   height="130mm"
   viewBox="0 0 180 130"
   version="1.1"
   id="svg8"
   inkscape:version="0.92.3 (2405546, 2018-03-11)"
   sodipodi:docname="quesfig1.svg">
  <defs
     id="defs2" />
  <sodipodi:namedview
     id="base"
     pagecolor="#ffffff"
     bordercolor="#666666"
     borderopacity="1.0"
     inkscape:pageopacity="0.0"
     inkscape:pageshadow="2"
     inkscape:zoom="1.6811218"
     inkscape:cx="340.15748"
     inkscape:cy="245.66929"
     inkscape:document-units="mm"
     inkscape:current-layer="layer1"
     showgrid="false"
     width="200mm"
     inkscape:window-width="1920"
     inkscape:window-height="1013"
     inkscape:window-x="-9"
     inkscape:window-y="-9"
     inkscape:window-maximized="1"
     showguides="true"
     inkscape:guide-bbox="true" />
  <metadata
     id="metadata5">
    <rdf:RDF>
      <cc:Work
         rdf:about="">
        <dc:format>image/svg+xml</dc:format>
        <dc:type
           rdf:resource="http://purl.org/dc/dcmitype/StillImage" />
        <dc:title></dc:title>
      </cc:Work>
    </rdf:RDF>
  </metadata>
  <g
     inkscape:label="Layer 1"
     inkscape:groupmode="layer"
     id="layer1"
     transform="translate(0,-167)">
    <path
       style="fill:none;stroke:#000000;stroke-width:0.5;stroke-linecap:butt;stroke-linejoin:miter;stroke-miterlimit:4;stroke-dasharray:none;stroke-opacity:1"
       d="M 10.406149,177.58111 H 170.93883 V 286.46635 H 10.406149 Z"
       id="path815"
       inkscape:connector-curvature="0"
       sodipodi:nodetypes="ccccc" />
    <circle
       style="opacity:1;vector-effect:none;fill:#ffffff;fill-opacity:1;stroke:#000000;stroke-width:0.5;stroke-linecap:butt;stroke-linejoin:miter;stroke-miterlimit:4;stroke-dasharray:none;stroke-dashoffset:0;stroke-opacity:1"
       id="path817"
       cx="75.041382"
       cy="177.48244"
       r="7.1428571" />
    <path
       style="fill:none;stroke:#000000;stroke-width:0.5;stroke-linecap:butt;stroke-linejoin:miter;stroke-miterlimit:4;stroke-dasharray:none;stroke-opacity:1"
       d="M 10.164018,239.68765 H 170.89127"
       id="path819"
       inkscape:connector-curvature="0"
       sodipodi:nodetypes="cc" />
    <rect
       style="opacity:1;vector-effect:none;fill:#ffffff;fill-opacity:1;stroke:#000000;stroke-width:0.5;stroke-linecap:butt;stroke-linejoin:miter;stroke-miterlimit:4;stroke-dasharray:none;stroke-dashoffset:0;stroke-opacity:1"
       id="rect821"
       width="104.60049"
       height="17.433414"
       x="36.507843"
       y="230.6241" />
    <rect
       style="opacity:1;vector-effect:none;fill:#ffffff;fill-opacity:1;stroke:#000000;stroke-width:0;stroke-linecap:butt;stroke-linejoin:miter;stroke-miterlimit:4;stroke-dasharray:none;stroke-dashoffset:0;stroke-opacity:1"
       id="rect823"
       width="3.1476998"
       height="17.191284"
       x="65.611954"
       y="277.02325" />
    <path
       style="fill:none;stroke:#000000;stroke-width:0.30000001;stroke-linecap:butt;stroke-linejoin:miter;stroke-miterlimit:4;stroke-dasharray:none;stroke-opacity:1"
       d="m 65.521162,276.23633 v 20.33898"
       id="path825"
       inkscape:connector-curvature="0" />
    <path
       style="fill:none;stroke:#000000;stroke-width:0.80000001;stroke-linecap:butt;stroke-linejoin:miter;stroke-miterlimit:4;stroke-dasharray:none;stroke-opacity:1"
       d="m 68.895858,282.60739 v 7.74818"
       id="path827"
       inkscape:connector-curvature="0" />
    <g
       aria-label="V"
       style="font-style:normal;font-weight:normal;font-size:7.05555534px;line-height:1.25;font-family:sans-serif;letter-spacing:0px;word-spacing:0px;writing-mode:lr-tb;direction:ltr;fill:#000000;fill-opacity:1;stroke:none;stroke-width:0.26458332"
       id="text833"
       transform="translate(-30.406551,59.695915)">
      <path
         d="m 108.70587,114.67221 -2.61414,7.18165 h -1.27331 l -2.61414,-7.18165 h 1.02251 l 2.2524,6.31831 2.2524,-6.31831 z"
         style="font-size:9.87777805px;stroke-width:0.26458332"
         id="path839"
         inkscape:connector-curvature="0" />
    </g>
    <g
       aria-label="超导样品"
       style="font-style:normal;font-weight:normal;font-size:7.05555534px;line-height:1.25;font-family:sans-serif;letter-spacing:0px;word-spacing:0px;writing-mode:lr-tb;direction:ltr;fill:#000000;fill-opacity:1;stroke:none;stroke-width:0.26458332"
       id="text837"
       transform="translate(-15.308136,52.555211)">
      <path
         d="m 81.519921,190.87243 q 0.733116,-1.28295 0.790994,-3.86815 l 0.713823,0.0386 q -0.03376,0.94051 -0.13987,1.73633 0.342442,0.75241 0.911572,1.21061 v -3.5643 h -2.228288 v -0.70418 h 1.929254 v -1.37941 h -1.591635 v -0.70418 h 1.591635 v -1.36977 h 0.752408 v 1.36977 h 1.437294 v 0.70418 h -1.437294 v 1.37941 h 1.562696 v 0.70418 h -1.2926 v 1.49517 h 1.379416 v 0.69453 H 84.51991 v 1.80386 q 0.694531,0.28938 1.610927,0.29903 1.83279,0.0289 4.967827,-0.0386 -0.173632,0.43409 -0.270095,0.76206 -2.913173,0.01 -4.938889,-0.0289 -2.329574,-0.0482 -3.168799,-1.67845 -0.274919,1.25401 -0.776525,2.04501 -0.192925,-0.45338 -0.424435,-0.90675 z m 4.890657,-4.18648 h 4.03214 v 3.45336 h -0.713824 v -0.41479 h -2.604492 v 0.47267 h -0.713824 z m -0.472667,-3.34726 v -0.65594 h 4.610916 q -0.04823,1.32154 -0.135048,2.21864 -0.106108,1.10932 -1.147905,1.13826 -0.520899,0.01 -1.205784,-0.0289 -0.05788,-0.35691 -0.144694,-0.7717 0.713824,0.11575 1.205784,0.10611 0.549837,0 0.607714,-0.61736 0.06752,-0.54984 0.09646,-1.38907 h -1.827968 q -0.08199,2.18006 -1.625396,3.04823 -0.183279,-0.29904 -0.472667,-0.61737 1.340831,-0.73311 1.36977,-2.43086 z m 3.790983,4.00321 h -2.604492 v 1.72668 h 2.604492 z"
         style="font-size:9.87777805px;stroke-width:0.26458332"
         id="path842"
         inkscape:connector-curvature="0" />
      <path
         d="m 93.934667,186.53161 h 5.054644 q 0.781348,0 0.897103,-0.49196 0.115756,-0.40514 0.212216,-1.07074 0.31833,0.1447 0.76206,0.29904 -0.1447,0.65594 -0.2701,1.07073 -0.2508,0.86817 -1.418,0.86817 h -5.392263 q -1.282954,0 -1.282954,-1.24437 v -3.24115 h 6.92602 v 2.93247 h -0.742762 v -0.32797 h -5.440495 v 0.55948 q 0,0.6463 0.694531,0.6463 z m -2.556261,1.65916 h 6.733095 v -0.70418 h 0.781348 v 0.70418 h 2.083591 v 0.68488 h -2.083591 v 1.57234 q 0,1.14791 -1.254015,1.14791 -0.472667,0 -1.543403,-0.01 -0.04823,-0.35691 -0.144694,-0.82958 0.887457,0.0675 1.466233,0.0675 0.694531,0 0.694531,-0.59807 v -1.35048 h -6.733095 z m 1.86173,-4.80384 v 1.2733 h 5.440495 v -1.2733 z m -0.04823,6.01927 0.472667,-0.50161 q 1.070735,0.83923 1.60128,1.32154 l -0.559483,0.56913 q -0.887457,-0.84887 -1.514464,-1.38906 z"
         style="font-size:9.87777805px;stroke-width:0.26458332"
         id="path844"
         inkscape:connector-curvature="0" />
      <path
         d="m 104.42981,188.6152 h 2.82635 v -1.58198 h -2.10288 v -0.67524 h 2.10288 v -1.51447 h -2.32475 v -0.67524 h 2.9807 q 0.80064,-1.15755 1.20578,-1.90996 l 0.71383,0.45338 q -0.50161,0.68488 -1.10932,1.45658 h 1.76526 v 0.67524 h -2.47909 v 1.51447 h 2.209 v 0.67524 h -2.209 v 1.58198 h 2.78777 v 0.67524 h -2.78777 v 2.51768 h -0.75241 v -2.51768 h -2.82635 z m -3.17363,-0.28938 q 0.93569,-1.4373 1.45659,-3.42443 h -1.35048 v -0.6463 h 1.42765 v -1.90996 h 0.70418 v 1.90996 h 1.12861 v 0.6463 h -1.12861 v 1.51446 l 0.38585,-0.34726 q 0.62701,0.61736 1.23472,1.27331 l -0.54984,0.5016 q -0.74276,-0.84887 -1.07073,-1.19614 v 5.16076 h -0.70418 v -5.2958 q -0.5209,1.56269 -1.18649,2.65272 -0.14469,-0.41479 -0.34727,-0.83922 z m 4.22507,-5.65272 0.56913,-0.42443 q 0.76205,0.85851 1.09003,1.32154 l -0.65595,0.45337 q -0.56913,-0.81993 -1.00321,-1.35048 z"
         style="font-size:9.87777805px;stroke-width:0.26458332"
         id="path846"
         inkscape:connector-curvature="0" />
      <path
         d="m 112.6002,182.6731 h 6.65592 v 3.81992 h -0.7717 v -0.30868 h -5.11252 v 0.30868 h -0.7717 z m 3.92603,4.61092 h 3.68487 v 4.45657 h -0.73312 v -0.65594 h -2.21864 v 0.65594 h -0.73311 z m -4.87137,0 h 3.67523 v 4.45657 h -0.73312 v -0.6463 h -2.20899 v 0.6463 h -0.73312 z m 6.82956,-3.93568 h -5.11252 v 2.16076 h 5.11252 z m 0.99356,4.61092 h -2.21864 v 2.49838 h 2.21864 z m -4.88101,0 h -2.20899 v 2.47909 h 2.20899 z"
         style="font-size:9.87777805px;stroke-width:0.26458332"
         id="path848"
         inkscape:connector-curvature="0" />
    </g>
  </g>
</svg>
