<?xml version="1.0" encoding="UTF-8" standalone="no"?>
<!-- Created with Inkscape (http://www.inkscape.org/) -->

<svg
   xmlns:dc="http://purl.org/dc/elements/1.1/"
   xmlns:cc="http://creativecommons.org/ns#"
   xmlns:rdf="http://www.w3.org/1999/02/22-rdf-syntax-ns#"
   xmlns:svg="http://www.w3.org/2000/svg"
   xmlns="http://www.w3.org/2000/svg"
   xmlns:sodipodi="http://sodipodi.sourceforge.net/DTD/sodipodi-0.dtd"
   xmlns:inkscape="http://www.inkscape.org/namespaces/inkscape"
   width="90mm"
   height="170mm"
   viewBox="0 0 90 170"
   version="1.1"
   id="svg8"
   inkscape:version="0.92.3 (2405546, 2018-03-11)"
   sodipodi:docname="fig1.svg">
  <defs
     id="defs2" />
  <sodipodi:namedview
     id="base"
     pagecolor="#ffffff"
     bordercolor="#666666"
     borderopacity="1.0"
     inkscape:pageopacity="0.0"
     inkscape:pageshadow="2"
     inkscape:zoom="0.85852912"
     inkscape:cx="165.47312"
     inkscape:cy="351.75682"
     inkscape:document-units="mm"
     inkscape:current-layer="layer1"
     showgrid="false"
     inkscape:window-width="1920"
     inkscape:window-height="1013"
     inkscape:window-x="-9"
     inkscape:window-y="-9"
     inkscape:window-maximized="1"
     showguides="true"
     inkscape:guide-bbox="true">
    <sodipodi:guide
       position="50,79.999999"
       orientation="-0.5,0.8660254"
       id="guide815"
       inkscape:locked="false"
       inkscape:label=""
       inkscape:color="rgb(0,0,255)" />
    <sodipodi:guide
       position="50,79.999999"
       orientation="-0.8660254,-0.5"
       id="guide817"
       inkscape:locked="false"
       inkscape:label=""
       inkscape:color="rgb(0,0,255)" />
    <sodipodi:guide
       position="0,186.68281"
       orientation="1,0"
       id="guide821"
       inkscape:locked="false"
       inkscape:label=""
       inkscape:color="rgb(0,0,255)" />
    <sodipodi:guide
       position="9.9999999,194.91525"
       orientation="1,0"
       id="guide823"
       inkscape:locked="false"
       inkscape:label=""
       inkscape:color="rgb(0,0,255)" />
    <sodipodi:guide
       position="50,163.92252"
       orientation="1,0"
       id="guide827"
       inkscape:locked="false"
       inkscape:label=""
       inkscape:color="rgb(0,0,255)" />
    <sodipodi:guide
       position="91.837521,99.999999"
       orientation="0,1"
       id="guide831"
       inkscape:locked="false"
       inkscape:label=""
       inkscape:color="rgb(0,0,255)" />
    <sodipodi:guide
       position="84.641016,99.999999"
       orientation="-0.8660254,-0.5"
       id="guide833"
       inkscape:locked="false"
       inkscape:label=""
       inkscape:color="rgb(0,0,255)" />
    <sodipodi:guide
       position="9.9999999,149.28203"
       orientation="-0.5,0.8660254"
       id="guide835"
       inkscape:locked="false"
       inkscape:label=""
       inkscape:color="rgb(0,0,255)" />
    <sodipodi:guide
       position="36.803874,60"
       orientation="0,1"
       id="guide876"
       inkscape:locked="false"
       inkscape:label=""
       inkscape:color="rgb(0,0,255)" />
    <sodipodi:guide
       position="69.999999,76.755447"
       orientation="1,0"
       id="guide878"
       inkscape:locked="false"
       inkscape:label=""
       inkscape:color="rgb(0,0,255)" />
    <sodipodi:guide
       position="15.358986,60"
       orientation="0.8660254,0.5"
       id="guide884"
       inkscape:locked="false"
       inkscape:label=""
       inkscape:color="rgb(0,0,255)" />
    <sodipodi:guide
       position="69.999999,45.358985"
       orientation="-0.5,0.8660254"
       id="guide886"
       inkscape:locked="false"
       inkscape:label=""
       inkscape:color="rgb(0,0,255)" />
    <sodipodi:guide
       position="50,79.999999"
       orientation="-0.99820347,-0.059915259"
       id="guide890"
       inkscape:locked="false" />
    <sodipodi:guide
       position="50,79.999999"
       orientation="0.96592583,-0.25881904"
       id="guide904"
       inkscape:locked="false" />
    <sodipodi:guide
       position="35.358985,25.358986"
       orientation="0.25881905,0.96592583"
       id="guide906"
       inkscape:locked="false"
       inkscape:label=""
       inkscape:color="rgb(0,0,255)" />
  </sodipodi:namedview>
  <metadata
     id="metadata5">
    <rdf:RDF>
      <cc:Work
         rdf:about="">
        <dc:format>image/svg+xml</dc:format>
        <dc:type
           rdf:resource="http://purl.org/dc/dcmitype/StillImage" />
        <dc:title></dc:title>
      </cc:Work>
    </rdf:RDF>
  </metadata>
  <g
     inkscape:label="Layer 1"
     inkscape:groupmode="layer"
     id="layer1"
     transform="translate(0,-127)">
    <path
       style="fill:none;stroke:#000000;stroke-width:0.5;stroke-linecap:butt;stroke-linejoin:miter;stroke-miterlimit:4;stroke-dasharray:none;stroke-opacity:1"
       d="M 44.70833,226.52506 39.349347,137.24303"
       id="path837"
       inkscape:connector-curvature="0"
       sodipodi:nodetypes="cc" />
    <path
       style="fill:none;stroke:#000000;stroke-width:0.5;stroke-linecap:butt;stroke-linejoin:miter;stroke-miterlimit:4;stroke-dasharray:none;stroke-opacity:1"
       d="m 44.70833,226.52506 34.641017,-20"
       id="path839"
       inkscape:connector-curvature="0"
       sodipodi:nodetypes="cc" />
    <path
       style="fill:none;stroke:#000000;stroke-width:0.5;stroke-linecap:butt;stroke-linejoin:miter;stroke-miterlimit:4;stroke-dasharray:none;stroke-opacity:1"
       d="M 44.70833,226.52506 4.708333,157.24303"
       id="path841"
       inkscape:connector-curvature="0"
       sodipodi:nodetypes="cc" />
    <path
       style="fill:none;stroke:#000000;stroke-width:0.5;stroke-linecap:butt;stroke-linejoin:miter;stroke-miterlimit:4;stroke-dasharray:1.50000004, 1.50000004;stroke-dashoffset:0;stroke-opacity:1"
       d="m 79.349347,206.52506 -40,-69.28203"
       id="path843"
       inkscape:connector-curvature="0"
       sodipodi:nodetypes="cc" />
    <path
       style="fill:none;stroke:#000000;stroke-width:0.5;stroke-linecap:butt;stroke-linejoin:miter;stroke-miterlimit:4;stroke-dasharray:1.50000004, 1.50000004;stroke-dashoffset:0;stroke-opacity:1"
       d="m 4.708333,157.24303 34.641014,-20"
       id="path845"
       inkscape:connector-curvature="0"
       sodipodi:nodetypes="cc" />
    <path
       sodipodi:type="star"
       style="opacity:1;vector-effect:none;fill:#000000;fill-opacity:1;stroke:#000000;stroke-width:3.31665397;stroke-linecap:butt;stroke-linejoin:miter;stroke-miterlimit:4;stroke-dasharray:none;stroke-dashoffset:0;stroke-opacity:1"
       id="path847"
       sodipodi:sides="3"
       sodipodi:cx="75.544792"
       sodipodi:cy="161.16466"
       sodipodi:r1="7.0592637"
       sodipodi:r2="3.5296316"
       sodipodi:arg1="0.52359878"
       sodipodi:arg2="1.5707963"
       inkscape:flatsided="false"
       inkscape:rounded="0"
       inkscape:randomized="0"
       d="m 81.658294,164.69429 -6.113502,0 -6.113502,0 3.056751,-5.29445 3.056751,-5.29445 3.056751,5.29445 z"
       inkscape:transform-center-y="-0.37227352"
       transform="matrix(0.10325138,-0.00500018,0.01063447,0.21959704,29.910414,103.77965)"
       inkscape:transform-center-x="-0.037536561" />
    <path
       sodipodi:type="star"
       style="opacity:1;vector-effect:none;fill:#000000;fill-opacity:1;stroke:#000000;stroke-width:3.31665397;stroke-linecap:butt;stroke-linejoin:miter;stroke-miterlimit:4;stroke-dasharray:none;stroke-dashoffset:0;stroke-opacity:1"
       id="path847-9"
       sodipodi:sides="3"
       sodipodi:cx="75.544792"
       sodipodi:cy="161.16466"
       sodipodi:r1="7.0592637"
       sodipodi:r2="3.5296316"
       sodipodi:arg1="0.52359878"
       sodipodi:arg2="1.5707963"
       inkscape:flatsided="false"
       inkscape:rounded="0"
       inkscape:randomized="0"
       d="m 81.658294,164.69429 -6.113502,0 -6.113502,0 3.056751,-5.29445 3.056751,-5.29445 3.056751,5.29445 z"
       inkscape:transform-center-y="0.17802846"
       transform="matrix(-0.08952311,0.05168619,-0.1099272,-0.19039949,88.411709,286.60304)"
       inkscape:transform-center-x="0.079646822" />
    <path
       sodipodi:type="star"
       style="opacity:1;vector-effect:none;fill:#000000;fill-opacity:1;stroke:#000000;stroke-width:3.31665397;stroke-linecap:butt;stroke-linejoin:miter;stroke-miterlimit:4;stroke-dasharray:none;stroke-dashoffset:0;stroke-opacity:1"
       id="path847-0"
       sodipodi:sides="3"
       sodipodi:cx="75.544792"
       sodipodi:cy="161.16466"
       sodipodi:r1="7.0592637"
       sodipodi:r2="3.5296316"
       sodipodi:arg1="0.52359878"
       sodipodi:arg2="1.5707963"
       inkscape:flatsided="false"
       inkscape:rounded="0"
       inkscape:randomized="0"
       d="m 81.658294,164.69429 -6.113502,0 -6.113502,0 3.056751,-5.29445 3.056751,-5.29445 3.056751,5.29445 z"
       inkscape:transform-center-y="0.079649201"
       transform="matrix(0.05168619,0.08952311,-0.19039949,0.1099272,104.78628,182.82168)"
       inkscape:transform-center-x="-0.17803316" />
    <path
       sodipodi:type="star"
       style="opacity:1;vector-effect:none;fill:#000000;fill-opacity:1;stroke:#000000;stroke-width:3.31665397;stroke-linecap:butt;stroke-linejoin:miter;stroke-miterlimit:4;stroke-dasharray:none;stroke-dashoffset:0;stroke-opacity:1"
       id="path847-3"
       sodipodi:sides="3"
       sodipodi:cx="75.544792"
       sodipodi:cy="161.16466"
       sodipodi:r1="7.0592637"
       sodipodi:r2="3.5296316"
       sodipodi:arg1="0.52359878"
       sodipodi:arg2="1.5707963"
       inkscape:flatsided="false"
       inkscape:rounded="0"
       inkscape:randomized="0"
       d="m 81.658294,164.69429 -6.113502,0 -6.113502,0 3.056751,-5.29445 3.056751,-5.29445 3.056751,5.29445 z"
       inkscape:transform-center-y="-0.17803578"
       transform="matrix(0.08952311,-0.05168619,0.10992719,0.19039949,-18.995047,131.80606)"
       inkscape:transform-center-x="-0.079644903" />
    <path
       style="fill:none;stroke:#000000;stroke-width:0.5;stroke-linecap:butt;stroke-linejoin:miter;stroke-miterlimit:4;stroke-dasharray:none;stroke-opacity:1"
       d="m 44.70833,226.52506 -34.641014,20"
       id="path880"
       inkscape:connector-curvature="0" />
    <path
       style="fill:none;stroke:#000000;stroke-width:0.5;stroke-linecap:butt;stroke-linejoin:miter;stroke-miterlimit:4;stroke-dasharray:none;stroke-opacity:1"
       d="m 44.70833,226.52506 19.999999,34.64101"
       id="path882"
       inkscape:connector-curvature="0" />
    <path
       style="fill:none;stroke:#000000;stroke-width:0.5;stroke-linecap:butt;stroke-linejoin:miter;stroke-miterlimit:4;stroke-dasharray:none;stroke-opacity:1"
       d="M 44.70833,226.52506 30.067315,281.16607"
       id="path888"
       inkscape:connector-curvature="0" />
    <path
       style="fill:none;stroke:#000000;stroke-width:0.5;stroke-linecap:butt;stroke-linejoin:miter;stroke-miterlimit:4;stroke-dasharray:none;stroke-opacity:1"
       d="m 44.70833,226.52506 3.572656,59.52135"
       id="path892"
       inkscape:connector-curvature="0"
       sodipodi:nodetypes="cc" />
    <g
       aria-label="μ"
       style="font-style:normal;font-weight:normal;font-size:7.05555534px;line-height:1.25;font-family:sans-serif;letter-spacing:0px;word-spacing:0px;writing-mode:lr-tb;direction:ltr;fill:#000000;fill-opacity:1;stroke:none;stroke-width:0.26458332"
       id="text896"
       transform="translate(-5.2916669,9.5250003)">
      <path
         d="M 36.098684,280.00803 H 35.23052 l 0.08199,-0.56913 q -0.376204,0.34244 -0.72347,0.50643 -0.347265,0.16398 -0.752409,0.16398 -0.405143,0 -0.689708,-0.16398 -0.284565,-0.16881 -0.535368,-0.48232 l -0.583599,2.53215 h -0.916395 l 1.702566,-7.37457 h 0.916395 l -0.935688,4.04178 q 0.173633,0.28457 0.477491,0.45338 0.30868,0.16398 0.694531,0.16398 0.463021,0 0.839225,-0.17845 0.376205,-0.18328 0.694532,-0.46785 l 0.926041,-4.01284 h 0.916396 z"
         style="font-style:italic;font-size:9.87777805px;stroke-width:0.26458332"
         id="path1018"
         inkscape:connector-curvature="0" />
    </g>
    <path
       style="fill:none;stroke:#000000;stroke-width:0.5;stroke-linecap:butt;stroke-linejoin:miter;stroke-miterlimit:4;stroke-dasharray:1.50000004, 1.50000004;stroke-dashoffset:0;stroke-opacity:1"
       d="m 10.067316,246.52506 19.999999,34.64101"
       id="path898"
       inkscape:connector-curvature="0" />
    <path
       style="fill:none;stroke:#000000;stroke-width:0.5;stroke-linecap:butt;stroke-linejoin:miter;stroke-miterlimit:4;stroke-dasharray:1.5, 1.5;stroke-dashoffset:0;stroke-opacity:1"
       d="m 64.708329,261.16607 -34.641014,20"
       id="path900"
       inkscape:connector-curvature="0" />
    <path
       style="fill:none;stroke:#000000;stroke-width:0.5;stroke-linecap:butt;stroke-linejoin:miter;stroke-miterlimit:4;stroke-dasharray:1.50000004, 1.50000004;stroke-dashoffset:0;stroke-opacity:1"
       d="m 30.067315,281.16607 18.213671,4.88034"
       id="path902"
       inkscape:connector-curvature="0"
       sodipodi:nodetypes="cc" />
    <path
       sodipodi:type="star"
       style="opacity:1;vector-effect:none;fill:#000000;fill-opacity:1;stroke:#000000;stroke-width:3.31665397;stroke-linecap:butt;stroke-linejoin:miter;stroke-miterlimit:4;stroke-dasharray:none;stroke-dashoffset:0;stroke-opacity:1"
       id="path847-9-6"
       sodipodi:sides="3"
       sodipodi:cx="75.544792"
       sodipodi:cy="161.16466"
       sodipodi:r1="7.0592637"
       sodipodi:r2="3.5296316"
       sodipodi:arg1="0.52359878"
       sodipodi:arg2="1.5707963"
       inkscape:flatsided="false"
       inkscape:rounded="0"
       inkscape:randomized="0"
       d="m 81.658294,164.69429 -6.113502,0 -6.113502,0 3.056751,-5.29445 3.056751,-5.29445 3.056751,5.29445 z"
       inkscape:transform-center-y="0.29300913"
       transform="matrix(-0.09985005,-0.02675474,0.0569025,-0.21236303,28.841484,315.91354)"
       inkscape:transform-center-x="-0.20084249" />
    <path
       sodipodi:type="star"
       style="opacity:1;vector-effect:none;fill:#000000;fill-opacity:1;stroke:#000000;stroke-width:3.31665397;stroke-linecap:butt;stroke-linejoin:miter;stroke-miterlimit:4;stroke-dasharray:none;stroke-dashoffset:0;stroke-opacity:1"
       id="path847-9-1"
       sodipodi:sides="3"
       sodipodi:cx="75.544792"
       sodipodi:cy="161.16466"
       sodipodi:r1="7.0592637"
       sodipodi:r2="3.5296316"
       sodipodi:arg1="0.52359878"
       sodipodi:arg2="1.5707963"
       inkscape:flatsided="false"
       inkscape:rounded="0"
       inkscape:randomized="0"
       d="m 81.658294,164.69429 -6.113502,0 -6.113502,0 3.056751,-5.29445 3.056751,-5.29445 3.056751,5.29445 z"
       inkscape:transform-center-y="0.36968346"
       transform="matrix(0.10320972,-0.00579677,-0.0123287,-0.21950843,42.364505,319.98783)"
       inkscape:transform-center-x="0.043516036" />
    <path
       sodipodi:type="star"
       style="opacity:1;vector-effect:none;fill:#000000;fill-opacity:1;stroke:#000000;stroke-width:3.31665397;stroke-linecap:butt;stroke-linejoin:miter;stroke-miterlimit:4;stroke-dasharray:none;stroke-dashoffset:0;stroke-opacity:1"
       id="path847-9-4"
       sodipodi:sides="3"
       sodipodi:cx="75.544792"
       sodipodi:cy="161.16466"
       sodipodi:r1="7.0592637"
       sodipodi:r2="3.5296316"
       sodipodi:arg1="0.52359878"
       sodipodi:arg2="1.5707963"
       inkscape:flatsided="false"
       inkscape:rounded="0"
       inkscape:randomized="0"
       d="m 81.658294,164.69429 -6.113502,0 -6.113502,0 3.056751,-5.29445 3.056751,-5.29445 3.056751,5.29445 z"
       inkscape:transform-center-y="-0.079644924"
       transform="matrix(-0.05168619,-0.08952311,0.19039949,-0.10992719,-15.36965,270.22844)"
       inkscape:transform-center-x="0.17803308" />
    <g
       aria-label="μJ"
       style="font-style:normal;font-weight:normal;font-size:7.05555534px;line-height:1.25;font-family:sans-serif;letter-spacing:0px;word-spacing:0px;writing-mode:lr-tb;direction:ltr;fill:#000000;fill-opacity:1;stroke:none;stroke-width:0.26458332"
       id="text896-1"
       transform="translate(-5.2916669,9.5250003)">
      <path
         d="m 55.54643,283.46228 h -0.868164 l 0.08199,-0.56913 q -0.376205,0.34244 -0.72347,0.50643 -0.347266,0.16399 -0.752409,0.16399 -0.405144,0 -0.689708,-0.16399 -0.284565,-0.16881 -0.535368,-0.48231 l -0.5836,2.53214 H 50.55931 l 1.702566,-7.37457 h 0.916396 l -0.935688,4.04179 q 0.173633,0.28456 0.47749,0.45337 0.308681,0.16399 0.694531,0.16399 0.463021,0 0.839226,-0.17846 0.376204,-0.18328 0.694531,-0.46784 l 0.926042,-4.01285 h 0.916395 z"
         style="font-style:italic;font-size:9.87777805px;stroke-width:0.26458332"
         id="path1013"
         inkscape:connector-curvature="0" />
      <path
         d="m 59.283636,284.22458 q -0.144212,0.6176 -0.589387,0.94991 -0.445176,0.32918 -1.078453,0.32918 -0.150482,0 -0.395015,-0.0282 -0.244533,-0.0251 -0.404419,-0.0627 l 0.131671,-0.55804 h 0.03449 q 0.122266,0.0439 0.297828,0.0909 0.175562,0.047 0.373069,0.047 0.285289,0 0.473391,-0.0721 0.188102,-0.0721 0.294694,-0.20064 0.112861,-0.1348 0.178697,-0.32291 0.06583,-0.1881 0.112861,-0.40755 l 0.627007,-2.74629 h -1.015752 l 0.109727,-0.47339 H 60.0768 Z"
         style="font-size:64.99999762%;baseline-shift:sub"
         id="path1015"
         inkscape:connector-curvature="0" />
    </g>
    <g
       aria-label="μL"
       style="font-style:normal;font-weight:normal;font-size:7.05555534px;line-height:1.25;font-family:sans-serif;letter-spacing:0px;word-spacing:0px;writing-mode:lr-tb;direction:ltr;fill:#000000;fill-opacity:1;stroke:none;stroke-width:0.26458332"
       id="text896-13"
       transform="translate(-5.2916669,9.5250003)">
      <path
         d="m 76.689779,257.29578 h -0.868164 l 0.08199,-0.56913 q -0.376204,0.34244 -0.72347,0.50643 -0.347265,0.16398 -0.752409,0.16398 -0.405143,0 -0.689708,-0.16398 -0.284565,-0.16881 -0.535368,-0.48232 l -0.583599,2.53215 h -0.916395 l 1.702566,-7.37457 h 0.916395 l -0.935688,4.04178 q 0.173633,0.28457 0.477491,0.45338 0.30868,0.16398 0.694531,0.16398 0.463021,0 0.839225,-0.17845 0.376205,-0.18328 0.694532,-0.46785 l 0.926041,-4.01284 h 0.916396 z"
         style="font-style:italic;font-size:9.87777805px;stroke-width:0.26458332"
         id="path1026"
         inkscape:connector-curvature="0" />
      <path
         d="m 81.380036,259.27133 h -2.95634 l 1.078452,-4.66807 h 0.627008 l -0.956186,4.13825 h 2.329332 z"
         style="font-size:64.99999762%;baseline-shift:sub"
         id="path1028"
         inkscape:connector-curvature="0" />
    </g>
    <g
       aria-label="μS"
       style="font-style:normal;font-weight:normal;font-size:7.05555534px;line-height:1.25;font-family:sans-serif;letter-spacing:0px;word-spacing:0px;writing-mode:lr-tb;direction:ltr;fill:#000000;fill-opacity:1;stroke:none;stroke-width:0.26458332"
       id="text896-3"
       transform="translate(-5.2916669,9.5250003)">
      <path
         d="m 11.314475,244.46288 h -0.868164 l 0.08199,-0.56913 q -0.376205,0.34244 -0.7234705,0.50642 -0.3472656,0.16399 -0.7524089,0.16399 -0.4051432,0 -0.6897081,-0.16399 -0.2845649,-0.16881 -0.5353679,-0.48231 l -0.5835992,2.53215 H 6.327355 l 1.7025662,-7.37458 h 0.9163955 l -0.935688,4.04179 q 0.1736328,0.28457 0.4774903,0.45338 0.3086805,0.16398 0.6945312,0.16398 0.4630209,0 0.8392258,-0.17845 0.376204,-0.18328 0.694531,-0.46785 l 0.926041,-4.01285 h 0.916396 z"
         style="font-style:italic;font-size:9.87777805px;stroke-width:0.26458332"
         id="path1021"
         inkscape:connector-curvature="0" />
      <path
         d="m 14.662936,246.52308 q -0.45458,0 -0.86527,-0.094 -0.41069,-0.0972 -0.805705,-0.2947 l 0.150482,-0.71165 h 0.04389 q 0.300963,0.28529 0.736733,0.4389 0.438905,0.15049 0.84646,0.15049 0.667763,0 1.022022,-0.26335 0.357395,-0.26648 0.357395,-0.67717 0,-0.21631 -0.128537,-0.36052 -0.125401,-0.14422 -0.369934,-0.21319 -0.203778,-0.0564 -0.485931,-0.10659 -0.279018,-0.0533 -0.532956,-0.11286 -0.492201,-0.10973 -0.761814,-0.3762 -0.269613,-0.26648 -0.269613,-0.6615 0,-0.66776 0.564306,-1.1098 0.567442,-0.44517 1.464062,-0.44517 0.489066,0 0.887216,0.10345 0.401285,0.10032 0.689708,0.23826 l -0.141077,0.66777 h -0.04389 q -0.222588,-0.20378 -0.636413,-0.35113 -0.41069,-0.14734 -0.86527,-0.14734 -0.570577,0 -0.912296,0.2508 -0.338584,0.2508 -0.338584,0.63641 0,0.20691 0.122267,0.36367 0.122266,0.15675 0.43577,0.23512 0.200642,0.047 0.532956,0.116 0.332314,0.0658 0.558037,0.1254 0.445175,0.12227 0.674033,0.36367 0.231992,0.24139 0.231992,0.60819 0,0.30724 -0.150481,0.61134 -0.150482,0.30409 -0.420095,0.52041 -0.288424,0.23199 -0.677168,0.36367 -0.38561,0.13167 -0.912296,0.13167 z"
         style="font-size:64.99999762%;baseline-shift:sub"
         id="path1023"
         inkscape:connector-curvature="0" />
    </g>
    <g
       aria-label="PJ"
       style="font-style:normal;font-weight:normal;font-size:9.8777771px;line-height:1.25;font-family:sans-serif;letter-spacing:0px;word-spacing:0px;writing-mode:lr-tb;direction:ltr;fill:#000000;fill-opacity:1;stroke:none;stroke-width:0.26458332"
       id="text997"
       transform="translate(-5.2916669,9.5250003)">
      <path
         d="m 38.107881,121.77083 q 0,0.47749 -0.16881,0.88746 -0.163986,0.40514 -0.463021,0.70417 -0.371381,0.37139 -0.87781,0.55949 -0.506429,0.18328 -1.27813,0.18328 h -0.954981 v 2.67684 h -0.95498 v -7.18165 h 1.948546 q 0.6463,0 1.094851,0.11093 0.448552,0.10611 0.795817,0.33762 0.409966,0.27492 0.631831,0.68489 0.226687,0.40996 0.226687,1.03697 z m -0.993566,0.0241 q 0,-0.37138 -0.130224,-0.6463 -0.130225,-0.27492 -0.395497,-0.44855 -0.231511,-0.14952 -0.530545,-0.21222 -0.294211,-0.0675 -0.747585,-0.0675 h -0.945335 v 2.86977 h 0.805464 q 0.578776,0 0.940511,-0.10129 0.361735,-0.10611 0.588422,-0.33279 0.226687,-0.23151 0.318327,-0.48714 0.09646,-0.25563 0.09646,-0.57395 z"
         style="stroke-width:0.26458332"
         id="path1041"
         inkscape:connector-curvature="0" />
      <path
         d="m 40.745653,127.54436 q 0,0.61447 -0.376205,0.94678 -0.373069,0.33232 -1.003212,0.33232 -0.150481,0 -0.401284,-0.0282 -0.250803,-0.0251 -0.420095,-0.0627 v -0.57998 h 0.03448 q 0.128537,0.0439 0.316639,0.0909 0.188102,0.047 0.385609,0.047 0.288424,0 0.457716,-0.0658 0.172427,-0.0658 0.253938,-0.18811 0.08465,-0.1254 0.106591,-0.30723 0.02508,-0.18183 0.02508,-0.4201 v -2.72434 h -0.987536 v -0.49534 h 1.608274 z"
         style="font-size:64.99999762%;baseline-shift:sub"
         id="path1043"
         inkscape:connector-curvature="0" />
    </g>
    <g
       aria-label="PS"
       style="font-style:normal;font-weight:normal;font-size:9.8777771px;line-height:1.25;font-family:sans-serif;letter-spacing:0px;word-spacing:0px;writing-mode:lr-tb;direction:ltr;fill:#000000;fill-opacity:1;stroke:none;stroke-width:0.26458332"
       id="text1003"
       transform="translate(-5.2916669,9.5250003)">
      <path
         d="m 90.093168,190.00318 q 0,0.47749 -0.16881,0.88746 -0.163987,0.40514 -0.463021,0.70418 -0.371381,0.37138 -0.87781,0.55948 -0.506429,0.18328 -1.278131,0.18328 h -0.95498 v 2.67684 h -0.95498 v -7.18165 h 1.948546 q 0.646299,0 1.094851,0.11094 0.448551,0.1061 0.795817,0.33762 0.409966,0.27491 0.63183,0.68488 0.226688,0.40997 0.226688,1.03697 z m -0.993566,0.0241 q 0,-0.37138 -0.130224,-0.6463 -0.130225,-0.27492 -0.395497,-0.44855 -0.231511,-0.14952 -0.530545,-0.21222 -0.294211,-0.0675 -0.747586,-0.0675 h -0.945334 v 2.86976 h 0.805463 q 0.578776,0 0.940511,-0.10128 0.361735,-0.10611 0.588423,-0.3328 0.226687,-0.23151 0.318326,-0.48714 0.09646,-0.25562 0.09646,-0.57395 z"
         style="stroke-width:0.26458332"
         id="path1031"
         inkscape:connector-curvature="0" />
      <path
         d="m 94.411319,195.65758 q 0,0.27275 -0.128537,0.53923 -0.125401,0.26648 -0.354259,0.45145 -0.250803,0.20064 -0.586252,0.3135 -0.332313,0.11286 -0.802569,0.11286 -0.504741,0 -0.909161,-0.0941 -0.401284,-0.0941 -0.818244,-0.27902 v -0.77749 h 0.04389 q 0.354259,0.2947 0.818245,0.45458 0.463985,0.15989 0.87154,0.15989 0.576847,0 0.896621,-0.21632 0.322908,-0.21632 0.322908,-0.57684 0,-0.31037 -0.153616,-0.45772 -0.150482,-0.14735 -0.460851,-0.22886 -0.235128,-0.0627 -0.511011,-0.10345 -0.272748,-0.0408 -0.579982,-0.10346 -0.620737,-0.13167 -0.9217,-0.44831 -0.297829,-0.31977 -0.297829,-0.83079 0,-0.58625 0.495336,-0.95932 0.495336,-0.3762 1.25715,-0.3762 0.4922,0 0.90289,0.0941 0.41069,0.0941 0.727329,0.23199 v 0.7336 h -0.04389 q -0.266478,-0.22572 -0.702248,-0.37307 -0.432635,-0.15048 -0.887215,-0.15048 -0.498471,0 -0.80257,0.20691 -0.300963,0.20692 -0.300963,0.53296 0,0.29156 0.150481,0.45771 0.150482,0.16616 0.529822,0.25394 0.200642,0.0439 0.570576,0.10659 0.369935,0.0627 0.627008,0.12854 0.520416,0.13794 0.783759,0.41696 0.263343,0.27902 0.263342,0.78062 z"
         style="font-size:64.99999762%;baseline-shift:sub"
         id="path1033"
         inkscape:connector-curvature="0" />
    </g>
    <g
       aria-label="PL"
       style="font-style:normal;font-weight:normal;font-size:9.8777771px;line-height:1.25;font-family:sans-serif;letter-spacing:0px;word-spacing:0px;writing-mode:lr-tb;direction:ltr;fill:#000000;fill-opacity:1;stroke:none;stroke-width:0.26458332"
       id="text1009"
       transform="translate(-5.2916669,9.5250003)">
      <path
         d="m 20.347083,148.19744 q 0,0.47749 -0.168809,0.88746 -0.163987,0.40514 -0.463021,0.70418 -0.371381,0.37138 -0.87781,0.55948 -0.506429,0.18328 -1.278131,0.18328 h -0.95498 v 2.67684 h -0.954981 v -7.18165 h 1.948546 q 0.6463,0 1.094852,0.11094 0.448551,0.1061 0.795817,0.33762 0.409966,0.27491 0.63183,0.68488 0.226687,0.40997 0.226687,1.03697 z m -0.993565,0.0241 q 0,-0.37138 -0.130225,-0.6463 -0.130224,-0.27492 -0.395497,-0.44855 -0.23151,-0.14952 -0.530544,-0.21222 -0.294211,-0.0675 -0.747586,-0.0675 h -0.945334 v 2.86976 h 0.805463 q 0.578776,0 0.940511,-0.10129 0.361735,-0.1061 0.588422,-0.33279 0.226688,-0.23151 0.318327,-0.48714 0.09646,-0.25562 0.09646,-0.57395 z"
         style="stroke-width:0.26458332"
         id="path1036"
         inkscape:connector-curvature="0" />
      <path
         d="m 24.22633,155.18423 h -2.953205 v -4.66806 h 0.620737 v 4.1163 h 2.332468 z"
         style="font-size:64.99999762%;baseline-shift:sub"
         id="path1038"
         inkscape:connector-curvature="0" />
    </g>
  </g>
</svg>
