<?xml version="1.0" encoding="UTF-8" standalone="no"?>
<!-- Created with Inkscape (http://www.inkscape.org/) -->

<svg
   xmlns:dc="http://purl.org/dc/elements/1.1/"
   xmlns:cc="http://creativecommons.org/ns#"
   xmlns:rdf="http://www.w3.org/1999/02/22-rdf-syntax-ns#"
   xmlns:svg="http://www.w3.org/2000/svg"
   xmlns="http://www.w3.org/2000/svg"
   xmlns:sodipodi="http://sodipodi.sourceforge.net/DTD/sodipodi-0.dtd"
   xmlns:inkscape="http://www.inkscape.org/namespaces/inkscape"
   width="200mm"
   height="165mm"
   viewBox="0 0 200 165"
   version="1.1"
   id="svg8"
   inkscape:version="0.92.3 (2405546, 2018-03-11)"
   sodipodi:docname="fig3.svg">
  <defs
     id="defs2">
    <marker
       inkscape:isstock="true"
       style="overflow:visible"
       id="marker3544"
       refX="0"
       refY="0"
       orient="auto"
       inkscape:stockid="TriangleOutM">
      <path
         transform="scale(0.4)"
         style="fill:#000000;fill-opacity:1;fill-rule:evenodd;stroke:#000000;stroke-width:1.00000003pt;stroke-opacity:1"
         d="M 5.77,0 -2.88,5 V -5 Z"
         id="path3542"
         inkscape:connector-curvature="0" />
    </marker>
    <marker
       inkscape:stockid="TriangleOutM"
       orient="auto"
       refY="0"
       refX="0"
       id="marker3370"
       style="overflow:visible"
       inkscape:isstock="true"
       inkscape:collect="always">
      <path
         id="path3368"
         d="M 5.77,0 -2.88,5 V -5 Z"
         style="fill:#000000;fill-opacity:1;fill-rule:evenodd;stroke:#000000;stroke-width:1.00000003pt;stroke-opacity:1"
         transform="scale(0.4)"
         inkscape:connector-curvature="0" />
    </marker>
    <marker
       inkscape:stockid="DotM"
       orient="auto"
       refY="0"
       refX="0"
       id="marker3222"
       style="overflow:visible"
       inkscape:isstock="true">
      <path
         id="path3220"
         d="m -2.5,-1 c 0,2.76 -2.24,5 -5,5 -2.76,0 -5,-2.24 -5,-5 0,-2.76 2.24,-5 5,-5 2.76,0 5,2.24 5,5 z"
         style="fill:#000000;fill-opacity:1;fill-rule:evenodd;stroke:#000000;stroke-width:1.00000003pt;stroke-opacity:1"
         transform="matrix(0.4,0,0,0.4,2.96,0.4)"
         inkscape:connector-curvature="0" />
    </marker>
    <marker
       inkscape:isstock="true"
       style="overflow:visible"
       id="marker3078"
       refX="0"
       refY="0"
       orient="auto"
       inkscape:stockid="TriangleOutM"
       inkscape:collect="always">
      <path
         transform="scale(0.4)"
         style="fill:#000000;fill-opacity:1;fill-rule:evenodd;stroke:#000000;stroke-width:1.00000003pt;stroke-opacity:1"
         d="M 5.77,0 -2.88,5 V -5 Z"
         id="path3076"
         inkscape:connector-curvature="0" />
    </marker>
    <marker
       inkscape:isstock="true"
       style="overflow:visible"
       id="marker2942"
       refX="0"
       refY="0"
       orient="auto"
       inkscape:stockid="DotM"
       inkscape:collect="always">
      <path
         transform="matrix(0.4,0,0,0.4,2.96,0.4)"
         style="fill:#000000;fill-opacity:1;fill-rule:evenodd;stroke:#000000;stroke-width:1.00000003pt;stroke-opacity:1"
         d="m -2.5,-1 c 0,2.76 -2.24,5 -5,5 -2.76,0 -5,-2.24 -5,-5 0,-2.76 2.24,-5 5,-5 2.76,0 5,2.24 5,5 z"
         id="path2940"
         inkscape:connector-curvature="0" />
    </marker>
    <marker
       inkscape:stockid="TriangleOutM"
       orient="auto"
       refY="0"
       refX="0"
       id="marker2810"
       style="overflow:visible"
       inkscape:isstock="true"
       inkscape:collect="always">
      <path
         id="path2808"
         d="M 5.77,0 -2.88,5 V -5 Z"
         style="fill:#000000;fill-opacity:1;fill-rule:evenodd;stroke:#000000;stroke-width:1.00000003pt;stroke-opacity:1"
         transform="scale(0.4)"
         inkscape:connector-curvature="0" />
    </marker>
    <marker
       inkscape:stockid="DotM"
       orient="auto"
       refY="0"
       refX="0"
       id="marker2686"
       style="overflow:visible"
       inkscape:isstock="true"
       inkscape:collect="always">
      <path
         id="path2684"
         d="m -2.5,-1 c 0,2.76 -2.24,5 -5,5 -2.76,0 -5,-2.24 -5,-5 0,-2.76 2.24,-5 5,-5 2.76,0 5,2.24 5,5 z"
         style="fill:#000000;fill-opacity:1;fill-rule:evenodd;stroke:#000000;stroke-width:1.00000003pt;stroke-opacity:1"
         transform="matrix(0.4,0,0,0.4,2.96,0.4)"
         inkscape:connector-curvature="0" />
    </marker>
    <marker
       inkscape:isstock="true"
       style="overflow:visible"
       id="marker2566"
       refX="0"
       refY="0"
       orient="auto"
       inkscape:stockid="TriangleOutM"
       inkscape:collect="always">
      <path
         transform="scale(0.4)"
         style="fill:#000000;fill-opacity:1;fill-rule:evenodd;stroke:#000000;stroke-width:1.00000003pt;stroke-opacity:1"
         d="M 5.77,0 -2.88,5 V -5 Z"
         id="path2564"
         inkscape:connector-curvature="0" />
    </marker>
    <marker
       inkscape:isstock="true"
       style="overflow:visible"
       id="marker2454"
       refX="0"
       refY="0"
       orient="auto"
       inkscape:stockid="DotM"
       inkscape:collect="always">
      <path
         transform="matrix(0.4,0,0,0.4,2.96,0.4)"
         style="fill:#000000;fill-opacity:1;fill-rule:evenodd;stroke:#000000;stroke-width:1.00000003pt;stroke-opacity:1"
         d="m -2.5,-1 c 0,2.76 -2.24,5 -5,5 -2.76,0 -5,-2.24 -5,-5 0,-2.76 2.24,-5 5,-5 2.76,0 5,2.24 5,5 z"
         id="path2452"
         inkscape:connector-curvature="0" />
    </marker>
    <marker
       inkscape:stockid="TriangleOutM"
       orient="auto"
       refY="0"
       refX="0"
       id="marker2346"
       style="overflow:visible"
       inkscape:isstock="true"
       inkscape:collect="always">
      <path
         id="path2344"
         d="M 5.77,0 -2.88,5 V -5 Z"
         style="fill:#000000;fill-opacity:1;fill-rule:evenodd;stroke:#000000;stroke-width:1.00000003pt;stroke-opacity:1"
         transform="scale(0.4)"
         inkscape:connector-curvature="0" />
    </marker>
    <marker
       inkscape:stockid="DotM"
       orient="auto"
       refY="0"
       refX="0"
       id="marker2246"
       style="overflow:visible"
       inkscape:isstock="true"
       inkscape:collect="always">
      <path
         id="path2244"
         d="m -2.5,-1 c 0,2.76 -2.24,5 -5,5 -2.76,0 -5,-2.24 -5,-5 0,-2.76 2.24,-5 5,-5 2.76,0 5,2.24 5,5 z"
         style="fill:#000000;fill-opacity:1;fill-rule:evenodd;stroke:#000000;stroke-width:1.00000003pt;stroke-opacity:1"
         transform="matrix(0.4,0,0,0.4,2.96,0.4)"
         inkscape:connector-curvature="0" />
    </marker>
    <marker
       inkscape:isstock="true"
       style="overflow:visible"
       id="marker2150"
       refX="0"
       refY="0"
       orient="auto"
       inkscape:stockid="TriangleOutM"
       inkscape:collect="always">
      <path
         transform="scale(0.4)"
         style="fill:#000000;fill-opacity:1;fill-rule:evenodd;stroke:#000000;stroke-width:1.00000003pt;stroke-opacity:1"
         d="M 5.77,0 -2.88,5 V -5 Z"
         id="path2148"
         inkscape:connector-curvature="0" />
    </marker>
    <marker
       inkscape:isstock="true"
       style="overflow:visible"
       id="marker2062"
       refX="0"
       refY="0"
       orient="auto"
       inkscape:stockid="DotM"
       inkscape:collect="always">
      <path
         transform="matrix(0.4,0,0,0.4,2.96,0.4)"
         style="fill:#000000;fill-opacity:1;fill-rule:evenodd;stroke:#000000;stroke-width:1.00000003pt;stroke-opacity:1"
         d="m -2.5,-1 c 0,2.76 -2.24,5 -5,5 -2.76,0 -5,-2.24 -5,-5 0,-2.76 2.24,-5 5,-5 2.76,0 5,2.24 5,5 z"
         id="path2060"
         inkscape:connector-curvature="0" />
    </marker>
    <marker
       inkscape:stockid="TriangleOutM"
       orient="auto"
       refY="0"
       refX="0"
       id="marker1978"
       style="overflow:visible"
       inkscape:isstock="true"
       inkscape:collect="always">
      <path
         id="path1976"
         d="M 5.77,0 -2.88,5 V -5 Z"
         style="fill:#000000;fill-opacity:1;fill-rule:evenodd;stroke:#000000;stroke-width:1.00000003pt;stroke-opacity:1"
         transform="scale(0.4)"
         inkscape:connector-curvature="0" />
    </marker>
    <marker
       inkscape:stockid="DotM"
       orient="auto"
       refY="0"
       refX="0"
       id="marker1902"
       style="overflow:visible"
       inkscape:isstock="true"
       inkscape:collect="always">
      <path
         id="path1900"
         d="m -2.5,-1 c 0,2.76 -2.24,5 -5,5 -2.76,0 -5,-2.24 -5,-5 0,-2.76 2.24,-5 5,-5 2.76,0 5,2.24 5,5 z"
         style="fill:#000000;fill-opacity:1;fill-rule:evenodd;stroke:#000000;stroke-width:1.00000003pt;stroke-opacity:1"
         transform="matrix(0.4,0,0,0.4,2.96,0.4)"
         inkscape:connector-curvature="0" />
    </marker>
    <marker
       inkscape:isstock="true"
       style="overflow:visible"
       id="marker1830"
       refX="0"
       refY="0"
       orient="auto"
       inkscape:stockid="TriangleOutM"
       inkscape:collect="always">
      <path
         transform="scale(0.4)"
         style="fill:#000000;fill-opacity:1;fill-rule:evenodd;stroke:#000000;stroke-width:1.00000003pt;stroke-opacity:1"
         d="M 5.77,0 -2.88,5 V -5 Z"
         id="path1828"
         inkscape:connector-curvature="0" />
    </marker>
    <marker
       inkscape:isstock="true"
       style="overflow:visible"
       id="marker1766"
       refX="0"
       refY="0"
       orient="auto"
       inkscape:stockid="DotM"
       inkscape:collect="always">
      <path
         transform="matrix(0.4,0,0,0.4,2.96,0.4)"
         style="fill:#000000;fill-opacity:1;fill-rule:evenodd;stroke:#000000;stroke-width:1.00000003pt;stroke-opacity:1"
         d="m -2.5,-1 c 0,2.76 -2.24,5 -5,5 -2.76,0 -5,-2.24 -5,-5 0,-2.76 2.24,-5 5,-5 2.76,0 5,2.24 5,5 z"
         id="path1764"
         inkscape:connector-curvature="0" />
    </marker>
    <marker
       inkscape:stockid="DotM"
       orient="auto"
       refY="0"
       refX="0"
       id="DotM"
       style="overflow:visible"
       inkscape:isstock="true"
       inkscape:collect="always">
      <path
         id="path1368"
         d="m -2.5,-1 c 0,2.76 -2.24,5 -5,5 -2.76,0 -5,-2.24 -5,-5 0,-2.76 2.24,-5 5,-5 2.76,0 5,2.24 5,5 z"
         style="fill:#000000;fill-opacity:1;fill-rule:evenodd;stroke:#000000;stroke-width:1.00000003pt;stroke-opacity:1"
         transform="matrix(0.4,0,0,0.4,2.96,0.4)"
         inkscape:connector-curvature="0" />
    </marker>
    <marker
       inkscape:stockid="DotL"
       orient="auto"
       refY="0"
       refX="0"
       id="DotL"
       style="overflow:visible"
       inkscape:isstock="true">
      <path
         id="path1365"
         d="m -2.5,-1 c 0,2.76 -2.24,5 -5,5 -2.76,0 -5,-2.24 -5,-5 0,-2.76 2.24,-5 5,-5 2.76,0 5,2.24 5,5 z"
         style="fill:#000000;fill-opacity:1;fill-rule:evenodd;stroke:#000000;stroke-width:1.00000003pt;stroke-opacity:1"
         transform="matrix(0.8,0,0,0.8,5.92,0.8)"
         inkscape:connector-curvature="0" />
    </marker>
    <marker
       inkscape:stockid="TriangleOutM"
       orient="auto"
       refY="0"
       refX="0"
       id="TriangleOutM"
       style="overflow:visible"
       inkscape:isstock="true"
       inkscape:collect="always">
      <path
         id="path1449"
         d="M 5.77,0 -2.88,5 V -5 Z"
         style="fill:#000000;fill-opacity:1;fill-rule:evenodd;stroke:#000000;stroke-width:1.00000003pt;stroke-opacity:1"
         transform="scale(0.4)"
         inkscape:connector-curvature="0" />
    </marker>
    <marker
       inkscape:stockid="Arrow1Mend"
       orient="auto"
       refY="0"
       refX="0"
       id="Arrow1Mend"
       style="overflow:visible"
       inkscape:isstock="true">
      <path
         id="path1313"
         d="M 0,0 5,-5 -12.5,0 5,5 Z"
         style="fill:#000000;fill-opacity:1;fill-rule:evenodd;stroke:#000000;stroke-width:1.00000003pt;stroke-opacity:1"
         transform="matrix(-0.4,0,0,-0.4,-4,0)"
         inkscape:connector-curvature="0" />
    </marker>
    <marker
       inkscape:stockid="TriangleOutL"
       orient="auto"
       refY="0"
       refX="0"
       id="TriangleOutL"
       style="overflow:visible"
       inkscape:isstock="true">
      <path
         id="path1446"
         d="M 5.77,0 -2.88,5 V -5 Z"
         style="fill:#000000;fill-opacity:1;fill-rule:evenodd;stroke:#000000;stroke-width:1.00000003pt;stroke-opacity:1"
         transform="scale(0.8)"
         inkscape:connector-curvature="0" />
    </marker>
    <inkscape:path-effect
       effect="bspline"
       id="path-effect1149"
       is_visible="true"
       weight="33.333333"
       steps="2"
       helper_size="0"
       apply_no_weight="true"
       apply_with_weight="true"
       only_selected="false" />
    <inkscape:path-effect
       effect="bspline"
       id="path-effect1145"
       is_visible="true"
       weight="33.333333"
       steps="2"
       helper_size="0"
       apply_no_weight="true"
       apply_with_weight="true"
       only_selected="false" />
    <inkscape:path-effect
       effect="bspline"
       id="path-effect1141"
       is_visible="true"
       weight="33.333333"
       steps="2"
       helper_size="0"
       apply_no_weight="true"
       apply_with_weight="true"
       only_selected="false" />
  </defs>
  <sodipodi:namedview
     id="base"
     pagecolor="#ffffff"
     bordercolor="#666666"
     borderopacity="1.0"
     inkscape:pageopacity="0.0"
     inkscape:pageshadow="2"
     inkscape:zoom="1.3245202"
     inkscape:cx="377.95276"
     inkscape:cy="311.81102"
     inkscape:document-units="mm"
     inkscape:current-layer="layer1"
     showgrid="false"
     inkscape:window-width="1920"
     inkscape:window-height="1013"
     inkscape:window-x="-9"
     inkscape:window-y="-9"
     inkscape:window-maximized="1"
     showguides="true"
     inkscape:guide-bbox="true"
     width="180mm"
     inkscape:lockguides="false">
    <sodipodi:guide
       position="67.26392,64.999998"
       orientation="0,1"
       id="guide1162"
       inkscape:locked="false"
       inkscape:label=""
       inkscape:color="rgb(0,0,255)" />
    <sodipodi:guide
       position="57.239707,54.999998"
       orientation="0,1"
       id="guide1164"
       inkscape:locked="false"
       inkscape:label=""
       inkscape:color="rgb(0,0,255)" />
    <sodipodi:guide
       position="55.786923,74.999998"
       orientation="0,1"
       id="guide1166"
       inkscape:locked="false"
       inkscape:label=""
       inkscape:color="rgb(0,0,255)" />
    <sodipodi:guide
       position="58.401935,84.999998"
       orientation="0,1"
       id="guide1168"
       inkscape:locked="false"
       inkscape:label=""
       inkscape:color="rgb(0,0,255)" />
    <sodipodi:guide
       position="58.11138,45"
       orientation="0,1"
       id="guide1170"
       inkscape:locked="false"
       inkscape:label=""
       inkscape:color="rgb(0,0,255)" />
    <sodipodi:guide
       position="67.409198,155"
       orientation="0,1"
       id="guide1174"
       inkscape:locked="false"
       inkscape:label=""
       inkscape:color="rgb(0,0,255)" />
    <sodipodi:guide
       position="74.237286,145"
       orientation="0,1"
       id="guide1176"
       inkscape:locked="false"
       inkscape:label=""
       inkscape:color="rgb(0,0,255)" />
    <sodipodi:guide
       position="73.220336,135"
       orientation="0,1"
       id="guide1178"
       inkscape:locked="false"
       inkscape:label=""
       inkscape:color="rgb(0,0,255)" />
    <sodipodi:guide
       position="10,76.561744"
       orientation="1,0"
       id="guide1180"
       inkscape:locked="false"
       inkscape:label=""
       inkscape:color="rgb(0,0,255)" />
    <sodipodi:guide
       position="55.980628,39.999999"
       orientation="0,1"
       id="guide1214"
       inkscape:locked="false"
       inkscape:label=""
       inkscape:color="rgb(0,0,255)" />
    <sodipodi:guide
       position="49.999999,114.47942"
       orientation="1,0"
       id="guide1216"
       inkscape:locked="false"
       inkscape:label=""
       inkscape:color="rgb(0,0,255)" />
    <sodipodi:guide
       position="69.999998,108.66828"
       orientation="1,0"
       id="guide1218"
       inkscape:locked="false"
       inkscape:label=""
       inkscape:color="rgb(0,0,255)" />
    <sodipodi:guide
       position="170,117.38498"
       orientation="1,0"
       id="guide1220"
       inkscape:locked="false"
       inkscape:label=""
       inkscape:color="rgb(0,0,255)" />
    <sodipodi:guide
       position="79.999999,103.43825"
       orientation="1,0"
       id="guide1222"
       inkscape:locked="false"
       inkscape:label=""
       inkscape:color="rgb(0,0,255)" />
    <sodipodi:guide
       position="89.999998,106.15012"
       orientation="1,0"
       id="guide1224"
       inkscape:locked="false"
       inkscape:label=""
       inkscape:color="rgb(0,0,255)" />
    <sodipodi:guide
       position="99.999998,107.31235"
       orientation="1,0"
       id="guide1226"
       inkscape:locked="false"
       inkscape:label=""
       inkscape:color="rgb(0,0,255)" />
    <sodipodi:guide
       position="110,109.6368"
       orientation="1,0"
       id="guide1228"
       inkscape:locked="false"
       inkscape:label=""
       inkscape:color="rgb(0,0,255)" />
    <sodipodi:guide
       position="120,105.76271"
       orientation="1,0"
       id="guide1230"
       inkscape:locked="false"
       inkscape:label=""
       inkscape:color="rgb(0,0,255)" />
    <sodipodi:guide
       position="130,107.31235"
       orientation="1,0"
       id="guide1232"
       inkscape:locked="false"
       inkscape:label=""
       inkscape:color="rgb(0,0,255)" />
    <sodipodi:guide
       position="140,113.51089"
       orientation="1,0"
       id="guide1234"
       inkscape:locked="false"
       inkscape:label=""
       inkscape:color="rgb(0,0,255)" />
    <sodipodi:guide
       position="150,101.50121"
       orientation="1,0"
       id="guide1236"
       inkscape:locked="false"
       inkscape:label=""
       inkscape:color="rgb(0,0,255)" />
    <sodipodi:guide
       position="160,106.34382"
       orientation="1,0"
       id="guide1238"
       inkscape:locked="false"
       inkscape:label=""
       inkscape:color="rgb(0,0,255)" />
    <sodipodi:guide
       position="22,106.15012"
       orientation="1,0"
       id="guide1240"
       inkscape:locked="false"
       inkscape:label=""
       inkscape:color="rgb(0,0,255)" />
    <sodipodi:guide
       position="186.53753,20"
       orientation="0,1"
       id="guide1242"
       inkscape:locked="false"
       inkscape:label=""
       inkscape:color="rgb(0,0,255)" />
    <sodipodi:guide
       position="193.7046,18"
       orientation="0,1"
       id="guide1244"
       inkscape:locked="false"
       inkscape:label=""
       inkscape:color="rgb(0,0,255)" />
    <sodipodi:guide
       position="195.83535,14"
       orientation="0,1"
       id="guide1246"
       inkscape:locked="false"
       inkscape:label=""
       inkscape:color="rgb(0,0,255)" />
    <sodipodi:guide
       position="189.05569,7.9999999"
       orientation="0,1"
       id="guide1248"
       inkscape:locked="false"
       inkscape:label=""
       inkscape:color="rgb(0,0,255)" />
    <sodipodi:guide
       position="189.24939,35.999999"
       orientation="0,1"
       id="guide1250"
       inkscape:locked="false"
       inkscape:label=""
       inkscape:color="rgb(0,0,255)" />
    <sodipodi:guide
       position="188.28087,31.999999"
       orientation="0,1"
       id="guide1252"
       inkscape:locked="false"
       inkscape:label=""
       inkscape:color="rgb(0,0,255)" />
    <sodipodi:guide
       position="195,110.02421"
       orientation="1,0"
       id="guide1254"
       inkscape:locked="false"
       inkscape:label=""
       inkscape:color="rgb(0,0,255)" />
    <sodipodi:guide
       position="182.5,103.05084"
       orientation="1,0"
       id="guide1256"
       inkscape:locked="false"
       inkscape:label=""
       inkscape:color="rgb(0,0,255)" />
    <sodipodi:guide
       position="115.29543,7.2743822"
       orientation="0,1"
       id="guide3738"
       inkscape:locked="false" />
    <sodipodi:guide
       position="176.25,150.46671"
       orientation="1,0"
       id="guide3772"
       inkscape:locked="false"
       inkscape:label=""
       inkscape:color="rgb(0,0,255)" />
    <sodipodi:guide
       position="188.75,149.79577"
       orientation="1,0"
       id="guide3774"
       inkscape:locked="false"
       inkscape:label=""
       inkscape:color="rgb(0,0,255)" />
  </sodipodi:namedview>
  <metadata
     id="metadata5">
    <rdf:RDF>
      <cc:Work
         rdf:about="">
        <dc:format>image/svg+xml</dc:format>
        <dc:type
           rdf:resource="http://purl.org/dc/dcmitype/StillImage" />
        <dc:title></dc:title>
      </cc:Work>
    </rdf:RDF>
  </metadata>
  <g
     inkscape:label="Layer 1"
     inkscape:groupmode="layer"
     id="layer1"
     transform="translate(0,-132)">
    <g
       aria-label="3S1"
       style="font-style:normal;font-weight:normal;font-size:6.3499999px;line-height:1.25;font-family:sans-serif;letter-spacing:0px;word-spacing:0px;writing-mode:lr-tb;direction:ltr;fill:#000000;fill-opacity:1;stroke:none;stroke-width:0.26458332"
       id="text1200">
      <path
         d="m 2.6246527,149.81884 q 0.096738,0.0867 0.159215,0.21766 0.062477,0.131 0.062477,0.33858 0,0.20557 -0.074569,0.37688 -0.074569,0.1713 -0.2095996,0.29827 -0.1511536,0.14108 -0.3567224,0.2096 -0.2035535,0.0665 -0.4474145,0.0665 -0.2499072,0 -0.4917529,-0.0605 -0.2418457,-0.0585 -0.39702999,-0.12899 v -0.42121 h 0.0302307 q 0.17130738,0.11286 0.40307618,0.18743 0.2317687,0.0746 0.4474145,0.0746 0.1269689,0 0.270061,-0.0423 0.143092,-0.0423 0.2317687,-0.12496 0.092708,-0.0887 0.1370459,-0.19549 0.046354,-0.10681 0.046354,-0.27006 0,-0.16123 -0.0524,-0.26603 -0.050385,-0.10682 -0.1410767,-0.16728 -0.090692,-0.0625 -0.2196765,-0.0846 -0.1289843,-0.0242 -0.2781225,-0.0242 H 1.5625471 v -0.33455 h 0.1410766 q 0.3063379,0 0.4877221,-0.12697 0.1833997,-0.12898 0.1833997,-0.37486 0,-0.10883 -0.046354,-0.18945 -0.046354,-0.0826 -0.1289844,-0.13503 -0.086661,-0.0524 -0.185415,-0.0726 -0.098754,-0.0202 -0.2237072,-0.0202 -0.1914612,0 -0.4071069,0.0685 -0.2156457,0.0685 -0.40710691,0.19348 h -0.0201538 v -0.42122 q 0.14309202,-0.0705 0.38090692,-0.12898 0.2398303,-0.0605 0.4635376,-0.0605 0.2196765,0 0.3869531,0.0403 0.1672766,0.0403 0.3023071,0.12899 0.1451074,0.0967 0.2196765,0.23378 0.074569,0.13705 0.074569,0.32045 0,0.2499 -0.1773535,0.43733 -0.1753381,0.18542 -0.4151684,0.23379 v 0.0282 q 0.096738,0.0161 0.2216919,0.0685 0.1249536,0.0504 0.211615,0.12697 z"
         style="font-size:64.99999762%;baseline-shift:super"
         id="path3929" />
      <path
         d="m 7.1356949,152.48611 q 0,0.26976 -0.127124,0.53331 -0.1240234,0.26355 -0.3503662,0.44648 -0.2480469,0.19844 -0.5798095,0.31006 -0.3286621,0.11162 -0.79375,0.11162 -0.4991944,0 -0.8991699,-0.093 -0.396875,-0.093 -0.809253,-0.27595 v -0.76895 h 0.043408 q 0.3503663,0.29146 0.809253,0.44959 0.4588867,0.15813 0.8619628,0.15813 0.5705078,0 0.8867676,-0.21394 0.3193604,-0.21394 0.3193604,-0.57051 0,-0.30696 -0.1519288,-0.45268 -0.1488281,-0.14573 -0.4557861,-0.22635 -0.2325439,-0.062 -0.5053955,-0.10232 -0.269751,-0.0403 -0.5736084,-0.10232 -0.613916,-0.13022 -0.9115722,-0.44338 -0.2945557,-0.31626 -0.2945557,-0.82166 0,-0.5798 0.4898926,-0.94877 0.4898926,-0.37207 1.2433349,-0.37207 0.486792,0 0.8929688,0.093 0.4061767,0.093 0.7193359,0.22945 v 0.72553 h -0.043408 q -0.2635498,-0.22324 -0.6945313,-0.36897 -0.4278808,-0.14882 -0.8774658,-0.14882 -0.4929931,0 -0.7937499,0.20463 -0.2976563,0.20464 -0.2976563,0.5271 0,0.28836 0.1488281,0.45269 0.1488282,0.16433 0.523999,0.25115 0.1984375,0.0434 0.5643067,0.10542 0.3658691,0.062 0.6201172,0.12712 0.5146972,0.13643 0.7751464,0.41238 0.2604492,0.27595 0.2604492,0.77204 z"
         style="stroke-width:0.26458332"
         id="path3931" />
      <path
         d="M 9.686237,155.07386 H 8.0618402 v -0.30633 h 0.624768 v -2.01135 h -0.624768 v -0.2741 q 0.126969,0 0.2720764,-0.0202 0.1451074,-0.0222 0.2196765,-0.0625 0.092707,-0.0504 0.1451074,-0.12697 0.054415,-0.0786 0.062477,-0.2096 h 0.312384 v 2.70465 H 9.686237 Z"
         style="font-size:64.99999762%;baseline-shift:sub"
         id="path3933" />
    </g>
    <g
       aria-label="3P2"
       style="font-style:normal;font-weight:normal;font-size:6.3499999px;line-height:1.25;font-family:sans-serif;letter-spacing:0px;word-spacing:0px;writing-mode:lr-tb;direction:ltr;fill:#000000;fill-opacity:1;stroke:none;stroke-width:0.26458332"
       id="text1208">
      <path
         d="m 2.5762247,230.98108 q 0.096738,0.0867 0.1592151,0.21766 0.062477,0.131 0.062477,0.33859 0,0.20557 -0.074569,0.37687 -0.074569,0.17131 -0.2095996,0.29828 -0.1511536,0.14108 -0.3567224,0.2096 -0.2035534,0.0665 -0.4474145,0.0665 -0.2499072,0 -0.4917529,-0.0605 -0.24184564,-0.0585 -0.39702996,-0.12899 v -0.42121 h 0.0302307 q 0.17130735,0.11286 0.40307615,0.18743 0.2317688,0.0746 0.4474145,0.0746 0.126969,0 0.270061,-0.0423 0.143092,-0.0423 0.2317688,-0.12495 0.092707,-0.0887 0.1370459,-0.19549 0.046354,-0.10682 0.046354,-0.27006 0,-0.16123 -0.0524,-0.26603 -0.050385,-0.10682 -0.1410766,-0.16728 -0.090692,-0.0625 -0.2196765,-0.0847 -0.1289844,-0.0242 -0.2781226,-0.0242 H 1.5141191 v -0.33455 h 0.1410766 q 0.3063379,0 0.4877222,-0.12697 0.1833996,-0.12899 0.1833996,-0.37486 0,-0.10883 -0.046354,-0.18945 -0.046354,-0.0826 -0.1289843,-0.13503 -0.086661,-0.0524 -0.185415,-0.0726 -0.098754,-0.0202 -0.2237073,-0.0202 -0.1914612,0 -0.4071069,0.0685 -0.2156457,0.0685 -0.40710688,0.19347 h -0.0201538 v -0.42121 q 0.14309199,-0.0705 0.38090699,-0.12899 0.2398303,-0.0605 0.4635375,-0.0605 0.2196765,0 0.3869531,0.0403 0.1672766,0.0403 0.3023071,0.12898 0.1451074,0.0967 0.2196765,0.23379 0.074569,0.13704 0.074569,0.32044 0,0.24991 -0.1773535,0.43734 -0.1753381,0.18542 -0.4151684,0.23379 v 0.0282 q 0.096738,0.0161 0.2216918,0.0685 0.1249536,0.0504 0.211615,0.12697 z"
         style="font-size:64.99999762%;baseline-shift:super"
         id="path3910" />
      <path
         d="m 6.7524037,231.7446 q 0,0.30696 -0.1085205,0.57051 -0.1054199,0.26045 -0.2976563,0.45268 -0.2387451,0.23875 -0.5643066,0.35967 -0.3255615,0.11783 -0.8216552,0.11783 H 4.346349 v 1.72082 H 3.732433 v -4.61677 h 1.2526367 q 0.4154786,0 0.703833,0.0713 0.2883545,0.0682 0.5115967,0.21704 0.2635498,0.17674 0.4061768,0.44029 0.1457275,0.26355 0.1457275,0.66662 z m -0.6387207,0.0155 q 0,-0.23874 -0.083716,-0.41547 -0.083716,-0.17674 -0.2542481,-0.28836 -0.1488281,-0.0961 -0.3410644,-0.13642 -0.1891357,-0.0434 -0.4805908,-0.0434 H 4.346349 v 1.84485 h 0.5177979 q 0.3720703,0 0.6046142,-0.0651 0.232544,-0.0682 0.3782715,-0.21394 0.1457276,-0.14882 0.2046387,-0.31316 0.062012,-0.16433 0.062012,-0.36897 z"
         style="stroke-width:0.26458332"
         id="path3912" />
      <path
         d="M 9.3006201,236.23611 H 7.2691164 v -0.42121 q 0.211615,-0.18139 0.42323,-0.36277 0.2136303,-0.18139 0.3970299,-0.36076 0.3869531,-0.37486 0.5300452,-0.59453 0.143092,-0.2217 0.143092,-0.47765 0,-0.23378 -0.1551843,-0.36478 -0.153169,-0.13302 -0.4292761,-0.13302 -0.1833996,0 -0.39703,0.0645 -0.2136303,0.0645 -0.4171838,0.19751 h -0.020154 v -0.42323 q 0.143092,-0.0705 0.3809069,-0.12898 0.2398303,-0.0584 0.4635376,-0.0584 0.4615222,0 0.7235216,0.22371 0.2619995,0.22169 0.2619995,0.6026 0,0.17131 -0.044338,0.32044 -0.042323,0.14713 -0.126969,0.28014 -0.0786,0.12495 -0.185415,0.24588 -0.1047998,0.12092 -0.2559534,0.26804 -0.2156457,0.21162 -0.4453991,0.41114 -0.2297534,0.19751 -0.4292761,0.3668 h 1.6143199 z"
         style="font-size:64.99999762%;baseline-shift:sub"
         id="path3914" />
    </g>
    <path
       style="fill:none;stroke:#000000;stroke-width:0.5;stroke-linecap:butt;stroke-linejoin:miter;stroke-miterlimit:4;stroke-dasharray:none;stroke-opacity:1"
       d="M 10,152 H 50"
       id="path1258"
       inkscape:connector-curvature="0" />
    <path
       style="fill:none;stroke:#000000;stroke-width:0.5;stroke-linecap:butt;stroke-linejoin:miter;stroke-miterlimit:4;stroke-dasharray:none;stroke-opacity:1"
       d="M 10,232 H 50"
       id="path1260"
       inkscape:connector-curvature="0" />
    <path
       style="fill:none;stroke:#000000;stroke-width:0.5;stroke-linecap:butt;stroke-linejoin:miter;stroke-miterlimit:4;stroke-dasharray:none;stroke-opacity:1"
       d="M 69.999999,152 H 170"
       id="path1262"
       inkscape:connector-curvature="0" />
    <path
       style="fill:none;stroke:#000000;stroke-width:0.5;stroke-linecap:butt;stroke-linejoin:miter;stroke-miterlimit:4;stroke-dasharray:none;stroke-opacity:1"
       d="M 69.999999,142 H 170"
       id="path1264"
       inkscape:connector-curvature="0" />
    <path
       style="fill:none;stroke:#000000;stroke-width:0.5;stroke-linecap:butt;stroke-linejoin:miter;stroke-miterlimit:4;stroke-dasharray:none;stroke-opacity:1"
       d="M 69.999999,162 H 170"
       id="path1266"
       inkscape:connector-curvature="0" />
    <path
       style="fill:none;stroke:#000000;stroke-width:0.5;stroke-linecap:butt;stroke-linejoin:miter;stroke-miterlimit:4;stroke-dasharray:none;stroke-opacity:1"
       d="M 69.999999,212 H 170"
       id="path1278"
       inkscape:connector-curvature="0" />
    <path
       style="fill:none;stroke:#000000;stroke-width:0.5;stroke-linecap:butt;stroke-linejoin:miter;stroke-miterlimit:4;stroke-dasharray:none;stroke-opacity:1"
       d="M 69.999999,222 H 170"
       id="path1280"
       inkscape:connector-curvature="0" />
    <path
       style="fill:none;stroke:#000000;stroke-width:0.5;stroke-linecap:butt;stroke-linejoin:miter;stroke-miterlimit:4;stroke-dasharray:none;stroke-opacity:1"
       d="M 69.999999,232 H 170"
       id="path1282"
       inkscape:connector-curvature="0" />
    <path
       style="fill:none;stroke:#000000;stroke-width:0.5;stroke-linecap:butt;stroke-linejoin:miter;stroke-miterlimit:4;stroke-dasharray:none;stroke-opacity:1"
       d="M 69.999999,242 H 170"
       id="path1284"
       inkscape:connector-curvature="0" />
    <path
       style="fill:none;stroke:#000000;stroke-width:0.5;stroke-linecap:butt;stroke-linejoin:miter;stroke-miterlimit:4;stroke-dasharray:none;stroke-opacity:1"
       d="M 69.999999,252 H 170"
       id="path1286"
       inkscape:connector-curvature="0" />
    <path
       style="fill:none;stroke:#000000;stroke-width:0.5;stroke-linecap:butt;stroke-linejoin:miter;stroke-miterlimit:4;stroke-dasharray:none;stroke-opacity:1"
       d="M 69.999999,277 H 170"
       id="path1288"
       inkscape:connector-curvature="0" />
    <path
       style="fill:none;stroke:#000000;stroke-width:0.5;stroke-linecap:butt;stroke-linejoin:miter;stroke-miterlimit:4;stroke-dasharray:3.00000008, 3.00000008;stroke-dashoffset:0;stroke-opacity:1"
       d="M 69.999999,142 50,152 h 20"
       id="path1290"
       inkscape:connector-curvature="0" />
    <path
       style="fill:none;stroke:#000000;stroke-width:0.5;stroke-linecap:butt;stroke-linejoin:miter;stroke-miterlimit:4;stroke-dasharray:3, 3;stroke-dashoffset:0;stroke-opacity:1"
       d="m 50,152 19.999999,10"
       id="path1292"
       inkscape:connector-curvature="0" />
    <path
       style="fill:none;stroke:#000000;stroke-width:0.5;stroke-linecap:butt;stroke-linejoin:miter;stroke-miterlimit:4;stroke-dasharray:3.00000008, 3.00000008;stroke-dashoffset:0;stroke-opacity:1"
       d="M 50,232 69.999999,212"
       id="path1294"
       inkscape:connector-curvature="0" />
    <path
       style="fill:none;stroke:#000000;stroke-width:0.5;stroke-linecap:butt;stroke-linejoin:miter;stroke-miterlimit:4;stroke-dasharray:3, 3;stroke-dashoffset:0;stroke-opacity:1"
       d="M 69.999999,222 50,232 h 20"
       id="path1296"
       inkscape:connector-curvature="0" />
    <path
       style="fill:none;stroke:#000000;stroke-width:0.5;stroke-linecap:butt;stroke-linejoin:miter;stroke-miterlimit:4;stroke-dasharray:3, 3;stroke-dashoffset:0;stroke-opacity:1"
       d="M 69.999999,242 50,232"
       id="path1298"
       inkscape:connector-curvature="0" />
    <path
       style="fill:none;stroke:#000000;stroke-width:0.5;stroke-linecap:butt;stroke-linejoin:miter;stroke-miterlimit:4;stroke-dasharray:3.00000008, 3.00000008;stroke-dashoffset:0;stroke-opacity:1"
       d="m 50,232 19.999999,20"
       id="path1300"
       inkscape:connector-curvature="0" />
    <path
       style="fill:none;stroke:#000000;stroke-width:0.5;stroke-linecap:butt;stroke-linejoin:miter;stroke-miterlimit:4;stroke-dasharray:none;stroke-opacity:1;marker-start:url(#DotM);marker-end:url(#TriangleOutM)"
       d="m 80,162 v 70"
       id="path1302"
       inkscape:connector-curvature="0" />
    <path
       style="fill:none;stroke:#000000;stroke-width:0.5;stroke-linecap:butt;stroke-linejoin:miter;stroke-miterlimit:4;stroke-dasharray:none;stroke-opacity:1;marker-start:url(#marker1766);marker-end:url(#marker1830)"
       d="m 89.999999,152 v 70"
       id="path1756"
       inkscape:connector-curvature="0" />
    <path
       style="fill:none;stroke:#000000;stroke-width:0.5;stroke-linecap:butt;stroke-linejoin:miter;stroke-miterlimit:4;stroke-dasharray:none;stroke-opacity:1;marker-start:url(#marker1902);marker-end:url(#marker1978)"
       d="m 100,142 v 70"
       id="path1892"
       inkscape:connector-curvature="0" />
    <path
       style="fill:none;stroke:#000000;stroke-width:0.5;stroke-linecap:butt;stroke-linejoin:miter;stroke-miterlimit:4;stroke-dasharray:none;stroke-opacity:1;marker-start:url(#marker2062);marker-end:url(#marker2150)"
       d="m 110,162 v 80"
       id="path2052"
       inkscape:connector-curvature="0" />
    <path
       style="fill:none;stroke:#000000;stroke-width:0.5;stroke-linecap:butt;stroke-linejoin:miter;stroke-miterlimit:4;stroke-dasharray:none;stroke-opacity:1;marker-start:url(#marker2246);marker-end:url(#marker2346)"
       d="m 120,152 v 80"
       id="path2236"
       inkscape:connector-curvature="0" />
    <path
       style="fill:none;stroke:#000000;stroke-width:0.5;stroke-linecap:butt;stroke-linejoin:miter;stroke-miterlimit:4;stroke-dasharray:none;stroke-opacity:1;marker-start:url(#marker2454);marker-end:url(#marker2566)"
       d="m 130,142 v 80"
       id="path2444"
       inkscape:connector-curvature="0" />
    <path
       style="fill:none;stroke:#000000;stroke-width:0.5;stroke-linecap:butt;stroke-linejoin:miter;stroke-miterlimit:4;stroke-dasharray:none;stroke-opacity:1;marker-start:url(#marker2686);marker-end:url(#marker2810)"
       d="m 140,162 v 90"
       id="path2676"
       inkscape:connector-curvature="0" />
    <path
       style="fill:none;stroke:#000000;stroke-width:0.5;stroke-linecap:butt;stroke-linejoin:miter;stroke-miterlimit:4;stroke-dasharray:none;stroke-opacity:1;marker-start:url(#marker2942);marker-end:url(#marker3078)"
       d="m 150,152 v 90"
       id="path2932"
       inkscape:connector-curvature="0" />
    <path
       style="fill:none;stroke:#000000;stroke-width:0.5;stroke-linecap:butt;stroke-linejoin:miter;stroke-miterlimit:4;stroke-dasharray:none;stroke-opacity:1;marker-start:url(#marker3222);marker-end:url(#marker3370)"
       d="m 160,142 v 90"
       id="path3212"
       inkscape:connector-curvature="0" />
    <path
       style="fill:none;stroke:#000000;stroke-width:0.5;stroke-linecap:butt;stroke-linejoin:miter;stroke-miterlimit:4;stroke-dasharray:none;stroke-opacity:1"
       d="m 80,277 v 2"
       id="path3516"
       inkscape:connector-curvature="0" />
    <path
       style="fill:none;stroke:#000000;stroke-width:0.5;stroke-linecap:butt;stroke-linejoin:miter;stroke-miterlimit:4;stroke-dasharray:none;stroke-opacity:1"
       d="m 89.999999,277 v 6"
       id="path3518"
       inkscape:connector-curvature="0" />
    <path
       style="fill:none;stroke:#000000;stroke-width:0.5;stroke-linecap:butt;stroke-linejoin:miter;stroke-miterlimit:4;stroke-dasharray:none;stroke-opacity:1"
       d="m 100,277 v 12"
       id="path3520"
       inkscape:connector-curvature="0" />
    <path
       style="fill:none;stroke:#000000;stroke-width:0.5;stroke-linecap:butt;stroke-linejoin:miter;stroke-miterlimit:4;stroke-dasharray:none;stroke-opacity:1"
       d="M 110,277 V 265"
       id="path3522"
       inkscape:connector-curvature="0" />
    <path
       style="fill:none;stroke:#000000;stroke-width:0.5;stroke-linecap:butt;stroke-linejoin:miter;stroke-miterlimit:4;stroke-dasharray:none;stroke-opacity:1"
       d="M 120,277 V 261"
       id="path3524"
       inkscape:connector-curvature="0" />
    <path
       style="fill:none;stroke:#000000;stroke-width:0.5;stroke-linecap:butt;stroke-linejoin:miter;stroke-miterlimit:4;stroke-dasharray:none;stroke-opacity:1"
       d="M 130,277 V 265"
       id="path3526"
       inkscape:connector-curvature="0" />
    <path
       style="fill:none;stroke:#000000;stroke-width:0.5;stroke-linecap:butt;stroke-linejoin:miter;stroke-miterlimit:4;stroke-dasharray:none;stroke-opacity:1"
       d="m 140,277 v 12"
       id="path3528"
       inkscape:connector-curvature="0" />
    <path
       style="fill:none;stroke:#000000;stroke-width:0.5;stroke-linecap:butt;stroke-linejoin:miter;stroke-miterlimit:4;stroke-dasharray:none;stroke-opacity:1"
       d="m 150,277 v 6"
       id="path3530"
       inkscape:connector-curvature="0" />
    <path
       style="fill:none;stroke:#000000;stroke-width:0.5;stroke-linecap:butt;stroke-linejoin:miter;stroke-miterlimit:4;stroke-dasharray:none;stroke-opacity:1"
       d="m 160,277 v 2"
       id="path3532"
       inkscape:connector-curvature="0" />
    <path
       style="fill:none;stroke:#000000;stroke-width:0.5;stroke-linecap:butt;stroke-linejoin:miter;stroke-miterlimit:4;stroke-dasharray:none;stroke-opacity:1;marker-end:url(#marker3544)"
       d="m 22,152 v 80"
       id="path3534"
       inkscape:connector-curvature="0" />
    <g
       aria-label="Hg546.1nm"
       style="font-style:normal;font-weight:normal;font-size:6.3499999px;line-height:1.25;font-family:sans-serif;letter-spacing:0px;word-spacing:0px;writing-mode:lr-tb;direction:ltr;fill:#000000;fill-opacity:1;stroke:none;stroke-width:0.26458332"
       id="text3692">
      <path
         d="m 26.763177,194.14287 h -0.613916 v -2.26033 h -2.303736 v 2.26033 h -0.613916 v -4.61677 h 0.613916 v 1.81074 h 2.303736 v -1.81074 h 0.613916 z"
         style="stroke-width:0.26458332"
         id="path3943" />
      <path
         d="m 30.769134,193.74909 q 0,0.88057 -0.399976,1.29295 -0.399975,0.41238 -1.230932,0.41238 -0.275953,0 -0.539502,-0.0403 -0.26045,-0.0372 -0.514698,-0.10852 v -0.59531 h 0.03101 q 0.142627,0.0558 0.452686,0.13642 0.310058,0.0837 0.620117,0.0837 0.297656,0 0.492993,-0.0713 0.195337,-0.0713 0.303857,-0.19843 0.108521,-0.12093 0.15503,-0.29146 0.04651,-0.17053 0.04651,-0.38137 v -0.31626 q -0.26355,0.21084 -0.505396,0.31626 -0.238745,0.10232 -0.610815,0.10232 -0.620118,0 -0.985987,-0.44649 -0.362768,-0.44958 -0.362768,-1.26504 0,-0.44648 0.124023,-0.76894 0.127124,-0.32556 0.344165,-0.56121 0.201538,-0.22014 0.489893,-0.34106 0.288354,-0.12402 0.573608,-0.12402 0.300757,0 0.502295,0.062 0.204639,0.0589 0.430982,0.18293 l 0.03721,-0.14883 h 0.545703 z m -0.58291,-0.5581 v -1.88826 q -0.232544,-0.10542 -0.434082,-0.14883 -0.198438,-0.0465 -0.396875,-0.0465 -0.480591,0 -0.756543,0.32247 -0.275953,0.32246 -0.275953,0.93637 0,0.58291 0.204639,0.88367 0.204639,0.30076 0.679028,0.30076 0.254248,0 0.508497,-0.0961 0.257348,-0.0992 0.471289,-0.26355 z"
         style="stroke-width:0.26458332"
         id="path3945" />
      <path
         d="m 34.93012,192.67629 q 0,0.32246 -0.117822,0.61702 -0.117823,0.29455 -0.322461,0.49609 -0.223243,0.21704 -0.533301,0.33486 -0.306958,0.11473 -0.713135,0.11473 -0.378271,0 -0.728638,-0.0806 -0.350366,-0.0775 -0.592211,-0.18913 v -0.65423 h 0.04341 q 0.254248,0.16123 0.595312,0.27595 0.341065,0.11162 0.669727,0.11162 0.220141,0 0.42478,-0.062 0.207739,-0.062 0.36897,-0.21704 0.136426,-0.13332 0.204638,-0.31936 0.07131,-0.18603 0.07131,-0.43098 0,-0.23874 -0.08372,-0.40308 -0.08062,-0.16433 -0.226343,-0.26355 -0.16123,-0.11782 -0.393774,-0.16433 -0.229443,-0.0496 -0.514697,-0.0496 -0.272852,0 -0.5271,0.0372 -0.251147,0.0372 -0.434082,0.0744 v -2.37815 h 2.778125 v 0.5426 h -2.179712 v 1.22783 q 0.133325,-0.0124 0.272852,-0.0186 0.139526,-0.006 0.241845,-0.006 0.375171,0 0.657325,0.0651 0.282153,0.062 0.517797,0.22324 0.248047,0.17053 0.384473,0.44028 0.136426,0.26975 0.136426,0.67593 z"
         style="stroke-width:0.26458332"
         id="path3947" />
      <path
         d="m 39.115911,192.84372 h -0.685229 v 1.29915 h -0.595313 v -1.29915 h -2.210718 v -0.71313 l 2.235523,-2.60449 h 0.570508 v 2.82153 h 0.685229 z m -1.280542,-0.49609 v -2.08359 l -1.789038,2.08359 z"
         style="stroke-width:0.26458332"
         id="path3949" />
      <path
         d="m 43.121867,192.64529 q 0,0.70383 -0.465088,1.15031 -0.461987,0.44339 -1.134814,0.44339 -0.341064,0 -0.620117,-0.10542 -0.279053,-0.10542 -0.492993,-0.31316 -0.266651,-0.25735 -0.412378,-0.68213 -0.142627,-0.42478 -0.142627,-1.0232 0,-0.61391 0.130224,-1.0883 0.133326,-0.47439 0.42168,-0.84336 0.272852,-0.35037 0.703833,-0.5457 0.430982,-0.19844 1.00459,-0.19844 0.182934,0 0.306958,0.0155 0.124023,0.0155 0.251147,0.0558 v 0.59221 h -0.03101 q -0.08682,-0.0465 -0.26355,-0.0868 -0.173633,-0.0434 -0.356568,-0.0434 -0.666626,0 -1.063501,0.41858 -0.396875,0.41548 -0.461987,1.12551 0.260449,-0.15813 0.511597,-0.23874 0.254248,-0.0837 0.58601,-0.0837 0.294556,0 0.517798,0.0558 0.226343,0.0527 0.461988,0.21704 0.272851,0.18914 0.409277,0.47749 0.139526,0.28836 0.139526,0.70074 z m -0.629419,0.0248 q 0,-0.28835 -0.08682,-0.47749 -0.08372,-0.18914 -0.279053,-0.32866 -0.142627,-0.0992 -0.31626,-0.13023 -0.173632,-0.031 -0.362768,-0.031 -0.26355,0 -0.489893,0.062 -0.226342,0.062 -0.465088,0.19223 -0.0062,0.0682 -0.0093,0.13333 -0.0031,0.062 -0.0031,0.15813 0,0.48989 0.09922,0.77515 0.102319,0.28215 0.279053,0.44648 0.142627,0.13643 0.306958,0.20154 0.167431,0.062 0.362768,0.062 0.449585,0 0.706934,-0.27285 0.257348,-0.27595 0.257348,-0.79065 z"
         style="stroke-width:0.26458332"
         id="path3951" />
      <path
         d="m 44.997721,194.14287 h -0.74104 v -0.88367 h 0.74104 z"
         style="stroke-width:0.26458332"
         id="path3953" />
      <path
         d="m 49.140105,194.14287 h -2.499072 v -0.47129 h 0.961181 v -3.09439 h -0.961181 v -0.42168 q 0.195337,0 0.418579,-0.031 0.223242,-0.0341 0.337964,-0.0961 0.142627,-0.0775 0.223242,-0.19534 0.08372,-0.12092 0.09612,-0.32246 h 0.480591 v 4.16099 h 0.942578 z"
         style="stroke-width:0.26458332"
         id="path3955" />
      <path
         d="m 53.291789,194.14287 h -0.58291 v -1.97197 q 0,-0.23875 -0.02791,-0.44649 -0.02791,-0.21084 -0.102319,-0.32866 -0.07751,-0.13023 -0.223242,-0.19224 -0.145728,-0.0651 -0.378272,-0.0651 -0.238745,0 -0.499194,0.11782 -0.260449,0.11782 -0.499194,0.30076 v 2.58589 h -0.58291 v -3.46336 h 0.58291 v 0.38448 q 0.272851,-0.22635 0.564306,-0.35347 0.291455,-0.12712 0.598413,-0.12712 0.561206,0 0.855762,0.33796 0.294556,0.33796 0.294556,0.97358 z"
         style="stroke-width:0.26458332"
         id="path3957" />
      <path
         d="m 59.468155,194.14287 h -0.58291 v -1.97197 q 0,-0.22325 -0.0217,-0.43099 -0.0186,-0.20774 -0.08372,-0.33176 -0.07131,-0.13332 -0.204639,-0.20154 -0.133325,-0.0682 -0.384473,-0.0682 -0.244946,0 -0.489892,0.12402 -0.244946,0.12093 -0.489893,0.31006 0.0093,0.0713 0.0155,0.16743 0.0062,0.093 0.0062,0.18604 v 2.21692 h -0.58291 v -1.97197 q 0,-0.22945 -0.0217,-0.43409 -0.0186,-0.20774 -0.08372,-0.33176 -0.07131,-0.13332 -0.204638,-0.19844 -0.133326,-0.0682 -0.384473,-0.0682 -0.238745,0 -0.480591,0.11782 -0.238745,0.11782 -0.47749,0.30076 v 2.58589 H 54.4142 v -3.46336 h 0.58291 v 0.38448 q 0.272852,-0.22635 0.542602,-0.35347 0.272852,-0.12712 0.57981,-0.12712 0.353467,0 0.598413,0.14882 0.248047,0.14883 0.36897,0.41238 0.353467,-0.29765 0.644922,-0.42788 0.291455,-0.13332 0.623217,-0.13332 0.570508,0 0.840259,0.34726 0.272852,0.34417 0.272852,0.96428 z"
         style="stroke-width:0.26458332"
         id="path3959" />
    </g>
    <g
       aria-label="B=0"
       style="font-style:normal;font-weight:normal;font-size:6.3499999px;line-height:1.25;font-family:sans-serif;letter-spacing:0px;word-spacing:0px;writing-mode:lr-tb;direction:ltr;fill:#000000;fill-opacity:1;stroke:none;stroke-width:0.26458332"
       id="text3696">
      <path
         d="m 20.141693,148.68578 q 0,0.34417 -0.130225,0.60772 -0.130225,0.26355 -0.350366,0.43408 -0.260449,0.20464 -0.573609,0.29145 -0.310058,0.0868 -0.790649,0.0868 h -1.637109 v -4.61677 h 1.367358 q 0.505396,0 0.756543,0.0372 0.251148,0.0372 0.480591,0.15503 0.254248,0.13333 0.36897,0.34417 0.114721,0.20774 0.114721,0.49919 0,0.32867 -0.167431,0.56121 -0.167432,0.22944 -0.446485,0.36897 v 0.0248 q 0.468189,0.0961 0.73794,0.41238 0.269751,0.31316 0.269751,0.79375 z m -1.032495,-2.08049 q 0,-0.16743 -0.05581,-0.28215 -0.05581,-0.11473 -0.179834,-0.18604 -0.145727,-0.0837 -0.353467,-0.10232 -0.207739,-0.0217 -0.514697,-0.0217 h -0.731738 v 1.33325 h 0.79375 q 0.288354,0 0.458886,-0.0279 0.170533,-0.031 0.31626,-0.12402 0.145728,-0.093 0.204639,-0.23875 0.06201,-0.14882 0.06201,-0.35036 z m 0.393774,2.1053 q 0,-0.27906 -0.08372,-0.44339 -0.08372,-0.16433 -0.303857,-0.27905 -0.148828,-0.0775 -0.362769,-0.0992 -0.21084,-0.0248 -0.514697,-0.0248 h -0.964282 v 1.71772 h 0.812353 q 0.403076,0 0.660425,-0.0403 0.257349,-0.0434 0.42168,-0.15503 0.173633,-0.12092 0.254248,-0.27595 0.08061,-0.15503 0.08061,-0.39997 z"
         style="stroke-width:0.26458332"
         id="path3936" />
      <path
         d="m 24.829778,147.68119 h -3.677295 v -0.49609 h 3.677295 z m 0,1.30225 h -3.677295 v -0.4961 h 3.677295 z"
         style="stroke-width:0.26458332"
         id="path3938" />
      <path
         d="m 29.207806,147.79591 q 0,1.24334 -0.390674,1.82625 -0.387573,0.57981 -1.206128,0.57981 -0.830957,0 -1.215429,-0.58911 -0.381373,-0.58911 -0.381373,-1.81075 0,-1.23093 0.387574,-1.81694 0.387573,-0.58911 1.209228,-0.58911 0.830957,0 1.212329,0.59841 0.384473,0.59532 0.384473,1.80144 z m -0.815454,1.40767 q 0.10852,-0.25115 0.145727,-0.58911 0.04031,-0.34107 0.04031,-0.81856 0,-0.47129 -0.04031,-0.81855 -0.03721,-0.34727 -0.148828,-0.58911 -0.10852,-0.23875 -0.297656,-0.35967 -0.186035,-0.12092 -0.480591,-0.12092 -0.291455,0 -0.483691,0.12092 -0.189136,0.12092 -0.300757,0.36587 -0.10542,0.22944 -0.145728,0.59841 -0.03721,0.36897 -0.03721,0.80925 0,0.4837 0.03411,0.80926 0.03411,0.32556 0.145727,0.58291 0.10232,0.24184 0.288355,0.36897 0.189136,0.12712 0.499194,0.12712 0.291455,0 0.483692,-0.12092 0.192236,-0.12092 0.297656,-0.36587 z"
         style="stroke-width:0.26458332"
         id="path3940" />
    </g>
    <g
       aria-label="100"
       style="font-style:normal;font-weight:normal;font-size:3.52777767px;line-height:1.25;font-family:sans-serif;letter-spacing:0px;word-spacing:0px;writing-mode:lr-tb;direction:ltr;fill:#000000;fill-opacity:1;stroke:none;stroke-width:0.26458332"
       id="text3700">
      <path
         d="m 118.05832,260.24506 h -1.66605 v -0.3142 h 0.64079 v -2.06292 h -0.64079 v -0.28112 q 0.13022,0 0.27905,-0.0207 0.14883,-0.0227 0.22531,-0.0641 0.0951,-0.0517 0.14883,-0.13022 0.0558,-0.0806 0.0641,-0.21498 h 0.32039 v 2.77399 h 0.62839 z"
         style="font-size:4.23333311px;stroke-width:0.26458332"
         id="path3875" />
      <path
         d="m 120.92533,258.7051 q 0,0.82889 -0.26045,1.2175 -0.25839,0.38653 -0.80409,0.38653 -0.55397,0 -0.81029,-0.39274 -0.25424,-0.39274 -0.25424,-1.20716 0,-0.82062 0.25838,-1.21129 0.25838,-0.39274 0.80615,-0.39274 0.55397,0 0.80822,0.39894 0.25632,0.39687 0.25632,1.20096 z m -0.54364,0.93844 q 0.0724,-0.16743 0.0971,-0.39274 0.0269,-0.22737 0.0269,-0.5457 0,-0.31419 -0.0269,-0.5457 -0.0248,-0.23151 -0.0992,-0.39275 -0.0723,-0.15916 -0.19844,-0.23977 -0.12402,-0.0806 -0.32039,-0.0806 -0.1943,0 -0.32246,0.0806 -0.12609,0.0806 -0.2005,0.24391 -0.0703,0.15296 -0.0972,0.39894 -0.0248,0.24598 -0.0248,0.5395 0,0.32246 0.0227,0.5395 0.0227,0.21705 0.0971,0.38861 0.0682,0.16123 0.19223,0.24598 0.1261,0.0847 0.3328,0.0847 0.1943,0 0.32246,-0.0806 0.12816,-0.0806 0.19844,-0.24392 z"
         style="font-size:4.23333311px;stroke-width:0.26458332"
         id="path3877" />
      <path
         d="m 123.62077,258.7051 q 0,0.82889 -0.26045,1.2175 -0.25838,0.38653 -0.80409,0.38653 -0.55397,0 -0.81028,-0.39274 -0.25425,-0.39274 -0.25425,-1.20716 0,-0.82062 0.25838,-1.21129 0.25838,-0.39274 0.80615,-0.39274 0.55397,0 0.80822,0.39894 0.25632,0.39687 0.25632,1.20096 z m -0.54364,0.93844 q 0.0724,-0.16743 0.0971,-0.39274 0.0269,-0.22737 0.0269,-0.5457 0,-0.31419 -0.0269,-0.5457 -0.0248,-0.23151 -0.0992,-0.39275 -0.0723,-0.15916 -0.19843,-0.23977 -0.12403,-0.0806 -0.3204,-0.0806 -0.1943,0 -0.32246,0.0806 -0.12609,0.0806 -0.2005,0.24391 -0.0703,0.15296 -0.0971,0.39894 -0.0248,0.24598 -0.0248,0.5395 0,0.32246 0.0227,0.5395 0.0227,0.21705 0.0971,0.38861 0.0682,0.16123 0.19224,0.24598 0.12609,0.0847 0.33279,0.0847 0.19431,0 0.32246,-0.0806 0.12816,-0.0806 0.19844,-0.24392 z"
         style="font-size:4.23333311px;stroke-width:0.26458332"
         id="path3879" />
    </g>
    <g
       aria-label="75"
       style="font-style:normal;font-weight:normal;font-size:3.52777767px;line-height:1.25;font-family:sans-serif;letter-spacing:0px;word-spacing:0px;writing-mode:lr-tb;direction:ltr;fill:#000000;fill-opacity:1;stroke:none;stroke-width:0.26458332"
       id="text3704">
      <path
         d="m 109.76192,261.5035 -1.3932,2.61689 h -0.44235 l 1.48208,-2.71611 h -1.75287 v -0.36174 h 2.10634 z"
         style="font-size:4.23333311px;stroke-width:0.26458332"
         id="path3882" />
      <path
         d="m 112.42429,263.14267 q 0,0.21498 -0.0785,0.41135 -0.0786,0.19637 -0.21498,0.33073 -0.14883,0.14469 -0.35553,0.22324 -0.20464,0.0765 -0.47542,0.0765 -0.25218,0 -0.48576,-0.0537 -0.23358,-0.0517 -0.39481,-0.12609 v -0.43615 h 0.0289 q 0.1695,0.10748 0.39687,0.18397 0.22738,0.0744 0.44649,0.0744 0.14676,0 0.28318,-0.0413 0.1385,-0.0413 0.24598,-0.1447 0.091,-0.0889 0.13643,-0.2129 0.0475,-0.12403 0.0475,-0.28732 0,-0.15917 -0.0558,-0.26872 -0.0537,-0.10955 -0.15089,-0.1757 -0.10749,-0.0786 -0.26252,-0.10955 -0.15296,-0.0331 -0.34313,-0.0331 -0.1819,0 -0.3514,0.0248 -0.16743,0.0248 -0.28939,0.0496 v -1.58544 h 1.85208 v 0.36174 h -1.45314 v 0.81855 q 0.0889,-0.008 0.1819,-0.0124 0.093,-0.004 0.16123,-0.004 0.25012,0 0.43822,0.0434 0.1881,0.0413 0.3452,0.14882 0.16536,0.11369 0.25631,0.29353 0.091,0.17983 0.091,0.45061 z"
         style="font-size:4.23333311px;stroke-width:0.26458332"
         id="path3884" />
    </g>
    <g
       aria-label="75"
       style="font-style:normal;font-weight:normal;font-size:3.52777767px;line-height:1.25;font-family:sans-serif;letter-spacing:0px;word-spacing:0px;writing-mode:lr-tb;direction:ltr;fill:#000000;fill-opacity:1;stroke:none;stroke-width:0.26458332"
       id="text3708">
      <path
         d="m 129.70227,261.5201 -1.3932,2.61689 h -0.44235 l 1.48208,-2.71611 h -1.75286 v -0.36173 h 2.10633 z"
         style="font-size:4.23333311px;stroke-width:0.26458332"
         id="path3870" />
      <path
         d="m 132.36464,263.15928 q 0,0.21497 -0.0786,0.41134 -0.0786,0.19637 -0.21497,0.33073 -0.14883,0.14469 -0.35554,0.22324 -0.20464,0.0765 -0.47542,0.0765 -0.25218,0 -0.48576,-0.0537 -0.23358,-0.0517 -0.39481,-0.12609 v -0.43615 h 0.0289 q 0.1695,0.10749 0.39688,0.18397 0.22737,0.0744 0.44648,0.0744 0.14676,0 0.28319,-0.0413 0.13849,-0.0413 0.24598,-0.14469 0.091,-0.0889 0.13642,-0.21291 0.0476,-0.12402 0.0476,-0.28732 0,-0.15917 -0.0558,-0.26872 -0.0538,-0.10955 -0.1509,-0.1757 -0.10749,-0.0786 -0.26252,-0.10955 -0.15296,-0.0331 -0.34313,-0.0331 -0.1819,0 -0.3514,0.0248 -0.16743,0.0248 -0.28939,0.0496 v -1.58543 h 1.85209 v 0.36173 h -1.45314 v 0.81855 q 0.0889,-0.008 0.1819,-0.0124 0.093,-0.004 0.16123,-0.004 0.25011,0 0.43821,0.0434 0.18811,0.0413 0.3452,0.14882 0.16537,0.11369 0.25632,0.29353 0.091,0.17983 0.091,0.45062 z"
         style="font-size:4.23333311px;stroke-width:0.26458332"
         id="path3872" />
    </g>
    <g
       aria-label="12.5"
       style="font-style:normal;font-weight:normal;font-size:3.52777767px;line-height:1.25;font-family:sans-serif;letter-spacing:0px;word-spacing:0px;writing-mode:lr-tb;direction:ltr;fill:#000000;fill-opacity:1;stroke:none;stroke-width:0.26458332"
       id="text3712">
      <path
         d="m 77.23377,282.85577 h -1.666048 v -0.31419 h 0.640788 v -2.06292 h -0.640788 v -0.28112 q 0.130225,0 0.279053,-0.0207 0.148828,-0.0227 0.225309,-0.0641 0.09508,-0.0517 0.148828,-0.13023 0.05581,-0.0806 0.06408,-0.21497 h 0.320394 v 2.77399 h 0.628385 z"
         style="font-size:4.23333311px;stroke-width:0.26458332"
         id="path3901" />
      <path
         d="m 80.104913,282.85577 h -2.083594 v -0.43201 q 0.217041,-0.18604 0.434082,-0.37207 0.219108,-0.18604 0.40721,-0.37 0.396875,-0.38448 0.543636,-0.60979 0.146761,-0.22737 0.146761,-0.48989 0,-0.23978 -0.159163,-0.37414 -0.157096,-0.13642 -0.440283,-0.13642 -0.188102,0 -0.40721,0.0661 -0.219109,0.0661 -0.427881,0.20258 H 78.0978 v -0.43409 q 0.146761,-0.0723 0.390674,-0.13229 0.24598,-0.0599 0.475423,-0.0599 0.473356,0 0.742074,0.22944 0.268717,0.22738 0.268717,0.61805 0,0.1757 -0.04547,0.32866 -0.04341,0.1509 -0.130225,0.28732 -0.08061,0.12816 -0.190169,0.25218 -0.107487,0.12403 -0.262516,0.27492 -0.221175,0.21704 -0.45682,0.42168 -0.235644,0.20257 -0.440283,0.37621 h 1.655713 z"
         style="font-size:4.23333311px;stroke-width:0.26458332"
         id="path3903" />
      <path
         d="m 81.400958,282.85577 h -0.494027 v -0.58911 h 0.494027 z"
         style="font-size:4.23333311px;stroke-width:0.26458332"
         id="path3905" />
      <path
         d="m 84.313441,281.87806 q 0,0.21497 -0.07855,0.41134 -0.07855,0.19637 -0.214974,0.33073 -0.148828,0.14469 -0.355534,0.22324 -0.204639,0.0765 -0.475423,0.0765 -0.252181,0 -0.485758,-0.0537 -0.233578,-0.0517 -0.394808,-0.12609 v -0.43615 h 0.02894 q 0.169499,0.10749 0.396875,0.18397 0.227377,0.0744 0.446485,0.0744 0.146761,0 0.283187,-0.0413 0.138492,-0.0413 0.245979,-0.14469 0.09095,-0.0889 0.136426,-0.21291 0.04754,-0.12402 0.04754,-0.28732 0,-0.15916 -0.05581,-0.26872 -0.05374,-0.10955 -0.150895,-0.1757 -0.107487,-0.0786 -0.262517,-0.10955 -0.152962,-0.0331 -0.343131,-0.0331 -0.181901,0 -0.3514,0.0248 -0.167431,0.0248 -0.289388,0.0496 v -1.58543 h 1.852084 v 0.36173 h -1.453142 v 0.81856 q 0.08888,-0.008 0.181901,-0.0124 0.09302,-0.004 0.161231,-0.004 0.250114,0 0.438216,0.0434 0.188102,0.0413 0.345198,0.14883 0.165365,0.11368 0.256316,0.29352 0.09095,0.17983 0.09095,0.45062 z"
         style="font-size:4.23333311px;stroke-width:0.26458332"
         id="path3907" />
    </g>
    <g
       aria-label="37.5"
       style="font-style:normal;font-weight:normal;font-size:3.52777767px;line-height:1.25;font-family:sans-serif;letter-spacing:0px;word-spacing:0px;writing-mode:lr-tb;direction:ltr;fill:#000000;fill-opacity:1;stroke:none;stroke-width:0.26458332"
       id="text3716">
      <path
         d="m 87.370077,287.31782 q 0.09922,0.0889 0.163298,0.22324 0.06408,0.13436 0.06408,0.34726 0,0.21084 -0.07648,0.38654 -0.07648,0.1757 -0.214974,0.30593 -0.15503,0.14469 -0.365869,0.21497 -0.208773,0.0682 -0.458887,0.0682 -0.256315,0 -0.504362,-0.062 -0.248047,-0.0599 -0.40721,-0.13229 v -0.43201 h 0.03101 q 0.1757,0.11575 0.413412,0.19223 0.237711,0.0765 0.458887,0.0765 0.130224,0 0.276985,-0.0434 0.146761,-0.0434 0.237712,-0.12816 0.09508,-0.091 0.14056,-0.20051 0.04754,-0.10955 0.04754,-0.27698 0,-0.16537 -0.05374,-0.27285 -0.05168,-0.10956 -0.144694,-0.17157 -0.09302,-0.0641 -0.22531,-0.0868 -0.132291,-0.0248 -0.285254,-0.0248 h -0.186035 v -0.34313 h 0.144694 q 0.314193,0 0.500228,-0.13023 0.188102,-0.13229 0.188102,-0.38447 0,-0.11162 -0.04754,-0.1943 -0.04754,-0.0847 -0.132292,-0.1385 -0.08888,-0.0537 -0.190169,-0.0744 -0.101286,-0.0207 -0.229443,-0.0207 -0.196371,0 -0.417546,0.0703 -0.221175,0.0703 -0.417545,0.19844 h -0.02067 v -0.43202 q 0.146761,-0.0723 0.390674,-0.13229 0.24598,-0.062 0.475423,-0.062 0.225309,0 0.396875,0.0413 0.171566,0.0413 0.310059,0.13229 0.148828,0.0992 0.225309,0.23978 0.07648,0.14056 0.07648,0.32866 0,0.25632 -0.181901,0.44855 -0.179834,0.19017 -0.425814,0.23978 v 0.0289 q 0.09922,0.0165 0.227376,0.0703 0.128158,0.0517 0.217041,0.13023 z"
         style="font-size:4.23333311px;stroke-width:0.26458332"
         id="path3892" />
      <path
         d="m 90.344573,286.183 -1.393197,2.6169 h -0.44235 l 1.48208,-2.71612 h -1.752864 v -0.36173 h 2.106331 z"
         style="font-size:4.23333311px;stroke-width:0.26458332"
         id="path3894" />
      <path
         d="m 91.63235,288.7999 h -0.494027 v -0.58912 h 0.494027 z"
         style="font-size:4.23333311px;stroke-width:0.26458332"
         id="path3896" />
      <path
         d="m 94.544833,287.82218 q 0,0.21497 -0.07855,0.41134 -0.07855,0.19637 -0.214974,0.33073 -0.148828,0.1447 -0.355534,0.22324 -0.204639,0.0765 -0.475423,0.0765 -0.252181,0 -0.485759,-0.0538 -0.233577,-0.0517 -0.394807,-0.12609 v -0.43615 h 0.02894 q 0.169499,0.10749 0.396875,0.18397 0.227377,0.0744 0.446485,0.0744 0.146761,0 0.283186,-0.0413 0.138493,-0.0413 0.24598,-0.14469 0.09095,-0.0889 0.136426,-0.21291 0.04754,-0.12402 0.04754,-0.28732 0,-0.15916 -0.05581,-0.26872 -0.05374,-0.10955 -0.150895,-0.1757 -0.107487,-0.0785 -0.262517,-0.10955 -0.152962,-0.0331 -0.343131,-0.0331 -0.181901,0 -0.3514,0.0248 -0.167431,0.0248 -0.289388,0.0496 v -1.58543 h 1.852083 v 0.36173 h -1.453141 v 0.81856 q 0.08888,-0.008 0.181901,-0.0124 0.09302,-0.004 0.161231,-0.004 0.250114,0 0.438216,0.0434 0.188102,0.0413 0.345198,0.14883 0.165365,0.11369 0.256315,0.29352 0.09095,0.17983 0.09095,0.45062 z"
         style="font-size:4.23333311px;stroke-width:0.26458332"
         id="path3898" />
    </g>
    <g
       aria-label="75"
       style="font-style:normal;font-weight:normal;font-size:3.52777767px;line-height:1.25;font-family:sans-serif;letter-spacing:0px;word-spacing:0px;writing-mode:lr-tb;direction:ltr;fill:#000000;fill-opacity:1;stroke:none;stroke-width:0.26458332"
       id="text3720">
      <path
         d="m 99.721937,290.20473 -1.393196,2.61689 h -0.44235 l 1.48208,-2.71611 h -1.752865 v -0.36173 h 2.106331 z"
         style="font-size:4.23333311px;stroke-width:0.26458332"
         id="path3887" />
      <path
         d="m 102.38431,291.84391 q 0,0.21497 -0.0785,0.41134 -0.0786,0.19637 -0.21497,0.33073 -0.14883,0.14469 -0.35554,0.22324 -0.20464,0.0765 -0.47542,0.0765 -0.25218,0 -0.48576,-0.0537 -0.23358,-0.0517 -0.39481,-0.12609 v -0.43615 h 0.0289 q 0.1695,0.10749 0.39688,0.18397 0.22737,0.0744 0.44648,0.0744 0.14676,0 0.28319,-0.0413 0.13849,-0.0413 0.24598,-0.14469 0.0909,-0.0889 0.13642,-0.21291 0.0475,-0.12402 0.0475,-0.28732 0,-0.15916 -0.0558,-0.26872 -0.0537,-0.10955 -0.15089,-0.1757 -0.10749,-0.0786 -0.26252,-0.10955 -0.15296,-0.0331 -0.34313,-0.0331 -0.1819,0 -0.3514,0.0248 -0.16743,0.0248 -0.28939,0.0496 v -1.58543 h 1.85209 v 0.36173 h -1.45314 v 0.81856 q 0.0889,-0.008 0.1819,-0.0124 0.093,-0.004 0.16123,-0.004 0.25011,0 0.43821,0.0434 0.18811,0.0413 0.3452,0.14883 0.16537,0.11368 0.25632,0.29352 0.0909,0.17983 0.0909,0.45062 z"
         style="font-size:4.23333311px;stroke-width:0.26458332"
         id="path3889" />
    </g>
    <g
       aria-label="75"
       style="font-style:normal;font-weight:normal;font-size:3.52777767px;line-height:1.25;font-family:sans-serif;letter-spacing:0px;word-spacing:0px;writing-mode:lr-tb;direction:ltr;fill:#000000;fill-opacity:1;stroke:none;stroke-width:0.26458332"
       id="text3724">
      <path
         d="m 139.68984,290.27831 -1.3932,2.61689 h -0.44235 l 1.48208,-2.71611 h -1.75286 v -0.36174 h 2.10633 z"
         style="font-size:4.23333311px;stroke-width:0.26458332"
         id="path3837" />
      <path
         d="m 142.35221,291.91748 q 0,0.21498 -0.0786,0.41135 -0.0786,0.19637 -0.21497,0.33073 -0.14883,0.14469 -0.35554,0.22324 -0.20463,0.0765 -0.47542,0.0765 -0.25218,0 -0.48576,-0.0537 -0.23357,-0.0517 -0.39481,-0.12609 v -0.43615 h 0.0289 q 0.1695,0.10749 0.39688,0.18397 0.22737,0.0744 0.44648,0.0744 0.14676,0 0.28319,-0.0413 0.13849,-0.0413 0.24598,-0.14469 0.091,-0.0889 0.13643,-0.21291 0.0475,-0.12402 0.0475,-0.28732 0,-0.15917 -0.0558,-0.26872 -0.0538,-0.10955 -0.1509,-0.1757 -0.10748,-0.0786 -0.26251,-0.10955 -0.15297,-0.0331 -0.34314,-0.0331 -0.1819,0 -0.3514,0.0248 -0.16743,0.0248 -0.28938,0.0496 v -1.58544 h 1.85208 v 0.36174 h -1.45314 v 0.81855 q 0.0889,-0.008 0.1819,-0.0124 0.093,-0.004 0.16123,-0.004 0.25011,0 0.43822,0.0434 0.1881,0.0413 0.34519,0.14882 0.16537,0.11369 0.25632,0.29353 0.091,0.17983 0.091,0.45061 z"
         style="font-size:4.23333311px;stroke-width:0.26458332"
         id="path3839" />
    </g>
    <g
       aria-label="37.5"
       style="font-style:normal;font-weight:normal;font-size:3.52777767px;line-height:1.25;font-family:sans-serif;letter-spacing:0px;word-spacing:0px;writing-mode:lr-tb;direction:ltr;fill:#000000;fill-opacity:1;stroke:none;stroke-width:0.26458332"
       id="text3728">
      <path
         d="m 147.35612,287.32758 q 0.0992,0.0889 0.16329,0.22324 0.0641,0.13436 0.0641,0.34727 0,0.21084 -0.0765,0.38654 -0.0765,0.1757 -0.21497,0.30592 -0.15503,0.1447 -0.36587,0.21498 -0.20878,0.0682 -0.45889,0.0682 -0.25631,0 -0.50436,-0.062 -0.24805,-0.06 -0.40721,-0.13229 v -0.43202 h 0.031 q 0.1757,0.11576 0.41342,0.19224 0.23771,0.0765 0.45888,0.0765 0.13023,0 0.27699,-0.0434 0.14676,-0.0434 0.23771,-0.12816 0.0951,-0.0909 0.14056,-0.2005 0.0475,-0.10955 0.0475,-0.27699 0,-0.16536 -0.0537,-0.27285 -0.0517,-0.10955 -0.1447,-0.17156 -0.093,-0.0641 -0.2253,-0.0868 -0.1323,-0.0248 -0.28526,-0.0248 h -0.18603 v -0.34314 h 0.14469 q 0.31419,0 0.50023,-0.13022 0.1881,-0.13229 0.1881,-0.38447 0,-0.11162 -0.0475,-0.19431 -0.0475,-0.0848 -0.13229,-0.13849 -0.0889,-0.0537 -0.19017,-0.0744 -0.10129,-0.0207 -0.22945,-0.0207 -0.19637,0 -0.41754,0.0703 -0.22118,0.0703 -0.41755,0.19843 h -0.0207 v -0.43201 q 0.14676,-0.0723 0.39068,-0.13229 0.24598,-0.062 0.47542,-0.062 0.22531,0 0.39687,0.0413 0.17157,0.0413 0.31006,0.13229 0.14883,0.0992 0.22531,0.23978 0.0765,0.14056 0.0765,0.32866 0,0.25631 -0.1819,0.44855 -0.17983,0.19017 -0.42581,0.23978 v 0.0289 q 0.0992,0.0165 0.22737,0.0703 0.12816,0.0517 0.21705,0.13022 z"
         style="font-size:4.23333311px;stroke-width:0.26458332"
         id="path3828" />
      <path
         d="m 150.33061,286.19277 -1.3932,2.61689 h -0.44235 l 1.48208,-2.71611 h -1.75286 v -0.36174 h 2.10633 z"
         style="font-size:4.23333311px;stroke-width:0.26458332"
         id="path3830" />
      <path
         d="m 151.61839,288.80966 h -0.49403 v -0.58911 h 0.49403 z"
         style="font-size:4.23333311px;stroke-width:0.26458332"
         id="path3832" />
      <path
         d="m 154.53087,287.83194 q 0,0.21498 -0.0786,0.41135 -0.0785,0.19637 -0.21497,0.33073 -0.14883,0.14469 -0.35553,0.22324 -0.20464,0.0765 -0.47543,0.0765 -0.25218,0 -0.48576,-0.0537 -0.23357,-0.0517 -0.3948,-0.12609 v -0.43615 h 0.0289 q 0.1695,0.10748 0.39688,0.18397 0.22738,0.0744 0.44648,0.0744 0.14676,0 0.28319,-0.0413 0.13849,-0.0413 0.24598,-0.1447 0.0909,-0.0889 0.13643,-0.2129 0.0475,-0.12403 0.0475,-0.28732 0,-0.15917 -0.0558,-0.26872 -0.0538,-0.10955 -0.1509,-0.1757 -0.10748,-0.0786 -0.26251,-0.10955 -0.15297,-0.0331 -0.34313,-0.0331 -0.18191,0 -0.3514,0.0248 -0.16744,0.0248 -0.28939,0.0496 v -1.58544 h 1.85208 v 0.36174 h -1.45314 v 0.81855 q 0.0889,-0.008 0.1819,-0.0124 0.093,-0.004 0.16123,-0.004 0.25011,0 0.43822,0.0434 0.1881,0.0413 0.3452,0.14882 0.16536,0.11369 0.25631,0.29353 0.0909,0.17983 0.0909,0.45061 z"
         style="font-size:4.23333311px;stroke-width:0.26458332"
         id="path3834" />
    </g>
    <g
       aria-label="12.5"
       style="font-style:normal;font-weight:normal;font-size:3.52777767px;line-height:1.25;font-family:sans-serif;letter-spacing:0px;word-spacing:0px;writing-mode:lr-tb;direction:ltr;fill:#000000;fill-opacity:1;stroke:none;stroke-width:0.26458332"
       id="text3732">
      <path
         d="m 157.29019,282.87979 h -1.66605 v -0.31419 h 0.64079 v -2.06292 h -0.64079 v -0.28112 q 0.13023,0 0.27905,-0.0207 0.14883,-0.0227 0.22531,-0.0641 0.0951,-0.0517 0.14883,-0.13023 0.0558,-0.0806 0.0641,-0.21497 h 0.32039 v 2.77399 h 0.62839 z"
         style="font-size:4.23333311px;stroke-width:0.26458332"
         id="path3852" />
      <path
         d="m 160.16133,282.87979 h -2.08359 v -0.43201 q 0.21704,-0.18604 0.43408,-0.37207 0.21911,-0.18604 0.40721,-0.37001 0.39688,-0.38447 0.54364,-0.60978 0.14676,-0.22738 0.14676,-0.48989 0,-0.23978 -0.15917,-0.37414 -0.15709,-0.13642 -0.44028,-0.13642 -0.1881,0 -0.40721,0.0661 -0.21911,0.0661 -0.42788,0.20257 h -0.0207 v -0.43408 q 0.14676,-0.0723 0.39067,-0.13229 0.24598,-0.06 0.47543,-0.06 0.47335,0 0.74207,0.22945 0.26872,0.22737 0.26872,0.61805 0,0.1757 -0.0455,0.32866 -0.0434,0.1509 -0.13022,0.28732 -0.0806,0.12816 -0.19017,0.25218 -0.10749,0.12403 -0.26252,0.27492 -0.22117,0.21704 -0.45682,0.42168 -0.23564,0.20257 -0.44028,0.3762 h 1.65571 z"
         style="font-size:4.23333311px;stroke-width:0.26458332"
         id="path3854" />
      <path
         d="m 161.45738,282.87979 h -0.49403 v -0.58911 h 0.49403 z"
         style="font-size:4.23333311px;stroke-width:0.26458332"
         id="path3856" />
      <path
         d="m 164.36986,281.90207 q 0,0.21498 -0.0785,0.41135 -0.0786,0.19637 -0.21497,0.33073 -0.14883,0.14469 -0.35554,0.22324 -0.20463,0.0765 -0.47542,0.0765 -0.25218,0 -0.48576,-0.0537 -0.23357,-0.0517 -0.39481,-0.12609 v -0.43615 h 0.0289 q 0.1695,0.10748 0.39688,0.18397 0.22738,0.0744 0.44648,0.0744 0.14676,0 0.28319,-0.0413 0.13849,-0.0413 0.24598,-0.1447 0.0909,-0.0889 0.13643,-0.2129 0.0475,-0.12403 0.0475,-0.28732 0,-0.15917 -0.0558,-0.26872 -0.0538,-0.10956 -0.1509,-0.1757 -0.10748,-0.0785 -0.26251,-0.10956 -0.15297,-0.0331 -0.34314,-0.0331 -0.1819,0 -0.3514,0.0248 -0.16743,0.0248 -0.28938,0.0496 v -1.58544 h 1.85208 v 0.36174 h -1.45314 v 0.81855 q 0.0889,-0.008 0.1819,-0.0124 0.093,-0.004 0.16123,-0.004 0.25011,0 0.43822,0.0434 0.1881,0.0414 0.34519,0.14883 0.16537,0.11369 0.25632,0.29352 0.0909,0.17984 0.0909,0.45062 z"
         style="font-size:4.23333311px;stroke-width:0.26458332"
         id="path3858" />
    </g>
    <g
       aria-label="B&gt;0"
       style="font-style:normal;font-weight:normal;font-size:7.05555534px;line-height:1.25;font-family:sans-serif;letter-spacing:0px;word-spacing:0px;writing-mode:lr-tb;direction:ltr;fill:#000000;fill-opacity:1;stroke:none;stroke-width:0.26458332"
       id="text3736">
      <path
         d="m 117.12443,137.72238 q 0,0.3824 -0.1447,0.67524 -0.14469,0.29283 -0.38929,0.48231 -0.28939,0.22738 -0.63734,0.32384 -0.34451,0.0965 -0.8785,0.0965 h -1.81901 v -5.12975 h 1.51928 q 0.56155,0 0.84061,0.0413 0.27905,0.0413 0.53399,0.17225 0.28249,0.14814 0.40996,0.38241 0.12747,0.23082 0.12747,0.55466 0,0.36518 -0.18603,0.62356 -0.18604,0.25494 -0.4961,0.40997 v 0.0276 q 0.52021,0.10679 0.81993,0.45819 0.29973,0.34796 0.29973,0.88195 z m -1.14722,-2.31166 q 0,-0.18604 -0.062,-0.3135 -0.062,-0.12747 -0.19982,-0.20671 -0.16192,-0.093 -0.39274,-0.11369 -0.23082,-0.0241 -0.57188,-0.0241 h -0.81305 v 1.48139 h 0.88195 q 0.32039,0 0.50987,-0.031 0.18948,-0.0344 0.3514,-0.1378 0.16192,-0.10336 0.22738,-0.26527 0.0689,-0.16537 0.0689,-0.3893 z m 0.43753,2.33922 q 0,-0.31006 -0.093,-0.49265 -0.093,-0.18259 -0.33762,-0.31006 -0.16536,-0.0861 -0.40308,-0.11024 -0.23426,-0.0276 -0.57188,-0.0276 h -1.07143 v 1.90858 h 0.90262 q 0.44786,0 0.7338,-0.0448 0.28595,-0.0482 0.46854,-0.17225 0.19292,-0.13436 0.2825,-0.30661 0.0896,-0.17226 0.0896,-0.44442 z"
         style="stroke-width:0.26458332"
         id="path3962" />
      <path
         d="m 122.30241,137.26763 -3.97564,1.76733 v -0.62012 l 3.13503,-1.36081 -3.13503,-1.36081 v -0.62012 l 3.97564,1.76733 z"
         style="stroke-width:0.26458332"
         id="path3964" />
      <path
         d="m 127.19789,136.73364 q 0,1.38148 -0.43409,2.02916 -0.43063,0.64423 -1.34014,0.64423 -0.92328,0 -1.35048,-0.65457 -0.42374,-0.65457 -0.42374,-2.01193 0,-1.36771 0.43063,-2.01883 0.43064,-0.65457 1.34359,-0.65457 0.92329,0 1.34703,0.66491 0.4272,0.66145 0.4272,2.0016 z m -0.90606,1.56407 q 0.12057,-0.27905 0.16192,-0.65457 0.0448,-0.37896 0.0448,-0.9095 0,-0.52366 -0.0448,-0.90951 -0.0413,-0.38585 -0.16537,-0.65457 -0.12058,-0.26527 -0.33073,-0.39963 -0.2067,-0.13436 -0.53399,-0.13436 -0.32384,0 -0.53743,0.13436 -0.21015,0.13436 -0.33418,0.40652 -0.11713,0.25494 -0.16192,0.66491 -0.0413,0.40996 -0.0413,0.89917 0,0.53743 0.0379,0.89917 0.0379,0.36173 0.16192,0.64767 0.11369,0.26872 0.32039,0.40997 0.21015,0.14125 0.55466,0.14125 0.32384,0 0.53744,-0.13436 0.21359,-0.13436 0.33073,-0.40652 z"
         style="stroke-width:0.26458332"
         id="path3966" />
    </g>
    <g
       aria-label="M"
       style="font-style:normal;font-weight:normal;font-size:7.05555534px;line-height:1.25;font-family:sans-serif;letter-spacing:0px;word-spacing:0px;writing-mode:lr-tb;direction:ltr;fill:#000000;fill-opacity:1;stroke:none;stroke-width:0.26458332"
       id="text3742">
      <path
         d="m 177.9767,138.03409 h -0.68901 l 1.01285,-4.35805 -2.08428,2.94556 h -0.40652 l -0.72347,-3.07992 -1.04042,4.49241 h -0.64423 l 1.18511,-5.12975 h 0.93707 l 0.69246,2.85599 1.99816,-2.85599 h 0.9474 z"
         style="font-style:italic;stroke-width:0.26458332"
         id="path3969" />
    </g>
    <g
       aria-label="Mg"
       style="font-style:normal;font-weight:normal;font-size:7.05555534px;line-height:1.25;font-family:sans-serif;letter-spacing:0px;word-spacing:0px;writing-mode:lr-tb;direction:ltr;fill:#000000;fill-opacity:1;stroke:none;stroke-width:0.26458332"
       id="text3746">
      <path
         d="m 188.34031,137.72784 h -0.68902 l 1.01286,-4.35804 -2.08429,2.94556 h -0.40652 l -0.72347,-3.07992 -1.04042,4.4924 h -0.64423 l 1.18511,-5.12974 h 0.93707 l 0.69246,2.85598 1.99816,-2.85598 h 0.9474 z"
         style="font-style:italic;stroke-width:0.26458332"
         id="path3972" />
      <path
         d="m 193.66987,133.87967 -0.78204,3.42098 q -0.22737,0.97841 -0.74758,1.42972 -0.51677,0.45475 -1.44005,0.45475 -0.29628,0 -0.59945,-0.0448 -0.29972,-0.0448 -0.55121,-0.12057 l 0.14813,-0.64424 h 0.0345 q 0.19292,0.0861 0.5202,0.16537 0.32729,0.0792 0.61668,0.0792 0.32728,0 0.55466,-0.0861 0.23082,-0.0827 0.37896,-0.22738 0.14469,-0.14469 0.23426,-0.33762 0.093,-0.18948 0.1447,-0.42719 l 0.0792,-0.33762 q -0.34796,0.23427 -0.61323,0.3514 -0.26527,0.11369 -0.67869,0.11369 -0.56155,0 -0.87849,-0.34107 -0.31695,-0.34451 -0.31695,-0.96807 0,-0.49954 0.16192,-0.96807 0.16536,-0.47198 0.45819,-0.83716 0.28595,-0.35484 0.68558,-0.56844 0.40307,-0.2136 0.86127,-0.2136 0.33073,0 0.58911,0.0758 0.26183,0.0758 0.45476,0.19637 l 0.0792,-0.16537 z m -0.80615,0.69247 q -0.22049,-0.11369 -0.45476,-0.1757 -0.23082,-0.0655 -0.46853,-0.0655 -0.33762,0 -0.61667,0.15503 -0.27561,0.15158 -0.47542,0.42375 -0.18948,0.25493 -0.29628,0.61667 -0.10335,0.35829 -0.10335,0.71658 0,0.40652 0.18603,0.63045 0.18604,0.22049 0.596,0.22049 0.28594,0 0.57878,-0.12058 0.29283,-0.12058 0.57533,-0.30317 z"
         style="font-style:italic;stroke-width:0.26458332"
         id="path3974" />
    </g>
    <g
       aria-label="1"
       style="font-style:normal;font-weight:normal;font-size:7.05555534px;line-height:1.25;font-family:sans-serif;letter-spacing:0px;word-spacing:0px;writing-mode:lr-tb;direction:ltr;fill:#000000;fill-opacity:1;stroke:none;stroke-width:0.26458332"
       id="text3750">
      <path
         d="m 176.90183,144.07474 h -2.2214 v -0.41893 h 0.85439 v -2.75056 h -0.85439 v -0.37483 q 0.17364,0 0.37208,-0.0276 0.19843,-0.0303 0.30041,-0.0854 0.12678,-0.0689 0.19843,-0.17363 0.0744,-0.10749 0.0854,-0.28663 h 0.4272 v 3.69865 h 0.83784 z"
         style="font-size:5.64444447px;stroke-width:0.26458332"
         id="path3980" />
    </g>
    <g
       aria-label="2"
       style="font-style:normal;font-weight:normal;font-size:7.05555534px;line-height:1.25;font-family:sans-serif;letter-spacing:0px;word-spacing:0px;writing-mode:lr-tb;direction:ltr;fill:#000000;fill-opacity:1;stroke:none;stroke-width:0.26458332"
       id="text3754">
      <path
         d="m 190.11605,144.13933 h -2.77813 v -0.57602 q 0.28939,-0.24805 0.57878,-0.4961 0.29214,-0.24804 0.54295,-0.49333 0.52916,-0.51263 0.72485,-0.81305 0.19568,-0.30316 0.19568,-0.65319 0,-0.3197 -0.21222,-0.49885 -0.20946,-0.1819 -0.58705,-0.1819 -0.2508,0 -0.54294,0.0882 -0.29215,0.0882 -0.57051,0.27009 h -0.0276 v -0.57877 q 0.19568,-0.0965 0.5209,-0.17639 0.32797,-0.0799 0.63389,-0.0799 0.63115,0 0.98944,0.30593 0.35829,0.30316 0.35829,0.82406 0,0.23427 -0.0606,0.43822 -0.0579,0.20119 -0.17363,0.38309 -0.10749,0.17088 -0.25356,0.33625 -0.14332,0.16536 -0.35002,0.36655 -0.2949,0.28939 -0.60909,0.56224 -0.3142,0.2701 -0.58705,0.50161 h 2.20762 z"
         style="font-size:5.64444447px;stroke-width:0.26458332"
         id="path3977" />
    </g>
    <g
       aria-label="0"
       style="font-style:normal;font-weight:normal;font-size:7.05555534px;line-height:1.25;font-family:sans-serif;letter-spacing:0px;word-spacing:0px;writing-mode:lr-tb;direction:ltr;fill:#000000;fill-opacity:1;stroke:none;stroke-width:0.26458332"
       id="text3758">
      <path
         d="m 177.66028,151.96627 q 0,1.10519 -0.34727,1.62333 -0.3445,0.51538 -1.07211,0.51538 -0.73863,0 -1.08038,-0.52365 -0.339,-0.52365 -0.339,-1.60955 0,-1.09416 0.34451,-1.61506 0.34451,-0.52365 1.07487,-0.52365 0.73863,0 1.07763,0.53192 0.34175,0.52917 0.34175,1.60128 z m -0.72485,1.25126 q 0.0965,-0.22324 0.12954,-0.52366 0.0358,-0.30316 0.0358,-0.7276 0,-0.41892 -0.0358,-0.7276 -0.0331,-0.30869 -0.13229,-0.52366 -0.0965,-0.21222 -0.26459,-0.3197 -0.16536,-0.10749 -0.42719,-0.10749 -0.25907,0 -0.42995,0.10749 -0.16812,0.10748 -0.26734,0.32521 -0.0937,0.20395 -0.12953,0.53193 -0.0331,0.32797 -0.0331,0.71933 0,0.42995 0.0303,0.71934 0.0303,0.28939 0.12954,0.51814 0.0909,0.21497 0.25631,0.32797 0.16812,0.113 0.44373,0.113 0.25907,0 0.42995,-0.10748 0.17088,-0.10749 0.26458,-0.32522 z"
         style="font-size:5.64444447px;stroke-width:0.26458332"
         id="path3983" />
    </g>
    <text
       xml:space="preserve"
       style="font-style:normal;font-weight:normal;font-size:7.05555534px;line-height:1.25;font-family:sans-serif;letter-spacing:0px;word-spacing:0px;writing-mode:lr-tb;direction:ltr;fill:#000000;fill-opacity:1;stroke:none;stroke-width:0.26458332"
       x="186.98808"
       y="154.05058"
       id="text3762"><tspan
         sodipodi:role="line"
         id="tspan3760"
         x="186.98808"
         y="154.05058"
         style="font-size:5.64444447px;stroke-width:0.26458332">0</tspan></text>
    <g
       aria-label="-1"
       style="font-style:normal;font-weight:normal;font-size:7.05555534px;line-height:1.25;font-family:sans-serif;letter-spacing:0px;word-spacing:0px;writing-mode:lr-tb;direction:ltr;fill:#000000;fill-opacity:1;stroke:none;stroke-width:0.26458332"
       id="text3766">
      <path
         d="m 175.39114,162.49583 h -1.7198 v -0.49885 h 1.7198 z"
         style="font-size:5.64444447px;stroke-width:0.26458332"
         id="path4001" />
      <path
         d="m 178.80591,164.04199 h -2.22139 v -0.41892 h 0.85438 v -2.75057 h -0.85438 v -0.37482 q 0.17363,0 0.37207,-0.0276 0.19843,-0.0303 0.30041,-0.0854 0.12678,-0.0689 0.19844,-0.17363 0.0744,-0.10749 0.0854,-0.28664 h 0.42719 v 3.69866 h 0.83784 z"
         style="font-size:5.64444447px;stroke-width:0.26458332"
         id="path4003" />
    </g>
    <g
       aria-label="-2"
       style="font-style:normal;font-weight:normal;font-size:7.05555534px;line-height:1.25;font-family:sans-serif;letter-spacing:0px;word-spacing:0px;writing-mode:lr-tb;direction:ltr;fill:#000000;fill-opacity:1;stroke:none;stroke-width:0.26458332"
       id="text3770">
      <path
         d="m 187.75259,162.51579 h -1.7198 v -0.49885 h 1.7198 z"
         style="font-size:5.64444447px;stroke-width:0.26458332"
         id="path3996" />
      <path
         d="m 191.40163,164.06195 h -2.77812 v -0.57602 q 0.28938,-0.24805 0.57877,-0.49609 0.29215,-0.24805 0.54295,-0.49334 0.52917,-0.51263 0.72485,-0.81304 0.19568,-0.30317 0.19568,-0.65319 0,-0.31971 -0.21222,-0.49885 -0.20946,-0.1819 -0.58704,-0.1819 -0.25081,0 -0.54295,0.0882 -0.29214,0.0882 -0.57051,0.2701 h -0.0276 v -0.57878 q 0.19568,-0.0965 0.5209,-0.17639 0.32797,-0.0799 0.6339,-0.0799 0.63114,0 0.98943,0.30593 0.35829,0.30317 0.35829,0.82407 0,0.23426 -0.0606,0.43821 -0.0579,0.2012 -0.17363,0.3831 -0.10749,0.17087 -0.25356,0.33624 -0.14331,0.16536 -0.35002,0.36656 -0.2949,0.28938 -0.60909,0.56224 -0.31419,0.27009 -0.58705,0.5016 h 2.20762 z"
         style="font-size:5.64444447px;stroke-width:0.26458332"
         id="path3998" />
    </g>
    <g
       aria-label="2"
       style="font-style:normal;font-weight:normal;font-size:5.64444447px;line-height:1.25;font-family:sans-serif;letter-spacing:0px;word-spacing:0px;writing-mode:lr-tb;direction:ltr;fill:#000000;fill-opacity:1;stroke:none;stroke-width:0.26458332"
       id="text3778">
      <path
         d="m 177.6128,214.08617 h -2.77813 v -0.57602 q 0.28939,-0.24805 0.57878,-0.4961 0.29214,-0.24804 0.54295,-0.49334 0.52916,-0.51263 0.72484,-0.81304 0.19569,-0.30317 0.19569,-0.65319 0,-0.3197 -0.21222,-0.49885 -0.20946,-0.1819 -0.58705,-0.1819 -0.2508,0 -0.54294,0.0882 -0.29215,0.0882 -0.57051,0.27009 h -0.0276 v -0.57877 q 0.19568,-0.0965 0.5209,-0.17639 0.32797,-0.0799 0.63389,-0.0799 0.63115,0 0.98944,0.30592 0.35829,0.30317 0.35829,0.82407 0,0.23427 -0.0606,0.43822 -0.0579,0.20119 -0.17363,0.38309 -0.10749,0.17088 -0.25356,0.33624 -0.14332,0.16537 -0.35002,0.36656 -0.2949,0.28939 -0.60909,0.56224 -0.3142,0.2701 -0.58705,0.50161 h 2.20762 z"
         style="stroke-width:0.26458332"
         id="path4006" />
    </g>
    <g
       aria-label="3"
       style="font-style:normal;font-weight:normal;font-size:5.64444447px;line-height:1.25;font-family:sans-serif;letter-spacing:0px;word-spacing:0px;writing-mode:lr-tb;direction:ltr;fill:#000000;fill-opacity:1;stroke:none;stroke-width:0.26458332"
       id="text3782">
      <path
         d="m 189.80987,212.05438 q 0.1323,0.11851 0.21773,0.29766 0.0854,0.17914 0.0854,0.46302 0,0.28112 -0.10197,0.51538 -0.10198,0.23427 -0.28663,0.4079 -0.20671,0.19293 -0.48783,0.28663 -0.27836,0.091 -0.61185,0.091 -0.34175,0 -0.67248,-0.0827 -0.33073,-0.0799 -0.54295,-0.17639 v -0.57602 h 0.0413 q 0.23427,0.15434 0.55122,0.25632 0.31695,0.10197 0.61185,0.10197 0.17363,0 0.36931,-0.0579 0.19568,-0.0579 0.31695,-0.17088 0.12678,-0.12127 0.18741,-0.26734 0.0634,-0.14607 0.0634,-0.36931 0,-0.22049 -0.0717,-0.36381 -0.0689,-0.14607 -0.19292,-0.22875 -0.12402,-0.0854 -0.30041,-0.11576 -0.17639,-0.0331 -0.38034,-0.0331 h -0.24805 v -0.45751 h 0.19293 q 0.41892,0 0.66697,-0.17363 0.2508,-0.17639 0.2508,-0.51263 0,-0.14883 -0.0634,-0.25907 -0.0634,-0.113 -0.17639,-0.18466 -0.11851,-0.0717 -0.25356,-0.0992 -0.13505,-0.0276 -0.30592,-0.0276 -0.26183,0 -0.55673,0.0937 -0.2949,0.0937 -0.55673,0.26458 h -0.0276 v -0.57602 q 0.19568,-0.0965 0.5209,-0.17639 0.32797,-0.0827 0.6339,-0.0827 0.30041,0 0.52916,0.0551 0.22876,0.0551 0.41342,0.17639 0.19843,0.13229 0.30041,0.31971 0.10197,0.18741 0.10197,0.43821 0,0.34176 -0.24253,0.59807 -0.23978,0.25356 -0.56775,0.31971 v 0.0386 q 0.13229,0.0221 0.30317,0.0937 0.17087,0.0689 0.28938,0.17363 z"
         style="stroke-width:0.26458332"
         id="path4009" />
    </g>
    <g
       aria-label="1"
       style="font-style:normal;font-weight:normal;font-size:5.64444447px;line-height:1.25;font-family:sans-serif;letter-spacing:0px;word-spacing:0px;writing-mode:lr-tb;direction:ltr;fill:#000000;fill-opacity:1;stroke:none;stroke-width:0.26458332"
       id="text3786">
      <path
         d="m 177.36602,224.08345 h -2.2214 v -0.41892 h 0.85439 v -2.75057 h -0.85439 v -0.37482 q 0.17364,0 0.37207,-0.0276 0.19844,-0.0303 0.30042,-0.0854 0.12677,-0.0689 0.19843,-0.17364 0.0744,-0.10748 0.0854,-0.28663 h 0.42719 v 3.69866 h 0.83785 z"
         style="stroke-width:0.26458332"
         id="path4019" />
    </g>
    <g
       aria-label="3/2"
       style="font-style:normal;font-weight:normal;font-size:5.64444447px;line-height:1.25;font-family:sans-serif;letter-spacing:0px;word-spacing:0px;writing-mode:lr-tb;direction:ltr;fill:#000000;fill-opacity:1;stroke:none;stroke-width:0.26458332"
       id="text3790">
      <path
         d="m 186.70236,221.71889 q 0.13229,0.11851 0.21773,0.29765 0.0854,0.17915 0.0854,0.46302 0,0.28112 -0.10198,0.51539 -0.10197,0.23427 -0.28663,0.4079 -0.2067,0.19292 -0.48782,0.28663 -0.27837,0.0909 -0.61185,0.0909 -0.34176,0 -0.67249,-0.0827 -0.33072,-0.0799 -0.54294,-0.17639 v -0.57602 h 0.0413 q 0.23427,0.15434 0.55121,0.25631 0.31695,0.10198 0.61185,0.10198 0.17364,0 0.36932,-0.0579 0.19568,-0.0579 0.31695,-0.17088 0.12678,-0.12126 0.18741,-0.26733 0.0634,-0.14608 0.0634,-0.36932 0,-0.22048 -0.0717,-0.3638 -0.0689,-0.14607 -0.19292,-0.22876 -0.12403,-0.0854 -0.30042,-0.11575 -0.17639,-0.0331 -0.38034,-0.0331 h -0.24804 v -0.45751 h 0.19292 q 0.41893,0 0.66697,-0.17363 0.25081,-0.17639 0.25081,-0.51264 0,-0.14882 -0.0634,-0.25907 -0.0634,-0.113 -0.17639,-0.18465 -0.11851,-0.0717 -0.25356,-0.0992 -0.13505,-0.0276 -0.30593,-0.0276 -0.26182,0 -0.55672,0.0937 -0.2949,0.0937 -0.55673,0.26459 h -0.0276 v -0.57602 q 0.19568,-0.0965 0.5209,-0.17639 0.32797,-0.0827 0.63389,-0.0827 0.30042,0 0.52917,0.0551 0.22876,0.0551 0.41341,0.17639 0.19844,0.13229 0.30042,0.3197 0.10197,0.18741 0.10197,0.43822 0,0.34175 -0.24253,0.59807 -0.23978,0.25355 -0.56776,0.3197 v 0.0386 q 0.1323,0.022 0.30317,0.0937 0.17088,0.0689 0.28939,0.17364 z"
         style="stroke-width:0.26458332"
         id="path4012" />
      <path
         d="m 189.8057,219.40654 -1.9761,5.1263 h -0.47681 l 1.96784,-5.1263 z"
         style="stroke-width:0.26458332"
         id="path4014" />
      <path
         d="m 193.22599,223.69499 h -2.77812 v -0.57602 q 0.28939,-0.24804 0.57877,-0.49609 0.29215,-0.24805 0.54295,-0.49334 0.52917,-0.51263 0.72485,-0.81304 0.19568,-0.30317 0.19568,-0.65319 0,-0.31971 -0.21222,-0.49885 -0.20946,-0.1819 -0.58704,-0.1819 -0.2508,0 -0.54295,0.0882 -0.29214,0.0882 -0.57051,0.2701 h -0.0276 v -0.57878 q 0.19568,-0.0965 0.5209,-0.17639 0.32797,-0.0799 0.6339,-0.0799 0.63114,0 0.98943,0.30592 0.35829,0.30317 0.35829,0.82407 0,0.23426 -0.0606,0.43821 -0.0579,0.2012 -0.17364,0.3831 -0.10748,0.17087 -0.25356,0.33624 -0.14331,0.16536 -0.35002,0.36656 -0.2949,0.28939 -0.60909,0.56224 -0.31419,0.27009 -0.58704,0.5016 h 2.20761 z"
         style="stroke-width:0.26458332"
         id="path4016" />
    </g>
    <g
       aria-label="0"
       style="font-style:normal;font-weight:normal;font-size:5.64444447px;line-height:1.25;font-family:sans-serif;letter-spacing:0px;word-spacing:0px;writing-mode:lr-tb;direction:ltr;fill:#000000;fill-opacity:1;stroke:none;stroke-width:0.26458332"
       id="text3794">
      <path
         d="m 177.67575,232.03016 q 0,1.10518 -0.34726,1.62333 -0.34451,0.51538 -1.07212,0.51538 -0.73863,0 -1.08038,-0.52365 -0.339,-0.52366 -0.339,-1.60955 0,-1.09416 0.34451,-1.61506 0.34451,-0.52365 1.07487,-0.52365 0.73863,0 1.07763,0.53192 0.34175,0.52916 0.34175,1.60128 z m -0.72485,1.25126 q 0.0965,-0.22325 0.12954,-0.52366 0.0358,-0.30317 0.0358,-0.7276 0,-0.41893 -0.0358,-0.72761 -0.0331,-0.30868 -0.13229,-0.52365 -0.0965,-0.21222 -0.26458,-0.31971 -0.16537,-0.10748 -0.4272,-0.10748 -0.25907,0 -0.42994,0.10748 -0.16813,0.10749 -0.26734,0.32522 -0.0937,0.20395 -0.12954,0.53192 -0.0331,0.32798 -0.0331,0.71934 0,0.42995 0.0303,0.71934 0.0303,0.28938 0.12954,0.51814 0.0909,0.21497 0.25632,0.32797 0.16812,0.113 0.44372,0.113 0.25907,0 0.42995,-0.10749 0.17088,-0.10748 0.26458,-0.32521 z"
         style="stroke-width:0.26458332"
         id="path4022" />
    </g>
    <g
       aria-label="0"
       style="font-style:normal;font-weight:normal;font-size:5.64444447px;line-height:1.25;font-family:sans-serif;letter-spacing:0px;word-spacing:0px;writing-mode:lr-tb;direction:ltr;fill:#000000;fill-opacity:1;stroke:none;stroke-width:0.26458332"
       id="text3798">
      <path
         d="m 190.1935,232.00672 q 0,1.10519 -0.34727,1.62333 -0.34451,0.51539 -1.07211,0.51539 -0.73863,0 -1.08038,-0.52366 -0.339,-0.52365 -0.339,-1.60955 0,-1.09416 0.34451,-1.61506 0.34451,-0.52365 1.07487,-0.52365 0.73863,0 1.07763,0.53192 0.34175,0.52917 0.34175,1.60128 z m -0.72485,1.25126 q 0.0965,-0.22324 0.12954,-0.52366 0.0358,-0.30316 0.0358,-0.7276 0,-0.41892 -0.0358,-0.7276 -0.0331,-0.30868 -0.1323,-0.52366 -0.0965,-0.21222 -0.26458,-0.3197 -0.16536,-0.10749 -0.42719,-0.10749 -0.25907,0 -0.42995,0.10749 -0.16812,0.10748 -0.26734,0.32521 -0.0937,0.20395 -0.12953,0.53193 -0.0331,0.32797 -0.0331,0.71933 0,0.42995 0.0303,0.71934 0.0303,0.28939 0.12954,0.51814 0.0909,0.21498 0.25631,0.32797 0.16812,0.113 0.44373,0.113 0.25907,0 0.42995,-0.10748 0.17087,-0.10749 0.26458,-0.32522 z"
         style="stroke-width:0.26458332"
         id="path4025" />
    </g>
    <g
       aria-label="-1"
       style="font-style:normal;font-weight:normal;font-size:5.64444447px;line-height:1.25;font-family:sans-serif;letter-spacing:0px;word-spacing:0px;writing-mode:lr-tb;direction:ltr;fill:#000000;fill-opacity:1;stroke:none;stroke-width:0.26458332"
       id="text3802">
      <path
         d="m 175.3899,242.48431 h -1.71979 v -0.49885 h 1.71979 z"
         style="stroke-width:0.26458332"
         id="path4037" />
      <path
         d="m 178.80468,244.03047 h -2.2214 v -0.41892 h 0.85438 v -2.75057 h -0.85438 v -0.37482 q 0.17363,0 0.37207,-0.0276 0.19844,-0.0303 0.30041,-0.0854 0.12678,-0.0689 0.19844,-0.17363 0.0744,-0.10749 0.0854,-0.28664 h 0.42719 v 3.69866 h 0.83785 z"
         style="stroke-width:0.26458332"
         id="path4039" />
    </g>
    <g
       aria-label="-2"
       style="font-style:normal;font-weight:normal;font-size:5.64444447px;line-height:1.25;font-family:sans-serif;letter-spacing:0px;word-spacing:0px;writing-mode:lr-tb;direction:ltr;fill:#000000;fill-opacity:1;stroke:none;stroke-width:0.26458332"
       id="text3806">
      <path
         d="m 175.2806,252.53541 h -1.71979 v -0.49885 h 1.71979 z"
         style="stroke-width:0.26458332"
         id="path4042" />
      <path
         d="m 178.92965,254.08157 h -2.77813 v -0.57602 q 0.28939,-0.24804 0.57878,-0.49609 0.29214,-0.24805 0.54294,-0.49334 0.52917,-0.51263 0.72485,-0.81304 0.19568,-0.30317 0.19568,-0.65319 0,-0.31971 -0.21221,-0.49885 -0.20947,-0.1819 -0.58705,-0.1819 -0.2508,0 -0.54295,0.0882 -0.29214,0.0882 -0.5705,0.2701 h -0.0276 v -0.57878 q 0.19568,-0.0965 0.52089,-0.17639 0.32798,-0.0799 0.6339,-0.0799 0.63114,0 0.98943,0.30592 0.35829,0.30317 0.35829,0.82407 0,0.23427 -0.0606,0.43821 -0.0579,0.2012 -0.17363,0.3831 -0.10749,0.17088 -0.25356,0.33624 -0.14332,0.16537 -0.35002,0.36656 -0.2949,0.28939 -0.6091,0.56224 -0.31419,0.27009 -0.58704,0.5016 h 2.20762 z"
         style="stroke-width:0.26458332"
         id="path4044" />
    </g>
    <g
       aria-label="-3/2"
       style="font-style:normal;font-weight:normal;font-size:5.64444447px;line-height:1.25;font-family:sans-serif;letter-spacing:0px;word-spacing:0px;writing-mode:lr-tb;direction:ltr;fill:#000000;fill-opacity:1;stroke:none;stroke-width:0.26458332"
       id="text3810">
      <path
         d="m 184.72395,242.25166 h -1.7198 v -0.49885 h 1.7198 z"
         style="stroke-width:0.26458332"
         id="path4028" />
      <path
         d="m 188.01194,241.82171 q 0.1323,0.11852 0.21773,0.29766 0.0854,0.17915 0.0854,0.46302 0,0.28112 -0.10197,0.51539 -0.10198,0.23426 -0.28663,0.4079 -0.20671,0.19292 -0.48783,0.28663 -0.27836,0.091 -0.61185,0.091 -0.34175,0 -0.67248,-0.0827 -0.33073,-0.0799 -0.54295,-0.17639 v -0.57602 h 0.0413 q 0.23427,0.15434 0.55122,0.25631 0.31695,0.10198 0.61185,0.10198 0.17363,0 0.36931,-0.0579 0.19568,-0.0579 0.31695,-0.17088 0.12678,-0.12126 0.18741,-0.26734 0.0634,-0.14607 0.0634,-0.36931 0,-0.22049 -0.0717,-0.3638 -0.0689,-0.14607 -0.19293,-0.22876 -0.12402,-0.0854 -0.30041,-0.11575 -0.17639,-0.0331 -0.38034,-0.0331 h -0.24805 v -0.45751 h 0.19293 q 0.41892,0 0.66697,-0.17364 0.2508,-0.17638 0.2508,-0.51263 0,-0.14882 -0.0634,-0.25907 -0.0634,-0.113 -0.17639,-0.18465 -0.11851,-0.0717 -0.25356,-0.0992 -0.13504,-0.0276 -0.30592,-0.0276 -0.26183,0 -0.55673,0.0937 -0.2949,0.0937 -0.55673,0.26459 h -0.0276 v -0.57602 q 0.19568,-0.0965 0.5209,-0.17639 0.32797,-0.0827 0.6339,-0.0827 0.30041,0 0.52917,0.0551 0.22875,0.0551 0.41341,0.17639 0.19843,0.13229 0.30041,0.3197 0.10197,0.18741 0.10197,0.43822 0,0.34175 -0.24253,0.59806 -0.23978,0.25356 -0.56775,0.31971 v 0.0386 q 0.13229,0.0221 0.30317,0.0937 0.17087,0.0689 0.28938,0.17363 z"
         style="stroke-width:0.26458332"
         id="path4030" />
      <path
         d="m 191.11529,239.50937 -1.97611,5.1263 h -0.4768 l 1.96784,-5.1263 z"
         style="stroke-width:0.26458332"
         id="path4032" />
      <path
         d="m 194.53558,243.79782 h -2.77813 v -0.57602 q 0.28939,-0.24805 0.57878,-0.49609 0.29214,-0.24805 0.54294,-0.49334 0.52917,-0.51263 0.72485,-0.81304 0.19568,-0.30317 0.19568,-0.65319 0,-0.31971 -0.21221,-0.49885 -0.20947,-0.1819 -0.58705,-0.1819 -0.2508,0 -0.54294,0.0882 -0.29215,0.0882 -0.57051,0.2701 h -0.0276 v -0.57878 q 0.19568,-0.0965 0.5209,-0.17639 0.32797,-0.0799 0.63389,-0.0799 0.63114,0 0.98943,0.30593 0.35829,0.30317 0.35829,0.82407 0,0.23426 -0.0606,0.43821 -0.0579,0.2012 -0.17363,0.3831 -0.10749,0.17087 -0.25356,0.33624 -0.14332,0.16536 -0.35002,0.36656 -0.2949,0.28938 -0.6091,0.56224 -0.31419,0.27009 -0.58704,0.5016 h 2.20762 z"
         style="stroke-width:0.26458332"
         id="path4034" />
    </g>
    <g
       aria-label="-3"
       style="font-style:normal;font-weight:normal;font-size:5.64444447px;line-height:1.25;font-family:sans-serif;letter-spacing:0px;word-spacing:0px;writing-mode:lr-tb;direction:ltr;fill:#000000;fill-opacity:1;stroke:none;stroke-width:0.26458332"
       id="text3814">
      <path
         d="m 187.80772,252.48888 h -1.7198 v -0.49885 h 1.7198 z"
         style="stroke-width:0.26458332"
         id="path4047" />
      <path
         d="m 191.09571,252.05893 q 0.1323,0.11851 0.21773,0.29765 0.0854,0.17915 0.0854,0.46302 0,0.28112 -0.10197,0.51539 -0.10198,0.23427 -0.28663,0.4079 -0.20671,0.19293 -0.48783,0.28663 -0.27836,0.091 -0.61185,0.091 -0.34175,0 -0.67248,-0.0827 -0.33073,-0.0799 -0.54295,-0.17639 v -0.57602 h 0.0413 q 0.23427,0.15434 0.55122,0.25632 0.31695,0.10197 0.61185,0.10197 0.17363,0 0.36931,-0.0579 0.19568,-0.0579 0.31695,-0.17087 0.12678,-0.12127 0.18741,-0.26734 0.0634,-0.14607 0.0634,-0.36932 0,-0.22048 -0.0716,-0.3638 -0.0689,-0.14607 -0.19293,-0.22875 -0.12402,-0.0854 -0.30041,-0.11576 -0.17639,-0.0331 -0.38034,-0.0331 h -0.24805 v -0.45751 h 0.19293 q 0.41892,0 0.66697,-0.17363 0.2508,-0.17639 0.2508,-0.51263 0,-0.14883 -0.0634,-0.25907 -0.0634,-0.113 -0.17639,-0.18466 -0.11851,-0.0717 -0.25356,-0.0992 -0.13504,-0.0276 -0.30592,-0.0276 -0.26183,0 -0.55673,0.0937 -0.2949,0.0937 -0.55673,0.26458 h -0.0276 v -0.57602 q 0.19569,-0.0965 0.5209,-0.17639 0.32798,-0.0827 0.6339,-0.0827 0.30041,0 0.52917,0.0551 0.22875,0.0551 0.41341,0.17639 0.19844,0.13229 0.30041,0.3197 0.10197,0.18742 0.10197,0.43822 0,0.34175 -0.24253,0.59807 -0.23978,0.25356 -0.56775,0.3197 v 0.0386 q 0.13229,0.022 0.30317,0.0937 0.17087,0.0689 0.28938,0.17364 z"
         style="stroke-width:0.26458332"
         id="path4049" />
    </g>
    <g
       aria-label=""
       style="font-style:normal;font-weight:normal;font-size:5.64444447px;line-height:1.25;font-family:sans-serif;letter-spacing:0px;word-spacing:0px;writing-mode:lr-tb;direction:ltr;fill:#000000;fill-opacity:1;stroke:none;stroke-width:0.26458332"
       id="text3818">
      <path
         d="m 178.98724,268.16071 h -0.51814 v -2.63206 h -1.54065 v 2.63206 h -0.51814 v -3.07854 h 2.57693 z"
         style="stroke-width:0.26458332"
         id="path3864" />
    </g>
    <g
       aria-label=""
       style="font-style:normal;font-weight:normal;font-size:5.64444447px;line-height:1.25;font-family:sans-serif;letter-spacing:0px;word-spacing:0px;writing-mode:lr-tb;direction:ltr;fill:#000000;fill-opacity:1;stroke:none;stroke-width:0.26458332"
       id="text3822">
      <path
         d="m 179.18391,287.36226 q 0,0.77445 -0.38861,1.19889 -0.38585,0.42443 -1.02802,0.42443 -0.66421,0 -1.04455,-0.43546 -0.38034,-0.43546 -0.38034,-1.18786 0,-0.75793 0.38861,-1.19063 0.3886,-0.43546 1.04179,-0.43546 0.15159,0 0.29766,0.0303 0.14607,0.0303 0.226,0.0551 h 1.32292 v 0.45475 h -0.79375 q 0.17087,0.2012 0.26458,0.46853 0.0937,0.26734 0.0937,0.61737 z m -0.53468,0 q 0,-0.59256 -0.226,-0.88746 -0.226,-0.2949 -0.65044,-0.2949 -0.44372,0 -0.66972,0.30868 -0.226,0.30868 -0.226,0.87368 0,0.57602 0.22875,0.87643 0.23151,0.30041 0.66146,0.30041 0.41893,0 0.65044,-0.2949 0.23151,-0.29766 0.23151,-0.88194 z"
         style="stroke-width:0.26458332"
         id="path3867" />
    </g>
    <g
       aria-label=""
       style="font-style:normal;font-weight:normal;font-size:5.64444447px;line-height:1.25;font-family:sans-serif;letter-spacing:0px;word-spacing:0px;writing-mode:lr-tb;direction:ltr;fill:#000000;fill-opacity:1;stroke:none;stroke-width:0.26458332"
       id="text3826">
      <path
         d="m 172.58905,280.37015 -1.56545,-4.04041 h 0.57878 l 1.05006,2.93522 q 0.12678,0.35278 0.21222,0.66146 0.0937,-0.33073 0.21773,-0.66146 l 1.0914,-2.93522 h 0.54571 l -1.58199,4.04041 z m -0.62287,-4.3739 q -0.003,-0.28663 0.15709,-0.4575 0.1571,-0.17088 0.40239,-0.17088 0.17088,0 0.46578,0.14883 0.16261,0.0827 0.25907,0.0827 0.0882,0 0.13505,-0.0469 0.0469,-0.0496 0.0661,-0.19293 h 0.35829 q -0.008,0.31419 -0.15985,0.47129 -0.14883,0.1571 -0.38034,0.1571 -0.17363,0 -0.45751,-0.15434 -0.18465,-0.0992 -0.27009,-0.0992 -0.0937,0 -0.15159,0.0661 -0.0606,0.0661 -0.0579,0.19568 z"
         style="stroke-width:0.26458332"
         id="path3861" />
    </g>
  </g>
</svg>
