<?xml version="1.0" encoding="UTF-8" standalone="no"?>
<!-- Created with Inkscape (http://www.inkscape.org/) -->

<svg
   xmlns:dc="http://purl.org/dc/elements/1.1/"
   xmlns:cc="http://creativecommons.org/ns#"
   xmlns:rdf="http://www.w3.org/1999/02/22-rdf-syntax-ns#"
   xmlns:svg="http://www.w3.org/2000/svg"
   xmlns="http://www.w3.org/2000/svg"
   xmlns:sodipodi="http://sodipodi.sourceforge.net/DTD/sodipodi-0.dtd"
   xmlns:inkscape="http://www.inkscape.org/namespaces/inkscape"
   width="250mm"
   height="100mm"
   viewBox="0 0 250 100"
   version="1.1"
   id="svg6000"
   inkscape:version="0.92.3 (2405546, 2018-03-11)"
   sodipodi:docname="fig6.svg">
  <defs
     id="defs5994" />
  <sodipodi:namedview
     id="base"
     pagecolor="#ffffff"
     bordercolor="#666666"
     borderopacity="1.0"
     inkscape:pageopacity="0.0"
     inkscape:pageshadow="2"
     inkscape:zoom="1.5367"
     inkscape:cx="472.44094"
     inkscape:cy="188.97638"
     inkscape:document-units="mm"
     inkscape:current-layer="layer1"
     showgrid="false"
     height="120mm"
     showguides="true"
     inkscape:guide-bbox="true"
     inkscape:window-width="1920"
     inkscape:window-height="1013"
     inkscape:window-x="-9"
     inkscape:window-y="-9"
     inkscape:window-maximized="1">
    <sodipodi:guide
       position="125.08474,98.789347"
       orientation="1,0"
       id="guide6002"
       inkscape:locked="false" />
    <sodipodi:guide
       position="154.61873,58.195082"
       orientation="0,1"
       id="guide1013"
       inkscape:locked="false" />
    <sodipodi:guide
       position="177.26368,8.0353043"
       orientation="0,1"
       id="guide1015"
       inkscape:locked="false" />
  </sodipodi:namedview>
  <metadata
     id="metadata5997">
    <rdf:RDF>
      <cc:Work
         rdf:about="">
        <dc:format>image/svg+xml</dc:format>
        <dc:type
           rdf:resource="http://purl.org/dc/dcmitype/StillImage" />
        <dc:title></dc:title>
      </cc:Work>
    </rdf:RDF>
  </metadata>
  <g
     inkscape:label="Layer 1"
     inkscape:groupmode="layer"
     id="layer1"
     transform="translate(0,-197)">
    <path
       style="fill:none;stroke:#000000;stroke-width:0.4547095;stroke-linecap:butt;stroke-linejoin:miter;stroke-miterlimit:4;stroke-dasharray:none;stroke-opacity:1"
       d="M 121.14413,276.44251 H 15.935236 v -71.53219"
       id="path6008"
       inkscape:connector-curvature="0" />
    <path
       sodipodi:type="star"
       style="fill:#000000;fill-opacity:1;stroke:#000000;stroke-width:1.77370191;stroke-miterlimit:4;stroke-dasharray:none;stroke-dashoffset:0;stroke-opacity:1"
       id="path6010"
       sodipodi:sides="3"
       sodipodi:cx="17.042139"
       sodipodi:cy="198.17464"
       sodipodi:r1="3.0230489"
       sodipodi:r2="1.5115244"
       sodipodi:arg1="2.6179939"
       sodipodi:arg2="3.6651914"
       inkscape:flatsided="false"
       inkscape:rounded="0"
       inkscape:randomized="0"
       d="m 14.424102,199.68616 1.309018,-2.26729 1.309019,-2.26728 1.309019,2.26728 1.309018,2.26729 -2.618037,0 z"
       inkscape:transform-center-y="-0.33664566"
       transform="matrix(0.17224859,0,0,0.44544101,12.99482,117.50931)" />
    <path
       sodipodi:type="star"
       style="fill:#000000;fill-opacity:1;stroke:#000000;stroke-width:1.77370191;stroke-miterlimit:4;stroke-dasharray:none;stroke-dashoffset:0;stroke-opacity:1"
       id="path6010-4"
       sodipodi:sides="3"
       sodipodi:cx="17.042139"
       sodipodi:cy="198.17464"
       sodipodi:r1="3.0230489"
       sodipodi:r2="1.5115244"
       sodipodi:arg1="2.6179939"
       sodipodi:arg2="3.6651914"
       inkscape:flatsided="false"
       inkscape:rounded="0"
       inkscape:randomized="0"
       d="m 14.424102,199.68616 1.309018,-2.26729 1.309019,-2.26728 1.309019,2.26728 1.309018,2.26729 -2.618037,0 z"
       inkscape:transform-center-y="-6.8434655e-006"
       transform="matrix(0,0.17224859,-0.44544101,0,208.45327,273.49751)"
       inkscape:transform-center-x="-0.33664075" />
    <path
       style="fill:none;stroke:#000000;stroke-width:0.49130771;stroke-linecap:butt;stroke-linejoin:miter;stroke-miterlimit:4;stroke-dasharray:none;stroke-opacity:1"
       d="M 20.34953,276.30559 V 264.29358"
       id="path6570"
       inkscape:connector-curvature="0" />
    <path
       style="fill:none;stroke:#000000;stroke-width:0.49130771;stroke-linecap:butt;stroke-linejoin:miter;stroke-miterlimit:4;stroke-dasharray:none;stroke-opacity:1"
       d="M 24.663698,276.30559 V 253.80423"
       id="path6572"
       inkscape:connector-curvature="0" />
    <path
       style="fill:none;stroke:#000000;stroke-width:0.49130771;stroke-linecap:butt;stroke-linejoin:miter;stroke-miterlimit:4;stroke-dasharray:none;stroke-opacity:1"
       d="m 29.400825,276.39017 v -7.02109"
       id="path6576"
       inkscape:connector-curvature="0" />
    <path
       style="fill:none;stroke:#000000;stroke-width:0.49130771;stroke-linecap:butt;stroke-linejoin:miter;stroke-miterlimit:4;stroke-dasharray:none;stroke-opacity:1"
       d="M 33.038261,276.30559 V 260.57155"
       id="path6578"
       inkscape:connector-curvature="0" />
    <path
       style="fill:none;stroke:#000000;stroke-width:0.49130771;stroke-linecap:butt;stroke-linejoin:miter;stroke-miterlimit:4;stroke-dasharray:none;stroke-opacity:1"
       d="M 37.014063,276.39017 V 256.59576"
       id="path6580"
       inkscape:connector-curvature="0" />
    <path
       style="fill:none;stroke:#000000;stroke-width:0.49130771;stroke-linecap:butt;stroke-linejoin:miter;stroke-miterlimit:4;stroke-dasharray:none;stroke-opacity:1"
       d="m 40.6515,276.22099 v -3.89122"
       id="path6582"
       inkscape:connector-curvature="0" />
    <path
       style="fill:none;stroke:#000000;stroke-width:0.49130771;stroke-linecap:butt;stroke-linejoin:miter;stroke-miterlimit:4;stroke-dasharray:none;stroke-opacity:1"
       d="M 45.050259,276.39017 V 242.63814"
       id="path6584"
       inkscape:connector-curvature="0" />
    <path
       style="fill:none;stroke:#000000;stroke-width:0.49130771;stroke-linecap:butt;stroke-linejoin:miter;stroke-miterlimit:4;stroke-dasharray:none;stroke-opacity:1"
       d="M 50.464121,276.22099 V 260.90992"
       id="path6586"
       inkscape:connector-curvature="0" />
    <path
       style="fill:none;stroke:#000000;stroke-width:0.49130771;stroke-linecap:butt;stroke-linejoin:miter;stroke-miterlimit:4;stroke-dasharray:none;stroke-opacity:1"
       d="m 55.285837,276.47476 v -5.16008"
       id="path6588"
       inkscape:connector-curvature="0" />
    <path
       style="fill:none;stroke:#000000;stroke-width:0.49130771;stroke-linecap:butt;stroke-linejoin:miter;stroke-miterlimit:4;stroke-dasharray:none;stroke-opacity:1"
       d="m 59.684599,276.30559 v -9.22048"
       id="path6590"
       inkscape:connector-curvature="0" />
    <path
       style="fill:none;stroke:#000000;stroke-width:0.49130771;stroke-linecap:butt;stroke-linejoin:miter;stroke-miterlimit:4;stroke-dasharray:none;stroke-opacity:1"
       d="M 64.760091,276.22099 V 237.39347"
       id="path6592"
       inkscape:connector-curvature="0" />
    <path
       style="fill:none;stroke:#000000;stroke-width:0.49130771;stroke-linecap:butt;stroke-linejoin:miter;stroke-miterlimit:4;stroke-dasharray:none;stroke-opacity:1"
       d="M 69.750992,276.30559 V 253.55045"
       id="path6594"
       inkscape:connector-curvature="0" />
    <path
       style="fill:none;stroke:#000000;stroke-width:0.49130771;stroke-linecap:butt;stroke-linejoin:miter;stroke-miterlimit:4;stroke-dasharray:none;stroke-opacity:1"
       d="m 74.911075,276.30559 v -5.41386"
       id="path6596"
       inkscape:connector-curvature="0" />
    <path
       style="fill:none;stroke:#000000;stroke-width:0.49130771;stroke-linecap:butt;stroke-linejoin:miter;stroke-miterlimit:4;stroke-dasharray:none;stroke-opacity:1"
       d="m 77.110456,276.22099 v -9.30507"
       id="path6598"
       inkscape:connector-curvature="0" />
    <path
       style="fill:none;stroke:#000000;stroke-width:0.49130771;stroke-linecap:butt;stroke-linejoin:miter;stroke-miterlimit:4;stroke-dasharray:none;stroke-opacity:1"
       d="M 81.6784,276.22099 V 254.81932"
       id="path6600"
       inkscape:connector-curvature="0" />
    <path
       style="fill:none;stroke:#000000;stroke-width:0.49130771;stroke-linecap:butt;stroke-linejoin:miter;stroke-miterlimit:4;stroke-dasharray:none;stroke-opacity:1"
       d="M 86.246344,276.30559 V 257.20903"
       id="path6602"
       inkscape:connector-curvature="0"
       sodipodi:nodetypes="cc" />
    <path
       style="fill:none;stroke:#000000;stroke-width:0.49130771;stroke-linecap:butt;stroke-linejoin:miter;stroke-miterlimit:4;stroke-dasharray:none;stroke-opacity:1"
       d="m 90.898879,276.22099 v -6.76733"
       id="path6604"
       inkscape:connector-curvature="0" />
    <path
       style="fill:none;stroke:#000000;stroke-width:0.49130771;stroke-linecap:butt;stroke-linejoin:miter;stroke-miterlimit:4;stroke-dasharray:none;stroke-opacity:1"
       d="M 94.959272,276.22099 V 262.60175"
       id="path6606"
       inkscape:connector-curvature="0" />
    <path
       style="fill:none;stroke:#000000;stroke-width:0.49130771;stroke-linecap:butt;stroke-linejoin:miter;stroke-miterlimit:4;stroke-dasharray:none;stroke-opacity:1"
       d="M 99.442621,276.22099 V 255.58065"
       id="path6608"
       inkscape:connector-curvature="0" />
    <path
       style="fill:none;stroke:#000000;stroke-width:0.49130771;stroke-linecap:butt;stroke-linejoin:miter;stroke-miterlimit:4;stroke-dasharray:none;stroke-opacity:1"
       d="M 103.50305,276.22099 V 257.72446"
       id="path6610"
       inkscape:connector-curvature="0"
       sodipodi:nodetypes="cc" />
    <path
       style="fill:none;stroke:#000000;stroke-width:0.49130771;stroke-linecap:butt;stroke-linejoin:miter;stroke-miterlimit:4;stroke-dasharray:none;stroke-opacity:1"
       d="M 107.47886,276.39017 V 251.01271"
       id="path6612"
       inkscape:connector-curvature="0" />
    <path
       style="fill:none;stroke:#000000;stroke-width:0.49130771;stroke-linecap:butt;stroke-linejoin:miter;stroke-miterlimit:4;stroke-dasharray:none;stroke-opacity:1"
       d="M 111.28549,276.1364 V 260.1486"
       id="path6614"
       inkscape:connector-curvature="0" />
    <path
       style="fill:none;stroke:#000000;stroke-width:0.49130771;stroke-linecap:butt;stroke-linejoin:miter;stroke-miterlimit:4;stroke-dasharray:none;stroke-opacity:1"
       d="M 115.0921,276.30559 V 256.00361"
       id="path6616"
       inkscape:connector-curvature="0" />
    <path
       style="fill:none;stroke:#000000;stroke-width:0.45456332;stroke-linecap:butt;stroke-linejoin:miter;stroke-miterlimit:4;stroke-dasharray:none;stroke-opacity:1"
       d="M 241.07551,276.39652 H 135.86668 v -71.4862"
       id="path6008-9"
       inkscape:connector-curvature="0" />
    <path
       sodipodi:type="star"
       style="fill:#000000;fill-opacity:1;stroke:#000000;stroke-width:1.77370191;stroke-miterlimit:4;stroke-dasharray:none;stroke-dashoffset:0;stroke-opacity:1"
       id="path6010-49"
       sodipodi:sides="3"
       sodipodi:cx="17.042139"
       sodipodi:cy="198.17464"
       sodipodi:r1="3.0230489"
       sodipodi:r2="1.5115244"
       sodipodi:arg1="2.6179939"
       sodipodi:arg2="3.6651914"
       inkscape:flatsided="false"
       inkscape:rounded="0"
       inkscape:randomized="0"
       d="m 14.424102,199.68616 1.309018,-2.26729 1.309019,-2.26728 1.309019,2.26728 1.309018,2.26729 -2.618037,0 z"
       inkscape:transform-center-y="-0.33664909"
       transform="matrix(0.17224859,0,0,0.44544101,132.92626,117.46333)"
       inkscape:transform-center-x="5.170211e-006" />
    <path
       sodipodi:type="star"
       style="fill:#000000;fill-opacity:1;stroke:#000000;stroke-width:1.77370191;stroke-miterlimit:4;stroke-dasharray:none;stroke-dashoffset:0;stroke-opacity:1"
       id="path6010-4-7"
       sodipodi:sides="3"
       sodipodi:cx="17.042139"
       sodipodi:cy="198.17464"
       sodipodi:r1="3.0230489"
       sodipodi:r2="1.5115244"
       sodipodi:arg1="2.6179939"
       sodipodi:arg2="3.6651914"
       inkscape:flatsided="false"
       inkscape:rounded="0"
       inkscape:randomized="0"
       d="m 14.424102,199.68616 1.309018,-2.26729 1.309019,-2.26728 1.309019,2.26728 1.309018,2.26729 -2.618037,0 z"
       inkscape:transform-center-y="-1.0443059e-005"
       transform="matrix(0,0.17224859,-0.44544101,0,328.38467,273.45152)"
       inkscape:transform-center-x="-0.33664832" />
    <path
       style="fill:none;stroke:#000000;stroke-width:0.49130771;stroke-linecap:butt;stroke-linejoin:miter;stroke-miterlimit:4;stroke-dasharray:none;stroke-opacity:1"
       d="M 144.59514,276.2596 V 258.20299"
       id="path6572-6"
       inkscape:connector-curvature="0"
       sodipodi:nodetypes="cc" />
    <path
       style="fill:none;stroke:#000000;stroke-width:0.49130771;stroke-linecap:butt;stroke-linejoin:miter;stroke-miterlimit:4;stroke-dasharray:none;stroke-opacity:1"
       d="M 156.94552,276.34418 V 258.20299"
       id="path6580-4"
       inkscape:connector-curvature="0"
       sodipodi:nodetypes="cc" />
    <path
       style="fill:none;stroke:#000000;stroke-width:0.49130771;stroke-linecap:butt;stroke-linejoin:miter;stroke-miterlimit:4;stroke-dasharray:none;stroke-opacity:1"
       d="M 164.9817,276.34418 V 258.20299"
       id="path6584-2"
       inkscape:connector-curvature="0"
       sodipodi:nodetypes="cc" />
    <path
       style="fill:none;stroke:#000000;stroke-width:0.49130771;stroke-linecap:butt;stroke-linejoin:miter;stroke-miterlimit:4;stroke-dasharray:none;stroke-opacity:1"
       d="M 184.69153,276.17501 V 258.20299"
       id="path6592-8"
       inkscape:connector-curvature="0"
       sodipodi:nodetypes="cc" />
    <path
       style="fill:none;stroke:#000000;stroke-width:0.49130771;stroke-linecap:butt;stroke-linejoin:miter;stroke-miterlimit:4;stroke-dasharray:none;stroke-opacity:1"
       d="M 201.60984,276.17501 V 258.20299"
       id="path6600-3"
       inkscape:connector-curvature="0"
       sodipodi:nodetypes="cc" />
    <path
       style="fill:none;stroke:#000000;stroke-width:0.49130771;stroke-linecap:butt;stroke-linejoin:miter;stroke-miterlimit:4;stroke-dasharray:none;stroke-opacity:1"
       d="M 219.37407,276.17501 V 258.20299"
       id="path6608-5"
       inkscape:connector-curvature="0"
       sodipodi:nodetypes="cc" />
    <path
       style="fill:none;stroke:#000000;stroke-width:0.49130771;stroke-linecap:butt;stroke-linejoin:miter;stroke-miterlimit:4;stroke-dasharray:none;stroke-opacity:1"
       d="M 223.43446,276.17501 V 258.20299"
       id="path6610-1"
       inkscape:connector-curvature="0"
       sodipodi:nodetypes="cc" />
    <path
       style="fill:none;stroke:#000000;stroke-width:0.49130771;stroke-linecap:butt;stroke-linejoin:miter;stroke-miterlimit:4;stroke-dasharray:none;stroke-opacity:1"
       d="M 227.41026,276.34418 V 258.20299"
       id="path6612-4"
       inkscape:connector-curvature="0"
       sodipodi:nodetypes="cc" />
    <path
       style="fill:none;stroke:#000000;stroke-width:0.49130771;stroke-linecap:butt;stroke-linejoin:miter;stroke-miterlimit:4;stroke-dasharray:none;stroke-opacity:1"
       d="M 235.0235,276.2596 V 258.20299"
       id="path6616-5"
       inkscape:connector-curvature="0"
       sodipodi:nodetypes="cc" />
    <text
       xml:space="preserve"
       style="font-style:normal;font-weight:normal;font-size:5.54631805px;line-height:1.25;font-family:sans-serif;letter-spacing:0px;word-spacing:0px;fill:#000000;fill-opacity:1;stroke:none;stroke-width:0.25998363"
       x="11.382817"
       y="282.05774"
       id="text6712"><tspan
         sodipodi:role="line"
         id="tspan6710"
         x="11.382817"
         y="282.05774"
         style="font-size:5.54631805px;stroke-width:0.25998363">0</tspan></text>
    <text
       xml:space="preserve"
       style="font-style:normal;font-weight:normal;font-size:5.54631805px;line-height:1.25;font-family:sans-serif;letter-spacing:0px;word-spacing:0px;fill:#000000;fill-opacity:1;stroke:none;stroke-width:0.25998363"
       x="131.64709"
       y="281.85126"
       id="text6716"><tspan
         sodipodi:role="line"
         id="tspan6714"
         x="131.64709"
         y="281.85126"
         style="font-size:5.54631805px;stroke-width:0.25998363">0</tspan></text>
    <g
       aria-label="脉冲高度"
       style="font-style:normal;font-weight:normal;font-size:5.54631805px;line-height:1.25;font-family:sans-serif;letter-spacing:0px;word-spacing:0px;writing-mode:tb-rl;fill:#000000;fill-opacity:1;stroke:none;stroke-width:0.25998363"
       id="text6720">
      <path
         d="m 8.8791988,217.26333 h 1.4190772 v 4.35473 q 0,0.55788 -0.5253833,0.55788 -0.1895714,0 -0.4387225,-0.0108 -0.016249,-0.18416 -0.064996,-0.38998 0.2599837,0.0325 0.4062245,0.0325 0.2437347,0 0.2437347,-0.24915 v -1.21867 H 9.2583417 q 0.00271,1.28637 -0.4333061,1.94987 -0.1137429,-0.15707 -0.3087306,-0.33581 0.3628938,-0.56871 0.3628938,-1.68448 z m 4.5063832,1.04535 0.357478,0.25999 q -0.444139,0.5308 -1.039935,1.07243 0.452263,1.07514 1.229506,1.64115 -0.173322,0.16249 -0.335812,0.37914 -0.836822,-0.68246 -1.272837,-2.023 v 1.87676 q 0,0.67162 -0.612045,0.67162 -0.243734,0 -0.563297,-0.005 -0.01083,-0.23291 -0.09749,-0.46581 0.254567,0.0542 0.557881,0.0542 0.314147,0 0.314147,-0.31957 v -3.1848 h -1.289085 v -0.37914 h 1.689893 v 0.51184 q 0.09749,0.45768 0.232902,0.85849 0.465804,-0.46039 0.828698,-0.94786 z m -2.892318,1.01286 v -0.37915 h 1.067016 v 0.35206 q -0.178738,1.52741 -0.94244,2.42652 -0.124576,-0.19499 -0.292482,-0.37373 0.714955,-0.75287 0.839531,-2.0257 z m -1.2349223,0.67162 h 0.6607918 v -1.01285 H 9.2583417 Z m 0.6607918,-2.37235 H 9.2583417 v 1.01285 h 0.6607918 z m 1.5111545,-0.72037 q 0.7962,0.27623 1.48949,0.58496 l -0.211237,0.38456 q -0.752869,-0.37914 -1.467824,-0.62829 z"
         style="font-size:5.54631805px;stroke-width:0.25998363"
         id="path1068" />
      <path
         d="m 10.29286,223.55169 h 1.424494 v -1.0616 h 0.433306 v 1.0616 h 1.424494 v 2.68649 H 13.15268 v -0.25998 h -1.00202 v 1.83072 h -0.433306 v -1.83072 h -1.002021 v 0.25998 H 10.29286 Z m 2.85982,0.38997 h -1.00202 v 1.64657 h 1.00202 z m -2.437347,1.64657 h 1.002021 v -1.64657 H 10.715333 Z M 9.4154151,224.9816 q 0.2274857,0.15165 0.4387225,0.24373 -0.3899755,1.0616 -0.8232816,2.3886 L 8.5813009,227.37561 Q 9.014607,226.39526 9.4154151,224.9816 Z M 8.998358,222.72841 q 0.4820531,0.64454 0.8449469,1.197 l -0.4116408,0.27082 q -0.4062245,-0.68787 -0.8016163,-1.21867 z"
         style="font-size:5.54631805px;stroke-width:0.25998363"
         id="path1070" />
      <path
         d="M 9.4749947,229.23883 H 12.99019 v 1.32158 h -0.41164 v -0.17332 H 9.8866355 V 230.555 H 9.4749947 Z M 9.280007,233.31732 H 8.8683662 v -2.54025 h 4.7338688 v 1.84155 q 0,0.66621 -0.628294,0.66621 -0.352061,0 -0.790783,-0.0108 -0.0325,-0.18415 -0.08666,-0.42789 0.498302,0.0379 0.763702,0.0379 0.330396,0 0.330396,-0.3304 v -1.42991 H 9.280007 Z m 0.731204,-1.83613 h 2.448179 v 1.13201 h -2.058203 v 0.2329 H 10.011211 Z M 8.5488029,228.52387 H 11.02948 q -0.119159,-0.23019 -0.227485,-0.40622 l 0.406224,-0.16249 q 0.154365,0.26811 0.300606,0.56871 h 2.369643 v 0.35748 H 8.5488029 Z m 4.0297471,1.05077 H 9.8866355 v 0.47664 H 12.57855 Z m -0.509135,2.70275 V 231.817 h -1.668228 v 0.46039 z"
         style="font-size:5.54631805px;stroke-width:0.25998363"
         id="path1072" />
      <path
         d="m 9.7837253,237.13042 v -0.35748 h 3.3960367 v 0.35206 q -0.490178,0.52809 -1.145553,0.91807 0.782659,0.31415 1.833426,0.40893 l -0.211236,0.42247 q -1.207841,-0.1679 -2.058204,-0.59579 -0.904527,0.44143 -2.0744533,0.65537 -0.086661,-0.17332 -0.2220694,-0.38997 1.0724327,-0.16791 1.8821737,-0.50372 -0.579547,-0.37643 -0.953274,-0.90994 z m -0.1624898,-2.01488 h 0.8070325 v -0.45497 h 0.411641 v 0.45497 h 1.53282 v -0.46038 h 0.411641 v 0.46038 h 0.985771 v 0.35748 H 12.78437 v 1.03994 h -0.411641 v -0.18957 h -1.53282 v 0.19498 h -0.411641 v -1.04535 H 9.6212355 Z m 1.4407425,-1.41366 0.395392,-0.18957 q 0.184155,0.28978 0.371018,0.65538 h 1.995917 v 0.37914 H 9.5020764 v 1.63031 q 0,1.85239 -0.7203714,2.76233 -0.1354082,-0.17874 -0.3087306,-0.36831 0.5957959,-0.7312 0.6066285,-2.4211 v -1.98237 h 2.2477751 q -0.124575,-0.23832 -0.2654,-0.46581 z m -0.222069,2.27486 h 1.53282 v -0.50372 h -1.53282 z m 1.776555,1.15368 h -1.933629 q 0.38456,0.42247 0.926192,0.71495 0.587672,-0.30331 1.007437,-0.71495 z"
         style="font-size:5.54631805px;stroke-width:0.25998363"
         id="path1074" />
    </g>
    <g
       aria-label="脉冲高度"
       style="font-style:normal;font-weight:normal;font-size:5.54631805px;line-height:1.25;font-family:sans-serif;letter-spacing:0px;word-spacing:0px;writing-mode:tb-rl;fill:#000000;fill-opacity:1;stroke:none;stroke-width:0.25998363"
       id="text6720-0">
      <path
         d="m 129.32346,217.1694 h 1.41908 v 4.35473 q 0,0.55788 -0.52538,0.55788 -0.18958,0 -0.43873,-0.0108 -0.0162,-0.18415 -0.065,-0.38997 0.25998,0.0325 0.40622,0.0325 0.24374,0 0.24374,-0.24915 v -1.21868 h -0.6608 q 0.003,1.28638 -0.4333,1.94988 -0.11374,-0.15707 -0.30873,-0.33581 0.36289,-0.56872 0.36289,-1.68448 z m 4.50638,1.04535 0.35748,0.25998 q -0.44414,0.5308 -1.03993,1.07244 0.45226,1.07514 1.2295,1.64114 -0.17332,0.16249 -0.33581,0.37915 -0.83682,-0.68246 -1.27284,-2.023 v 1.87676 q 0,0.67162 -0.61204,0.67162 -0.24373,0 -0.5633,-0.005 -0.0108,-0.2329 -0.0975,-0.4658 0.25457,0.0542 0.55788,0.0542 0.31415,0 0.31415,-0.31956 v -3.1848 h -1.28909 v -0.37914 h 1.68989 v 0.51184 q 0.0975,0.45768 0.23291,0.85849 0.4658,-0.46039 0.82869,-0.94786 z m -2.89231,1.01285 v -0.37914 h 1.06701 v 0.35206 q -0.17874,1.52741 -0.94244,2.42652 -0.12457,-0.19499 -0.29248,-0.37373 0.71496,-0.75287 0.83953,-2.02571 z m -1.23493,0.67163 h 0.6608 v -1.01286 h -0.6608 z m 0.6608,-2.37235 h -0.6608 v 1.01285 h 0.6608 z m 1.51115,-0.72037 q 0.7962,0.27623 1.48949,0.58496 l -0.21124,0.38456 q -0.75287,-0.37915 -1.46782,-0.6283 z"
         style="font-size:5.54631805px;stroke-width:0.25998363"
         id="path1059" />
      <path
         d="m 130.73712,223.45775 h 1.4245 v -1.0616 h 0.4333 v 1.0616 h 1.4245 v 2.6865 h -0.42248 v -0.25998 h -1.00202 v 1.83072 h -0.4333 v -1.83072 h -1.00202 v 0.25998 h -0.42248 z m 2.85982,0.38998 h -1.00202 v 1.64656 h 1.00202 z m -2.43734,1.64656 h 1.00202 v -1.64656 h -1.00202 z m -1.29992,-0.60663 q 0.22748,0.15166 0.43872,0.24374 -0.38998,1.0616 -0.82328,2.3886 l -0.44956,-0.23832 q 0.43331,-0.98035 0.83412,-2.39402 z m -0.41706,-2.25319 q 0.48205,0.64455 0.84495,1.19701 l -0.41164,0.27082 q -0.40623,-0.68788 -0.80162,-1.21868 z"
         style="font-size:5.54631805px;stroke-width:0.25998363"
         id="path1061" />
      <path
         d="m 129.91926,229.1449 h 3.51519 v 1.32158 h -0.41164 v -0.17332 h -2.69191 v 0.1679 h -0.41164 z m -0.19499,4.07849 h -0.41164 v -2.54026 h 4.73387 v 1.84155 q 0,0.66621 -0.6283,0.66621 -0.35206,0 -0.79078,-0.0108 -0.0325,-0.18416 -0.0867,-0.42789 0.4983,0.0379 0.7637,0.0379 0.3304,0 0.3304,-0.33039 v -1.42991 h -3.91059 z m 0.7312,-1.83613 h 2.44818 v 1.13201 h -2.0582 v 0.2329 h -0.38998 z m -1.4624,-2.95732 h 2.48067 q -0.11916,-0.23019 -0.22748,-0.40622 l 0.40622,-0.16249 q 0.15437,0.26811 0.30061,0.56871 h 2.36964 v 0.35748 h -5.32966 z m 4.02974,1.05077 h -2.69191 v 0.47664 h 2.69191 z m -0.50913,2.70275 v -0.46039 h -1.66823 v 0.46039 z"
         style="font-size:5.54631805px;stroke-width:0.25998363"
         id="path1063" />
      <path
         d="m 130.22799,237.03648 v -0.35747 h 3.39603 v 0.35206 q -0.49017,0.52809 -1.14555,0.91807 0.78266,0.31414 1.83343,0.40893 l -0.21124,0.42247 q -1.20784,-0.1679 -2.0582,-0.59579 -0.90453,0.44143 -2.07446,0.65537 -0.0867,-0.17332 -0.22207,-0.38997 1.07244,-0.16791 1.88218,-0.50372 -0.57955,-0.37644 -0.95328,-0.90995 z m -0.16249,-2.01487 h 0.80703 v -0.45497 h 0.41164 v 0.45497 h 1.53282 v -0.46039 h 0.41164 v 0.46039 h 0.98577 v 0.35748 h -0.98577 v 1.03993 h -0.41164 v -0.18957 h -1.53282 v 0.19499 h -0.41164 v -1.04535 h -0.80703 z m 1.44074,-1.41366 0.39539,-0.18957 q 0.18416,0.28977 0.37102,0.65537 h 1.99592 v 0.37915 h -4.32223 v 1.63031 q 0,1.85238 -0.72037,2.76233 -0.13541,-0.17874 -0.30873,-0.36831 0.59579,-0.73121 0.60663,-2.4211 v -1.98238 h 2.24777 q -0.12457,-0.23831 -0.2654,-0.4658 z m -0.22207,2.27486 h 1.53282 v -0.50372 h -1.53282 z m 1.77656,1.15367 h -1.93363 q 0.38456,0.42248 0.92619,0.71496 0.58767,-0.30331 1.00744,-0.71496 z"
         style="font-size:5.54631805px;stroke-width:0.25998363"
         id="path1065" />
    </g>
    <path
       style="fill:none;stroke:#000000;stroke-width:0.49130771;stroke-linecap:butt;stroke-linejoin:miter;stroke-miterlimit:4;stroke-dasharray:1.47392313, 1.47392313;stroke-dashoffset:0;stroke-opacity:1"
       d="M 15.719495,258.20299 H 120.78222"
       id="path6740"
       inkscape:connector-curvature="0" />
    <text
       xml:space="preserve"
       style="font-style:normal;font-weight:normal;font-size:5.54631805px;line-height:1.25;font-family:sans-serif;letter-spacing:0px;word-spacing:0px;writing-mode:lr-tb;fill:#000000;fill-opacity:1;stroke:none;stroke-width:0.25998363"
       x="7.9370689"
       y="260.14856"
       id="text6744"><tspan
         sodipodi:role="line"
         id="tspan6742"
         x="7.9370689"
         y="260.14856"
         style="font-size:5.54631805px;writing-mode:lr-tb;stroke-width:0.25998363">V<tspan
   style="font-style:italic;stroke-width:0.25998363"
   id="tspan872">'</tspan></tspan></text>
    <text
       xml:space="preserve"
       style="font-style:normal;font-weight:normal;font-size:6.23960781px;line-height:1.25;font-family:sans-serif;letter-spacing:0px;word-spacing:0px;writing-mode:lr-tb;fill:#000000;fill-opacity:1;stroke:none;stroke-width:0.25998363"
       x="116.04499"
       y="281.1745"
       id="text6748"><tspan
         sodipodi:role="line"
         id="tspan6746"
         x="116.04499"
         y="281.1745"
         style="font-size:4.15973806px;writing-mode:lr-tb;stroke-width:0.25998363">t<tspan
   style="font-size:2.70382977px;baseline-shift:sub;stroke-width:0.25998363"
   id="tspan6752">w</tspan></tspan></text>
    <text
       xml:space="preserve"
       style="font-style:normal;font-weight:normal;font-size:6.23960781px;line-height:1.25;font-family:sans-serif;letter-spacing:0px;word-spacing:0px;writing-mode:lr-tb;fill:#000000;fill-opacity:1;stroke:none;stroke-width:0.25998363"
       x="236.16127"
       y="281.25928"
       id="text6748-2"><tspan
         sodipodi:role="line"
         id="tspan6746-6"
         x="236.16127"
         y="281.25928"
         style="font-size:4.15973806px;writing-mode:lr-tb;stroke-width:0.25998363">t<tspan
   style="font-size:2.70382977px;baseline-shift:sub;stroke-width:0.25998363"
   id="tspan6752-4">w</tspan></tspan></text>
    <g
       aria-label="(a) 放大器输出"
       style="font-style:normal;font-weight:normal;font-size:6.3499999px;line-height:1.25;font-family:sans-serif;letter-spacing:0px;word-spacing:0px;writing-mode:lr-tb;fill:#000000;fill-opacity:1;stroke:none;stroke-width:0.26458332"
       id="text1019">
      <path
         d="M 41.856134,288.65461 H 41.1461 q -0.548804,-0.62942 -0.852661,-1.37356 -0.303858,-0.74414 -0.303858,-1.67742 0,-0.93327 0.303858,-1.67742 0.303857,-0.74414 0.852661,-1.37355 h 0.710034 v 0.031 q -0.251147,0.22634 -0.480591,0.524 -0.226343,0.29456 -0.421679,0.68833 -0.186036,0.38137 -0.303858,0.84026 -0.114722,0.45889 -0.114722,0.96738 0,0.5302 0.111621,0.97049 0.114722,0.44028 0.306959,0.83715 0.186035,0.38138 0.42478,0.68833 0.238745,0.31006 0.47749,0.524 z"
         style="stroke-width:0.26458332"
         id="path1025" />
      <path
         d="m 45.583038,287.37717 h -0.579809 v -0.36897 q -0.07751,0.0527 -0.21084,0.14883 -0.130225,0.093 -0.254248,0.14882 -0.145728,0.0713 -0.334864,0.11783 -0.189135,0.0496 -0.443383,0.0496 -0.468189,0 -0.79375,-0.31005 -0.325562,-0.31006 -0.325562,-0.79065 0,-0.39378 0.167432,-0.63562 0.170532,-0.24495 0.483691,-0.38448 0.31626,-0.13952 0.759644,-0.18913 0.443383,-0.0496 0.95188,-0.0744 v -0.0899 q 0,-0.19844 -0.07131,-0.32866 -0.06821,-0.13023 -0.198437,-0.20464 -0.124024,-0.0713 -0.297657,-0.0961 -0.173632,-0.0248 -0.362768,-0.0248 -0.229444,0 -0.511597,0.062 -0.282153,0.0589 -0.58291,0.17363 h -0.03101 v -0.59221 q 0.170532,-0.0465 0.492993,-0.10232 0.322461,-0.0558 0.63562,-0.0558 0.36587,0 0.635621,0.062 0.272851,0.0589 0.471289,0.20464 0.195336,0.14262 0.297656,0.36897 0.102319,0.22634 0.102319,0.5612 z m -0.579809,-0.85266 v -0.96429 q -0.266651,0.0155 -0.629419,0.0465 -0.359668,0.031 -0.570508,0.0899 -0.251148,0.0713 -0.406177,0.22324 -0.155029,0.14883 -0.155029,0.41238 0,0.29766 0.179834,0.44958 0.179834,0.14883 0.548803,0.14883 0.306958,0 0.561207,-0.11782 0.254248,-0.12092 0.471289,-0.28835 z"
         style="stroke-width:0.26458332"
         id="path1027" />
      <path
         d="m 48.460382,285.60363 q 0,0.93328 -0.303858,1.67742 -0.303857,0.74414 -0.852661,1.37356 h -0.710034 v -0.031 q 0.238745,-0.21394 0.47749,-0.524 0.241846,-0.30695 0.424781,-0.68833 0.192236,-0.39687 0.303857,-0.83715 0.114722,-0.44029 0.114722,-0.97049 0,-0.50849 -0.114722,-0.96738 -0.114722,-0.45889 -0.303857,-0.84026 -0.195337,-0.39377 -0.424781,-0.68833 -0.226342,-0.29766 -0.47749,-0.524 v -0.031 h 0.710034 q 0.548804,0.62941 0.852661,1.37355 0.303858,0.74415 0.303858,1.67742 z"
         style="stroke-width:0.26458332"
         id="path1029" />
      <path
         d="m 55.185553,282.05966 0.496093,0.0868 q -0.133325,0.58601 -0.347265,1.13481 h 2.158008 v 0.45889 h -0.517798 q -0.120923,1.83555 -0.868164,2.91765 0.558105,0.69453 1.441772,1.0697 -0.204638,0.27285 -0.341064,0.4899 -0.834058,-0.44959 -1.423169,-1.15962 -0.607715,0.67282 -1.454175,1.21543 -0.142627,-0.17984 -0.353467,-0.39068 0.923975,-0.5612 1.509986,-1.23093 -0.542603,-0.88677 -0.691431,-2.23862 -0.182935,0.31626 -0.396875,0.61701 -0.130225,-0.18603 -0.310059,-0.39687 0.806153,-1.11001 1.097608,-2.57349 z m -3.770313,1.16582 h 2.988965 v 0.45889 h -1.754932 q -0.0062,0.5519 -0.0217,1.01079 h 1.423169 q -0.06201,1.52549 -0.117822,2.44326 -0.05581,0.81856 -0.706934,0.84956 -0.378271,0.006 -0.713134,-0.006 -0.03721,-0.22944 -0.10542,-0.5209 0.409277,0.0434 0.632519,0.0434 0.378272,0 0.409278,-0.47129 0.06201,-0.72554 0.09922,-1.87895 h -0.939477 q -0.0217,2.00918 -0.982886,3.06958 -0.142627,-0.21084 -0.328662,-0.43409 0.58291,-0.65732 0.706934,-1.40766 0.158129,-0.70383 0.155029,-2.69751 H 51.41524 Z m 5.066358,0.5147 h -1.317749 q 0.09922,1.51929 0.644921,2.48047 0.598414,-0.95808 0.672828,-2.48047 z m -4.024561,-1.46348 0.42168,-0.22324 q 0.26665,0.39688 0.508496,0.85576 l -0.434082,0.22945 q -0.248047,-0.47749 -0.496094,-0.86197 z"
         style="stroke-width:0.26458332"
         id="path1031" />
      <path
         d="m 57.697027,287.71513 q 2.557983,-1.13791 2.759521,-3.41685 h -2.6479 v -0.48369 h 2.669604 q 0.0155,-0.83405 0.0155,-1.68051 h 0.539502 q 0,0.83405 -0.0155,1.68051 h 2.75022 v 0.48369 h -2.759521 q 0.440283,2.47737 2.889746,3.26802 -0.31626,0.30386 -0.471289,0.5023 -2.018482,-0.81236 -2.638599,-2.89285 -0.483691,1.88206 -2.706812,3.01687 -0.124023,-0.16743 -0.384472,-0.47749 z"
         style="stroke-width:0.26458332"
         id="path1033" />
      <path
         d="m 64.257867,284.70756 h 2.505273 q 0.09612,-0.23254 0.124024,-0.5395 l 0.446484,0.062 q -0.03721,0.26045 -0.10852,0.47749 h 1.351855 q -0.248047,-0.17983 -0.523999,-0.35346 l 0.254248,-0.27906 q 0.409278,0.24185 0.73794,0.48369 l -0.139527,0.14883 h 1.156519 v 0.40928 h -2.393652 q 0.716235,0.70073 2.54248,0.66353 -0.148828,0.25424 -0.254248,0.47749 -0.164331,-0.0124 -0.31626,-0.0279 v 1.89446 h -0.434082 v -0.34107 h -1.327051 v 0.33487 h -0.434082 v -1.91617 h 1.975074 q -1.773536,-0.23874 -2.266529,-1.0852 h -0.111621 q -0.347265,0.73794 -2.251025,1.0852 h 1.984375 v 1.91617 h -0.434082 v -0.33487 h -1.308447 v 0.34107 h -0.434083 v -1.88516 q -0.164331,0.031 -0.341064,0.062 -0.09302,-0.18603 -0.241846,-0.44028 2.071192,-0.26665 2.48667,-0.74414 h -2.244824 z m 3.181201,-2.25722 h 2.195215 v 1.82934 h -0.434082 v -0.21704 H 67.87315 v 0.19224 h -0.434082 z m -2.846338,0 h 2.176612 v 1.80454 H 66.33526 v -0.19224 h -1.308448 v 0.25425 H 64.59273 Z m 4.607471,0.38447 H 67.87315 v 0.84336 h 1.327051 z m -2.864941,0 h -1.308448 v 0.84336 h 1.308448 z m 2.871142,3.75171 h -1.327051 v 0.81235 h 1.327051 z m -2.864941,0 h -1.308447 v 0.81235 h 1.308447 z"
         style="stroke-width:0.26458332"
         id="path1035" />
      <path
         d="m 70.930328,285.17885 h 0.558106 v -1.12861 h 0.409277 v 1.12861 h 0.595313 v 0.40928 h -0.595313 v 0.84956 q 0.328662,-0.0434 0.669727,-0.0992 -0.03101,0.23565 -0.04341,0.42788 -0.31626,0.0434 -0.626319,0.0868 v 1.38286 h -0.409277 v -1.32085 q -0.502295,0.0744 -1.010791,0.15503 l -0.06821,-0.45269 q 0.533301,-0.0558 1.079004,-0.12402 v -0.90537 h -0.992188 v -0.42788 q 0.235645,-0.66353 0.489893,-1.68672 h -0.545703 v -0.39688 h 0.644922 q 0.10542,-0.44648 0.217041,-0.95498 l 0.446484,0.0992 q -0.117822,0.45269 -0.223242,0.85576 h 1.122412 v 0.39688 h -1.227832 q -0.272852,1.00459 -0.489893,1.70532 z m 2.17041,3.04478 h -0.396875 v -3.65249 h 1.649512 v 3.05097 q 0,0.54571 -0.502295,0.54571 -0.192236,0 -0.483691,-0.006 -0.03101,-0.13642 -0.08682,-0.38447 0.248047,0.0186 0.452686,0.0186 0.223242,0 0.223242,-0.24805 v -0.71934 h -0.855762 z m 1.792139,-6.05855 -0.10542,0.13643 q 0.725537,1.0914 1.816944,1.56269 -0.21084,0.24805 -0.322461,0.42788 -0.42168,-0.23564 -0.781348,-0.5333 v 0.31006 h -2.151807 v -0.27285 q -0.365869,0.30386 -0.762744,0.55811 -0.186035,-0.24185 -0.328662,-0.37828 1.234033,-0.71933 1.990576,-1.81074 z m 0.923975,2.29444 h 0.421679 v 3.01997 q 0,0.68833 -0.58291,0.69453 -0.31626,0.006 -0.725537,-0.0124 -0.03101,-0.22944 -0.08682,-0.46508 0.390674,0.0496 0.669726,0.0496 0.303858,0 0.303858,-0.32246 z M 74.4836,282.62397 q -0.465088,0.58291 -1.00459,1.0542 h 1.922363 q -0.527099,-0.45889 -0.917773,-1.0542 z m 0.384472,2.1332 h 0.396875 v 2.25723 h -0.396875 z m -1.767334,1.72393 H 73.9565 v -0.59532 h -0.855762 z m 0.855762,-1.53169 h -0.855762 v 0.58911 H 73.9565 Z"
         style="stroke-width:0.26458332"
         id="path1037" />
      <path
         d="m 81.720366,285.22226 v -0.22944 h -1.630908 v 2.43086 h 1.816943 v -1.76734 h 0.520898 v 2.46187 h -0.520898 v -0.22325 H 77.24312 v -2.23862 h 0.527099 v 1.76734 h 1.779737 v -2.43086 h -2.139405 v -2.22622 h 0.5271 v 1.75493 h 1.612305 v -2.32544 h 0.539502 v 2.32544 h 1.630908 v -1.75493 h 0.527099 v 2.45566 z"
         style="stroke-width:0.26458332"
         id="path1039" />
    </g>
    <g
       aria-label="(b) 甄别器输出"
       style="font-style:normal;font-weight:normal;font-size:6.3499999px;line-height:1.25;font-family:sans-serif;letter-spacing:0px;word-spacing:0px;writing-mode:lr-tb;fill:#000000;fill-opacity:1;stroke:none;stroke-width:0.26458332"
       id="text1023">
      <path
         d="m 168.23354,288.65461 h -0.71003 q -0.5488,-0.62942 -0.85266,-1.37356 -0.30386,-0.74414 -0.30386,-1.67742 0,-0.93327 0.30386,-1.67742 0.30386,-0.74414 0.85266,-1.37355 h 0.71003 v 0.031 q -0.25114,0.22634 -0.48059,0.524 -0.22634,0.29456 -0.42168,0.68833 -0.18603,0.38137 -0.30385,0.84026 -0.11472,0.45889 -0.11472,0.96738 0,0.5302 0.11162,0.97049 0.11472,0.44028 0.30695,0.83715 0.18604,0.38138 0.42478,0.68833 0.23875,0.31006 0.47749,0.524 z"
         style="stroke-width:0.26458332"
         id="path1042" />
      <path
         d="m 172.31702,285.61913 q 0,0.43409 -0.12403,0.78135 -0.12092,0.34727 -0.32866,0.58291 -0.22014,0.24495 -0.48369,0.36897 -0.26355,0.12092 -0.57981,0.12092 -0.29456,0 -0.5147,-0.0713 -0.22014,-0.0682 -0.43408,-0.18603 l -0.0372,0.16123 h -0.5457 v -4.82451 h 0.58291 v 1.72392 q 0.24495,-0.20154 0.5209,-0.32866 0.27595,-0.13023 0.62012,-0.13023 0.61391,0 0.96738,0.47129 0.35657,0.47129 0.35657,1.33015 z m -0.60152,0.0155 q 0,-0.62012 -0.20464,-0.93948 -0.20463,-0.32246 -0.66042,-0.32246 -0.25425,0 -0.5147,0.11162 -0.26045,0.10852 -0.48369,0.28215 v 1.98438 q 0.24805,0.11162 0.42478,0.15503 0.17983,0.0434 0.40618,0.0434 0.48369,0 0.75654,-0.31626 0.27595,-0.31936 0.27595,-0.99839 z"
         style="stroke-width:0.26458332"
         id="path1044" />
      <path
         d="m 174.97422,285.60363 q 0,0.93328 -0.30386,1.67742 -0.30386,0.74414 -0.85266,1.37356 h -0.71003 v -0.031 q 0.23874,-0.21394 0.47749,-0.524 0.24184,-0.30695 0.42478,-0.68833 0.19223,-0.39687 0.30385,-0.83715 0.11473,-0.44029 0.11473,-0.97049 0,-0.50849 -0.11473,-0.96738 -0.11472,-0.45889 -0.30385,-0.84026 -0.19534,-0.39377 -0.42478,-0.68833 -0.22635,-0.29766 -0.47749,-0.524 v -0.031 h 0.71003 q 0.5488,0.62941 0.85266,1.37355 0.30386,0.74415 0.30386,1.67742 z"
         style="stroke-width:0.26458332"
         id="path1046" />
      <path
         d="m 178.0531,283.51074 h 0.84336 v -0.63872 h -0.94878 v -0.40308 h 3.03237 v 0.40308 h -0.91157 v 0.63872 h 0.84336 v 1.95337 h -0.34726 v -0.17984 h -2.16421 v 0.17984 h -0.34727 z m 4.86792,0.86816 h -1.0728 l -0.19844,3.08198 q 0.40308,-0.16123 0.97358,-0.40927 0.006,0.31625 0.0124,0.50229 -0.68213,0.25425 -1.20923,0.47749 -0.062,0.031 -0.18604,0.11782 l -0.23564,-0.44028 q 0.22324,-0.13643 0.23564,-0.32866 l 0.28526,-4.44624 h -0.40308 v -0.45269 h 2.71611 v 0.45269 h -1.89755 l -0.0682,0.99839 h 1.46968 l -0.0496,3.46645 q -0.0124,0.21704 0.14883,0.21704 0.12402,0 0.14263,-0.16743 0.0744,-0.64492 0.0992,-1.13481 0.17984,0.0868 0.39068,0.17363 -0.031,0.31626 -0.0992,0.98598 -0.0682,0.58912 -0.5271,0.58912 h -0.062 q -0.5333,0 -0.5023,-0.66353 z m -5.01055,3.12539 q 0.70074,-0.0434 1.35186,-0.0868 v -0.86816 h -1.17822 v -0.40308 h 1.17822 v -0.71313 h 0.40308 v 0.71313 h 1.17202 v 0.40308 h -1.17202 v 0.84336 q 0.67592,-0.0496 1.30224,-0.10542 -0.0186,0.22324 -0.031,0.43408 -1.77974,0.11782 -2.97037,0.26045 z m 1.32085,-2.62309 h 0.5023 v -0.96739 h -0.5023 z m 1.33326,-0.96739 h -0.4961 v 0.96739 h 0.4961 z m -2.16421,0.96739 h 0.49609 v -0.96739 h -0.49609 z m 3.7393,0.19223 q 0.42788,0.37827 0.75655,0.72554 l -0.29146,0.35347 q -0.33486,-0.39068 -0.70693,-0.76895 z m -2.90835,-1.56269 h 0.5023 v -0.63872 h -0.5023 z"
         style="stroke-width:0.26458332"
         id="path1048" />
      <path
         d="m 184.65735,282.45654 h 2.81533 v 2.17041 h -0.48369 v -0.25425 h -1.84795 v 0.25425 h -0.48369 z m -0.23565,2.82153 h 1.00769 q 0.0155,-0.31316 0.0217,-0.70073 h 0.48369 q -0.009,0.38757 -0.0279,0.70073 h 1.6216 q -0.0186,1.079 -0.0682,1.77354 -0.0434,1.00459 -0.92398,0.99838 -0.42168,0 -0.86196,-0.0372 -0.031,-0.29146 -0.093,-0.5147 0.4899,0.0806 0.87437,0.0806 0.49609,0.006 0.5209,-0.5767 0.0496,-0.5085 0.062,-1.27745 h -1.15962 q -0.0806,1.59991 -1.32705,2.50528 -0.13023,-0.19224 -0.34107,-0.41548 1.14102,-0.79995 1.19063,-2.0898 h -0.97979 z m 5.08497,-3.13779 h 0.51469 v 5.18418 q 0,0.79375 -0.77514,0.79375 -0.40308,0 -0.97979,-0.006 -0.0372,-0.25425 -0.093,-0.55811 0.63872,0.0496 0.90537,0.0496 0.42789,0 0.42789,-0.41548 z m -1.27745,0.62632 h 0.5023 v 3.95014 h -0.5023 z m -1.24023,0.13642 h -1.84795 v 1.02319 h 1.84795 z"
         style="stroke-width:0.26458332"
         id="path1050" />
      <path
         d="m 190.7717,284.70756 h 2.50528 q 0.0961,-0.23254 0.12402,-0.5395 l 0.44648,0.062 q -0.0372,0.26045 -0.10852,0.47749 h 1.35186 q -0.24805,-0.17983 -0.524,-0.35346 l 0.25425,-0.27906 q 0.40928,0.24185 0.73794,0.48369 l -0.13953,0.14883 h 1.15652 v 0.40928 h -2.39365 q 0.71623,0.70073 2.54248,0.66353 -0.14883,0.25424 -0.25425,0.47749 -0.16433,-0.0124 -0.31626,-0.0279 v 1.89446 h -0.43408 v -0.34107 h -1.32705 v 0.33487 h -0.43408 v -1.91617 h 1.97507 q -1.77354,-0.23874 -2.26653,-1.0852 h -0.11162 q -0.34727,0.73794 -2.25103,1.0852 h 1.98438 v 1.91617 h -0.43408 v -0.33487 h -1.30845 v 0.34107 h -0.43408 v -1.88516 q -0.16433,0.031 -0.34107,0.062 -0.093,-0.18603 -0.24184,-0.44028 2.07119,-0.26665 2.48667,-0.74414 h -2.24483 z m 3.1812,-2.25722 h 2.19522 v 1.82934 h -0.43408 v -0.21704 h -1.32705 v 0.19224 h -0.43409 z m -2.84633,0 h 2.17661 v 1.80454 h -0.43408 v -0.19224 h -1.30845 v 0.25425 h -0.43408 z m 4.60747,0.38447 h -1.32705 v 0.84336 h 1.32705 z m -2.86494,0 h -1.30845 v 0.84336 h 1.30845 z m 2.87114,3.75171 h -1.32705 v 0.81235 h 1.32705 z m -2.86494,0 h -1.30845 v 0.81235 h 1.30845 z"
         style="stroke-width:0.26458332"
         id="path1052" />
      <path
         d="m 197.44416,285.17885 h 0.55811 v -1.12861 h 0.40928 v 1.12861 h 0.59531 v 0.40928 h -0.59531 v 0.84956 q 0.32866,-0.0434 0.66972,-0.0992 -0.031,0.23565 -0.0434,0.42788 -0.31626,0.0434 -0.62632,0.0868 v 1.38286 h -0.40928 v -1.32085 q -0.5023,0.0744 -1.01079,0.15503 l -0.0682,-0.45269 q 0.5333,-0.0558 1.079,-0.12402 v -0.90537 h -0.99219 v -0.42788 q 0.23565,-0.66353 0.48989,-1.68672 h -0.5457 v -0.39688 h 0.64492 q 0.10542,-0.44648 0.21704,-0.95498 l 0.44649,0.0992 q -0.11782,0.45269 -0.22324,0.85576 h 1.12241 v 0.39688 h -1.22783 q -0.27285,1.00459 -0.4899,1.70532 z m 2.17041,3.04478 h -0.39687 v -3.65249 h 1.64951 v 3.05097 q 0,0.54571 -0.50229,0.54571 -0.19224,0 -0.4837,-0.006 -0.031,-0.13642 -0.0868,-0.38447 0.24805,0.0186 0.45268,0.0186 0.22325,0 0.22325,-0.24805 v -0.71934 h -0.85577 z m 1.79214,-6.05855 -0.10542,0.13643 q 0.72554,1.0914 1.81695,1.56269 -0.21084,0.24805 -0.32246,0.42788 -0.42168,-0.23564 -0.78135,-0.5333 v 0.31006 h -2.15181 v -0.27285 q -0.36587,0.30386 -0.76274,0.55811 -0.18604,-0.24185 -0.32866,-0.37828 1.23403,-0.71933 1.99057,-1.81074 z m 0.92398,2.29444 h 0.42168 v 3.01997 q 0,0.68833 -0.58291,0.69453 -0.31626,0.006 -0.72554,-0.0124 -0.031,-0.22944 -0.0868,-0.46508 0.39068,0.0496 0.66973,0.0496 0.30386,0 0.30386,-0.32246 z m -1.33325,-1.83555 q -0.46509,0.58291 -1.00459,1.0542 h 1.92236 q -0.5271,-0.45889 -0.91777,-1.0542 z m 0.38447,2.1332 h 0.39687 v 2.25723 h -0.39687 z m -1.76734,1.72393 h 0.85577 v -0.59532 h -0.85577 z m 0.85577,-1.53169 h -0.85577 v 0.58911 h 0.85577 z"
         style="stroke-width:0.26458332"
         id="path1054" />
      <path
         d="m 208.2342,285.22226 v -0.22944 h -1.63091 v 2.43086 h 1.81695 v -1.76734 h 0.5209 v 2.46187 h -0.5209 v -0.22325 h -4.66328 v -2.23862 h 0.5271 v 1.76734 h 1.77973 v -2.43086 h -2.1394 v -2.22622 h 0.5271 v 1.75493 h 1.6123 v -2.32544 h 0.5395 v 2.32544 h 1.63091 v -1.75493 h 0.5271 v 2.45566 z"
         style="stroke-width:0.26458332"
         id="path1056" />
    </g>
  </g>
</svg>
