<?xml version="1.0" encoding="UTF-8" standalone="no"?>
<!-- Created with Inkscape (http://www.inkscape.org/) -->

<svg
   xmlns:dc="http://purl.org/dc/elements/1.1/"
   xmlns:cc="http://creativecommons.org/ns#"
   xmlns:rdf="http://www.w3.org/1999/02/22-rdf-syntax-ns#"
   xmlns:svg="http://www.w3.org/2000/svg"
   xmlns="http://www.w3.org/2000/svg"
   xmlns:sodipodi="http://sodipodi.sourceforge.net/DTD/sodipodi-0.dtd"
   xmlns:inkscape="http://www.inkscape.org/namespaces/inkscape"
   width="100mm"
   height="200mm"
   viewBox="0 0 100 200"
   version="1.1"
   id="svg8"
   inkscape:version="0.92.3 (2405546, 2018-03-11)"
   sodipodi:docname="fig1.svg">
  <defs
     id="defs2" />
  <sodipodi:namedview
     id="base"
     pagecolor="#ffffff"
     bordercolor="#666666"
     borderopacity="1.0"
     inkscape:pageopacity="0.0"
     inkscape:pageshadow="2"
     inkscape:zoom="0.87418333"
     inkscape:cx="188.97638"
     inkscape:cy="426.68395"
     inkscape:document-units="mm"
     inkscape:current-layer="layer1"
     showgrid="false"
     units="mm"
     inkscape:window-width="1920"
     inkscape:window-height="1013"
     inkscape:window-x="-9"
     inkscape:window-y="-9"
     inkscape:window-maximized="1"
     showguides="true"
     inkscape:guide-bbox="true">
    <sodipodi:guide
       position="50,128.3293"
       orientation="1,0"
       id="guide817"
       inkscape:locked="false"
       inkscape:label=""
       inkscape:color="rgb(0,0,255)" />
    <sodipodi:guide
       position="48,154.96368"
       orientation="1,0"
       id="guide819"
       inkscape:locked="false"
       inkscape:label=""
       inkscape:color="rgb(0,0,255)" />
    <sodipodi:guide
       position="52,146.18644"
       orientation="1,0"
       id="guide821"
       inkscape:locked="false"
       inkscape:label=""
       inkscape:color="rgb(0,0,255)" />
    <sodipodi:guide
       position="141.94915,60"
       orientation="0,1"
       id="guide823"
       inkscape:locked="false"
       inkscape:label=""
       inkscape:color="rgb(0,0,255)" />
    <sodipodi:guide
       position="116.52542,58"
       orientation="0,1"
       id="guide825"
       inkscape:locked="false"
       inkscape:label=""
       inkscape:color="rgb(0,0,255)" />
    <sodipodi:guide
       position="55,130.14528"
       orientation="1,0"
       id="guide827"
       inkscape:locked="false"
       inkscape:label=""
       inkscape:color="rgb(0,0,255)" />
    <sodipodi:guide
       position="57,136.19855"
       orientation="1,0"
       id="guide829"
       inkscape:locked="false"
       inkscape:label=""
       inkscape:color="rgb(0,0,255)" />
    <sodipodi:guide
       position="45,130.7506"
       orientation="1,0"
       id="guide831"
       inkscape:locked="false"
       inkscape:label=""
       inkscape:color="rgb(0,0,255)" />
    <sodipodi:guide
       position="43,137.10654"
       orientation="1,0"
       id="guide833"
       inkscape:locked="false"
       inkscape:label=""
       inkscape:color="rgb(0,0,255)" />
    <sodipodi:guide
       position="84.140435,30"
       orientation="0,1"
       id="guide835"
       inkscape:locked="false"
       inkscape:label=""
       inkscape:color="rgb(0,0,255)" />
    <sodipodi:guide
       position="86.864406,32"
       orientation="0,1"
       id="guide837"
       inkscape:locked="false"
       inkscape:label=""
       inkscape:color="rgb(0,0,255)" />
    <sodipodi:guide
       position="112.28813,180"
       orientation="0,1"
       id="guide839"
       inkscape:locked="false"
       inkscape:label=""
       inkscape:color="rgb(0,0,255)" />
    <sodipodi:guide
       position="125,224.57627"
       orientation="0,1"
       id="guide841"
       inkscape:locked="false" />
    <sodipodi:guide
       position="27.542373,166.46489"
       orientation="1,0"
       id="guide843"
       inkscape:locked="false" />
    <sodipodi:guide
       position="72.033898,168.12954"
       orientation="1,0"
       id="guide845"
       inkscape:locked="false" />
    <sodipodi:guide
       position="61.743341,174"
       orientation="0,1"
       id="guide853"
       inkscape:locked="false"
       inkscape:label=""
       inkscape:color="rgb(0,0,255)" />
    <sodipodi:guide
       position="62.726997,177"
       orientation="0,1"
       id="guide855"
       inkscape:locked="false"
       inkscape:label=""
       inkscape:color="rgb(0,0,255)" />
    <sodipodi:guide
       position="57,181.0684"
       orientation="0,1"
       id="guide859"
       inkscape:locked="false" />
  </sodipodi:namedview>
  <metadata
     id="metadata5">
    <rdf:RDF>
      <cc:Work
         rdf:about="">
        <dc:format>image/svg+xml</dc:format>
        <dc:type
           rdf:resource="http://purl.org/dc/dcmitype/StillImage" />
        <dc:title></dc:title>
      </cc:Work>
    </rdf:RDF>
  </metadata>
  <g
     inkscape:label="Layer 1"
     inkscape:groupmode="layer"
     id="layer1"
     transform="translate(0,-97)">
    <circle
       style="opacity:1;vector-effect:none;fill:none;fill-opacity:1;stroke:#000000;stroke-width:0.5;stroke-linecap:butt;stroke-linejoin:miter;stroke-miterlimit:4;stroke-dasharray:none;stroke-dashoffset:0;stroke-opacity:1"
       id="path815"
       cx="49.858429"
       cy="122.18616"
       r="21.943098" />
    <path
       style="fill:none;stroke:#000000;stroke-width:0.5;stroke-linecap:butt;stroke-linejoin:miter;stroke-miterlimit:4;stroke-dasharray:none;stroke-opacity:1"
       d="m 51.999999,263.98767 h 5 v 30 H 43.000001 v -30 h 4.999998"
       id="path849"
       inkscape:connector-curvature="0" />
    <path
       style="fill:none;stroke:#000000;stroke-width:0.5;stroke-linecap:butt;stroke-linejoin:miter;stroke-miterlimit:4;stroke-dasharray:none;stroke-opacity:1"
       d="m 51.999999,143.98767 v 122 H 55 v 26 H 44.999999 v -26 h 3 v -122"
       id="path851"
       inkscape:connector-curvature="0" />
    <path
       style="fill:none;stroke:#000000;stroke-width:0.5;stroke-linecap:butt;stroke-linejoin:miter;stroke-miterlimit:4;stroke-dasharray:none;stroke-opacity:1"
       d="M 51.999999,149.98767 H 55 v -3 h 1.999999 v -4.0684"
       id="path857"
       inkscape:connector-curvature="0"
       sodipodi:nodetypes="ccccc" />
    <path
       style="fill:none;stroke:#000000;stroke-width:0.5;stroke-linecap:butt;stroke-linejoin:miter;stroke-miterlimit:4;stroke-dasharray:none;stroke-opacity:1"
       d="m 47.999999,149.98767 h -3 v -3 h -1.999998 v -4.0684"
       id="path861"
       inkscape:connector-curvature="0" />
    <path
       style="fill:none;stroke:#000000;stroke-width:0.5;stroke-linecap:butt;stroke-linejoin:miter;stroke-miterlimit:4;stroke-dasharray:none;stroke-opacity:1"
       d="m 35.108959,124.22978 25.243374,-12.43844 -8.352334,26.538"
       id="path863"
       inkscape:connector-curvature="0" />
    <circle
       style="opacity:1;vector-effect:none;fill:none;fill-opacity:1;stroke:#000000;stroke-width:0.5;stroke-linecap:butt;stroke-linejoin:miter;stroke-miterlimit:4;stroke-dasharray:none;stroke-dashoffset:0;stroke-opacity:1"
       id="path865"
       cx="49.919083"
       cy="122.65254"
       r="3.6917651" />
    <g
       aria-label="真空表"
       style="font-style:normal;font-weight:normal;font-size:7.05555534px;line-height:1.25;font-family:sans-serif;letter-spacing:0px;word-spacing:0px;writing-mode:lr-tb;direction:ltr;fill:#000000;fill-opacity:1;stroke:none;stroke-width:0.26458332"
       id="text869"
       transform="translate(0,26.987511)">
      <path
         d="m 73.900542,96.786863 h 0.992187 v -3.527778 h 2.025716 v -0.496094 h -2.914551 v -0.440972 h 2.914551 v -0.551215 h 0.537435 v 0.551215 h 3.045464 v 0.440972 H 77.45588 v 0.496094 h 2.16352 v 3.527778 h 1.012858 v 0.440972 h -6.731716 z m 1.515841,0 h 3.679362 V 96.31144 h -3.679362 z m 3.679362,-3.100586 h -3.679362 v 0.468533 h 3.679362 z m -3.679362,1.343587 h 3.679362 v -0.468533 h -3.679362 z m 0,0.875054 h 3.679362 v -0.468533 h -3.679362 z m 2.439128,1.819011 0.254937,-0.427192 q 1.047309,0.316949 2.418457,0.806152 l -0.248047,0.489204 q -1.240234,-0.482314 -2.425347,-0.868164 z m -1.515842,-0.447863 0.323839,0.413412 q -1.109321,0.509874 -2.404677,0.937066 -0.103352,-0.220486 -0.248046,-0.482314 1.061089,-0.310058 2.328884,-0.868164 z"
         style="stroke-width:0.26458332"
         id="path885"
         inkscape:connector-curvature="0" />
      <path
         d="m 81.149022,97.682588 h 2.86632 v -1.80523 h -2.15663 v -0.523655 h 4.905816 v 0.523655 h -2.16352 v 1.80523 h 2.873209 v 0.523654 h -6.325195 z m 0.04134,-5.02984 H 84.18415 Q 84.025677,92.353025 83.787965,91.97751 l 0.509874,-0.248047 q 0.282498,0.406521 0.489204,0.799262 l -0.251492,0.124023 h 2.904215 v 1.336697 h -0.564995 v -0.813042 h -5.119412 v 0.813042 h -0.564996 z m 2.218642,0.868164 0.406521,0.392741 q -1.336697,1.047309 -2.51492,1.708767 -0.213596,-0.282497 -0.413411,-0.447862 1.350477,-0.689019 2.52181,-1.653646 z m 1.770779,0.0069 q 1.44694,0.861274 2.514919,1.626086 l -0.39274,0.475423 q -1.040419,-0.813043 -2.452908,-1.701877 z"
         style="stroke-width:0.26458332"
         id="path887"
         inkscape:connector-curvature="0" />
      <path
         d="m 93.923436,95.560409 0.37896,0.475423 -1.539957,0.771701 q 0.809597,0.661459 2.029161,0.875055 -0.234267,0.303168 -0.385851,0.551215 -2.222086,-0.530545 -3.186713,-2.731961 -0.3514,0.447863 -0.802707,0.850939 v 1.474501 q 0.909505,-0.296279 1.688097,-0.620118 -0.0069,0.303169 0.0069,0.599447 -0.826823,0.282498 -1.708768,0.620117 -0.186035,0.07579 -0.36518,0.179145 l -0.323839,-0.502984 q 0.192926,-0.137804 0.192926,-0.385851 v -0.947401 q -0.713135,0.53399 -1.619195,0.968072 -0.151584,-0.241157 -0.3514,-0.475423 1.781114,-0.73036 2.797418,-1.956814 h -2.721626 v -0.475423 h 3.086806 v -0.7028 h -2.597602 v -0.475423 h 2.597602 v -0.675239 h -2.87321 v -0.475423 h 2.87321 v -0.771701 h 0.544325 v 0.771701 h 2.88699 v 0.475423 h -2.88699 v 0.675239 h 2.590711 v 0.475423 h -2.590711 v 0.7028 h 3.079915 v 0.475423 h -3.06269 q 0.289388,0.671793 0.744141,1.164442 0.692464,-0.34451 1.519287,-0.909505 z"
         style="stroke-width:0.26458332"
         id="path889"
         inkscape:connector-curvature="0" />
    </g>
    <g
       aria-label="毛细管"
       style="font-style:normal;font-weight:normal;font-size:7.05555534px;line-height:1.25;font-family:sans-serif;letter-spacing:0px;word-spacing:0px;writing-mode:lr-tb;direction:ltr;fill:#000000;fill-opacity:1;stroke:none;stroke-width:0.26458332"
       id="text873"
       transform="translate(0,26.987511)">
      <path
         d="m 62.084063,163.9165 2.804308,-0.2446 v -1.2678 l -2.432237,0.18259 -0.03445,-0.48231 2.466688,-0.18604 v -1.25746 q -1.260905,0.0827 -2.404677,0.14814 -0.02756,-0.24115 -0.110243,-0.50298 2.852539,-0.11713 5.636176,-0.39963 l 0.08957,0.51676 q -1.388374,0.11025 -2.659614,0.19982 v 1.25401 l 2.790527,-0.21359 0.02756,0.48231 -2.818088,0.21704 v 1.26091 l 3.141927,-0.27906 0.02756,0.48232 -3.169488,0.27905 v 1.21612 q 0,0.39963 0.35829,0.39963 h 1.681207 q 0.564995,0 0.682128,-0.46164 0.103353,-0.41342 0.144694,-0.90951 0.275608,0.1378 0.523655,0.22049 -0.07579,0.53054 -0.179145,0.92328 -0.179145,0.72347 -1.005968,0.72347 h -1.949924 q -0.806152,0 -0.806152,-0.85438 v -1.20923 l -2.769857,0.2446 z"
         style="stroke-width:0.26458332"
         id="path892"
         inkscape:connector-curvature="0" />
      <path
         d="m 71.564966,160.25781 h 3.934299 v 6.10471 H 74.96183 v -0.57189 h -2.859429 v 0.58567 h -0.537435 z m -1.708768,3.54845 q 0.7028,-0.10336 1.44005,-0.22738 -0.04134,0.26872 -0.06201,0.53054 -0.916396,0.13781 -2.011936,0.32384 l -0.110243,-0.52365 q 0.458197,-0.47198 1.057644,-1.45039 -0.55466,0.0345 -1.057644,0.0792 l -0.130914,-0.46853 q 0.633898,-0.8475 1.316027,-2.44602 l 0.523654,0.20671 q -0.744141,1.46072 -1.219564,2.19797 0.375516,-0.0103 0.840604,-0.0241 0.230821,-0.39963 0.482313,-0.87161 l 0.509874,0.25494 q -0.633897,1.08865 -1.577854,2.41846 z m 3.934299,1.46761 h 1.171333 v -2.0395 h -1.171333 z m -1.688096,0 h 1.164442 v -2.0395 h -1.164442 z m 2.859429,-4.4993 h -1.171333 v 1.96371 h 1.171333 z m -2.859429,1.96371 h 1.164442 v -1.96371 h -1.164442 z m -3.141927,2.70784 q 1.178222,-0.22048 2.356445,-0.4892 -0.02067,0.27561 -0.02067,0.52365 -0.999077,0.19293 -2.18419,0.4961 z"
         style="stroke-width:0.26458332"
         id="path894"
         inkscape:connector-curvature="0" />
      <path
         d="m 77.097789,162.63492 h 4.244357 v 1.66054 h -0.523654 v -0.17226 h -3.190158 v 0.52366 h 4.292588 v 1.79834 h -0.523654 v -0.26183 h -3.768934 v 0.26872 h -0.530545 z m -0.778592,-0.95773 h 2.945557 q -0.120578,-0.21704 -0.292833,-0.48232 l 0.475423,-0.2067 q 0.227376,0.33073 0.413411,0.68902 h 2.721626 v 1.06798 h -0.530545 v -0.62012 h -5.202094 v 0.62701 h -0.530545 z m 5.078071,3.38308 h -3.768934 v 0.67524 h 3.768934 z m -3.279731,-3.41753 q -0.261827,-0.34451 -0.571886,-0.7028 l 0.310059,-0.22049 h -0.592557 q -0.396186,0.50298 -0.881944,0.88883 -0.137804,-0.16536 -0.344509,-0.38585 0.806152,-0.627 1.316026,-1.57785 h 0.592556 q -0.172254,0.34107 -0.375515,0.64768 h 2.022271 v 0.42719 h -1.653646 q 0.310059,0.29972 0.585666,0.61323 z m 2.700955,1.40559 h -3.190158 v 0.66146 h 3.190158 z m 0.447862,-1.41248 q -0.227376,-0.32384 -0.558105,-0.7028 l 0.299723,-0.2136 h -0.582221 q -0.199816,0.32039 -0.420302,0.59256 -0.151584,-0.15159 -0.420301,-0.33762 0.482313,-0.53744 0.806152,-1.32981 h 0.592556 q -0.148139,0.34107 -0.313503,0.64768 h 2.201416 v 0.42719 H 81.10788 q 0.313504,0.30317 0.564996,0.60634 z"
         style="stroke-width:0.26458332"
         id="path896"
         inkscape:connector-curvature="0" />
    </g>
    <g
       aria-label="感温泡"
       style="font-style:normal;font-weight:normal;font-size:7.05555534px;line-height:1.25;font-family:sans-serif;letter-spacing:0px;word-spacing:0px;writing-mode:lr-tb;direction:ltr;fill:#000000;fill-opacity:1;stroke:none;stroke-width:0.26458332"
       id="text877"
       transform="translate(0,26.987511)">
      <path
         d="m 62.215197,254.12969 q 0.530544,-0.3514 0.943956,-0.78204 -0.403076,-0.85783 -0.489204,-2.22209 h -3.011013 v 0.90951 q 0,1.67431 -0.826823,2.70095 -0.144694,-0.28939 -0.35829,-0.52365 0.689019,-0.75792 0.689019,-2.18419 v -1.34359 h 3.482992 q -0.02067,-0.4203 -0.02412,-0.81304 h 0.509874 q 0,0.39274 0.01723,0.81304 h 2.00849 v 0.44097 h -1.984375 q 0.07235,1.06109 0.361735,1.78112 0.465088,-0.61323 0.733806,-1.36771 l 0.468533,0.23427 q -0.399632,0.90262 -0.961182,1.60542 0.124023,0.19981 0.272162,0.35829 0.165365,0.17225 0.310059,0.17225 0.130914,0 0.213596,-0.22049 0.103353,-0.28938 0.206706,-0.7717 0.179145,0.0965 0.509874,0.22049 -0.158475,0.61323 -0.275608,0.90261 -0.199815,0.48232 -0.585666,0.48232 -0.316949,0 -0.675239,-0.33073 -0.186035,-0.17226 -0.341064,-0.39619 -0.37207,0.38585 -0.802707,0.69936 -0.165365,-0.18604 -0.392741,-0.36518 z m -2.087728,-1.6192 h 2.122179 v 1.48828 h -1.653646 v 0.19293 h -0.468533 z m 0.08268,2.08773 h 0.523655 v 0.95085 q 0,0.42719 0.440972,0.42719 h 1.240234 q 0.530545,0 0.606337,-0.39963 0.05512,-0.22738 0.124023,-0.73725 0.234267,0.0965 0.544326,0.2067 -0.08957,0.46853 -0.179145,0.76481 -0.165365,0.64768 -0.985298,0.64768 h -1.46072 q -0.854384,0 -0.854384,-0.84749 z m -0.296278,-2.97656 H 62.4219 v 0.41341 h -2.508029 z m -0.661458,2.94211 0.489203,0.19292 q -0.3514,0.88884 -0.764811,1.52963 -0.172255,-0.10336 -0.461643,-0.26183 0.447863,-0.64768 0.737251,-1.46072 z m 2.5287,-0.97841 V 252.9239 H 60.596 v 0.66146 z m 2.1773,1.41249 0.385851,-0.27561 q 0.440972,0.50988 0.895724,1.15755 l -0.454752,0.32384 q -0.330729,-0.54432 -0.826823,-1.20578 z m -2.652723,-0.48231 0.37207,-0.2825 q 0.454752,0.48231 0.813042,0.92328 l -0.434082,0.33073 q -0.37207,-0.53743 -0.75103,-0.97151 z m 3.25217,-4.18235 -0.33762,0.33762 q -0.296278,-0.27561 -0.647678,-0.55811 l 0.303169,-0.31694 q 0.35829,0.26182 0.682129,0.53743 z"
         style="stroke-width:0.26458332"
         id="path899"
         inkscape:connector-curvature="0" />
      <path
         d="m 66.845405,255.81778 h 0.675239 v -2.2462 h 4.306369 v 2.2462 h 0.509874 v 0.4961 h -5.491482 z m 0.937066,-5.63617 h 3.775824 v 3.00412 h -0.509874 v -0.30317 h -2.756076 v 0.31006 h -0.509874 z m 0.509874,2.23242 h 2.756076 v -0.65457 h -2.756076 z m 2.756076,-1.76389 h -2.756076 v 0.65457 h 2.756076 z m -4.706,3.05235 q 0.282498,0.11025 0.564996,0.20671 -0.289388,1.19889 -0.633898,2.65961 l -0.606337,-0.17914 q 0.385851,-1.22646 0.675239,-2.68718 z m 4.960937,0.3514 h -0.75103 v 1.76389 h 0.75103 z m -2.005045,1.76389 h 0.74414 v -1.76389 h -0.74414 z m -1.254015,0 h 0.744141 v -1.76389 h -0.744141 z m -2.225532,-4.11344 q 0.516765,0.36518 1.212674,0.93706 -0.254937,0.28939 -0.399631,0.44787 -0.778592,-0.69591 -1.157552,-0.9853 z m 0.261828,-1.78456 q 0.523654,0.41341 1.185113,1.00597 -0.234267,0.24115 -0.406522,0.42719 -0.74414,-0.72347 -1.129991,-1.0542 z"
         style="stroke-width:0.26458332"
         id="path901"
         inkscape:connector-curvature="0" />
      <path
         d="m 74.045654,252.30379 q 0.806153,-1.10933 1.274686,-2.48047 l 0.544325,0.17225 q -0.130914,0.31695 -0.258383,0.60634 h 3.200494 q -0.05512,2.08084 -0.08957,3.21083 -0.03445,1.35047 -1.129992,1.35047 -0.454752,0 -0.978407,-0.007 -0.03445,-0.19292 -0.110243,-0.5581 0.633898,0.0413 1.026639,0.0413 0.640787,0 0.654568,-0.79926 0.03445,-1.00597 0.07579,-2.72852 h -2.88699 q -0.234267,0.47887 -0.471978,0.87506 h 2.552815 v 2.12907 h -2.17041 v 1.07487 q 0,0.68212 0.571886,0.68212 h 2.177301 q 0.606336,0 0.682128,-0.4892 0.07579,-0.42719 0.137804,-1.03353 0.310059,0.12403 0.551215,0.2136 -0.08268,0.64079 -0.192925,1.06109 -0.186035,0.75792 -1.067979,0.75792 h -2.315105 q -1.081759,0 -1.081759,-1.15755 v -2.98346 q -0.124024,0.18948 -0.248047,0.35829 -0.192926,-0.1378 -0.447863,-0.29627 z m 1.233344,0.18603 v 1.1231 h 1.646756 v -1.1231 z m -2.5287,3.87918 q 0.413412,-1.24024 0.70969,-2.66651 0.303168,0.13092 0.558105,0.2136 -0.248046,1.03353 -0.661458,2.63894 z m -0.227376,-4.25125 0.3514,-0.39274 q 0.640788,0.43408 1.192003,0.88883 -0.254937,0.2825 -0.406521,0.44098 -0.627008,-0.55811 -1.136882,-0.93707 z m 0.268718,-1.79834 0.358289,-0.36518 q 0.454753,0.34451 1.185113,0.97152 -0.234266,0.22737 -0.413411,0.40652 -0.70969,-0.66835 -1.129991,-1.01286 z"
         style="stroke-width:0.26458332"
         id="path903"
         inkscape:connector-curvature="0" />
    </g>
    <g
       aria-label="He"
       style="font-style:normal;font-weight:normal;font-size:7.05555534px;line-height:1.25;font-family:sans-serif;letter-spacing:0px;word-spacing:0px;writing-mode:lr-tb;direction:ltr;fill:#000000;fill-opacity:1;stroke:none;stroke-width:0.26458332"
       id="text881"
       transform="translate(0,26.987511)">
      <path
         d="m 49.747668,258.22125 h -0.682129 v -2.51147 h -2.559706 v 2.51147 h -0.682128 v -5.12974 h 0.682128 v 2.01193 h 2.559706 v -2.01193 h 0.682129 z"
         style="stroke-width:0.26458332"
         id="path906"
         inkscape:connector-curvature="0" />
      <path
         d="m 54.298639,256.36435 h -2.835313 q 0,0.35484 0.106798,0.62011 0.106798,0.26183 0.292833,0.43064 0.179145,0.16536 0.423747,0.24805 0.248047,0.0827 0.544325,0.0827 0.392741,0 0.788927,-0.15503 0.399631,-0.15847 0.56844,-0.31006 h 0.03445 v 0.70625 q -0.327284,0.1378 -0.668348,0.23082 -0.341065,0.093 -0.71658,0.093 -0.957737,0 -1.495171,-0.51676 -0.537435,-0.52021 -0.537435,-1.4745 0,-0.94396 0.513319,-1.49862 0.516764,-0.55466 1.357368,-0.55466 0.778591,0 1.198893,0.45476 0.423746,0.45475 0.423746,1.29191 z m -0.630452,-0.4961 q -0.0034,-0.50987 -0.258382,-0.78892 -0.251492,-0.27906 -0.768256,-0.27906 -0.52021,0 -0.830268,0.30662 -0.306614,0.30661 -0.347955,0.76136 z"
         style="stroke-width:0.26458332"
         id="path908"
         inkscape:connector-curvature="0" />
    </g>
    <path
       style="fill:none;stroke:#000000;stroke-width:0.5;stroke-linecap:butt;stroke-linejoin:miter;stroke-miterlimit:4;stroke-dasharray:none;stroke-opacity:1"
       d="m 60.673358,189.90704 -5.109618,3.69177 0.615294,7.86506 -4.179035,4.46757"
       id="path883"
       inkscape:connector-curvature="0" />
  </g>
</svg>
